<svg id="a033290a-4330-4804-886c-51f20ee645db" data-name="Layer 1" xmlns="http://www.w3.org/2000/svg" xmlns:xlink="http://www.w3.org/1999/xlink" viewBox="0 0 1080 1080"><defs><style>.af6c4a13-f782-43b7-8a0e-46f4b31b79ec{fill:none;}.b2cc21b1-10a5-4eec-826d-10ef64085730{clip-path:url(#a252f69b-e217-435f-9f85-f74e2942bd54);}.bd98bbf0-8462-42f5-ac53-08b63c182d88{fill:#a3c0f2;stroke:#231f20;stroke-miterlimit:10;}.afb22783-7754-41e4-82d5-a64e33fd5870{fill:#fff9ff;}.e8f2c0df-226b-46df-83e2-709408b25479{fill:#4ff9ff;}.aeee2572-695a-4b30-bcaa-649bf7629af5{fill:url(#f89327f2-1acf-4620-b6ad-1b7944a5ce3f);}</style><clipPath id="a252f69b-e217-435f-9f85-f74e2942bd54"><rect class="af6c4a13-f782-43b7-8a0e-46f4b31b79ec" x="1315.2" y="1304.63" width="2204.52" height="1100"/></clipPath><linearGradient id="f89327f2-1acf-4620-b6ad-1b7944a5ce3f" x1="169.89" y1="496.09" x2="271.02" y2="587.15" gradientUnits="userSpaceOnUse"><stop offset="0" stop-color="#4ff9ff"/><stop offset="1" stop-color="#654fff"/></linearGradient></defs><title>Forthink</title><rect class="bd98bbf0-8462-42f5-ac53-08b63c182d88" x="-14.5" y="-9.75" width="1106.25" height="1100"/><path class="afb22783-7754-41e4-82d5-a64e33fd5870" d="M711,488.47l-14.19,14.19a4.33,4.33,0,0,1-6.11,0l-.42-.43a4.32,4.32,0,0,1,0-6.11l7.65-7.65a4.32,4.32,0,0,0,0-6.11l-7.65-7.65a4.32,4.32,0,0,1,0-6.11l.42-.43a4.33,4.33,0,0,1,6.11,0L711,482.36A4.32,4.32,0,0,1,711,488.47Z"/><path class="e8f2c0df-226b-46df-83e2-709408b25479" d="M386.71,543.73a85.87,85.87,0,0,0-8.58-.35h-21v40.13h-19V491q1.88.14,4.29.21l5.12.13c3.51.1,7.15.14,10.93.14q17,0,32.52-.55a136.76,136.76,0,0,0-.76,16.26,7.48,7.48,0,0,0,.14,1.66l-.14.21a39.07,39.07,0,0,0-10.24-1h-22.9v19h20.2c5.07,0,8.12-.14,9.13-.42Z"/><path class="e8f2c0df-226b-46df-83e2-709408b25479" d="M401.93,547.74a41.29,41.29,0,0,1,2.6-14.56A36.14,36.14,0,0,1,412,521q10.59-11.22,27.47-11.21t26.71,10.58q9.48,10.11,9.48,26.23t-9.76,26.7q-10.31,11.2-27.33,11.21-17.56,0-27.53-11Q401.92,563.52,401.93,547.74Zm16.82-.41a25,25,0,0,0,1.45,8.44,20,20,0,0,0,4.15,7q5.75,6.29,15.08,6.29,8.65,0,13.63-6.16,4.85-5.94,4.85-15.49t-5-15.64q-5.32-6.36-14.59-6.36-9.42,0-14.74,6.78A23.92,23.92,0,0,0,418.75,547.33Z"/><path class="e8f2c0df-226b-46df-83e2-709408b25479" d="M506.34,575.76a67.42,67.42,0,0,0,.27,7.75H489.39v-72.3h16.95v5.33q5.88-6.72,12.35-6.71a26.63,26.63,0,0,1,10.2,1.59L527.65,530l-.28.21Q525,526,517.34,526a10.82,10.82,0,0,0-5.92,2,17.36,17.36,0,0,0-5.08,5.22Z"/><path class="afb22783-7754-41e4-82d5-a64e33fd5870" d="M572.27,583.93q-3.32-.42-17.09-.42H553V507h-13.7q-6.09,0-7.19.62a14.77,14.77,0,0,0-1.73,1.11l-.21-.07V490.94l.21-.21q2.28.76,12.31.76H586c4.06,0,6.46-.2,7.2-.62a13.2,13.2,0,0,0,1.73-1.11l.2.07v17.71l-.2.21q-2.28-.76-12.32-.76H572.27Z"/><path class="afb22783-7754-41e4-82d5-a64e33fd5870" d="M627.07,575.76a64.28,64.28,0,0,0,.28,7.75H610.12V484.57h17v32q8.92-6.78,18.4-6.78,11.63,0,18.69,7.68t6.91,20.34v27.54q0,11.68.35,14a6.85,6.85,0,0,0,.93,3.05c.4.46.73.87,1,1.24l-.14.28q-5.61-.5-8.17-.49h-4.91q-2.28,0-6,.21V543.66q0-9.54-4.22-14.11a11.15,11.15,0,0,0-8.65-3.46q-8.09,0-14.18,9.34Z"/><path class="afb22783-7754-41e4-82d5-a64e33fd5870" d="M706.84,575.76a66.57,66.57,0,0,0,.28,7.75H689.55v-72.3h17.29Z"/><path class="afb22783-7754-41e4-82d5-a64e33fd5870" d="M744.55,574.66a49.78,49.78,0,0,0,.56,8.85H727.74v-72.3h16.81v6.16q9.13-7.54,19.51-7.54,11.36,0,18.13,7.71T789,537.85v27.54q0,11.68.35,14a6.85,6.85,0,0,0,.93,3.05c.39.46.73.87,1,1.24l-.13.28q-5.61-.5-8.17-.49h-4.84q-2.22,0-6,.21V546q0-20.26-12.32-20.27-9.14,0-15.29,9.41Z"/><path class="afb22783-7754-41e4-82d5-a64e33fd5870" d="M827.16,574.38a63.62,63.62,0,0,0,.49,9.13H810.21V484.57h16.95v60.61l31.62-34h20.55l-27.26,28.71,15.57,21.25q5,8,7.61,11.76l4.56,6.43q2.09,2.7,3.46,4.15H872.34a45.8,45.8,0,0,0-10.45,1L840.31,553l-13.15,14Z"/><path class="aeee2572-695a-4b30-bcaa-649bf7629af5" d="M299.47,555.5l-65.31,65.3a21.93,21.93,0,0,1-31,0h0a21.92,21.92,0,0,1,0-31l34.28-34.3a21.92,21.92,0,0,0,0-31l-34.28-34.29a21.93,21.93,0,0,1,0-31h0a21.92,21.92,0,0,1,31,0l65.31,65.29A21.93,21.93,0,0,1,299.47,555.5Z"/></svg>