<svg xmlns="http://www.w3.org/2000/svg" xmlns:xlink="http://www.w3.org/1999/xlink" viewBox="0 0 1080 1080"><defs><style>.a{fill:#a3c0f2;stroke:#231f20;stroke-miterlimit:10;}.b{fill:#fff9ff;}.c{fill:#4ff9ff;}.d{fill:url(#a);}</style><linearGradient id="a" x1="23.24" y1="501.3" x2="164.27" y2="628.28" gradientUnits="userSpaceOnUse"><stop offset="0" stop-color="#4ff9ff"/><stop offset="1" stop-color="#654fff"/></linearGradient></defs><title>forthink logo</title><rect class="a" x="-14.5" y="-9.75" width="1106.25" height="1100"/><path class="b" d="M777.81,490.67,758,510.46a6,6,0,0,1-8.52,0l-.6-.6a6,6,0,0,1,0-8.52l10.67-10.67a6,6,0,0,0,0-8.52L748.9,471.48a6,6,0,0,1,0-8.52l.6-.59a6,6,0,0,1,8.52,0l19.79,19.78A6,6,0,0,1,777.81,490.67Z"/><path class="c" d="M325.61,567.73q-4.64-.48-12-.48H284.41v56H258v-129q2.61.19,6,.29l7.14.19q7.34.19,15.25.2,23.73,0,45.35-.78a191,191,0,0,0-1.06,22.68,10.15,10.15,0,0,0,.19,2.31l-.19.29q-5.11-1.44-14.28-1.44H284.41v26.53h28.17q10.62,0,12.74-.58Z"/><path class="c" d="M346.84,573.33A57.63,57.63,0,0,1,350.45,553a50.3,50.3,0,0,1,10.38-16.93q14.76-15.63,38.3-15.64t37.25,14.77q13.22,14.09,13.22,36.57T436,609q-14.37,15.63-38.11,15.63-24.51,0-38.4-15.34Q346.84,595.33,346.84,573.33Zm23.44-.58a34.85,34.85,0,0,0,2,11.77,27.77,27.77,0,0,0,5.79,9.75q8,8.78,21,8.78,12.06,0,19-8.59,6.75-8.3,6.76-21.61,0-13.51-6.95-21.81-7.43-8.88-20.36-8.88-13.12,0-20.55,9.46Q370.28,560.3,370.28,572.75Z"/><path class="c" d="M492.44,612.41a94.18,94.18,0,0,0,.38,10.81h-24V522.38h23.64v7.43q8.21-9.36,17.22-9.36t14.23,2.22l-1.73,26-.39.29q-3.37-6-14-6a15,15,0,0,0-8.25,2.75,24,24,0,0,0-7.09,7.28Z"/><path class="b" d="M584.39,623.79q-4.64-.57-23.83-.57h-3.09V516.5h-19.1q-8.49,0-10,.87a20.28,20.28,0,0,0-2.41,1.54l-.29-.1v-24.7l.29-.29q3.18,1.06,17.17,1.07h60.5q8.49,0,10-.87a20.16,20.16,0,0,0,2.41-1.55l.29.1v24.7l-.29.29q-3.18-1.06-17.18-1.06H584.39Z"/><path class="b" d="M660.81,612.41a91,91,0,0,0,.39,10.81h-24v-138h23.64v44.67q12.45-9.45,25.67-9.46,16.2,0,26,10.72,9.65,10.71,9.65,28.36v38.41q0,16.3.48,19.58c.32,2.19.75,3.6,1.3,4.25s1,1.22,1.4,1.73l-.19.39q-7.81-.67-11.39-.67h-6.85q-3.18,0-8.39.28V567.64q0-13.32-5.89-19.69-4.44-4.82-12.06-4.82-11.3,0-19.78,13Z"/><path class="b" d="M772.06,612.41a91,91,0,0,0,.39,10.81H747.94V522.38h24.12Z"/><path class="b" d="M824.65,610.86a69.57,69.57,0,0,0,.77,12.36H801.2V522.38h23.45V531q12.74-10.51,27.21-10.52,15.82,0,25.28,10.76t9.45,28.32v38.41q0,16.3.49,19.58c.32,2.19.75,3.6,1.3,4.25s1,1.22,1.4,1.73l-.2.39q-7.82-.67-11.38-.67h-6.76c-2.05,0-4.82.09-8.29.28V570.92q0-28.27-17.18-28.27-12.74,0-21.32,13.12Z"/><path class="b" d="M939.85,610.48a90.58,90.58,0,0,0,.68,12.74H916.21v-138h23.64v84.52L984,522.38h28.66l-38,40,21.71,29.62q7.05,11.19,10.61,16.4l6.37,9q2.9,3.75,4.83,5.79h-15.25a64,64,0,0,0-14.57,1.44l-30.1-44-18.34,19.49Z"/><path class="d" d="M203.94,584.15l-91.08,91.07a30.58,30.58,0,0,1-43.24,0h0a30.58,30.58,0,0,1,0-43.24l47.81-47.83a30.58,30.58,0,0,0,0-43.24L69.62,493.1a30.58,30.58,0,0,1,0-43.24h0a30.59,30.59,0,0,1,43.25,0l91.07,91.06A30.56,30.56,0,0,1,203.94,584.15Z"/></svg>