<svg id="b66ec89d-0d3a-45d9-a300-74736ff3f3d1" data-name="Layer 1" xmlns="http://www.w3.org/2000/svg" viewBox="0 0 1080 1080"><defs><style>.e92fbb0b-1334-4f0b-81b2-d389d0ecf199{fill:#f18b93;}.aeaa13a2-bee4-41fb-a937-c7f65c72f24c{fill:#fff;}</style></defs><title>libre</title><rect class="e92fbb0b-1334-4f0b-81b2-d389d0ecf199" x="-76" y="-21" width="1209" height="1127"/><path class="aeaa13a2-bee4-41fb-a937-c7f65c72f24c" d="M444.19,625.68c-2.51,4.46-24.82,7.25-29.57,8.64a280.84,280.84,0,0,0-29.56,9.77c-15.63,6.13-20.37,12.27-34,1.11l6.7-2.51c-10.88-11.72,0-46.58,3.62-63.32,3.63-14.5,4.75-28.73,7-43.51,1.95-13.67,4.74-26.78,4.74-40.45,0-8.65-.84-36.54,4.46-43.52,7.81-10.6,16.74-3.06,20.65,5.3,5.3,12.28-1.4,27.06-1.12,40.45a375.74,375.74,0,0,1-4.18,46.58c-.56,6.7-2,27.34-7.81,32.08,1.67,2,4.46,4.47,4.74,7.53.56,3.63-3.35,4.47-3.63,5.86-.28,8.09-7.25,41.56,1.67,41.84C394.26,631.53,452,611.45,444.19,625.68Z"/><path class="aeaa13a2-bee4-41fb-a937-c7f65c72f24c" d="M487.42,594.71c-5.3,12.83-19.8,37.66-22.31,37.94-2.51,0-9.77-.56-12-1.68-5.58-1.39-7.53-7.81-8.09-13.66-.55-5-.28-13.67-.83-18.69,0-.84,1.11-10,0-13.11-.56-10.88-.56-14.79,3.34-28.45,2-2.52,2-6.7,6.14-7.26,5.3-.55,10.6-2.23,16.18,2.23-5,8.93-4.19,19-3.91,29,.56,9.77-2.51,30.13-1.11,39.89C472.08,611.45,480.45,598.06,487.42,594.71Zm-34-71.69c-1.67-15.62,3.63-30.12,9.49-44.35a9.22,9.22,0,0,1,6.13-4.46c8.65-1.4,14.79,10,12.28,19.25-3.91,8.36-7.26,17.29-10.6,25.94-1.68,4.18-2.24,8.64-3.35,13.11C459.53,534.74,454.23,531.11,453.39,523Z"/><path class="aeaa13a2-bee4-41fb-a937-c7f65c72f24c" d="M548.51,605.59c7.81-5,19-10.32,24.26-11.44L558,608.38c-2.79,3.91-12.27,12.55-15.34,16.46a43.86,43.86,0,0,1-8.93,8.65c-5.58,3.9-11.16,8.08-15.62,5.85-3.9-2.23-1.67-5.85-.84-8.92,1.68-4.74,9.49-18.41,10.88-23.15l11.16-38.78c2.79-10,5.58-14.22,7.25-25.1-1.67,1.67-3.9,2.79-5.3,4.74-9.48,12.27-16.73,19.8-21.75,34.31-4.47,12.55-8.09,25.38-12.56,38.21-1.11,3.35-.55,6.14,1.12,9.49,2.23,5,0,12.27-4.19,15.34-3.34,2.23-9.76.28-11.43-3.35-.56-1.39-.84-3.07-1.68-3.9-8.36-7-9.2-16.74-10-26.5-.55-6.42-.28-39.05.28-43.24,1.95-19.52,4.19-39,6.7-58.3,3.34-24.27,6.69-48.53,13.66-72.24a32.23,32.23,0,0,1,1.68-5.58c1.11-3.07,3.62-4.19,6.69-3.63,3.35.84,6.42,1.67,9.77,2.23,3.9.56,7.53,1.4,11.43,1.4,9.49-.28,17.3,6.13,16.74,15.62-.56,8.92-2.79,17.57-5,26.22-5.58,22.31-14.51,43.79-25.11,64.43-1.67,3.63-5,6.7-6.13,10.61-2.51,8.92-4.19,17.85-6.14,26.77a63.15,63.15,0,0,0-1.4,9.77c0,1.39.84,2.51,1.68,5.58L510,583c6.14-14,13.67-27.06,23.71-38.5a45.66,45.66,0,0,1,8.37-8.09c3.35-2.79,7.53-5.3,12.27-3.07,4.47,2.52,8.37,8.93,7.26,14.23-2.24,12-5,24-7.81,35.71C551.85,590.53,549.34,597.5,548.51,605.59Zm-37.66-89,1.95.84a99.27,99.27,0,0,0,5-9.49c4.47-11.44,9.21-22.59,13.11-34.31,3.07-9.48,4.74-19.52,6.7-29.29.56-3.35.56-7-3.07-8.65-3.91-1.67-7.53.28-9.76,2.79-1.68,2-2,5-2.24,7.81l-6.41,40.17a8.74,8.74,0,0,1-.84,2.51C513.92,498.2,512.52,507.4,510.85,516.61Z"/><path class="aeaa13a2-bee4-41fb-a937-c7f65c72f24c" d="M652.27,528.6c3.35,3.91,3.35,9.21,1.12,14.23-3.35,8.65-6.7,17.57-9.77,26.5-1.11,2.79-5.3,9.76-6.41,12.83V588a16.23,16.23,0,0,1-6.42-.84c-9.48-3.07-11.71-6.69-8.65-16.46,2.79-8.92,6.14-17.85,9.21-26.77l2.51-8.09c-4.18,1.11-5.86,3.62-7.25,6.13-10.32,15.9-18.69,32.92-24,51.33-2.79,10.32-6.7,20.08-10.32,30.12-1.68,4.19-2,8.65,1.11,12.56-12.83,8.09-28.17,1.11-28.73-13.67-.28-5.86,1.12-11.72,2-17.58l1.12-9.76c2.23-16.18,2.79-23.15,5.58-40.72.28-12,3.9-23.71,6.41-35.43,1.68-7,3.35-8.09,10.88-7,6.14,1.11,8.65,2.23,12,5.58-5.58,19.24-10,38.77-7,59.41l11.44-18.69c6.42-10.32,11.44-21.48,20.92-29.29,2.51-2,5.3-4.18,8.37-5C642.51,521.91,648.36,523.58,652.27,528.6Z"/><path class="aeaa13a2-bee4-41fb-a937-c7f65c72f24c" d="M723.68,538.09a17.89,17.89,0,0,1-2.24,5.3c-8.08,14.22-19,27.05-32.35,39.05-4.75,4.46-9.77,9.2-13.11,14.5-2.24,3.63-2.51,8.09-2.51,12.28,0,6.41,5.57,15.06,12.27,19,2.79-2.24,8.92-6.42,12-8.93,12-10.6,25.39-19.25,31.25-25.38,0,0-1.68,10.6-5.3,17-5.86,9.76-14.51,15.62-25.39,23.43-6.41,4.47-12.27,3.91-20.92,1.68-12.55-3.35-24-13.11-28.45-24.27a40.09,40.09,0,0,1-1.4-5.58c-.83-7.81-1.95-13.67,2.23-27.62,3.07-11.43,8.93-22.59,13.67-33.75a107.86,107.86,0,0,1,7-12.27c1.39-2.23,3.62-4.19,5.3-6.14,3.62-3.9,8.64-5,14.78-3.9,3.07.55,6.42.55,9.76,1.11a14.69,14.69,0,0,1,5.3,1.68,46.74,46.74,0,0,0,13.12,5.85C722.56,532.23,724.51,535,723.68,538.09Zm-17.3-2.79c-7.25-2.23-7.81-2.23-11.44,1.67a59.87,59.87,0,0,0-15.06,28.73c0,.56.84,1.4,1.4,2.23C694.11,555.1,703,543.39,706.38,535.3Z"/></svg>