<svg xmlns="http://www.w3.org/2000/svg" viewBox="0 0 6480 3240"><defs><style>.a203793a-ddab-449e-9835-5efbe2a39ae6{isolation:isolate;}.a3052ab9-feee-4bf4-b561-dbb980e66c34{fill:#a3c0f2;}.b56b3a51-4954-4638-9747-a946bf0b45a0{fill:#eca400;}.e3b42bbf-f704-4b8f-a4c7-fd8ee69fa93b{fill:#6f9ceb;}.e533feda-e34e-4d13-a21b-bb66a3885fcd{fill:#e84855;}.ae2b9e29-248c-4739-b7b8-ad1fb66ae0a5{fill:#fff;}.e6e0cad2-227d-4595-88ef-06724f43ed52{fill:#384bb7;}.ad48f9e6-6d0d-4f93-9fd0-11f872653678{opacity:0.36;}.ad48f9e6-6d0d-4f93-9fd0-11f872653678,.b208ed46-223d-4ae4-88a3-962d64988cb5,.b33aba63-042a-4281-a8bb-5fa86cf720b5,.f6d36f9f-7bed-4f93-a203-35edab9a99ba,.fb5d3682-5f27-40e5-8cd7-3eba0af8fd49{mix-blend-mode:multiply;}.b208ed46-223d-4ae4-88a3-962d64988cb5,.be1a7c8c-5c19-4f79-b027-57e59c71b933{fill:#f18b93;}.b208ed46-223d-4ae4-88a3-962d64988cb5,.f23a3daa-2269-436d-a92e-eabfc2c20b31,.f6d36f9f-7bed-4f93-a203-35edab9a99ba{opacity:0.26;}.a74c79e1-5bd5-44c2-ab93-cfe1e36bb49d{fill:#ffca4f;}.ad3412e0-82c7-4218-a162-326fbf288af1,.bd772111-a43c-4a95-9424-918b786f1d75{fill:none;}.ad3412e0-82c7-4218-a162-326fbf288af1{stroke:#384bb7;stroke-linecap:round;stroke-miterlimit:10;stroke-width:15px;}.fb5d3682-5f27-40e5-8cd7-3eba0af8fd49{opacity:0.3;}.f23a3daa-2269-436d-a92e-eabfc2c20b31{mix-blend-mode:overlay;}</style></defs><title>roxanne-06</title><g class="a203793a-ddab-449e-9835-5efbe2a39ae6"><g id="b8caa0a3-341e-4ee4-8596-e2c3e0a1d13d" data-name="Layer 1"><rect class="a3052ab9-feee-4bf4-b561-dbb980e66c34" x="-64.43" y="-105.22" width="6612.13" height="3562.21"/><circle class="b56b3a51-4954-4638-9747-a946bf0b45a0" cx="4276.48" cy="953.52" r="8.73" transform="translate(-56.46 1604.01) rotate(-21.11)"/><circle class="e3b42bbf-f704-4b8f-a4c7-fd8ee69fa93b" cx="4302.74" cy="998.6" r="10.33" transform="translate(-70.93 1616.48) rotate(-21.11)"/><circle class="e533feda-e34e-4d13-a21b-bb66a3885fcd" cx="4342.3" cy="1010.25" r="12.76" transform="translate(-72.47 1631.51) rotate(-21.11)"/><path class="ae2b9e29-248c-4739-b7b8-ad1fb66ae0a5" d="M4358.85,1070.75l-20,7.71-45-116.53,20-7.71,1.74,4.49a35.92,35.92,0,0,1,17.52-12.59,39.19,39.19,0,0,1,20.88-.9,44.64,44.64,0,0,1,19.56,10,49.64,49.64,0,0,1,13.72,20.15,45.52,45.52,0,0,1,2.89,22.6,43.53,43.53,0,0,1-7.9,20.17,38.11,38.11,0,0,1-17,13.16q-2.51,1-6.3,2a44.13,44.13,0,0,1-7.56,1.48,18.94,18.94,0,0,1-6.5-.26Zm-21.21-54.94q11.38.78,19.32-3.45a22.22,22.22,0,0,0,10.88-12q3-7.73-.71-17.22-4.24-11-12.09-15.23a21.5,21.5,0,0,0-16.5-1.85q-8.67,2.34-15.66,11.39Z"/><path class="ae2b9e29-248c-4739-b7b8-ad1fb66ae0a5" d="M4260.51,1066l-42.72-110.69,19.3-7.45,20.39,52.8,11.32-29.08,25.26-9.75-7.67,20.08a32.82,32.82,0,0,0,12.79,39.4l28.74,18.67-22.69,8.75-38.18-23.23,12.76,33Z"/><path class="ae2b9e29-248c-4739-b7b8-ad1fb66ae0a5" d="M4436.59,967.4l-6,2.32a.7.7,0,0,1-.6,0l-16-9.1h0a.72.72,0,0,0-1,.24.71.71,0,0,0-.05.62l4.81,12.47a.71.71,0,0,1-.41.91l-5.09,2a.7.7,0,0,1-.91-.39l-14.09-36.5a.71.71,0,0,1,.4-.92h0l5.09-2a.72.72,0,0,1,.92.41h0l4.88,12.65a.71.71,0,0,0,.93.39.69.69,0,0,0,.41-.44l5.53-17.67a.75.75,0,0,1,.42-.45l6.22-2.4a.71.71,0,0,1,.92.41.67.67,0,0,1,0,.44l-6.39,22.53a.72.72,0,0,0,.3.79l19.81,12.49a.71.71,0,0,1,.2,1A.74.74,0,0,1,4436.59,967.4Z"/><path class="ae2b9e29-248c-4739-b7b8-ad1fb66ae0a5" d="M4448.57,963.08c-2.79.92-5.15.93-7.1,0a9.63,9.63,0,0,1-4.8-10.35,10.32,10.32,0,0,1,2.52-4.53,15.86,15.86,0,0,1,4.61-3.39,19.33,19.33,0,0,1,5.88-1.83l-.65-1.68a2.81,2.81,0,0,0-2.35-1.94,7.25,7.25,0,0,0-3.7.63,14,14,0,0,0-3.74,2.33,8.54,8.54,0,0,0-2.45,3.34l-5.14-2.54a16,16,0,0,1,3.65-5,19.24,19.24,0,0,1,5.3-3.53,16.61,16.61,0,0,1,5.92-1.49,10.5,10.5,0,0,1,5.45,1.12,6.94,6.94,0,0,1,3.1,3.36c.75,1.61,1.5,3.41,2.27,5.38l5.49,14.23-6.58,2.54-1-2.48a9.82,9.82,0,0,1-2.88,3.61A13.5,13.5,0,0,1,4448.57,963.08Zm4.51-10.77-1.79-4.64c-3.85,1.16-6.35,2.39-7.52,3.71a4,4,0,0,0-.83,4.34,2.55,2.55,0,0,0,1.9,1.77,4.92,4.92,0,0,0,2.86-.36,10.37,10.37,0,0,0,3-1.92,9.85,9.85,0,0,0,2.34-2.91Z"/><path class="ae2b9e29-248c-4739-b7b8-ad1fb66ae0a5" d="M4468.19,955.2l-10.4-26.94,6.41-2.48.78,2a7.05,7.05,0,0,1,4.23-4,24.57,24.57,0,0,1,6.95-1.32l-1,6.75a9.43,9.43,0,0,0-4.19,1.13,7.26,7.26,0,0,0-2.74,2.42,2.73,2.73,0,0,0-.34,2.67l6.7,17.35Z"/><path class="ae2b9e29-248c-4739-b7b8-ad1fb66ae0a5" d="M4481.67,915.37a4.13,4.13,0,0,1-5.39-2.25l-.06-.16a4,4,0,0,1,.07-3.19,4.09,4.09,0,0,1,2.37-2.21,4.14,4.14,0,0,1,5.36,2.34l0,0a4.12,4.12,0,0,1-.05,3.25A4,4,0,0,1,4481.67,915.37Zm14.6,29-5.93,2.29-10.4-26.94,5.93-2.3Z"/><path class="ae2b9e29-248c-4739-b7b8-ad1fb66ae0a5" d="M4526.83,932.56l-6.47,2.5-6.07-15.71a5.8,5.8,0,0,0-2.15-3,4.31,4.31,0,0,0-2.61-.7,9.21,9.21,0,0,0-2.5.53,11.08,11.08,0,0,0-2.36,1.35,5.81,5.81,0,0,0-1.93,2.45,4.88,4.88,0,0,0,.2,3.73l6.06,15.71-6.46,2.5L4492.14,915l6.46-2.5.75,1.94a5.28,5.28,0,0,1,2.19-2.85,15.94,15.94,0,0,1,3.52-2,12.54,12.54,0,0,1,6.52-.84,10.74,10.74,0,0,1,5.44,2.54,13.54,13.54,0,0,1,3.7,5.51Z"/><path class="ae2b9e29-248c-4739-b7b8-ad1fb66ae0a5" d="M4552.15,922.78,4537.65,885l14.06-5.42a9,9,0,0,1,5.81-.35,11.6,11.6,0,0,1,5.07,2.94,14,14,0,0,1,3.36,5.1,12.54,12.54,0,0,1,.83,4.45,14.59,14.59,0,0,1-.7,4.54,11.28,11.28,0,0,1-2.12,3.89,8.56,8.56,0,0,1-3.52,2.5l-7.45,2.87,5.68,14.72Zm-1.65-23.56,7.21-2.79a3.58,3.58,0,0,0,2.11-2.64,6.39,6.39,0,0,0-.22-4,6,6,0,0,0-2.63-3.2,3.6,3.6,0,0,0-3.07-.49l-7.34,2.83Z"/><path class="ae2b9e29-248c-4739-b7b8-ad1fb66ae0a5" d="M4591,908.59a14.31,14.31,0,0,1-7.49.89,12.77,12.77,0,0,1-6.41-3,15.69,15.69,0,0,1-4.38-6.45q-2.74-7.12-.57-12.14a13.6,13.6,0,0,1,8.05-7.29,14.7,14.7,0,0,1,7.39-1,12,12,0,0,1,6.47,3,18.24,18.24,0,0,1,4.75,7.31,15.58,15.58,0,0,1,1.06,7.73,13,13,0,0,1-2.78,6.52A14.24,14.24,0,0,1,4591,908.59Zm-2.4-6.2a7,7,0,0,0,3.34-2.49,7.06,7.06,0,0,0,1.27-3.62,8.87,8.87,0,0,0-.59-3.85,10.28,10.28,0,0,0-4-5.13,7.1,7.1,0,0,0-10.17,3.83,10,10,0,0,0,.46,6.58,8.77,8.77,0,0,0,2.21,3.29,6.86,6.86,0,0,0,7.46,1.39Z"/><path class="ae2b9e29-248c-4739-b7b8-ad1fb66ae0a5" d="M4615.1,898.48l-6.46,2.5-14.57-37.73,6.47-2.49Z"/><path class="ae2b9e29-248c-4739-b7b8-ad1fb66ae0a5" d="M4628.36,893.68c-2.79.91-5.15.92-7.1.05a8.58,8.58,0,0,1-4.38-5.1,8.44,8.44,0,0,1-.42-5.25,10.32,10.32,0,0,1,2.52-4.53,16.07,16.07,0,0,1,4.61-3.4,19.91,19.91,0,0,1,5.88-1.83l-.64-1.67a2.83,2.83,0,0,0-2.36-1.94,7.22,7.22,0,0,0-3.69.62A14.31,14.31,0,0,0,4619,873a8.68,8.68,0,0,0-2.45,3.33l-5.13-2.54a15.85,15.85,0,0,1,3.64-5,19,19,0,0,1,5.3-3.53,16.66,16.66,0,0,1,5.92-1.49,10.48,10.48,0,0,1,5.45,1.12,6.92,6.92,0,0,1,3.09,3.36c.75,1.61,1.51,3.41,2.27,5.38l5.49,14.23-6.58,2.54-1-2.48a10,10,0,0,1-2.87,3.62A13.71,13.71,0,0,1,4628.36,893.68Zm4.52-10.77-1.8-4.64c-3.84,1.16-6.35,2.39-7.52,3.71a4,4,0,0,0-.83,4.34,2.55,2.55,0,0,0,1.9,1.77,4.84,4.84,0,0,0,2.86-.37,10.52,10.52,0,0,0,3.05-1.91,10.11,10.11,0,0,0,2.33-2.91Z"/><path class="ae2b9e29-248c-4739-b7b8-ad1fb66ae0a5" d="M4672.23,876.43l-6.47,2.5-6.06-15.71a5.92,5.92,0,0,0-2.15-3,4.36,4.36,0,0,0-2.63-.69,8.52,8.52,0,0,0-2.49.53,11.22,11.22,0,0,0-2.36,1.34,5.87,5.87,0,0,0-1.93,2.45,4.9,4.9,0,0,0,.2,3.74l6.06,15.7-6.47,2.5-10.39-26.94,6.46-2.5.75,1.94a5.36,5.36,0,0,1,2.19-2.85,15.3,15.3,0,0,1,3.52-1.94,12.52,12.52,0,0,1,6.51-.85,10.74,10.74,0,0,1,5.45,2.54,13.68,13.68,0,0,1,3.7,5.51Z"/><path class="ae2b9e29-248c-4739-b7b8-ad1fb66ae0a5" d="M4698,862.21a15.65,15.65,0,0,1-4.45,5.8,14.22,14.22,0,0,1-5.92,2.84,13.64,13.64,0,0,1-12.16-3.33,16.05,16.05,0,0,1-4.13-6.28,16.61,16.61,0,0,1-1.23-7.54,12.56,12.56,0,0,1,2.14-6.15,13.08,13.08,0,0,1,4.7-4.2,15,15,0,0,1,6.45-1.72,17.5,17.5,0,0,1,7.39,1.33l-2.54,6.24a7.14,7.14,0,0,0-8.57.83,7.36,7.36,0,0,0-2.24,3.81,8,8,0,0,0,.42,4.85,8.41,8.41,0,0,0,3.06,4.15,7.2,7.2,0,0,0,4.19,1.33,7.44,7.44,0,0,0,4.17-1.37,8.46,8.46,0,0,0,3-3.92Z"/><path class="ae2b9e29-248c-4739-b7b8-ad1fb66ae0a5" d="M4716.16,860.29a14.3,14.3,0,0,1-7.49.88,12.81,12.81,0,0,1-6.41-3,15.79,15.79,0,0,1-4.38-6.45q-2.74-7.12-.56-12.14a13.57,13.57,0,0,1,8-7.28,14.6,14.6,0,0,1,7.39-1,12,12,0,0,1,6.47,3,18.21,18.21,0,0,1,4.75,7.3,15.61,15.61,0,0,1,1.06,7.73,12.88,12.88,0,0,1-2.78,6.52A14.2,14.2,0,0,1,4716.16,860.29Zm-2.4-6.21a7,7,0,0,0,3.35-2.49,7.14,7.14,0,0,0,1.26-3.62,8.72,8.72,0,0,0-.58-3.85,10.28,10.28,0,0,0-4-5.13,6.37,6.37,0,0,0-6-.43,6.45,6.45,0,0,0-4.14,4.26,10,10,0,0,0,.46,6.58,8.66,8.66,0,0,0,2.21,3.29,7.16,7.16,0,0,0,3.38,1.79,6.93,6.93,0,0,0,4.07-.4Z"/><path class="ae2b9e29-248c-4739-b7b8-ad1fb66ae0a5" d="M6803.1,778.11c-707.45,157.43-727.49,63.8-1437.4,209.74s-693,228.21-1402.9,374.14S3236,1425.65,2526.07,1571.58s-693,228.22-1402.91,374.15-723.88,75-1436.06,209.46c-11.55,2.18-35.72,38.22-38.09,26.71s79.92-28.42,77.55-39.93-84.64,5.4-87-6.11,79.91-28.43,77.55-39.94-66.47-53-55-55.56c707.45-157.43,727.49-63.8,1437.4-209.74s693-228.21,1402.9-374.14,726.82-63.66,1436.73-209.59,693-228.22,1402.91-374.15,723.88-75,1436.06-209.46c11.55-2.18,35.72-38.22,38.09-26.71s-79.92,28.42-77.55,39.93,84.65-5.4,87,6.11-79.91,34.49-76,45.56C6761.05,760.15,6814.57,775.56,6803.1,778.11Z"/><path class="ae2b9e29-248c-4739-b7b8-ad1fb66ae0a5" d="M6862.26,1065.88c-707.45,157.43-727.49,63.8-1437.4,209.74s-693,228.21-1402.9,374.14-726.83,63.66-1436.74,209.59-693,228.22-1402.9,374.15S458.43,2308.55-253.75,2443c-11.54,2.18-35.71,38.22-38.08,26.71s79.91-28.42,77.55-39.93-84.65,5.4-87-6.11,79.91-28.43,77.54-39.94-66.47-53-55-55.56c707.45-157.43,727.49-63.8,1437.39-209.74s693-228.21,1402.91-374.14,726.82-63.66,1436.73-209.59,693-228.22,1402.9-374.15,723.89-75,1436.07-209.46c11.55-2.18,35.72-38.22,38.08-26.71s-79.91,28.42-77.54,39.93,84.64-5.4,87,6.11-79.92,34.49-76,45.56C6820.21,1047.92,6873.73,1063.33,6862.26,1065.88Z"/><path class="ae2b9e29-248c-4739-b7b8-ad1fb66ae0a5" d="M6921.41,1353.65c-707.45,157.43-727.49,63.8-1437.4,209.74s-693,228.21-1402.9,374.14-726.82,63.66-1436.73,209.59-693,228.22-1402.91,374.15-723.88,75.05-1436.06,209.46c-11.55,2.18-35.72,38.22-38.08,26.71s79.91-28.42,77.54-39.93-84.64,5.4-87-6.11,79.91-28.43,77.55-39.94-66.47-53-55-55.56c707.45-157.43,727.49-63.8,1437.4-209.74S1910.8,2178,2620.71,2032s726.83-63.66,1436.74-209.59,693-228.22,1402.9-374.15,723.88-75,1436.07-209.46c11.54-2.18,35.71-38.22,38.08-26.71s-79.91,28.43-77.55,39.93,84.65-5.4,87,6.11-79.91,34.49-76,45.56C6879.37,1335.69,6932.89,1351.1,6921.41,1353.65Z"/><path class="ae2b9e29-248c-4739-b7b8-ad1fb66ae0a5" d="M6980.57,1641.42c-707.45,157.43-727.49,63.8-1437.4,209.74s-693,228.21-1402.9,374.14S3413.45,2289,2703.54,2434.89s-693,228.22-1402.91,374.15S576.75,2884.09-135.43,3018.5c-11.55,2.18-35.72,38.22-38.09,26.71s79.92-28.42,77.55-39.93-84.65,5.4-87-6.11,79.91-28.43,77.54-39.94-66.46-53-55-55.56C547,2746.24,567.06,2839.87,1277,2693.93s693-228.21,1402.9-374.14,726.82-63.66,1436.73-209.59,693-228.22,1402.91-374.15,723.88-75,1436.06-209.46c11.55-2.18,35.72-38.22,38.09-26.71s-79.92,28.43-77.55,39.94,84.64-5.41,87,6.1-79.92,34.49-76,45.56C6938.52,1623.46,6992,1638.87,6980.57,1641.42Z"/><path class="ae2b9e29-248c-4739-b7b8-ad1fb66ae0a5" d="M7039.73,1929.19c-707.45,157.43-727.49,63.8-1437.4,209.74s-693,228.21-1402.91,374.14-726.82,63.66-1436.73,209.59-693,228.22-1402.9,374.15S635.9,3171.86-76.28,3306.27c-11.55,2.18-35.72,38.22-38.08,26.71s79.91-28.42,77.55-39.93-84.65,5.4-87-6.11,79.92-28.43,77.55-39.94-66.47-53-55-55.56c707.45-157.43,727.49-63.8,1437.4-209.73s693-228.22,1402.91-374.15S3465.85,2543.9,4175.76,2398s693-228.22,1402.9-374.15,723.89-75,1436.07-209.46c11.55-2.18,35.72-38.22,38.08-26.71s-79.91,28.43-77.55,39.94,84.65-5.41,87,6.1-79.92,34.49-76,45.56C6997.68,1911.23,7051.2,1926.64,7039.73,1929.19Z"/><path class="e6e0cad2-227d-4595-88ef-06724f43ed52" d="M4167.74,1954.62c-4.28,41.39-13.35,78.73-26.44,112.11-60.72,155.22-207.94,226-362.58,229.52-176.55,4-362.84-79.65-441.3-225.45-27.48-51-50.29-122.56-69.25-206.18-5,83.1-15.57,155.26-33.76,208.87-109.82,323.68-716.71,462.4-838.09,23.12a597.1,597.1,0,0,1-14-63.83,552.19,552.19,0,0,1-6.77-110.17c12.59-322.44,308.62-529.37,341.5-557.2a13.88,13.88,0,0,0,2.92-2.86c.23-2.12.45-4.24.68-6.36q.67-6.35,1.37-12.61,2.79-25,5.92-48.79c.53-4,1.05-7.89,1.59-11.79s1.08-7.79,1.63-11.64q1.23-8.67,2.52-17.17,3.42-22.65,7.14-44.06c.86-4.91,1.73-9.76,2.61-14.58s1.76-9.58,2.66-14.3q2-10.62,4.13-20.92c.46-2.29.94-4.57,1.41-6.83.35-1.65.69-3.29,1-4.92.69-3.28,1.39-6.52,2.09-9.75s1.42-6.43,2.14-9.6c12.88-57.17,27.58-106.57,43.56-149.22q1.33-3.56,2.68-7l.05-.14c.43-1.11.86-2.22,1.3-3.34.89-2.3,1.8-4.59,2.71-6.85s1.81-4.51,2.73-6.74l1.37-3.32c.92-2.21,1.85-4.39,2.77-6.56s1.86-4.3,2.79-6.43c1.4-3.18,2.81-6.33,4.22-9.42s2.84-6.16,4.27-9.17,2.86-6,4.31-8.91,2.89-5.8,4.35-8.64l1.46-2.83q2.21-4.2,4.4-8.3l1.67-3.06c1.41-2.59,2.83-5.12,4.27-7.63s3-5.19,4.49-7.72c1-1.7,2-3.37,3-5s2-3.29,3-4.91,2-3.22,3-4.8l1.53-2.37c1-1.57,2-3.11,3-4.65.52-.76,1-1.53,1.54-2.29,1-1.51,2-3,3.08-4.49q3.85-5.55,7.74-10.8,1.56-2.1,3.12-4.15,2.34-3.07,4.69-6c2.09-2.64,4.2-5.21,6.29-7.72q9.46-11.28,19.05-20.91l1.6-1.6c1.05-1,2.12-2.09,3.18-3.12l1.61-1.54q2.4-2.26,4.8-4.46,3.21-2.91,6.42-5.66l3.2-2.7h0q2.41-2,4.81-3.91l1.62-1.26c2.14-1.67,4.28-3.28,6.42-4.85h0q4.8-3.52,9.62-6.7h0l3.2-2.08h0a223.26,223.26,0,0,1,35-18.3h0q6.28-2.61,12.49-4.73h0l3.11-1a208.12,208.12,0,0,1,64.5-10.15c1.11,0,2.2,0,3.3,0s2.13,0,3.19.08h.28c1,0,2,.06,3,.11h.05c1,0,2,.09,3,.16,1.32.07,2.63.17,3.94.26q2.83.23,5.59.51c1.07.11,2.12.22,3.17.35l2.49.3,2.39.32c.67.08,1.33.18,2,.28,3.6.53,7.11,1.14,10.49,1.79l2.63.54c.91.19,1.8.37,2.69.57q2.65.57,5.23,1.21c1.37.33,2.72.68,4,1q3.08.81,6,1.65c1.5.43,3,.87,4.41,1.33s2.88.91,4.27,1.37l.1,0c1.63.55,3.21,1.1,4.73,1.63s2.88,1,4.23,1.56c.93.36,1.84.7,2.71,1,1.61.64,3.14,1.25,4.58,1.86l1.41.6c.46.21.92.39,1.36.59,1.33.58,2.57,1.14,3.73,1.67l.91.43,1.69.8.79.38c.25.13.5.26.75.37l.71.35c.95.48,1.78.91,2.5,1.29l.89.47c1.48.79,2.25,1.25,2.25,1.25s.23,1.44.69,4.16l1.17-.89c.43-.33.9-.67,1.4-1,.26-.17.52-.37.79-.57l1.41-1,1.6-1.11,1.51-1c.52-.36,1.06-.72,1.62-1.09l1.73-1.13c.6-.39,1.2-.78,1.84-1.18l2.23-1.39c1.88-1.15,3.9-2.36,6-3.58a234,234,0,0,1,41.13-18.58l.34-.11q2.3-.78,4.66-1.53c.87-.28,1.75-.55,2.63-.81,2.47-.76,5-1.48,7.57-2.15,1.1-.29,2.2-.58,3.33-.85.89-.22,1.79-.45,2.71-.65l.17,0,2.68-.62.21,0c.9-.21,1.78-.4,2.69-.58l.32-.07,2.3-.46,1.54-.29c.61-.12,1.22-.23,1.84-.33,1-.18,2-.36,3-.52l.09,0c1.91-.31,3.86-.6,5.82-.86,1-.13,2-.26,3-.37s2-.24,3-.34l1-.1c.89-.1,1.77-.18,2.66-.25,1.07-.1,2.13-.19,3.21-.27,1.28-.09,2.58-.17,3.88-.24,6.57-.36,13.33-.41,20.26-.1h0c1.23,0,2.45.11,3.69.19h0q2.77.18,5.59.43,5.65.51,11.44,1.35,2.8.39,5.62.89A225.53,225.53,0,0,1,3404.46,732c1.53.74,3.08,1.5,4.63,2.29l1.6.82c1.5.78,3,1.57,4.53,2.39l.26.14c1.51.82,3,1.66,4.54,2.52,1.06.6,2.11,1.21,3.16,1.83s2.1,1.24,3.16,1.88,2.1,1.28,3.16,1.93,2.1,1.31,3.15,2q4.77,3.06,9.58,6.4,2.4,1.65,4.8,3.4l3.23,2.37c1.61,1.19,3.22,2.4,4.83,3.66h0c1.06.83,2.14,1.66,3.21,2.51s2.17,1.73,3.26,2.61q2.43,2,4.86,4h0c1.62,1.37,3.25,2.76,4.88,4.19a437.94,437.94,0,0,1,47.9,49.44q1.52,1.8,3,3.64c1.22,1.49,2.45,3,3.66,4.52,1,1.23,2,2.45,3,3.7q4.26,5.4,8.51,11.08,1.67,2.22,3.33,4.48c1.11,1.5,2.21,3,3.32,4.55q5.82,8.08,11.66,16.72,2.51,3.69,5,7.48t5,7.69c1.11,1.74,2.22,3.49,3.33,5.27q2.49,4,5,8l1.68,2.75c1.1,1.82,2.2,3.65,3.31,5.51v0q1.65,2.77,3.31,5.61v0c1.1,1.88,2.21,3.79,3.31,5.7v0q6.52,11.35,13,23.48,9.76,18.21,19.47,38.16l2.15,4.46h0q6.57,13.68,13.09,28.18h0q2.43,5.44,4.88,11,5.69,13,11.35,26.66c1.06,2.6,2.14,5.22,3.22,7.85,20.4,50.16,40.39,107.07,59.69,171.55q7.24,24.2,14.33,49.8c6.28,8.56,331,149.24,421.13,450.12C4167.63,1800.18,4176.12,1873.45,4167.74,1954.62Z"/><g class="ad48f9e6-6d0d-4f93-9fd0-11f872653678"><path class="e6e0cad2-227d-4595-88ef-06724f43ed52" d="M2913.87,1256.47c-45.68,27-53.59,89.94-47.15,142.63s21.83,107.45,4.1,157.48c-19.74,55.73-75.89,90.26-131.83,109.41s-115.77,27.66-168.67,54.07c-82,40.92-139,121.83-167.37,208.93-32.49,99.58-26,221.31,49.78,293.56,57.94,55.21,142.8,70.1,222.62,75.94,174.21,12.76,358.92-8.58,502.18-108.52,23.23-16.21,45.58-34.84,60.09-59.16,16.87-28.28,21.83-61.9,25.55-94.62,36.92-325.08-17.48-660-155.4-956.74-21.12-45.44-56.57-97.16-106.34-91.35-25.78,3-46.87,21.55-64.37,40.73a446.35,446.35,0,0,0-113.87,258.31"/></g><g class="ad48f9e6-6d0d-4f93-9fd0-11f872653678"><path class="e6e0cad2-227d-4595-88ef-06724f43ed52" d="M4167.74,1954.62c-4.27,41.39-13.35,78.73-26.44,112.11-42.86,42.62-102.13,69.5-160,90.45-164.24,59.45-347.81,89-512.8,31.56-26.74-9.3-53.3-21.18-73.87-40.69-23.9-22.63-37.77-53.67-50.2-84.16-123.61-302.93-162-640.1-109.56-963.06,8-49.45,28.12-108.84,77.62-116.73,25.64-4.1,50.95,8,73,21.76a446.28,446.28,0,0,1,179.55,217.82l-95.57-5c51.27,13.64,75.92,72.08,84,124.53s8.09,109.36,38.7,152.71c34.1,48.29,97.51,66.33,156.55,69.62s118.92-4.74,177,6.36c90,17.19,166.76,79.62,217.71,155.8,1.5,2.25,3,4.51,4.45,6.79C4167.63,1800.18,4176.12,1873.44,4167.74,1954.62Z"/></g><path class="be1a7c8c-5c19-4f79-b027-57e59c71b933" d="M4239.31,2871.43c-246.12,133.7-574.77-512.7-654.68-681.76-11.3-23.88-17.62-38.24-18.05-39.52,0,0,117.9-10.41,215-6.93,80.05,135.48,240.83,368.74,299.86,425.63,16.07,15.5,24.6,17.91,21.9,1.72-73.21-439.28-228.64-1002.34-259.34-978.73-37.9,29.15-254.67-17.66-322.81-33.31-12.92-3-20.5-4.83-20.5-4.83l21.14-3.92,13.71-2.53,3.78-.7,9.92-1.84L3844,1490.13a157.72,157.72,0,0,1,174.73,95.45c95.14,233,293.79,754.39,300.19,1061.72C4321.18,2756.69,4299.1,2839,4239.31,2871.43Z"/><path class="be1a7c8c-5c19-4f79-b027-57e59c71b933" d="M2976.17,1447.85a51.5,51.5,0,0,1-24.51,8.06c-31.75,2.1-54.42-24-57.91-58.29s13.51-63.65,45.26-65.75a54,54,0,0,1,16.37,1.4c22.66,5.46,40.9,25.17,45.74,50.47q.55,3,.89,6.08C3004.5,1414.28,2994,1436.42,2976.17,1447.85Z"/><path class="be1a7c8c-5c19-4f79-b027-57e59c71b933" d="M3612.69,2035s-1305-82.23-832.32-164.42c49.42-8.58,92.88-19.65,131.09-32.57,215.1-72.77,263.94-204.47,272.15-286.19,4.28-42.66-2.48-71.71-2.48-71.71s82.19-462.4,113-30.83q3,42.48,9.22,81.41a867.69,867.69,0,0,0,26.07,115.08C3414.41,1928.73,3612.69,2035,3612.69,2035Z"/><g class="f6d36f9f-7bed-4f93-a203-35edab9a99ba"><path class="be1a7c8c-5c19-4f79-b027-57e59c71b933" d="M4239.31,2871.43c-246.12,133.7-574.77-512.7-654.68-681.76.17-.33.36-.67.55-1,9.61-16.8,28-29.66,47.26-28.21,30.49,2.28,47.53,35.31,58.71,63.76l-12.71-3.09a3173,3173,0,0,0,273.48,399.42c42.28,52.62,88.81,105.79,151.49,130.79s145.71,12,180.11-46.08c8.55-14.43,13.7-30.78,23.18-44.64a62.88,62.88,0,0,1,12.2-13.32C4321.18,2756.69,4299.1,2839,4239.31,2871.43Z"/></g><g class="f6d36f9f-7bed-4f93-a203-35edab9a99ba"><path class="be1a7c8c-5c19-4f79-b027-57e59c71b933" d="M3361.14,1607.3c-10.52,12.83-21.06,25.69-31.7,38.44-37.71,45.17-76.79,89.18-121.52,127.28-54.48,46.35-118.32,83.89-188.2,98.34l28.18-5.34c-13.1,31.87-55.41,45.51-87.17,32.22-24.88-10.4-42.28-34-49.27-60.26,215.1-72.77,263.94-204.47,272.15-286.19,38.21-14.43,79.3-22.69,119.76-21.13a228.7,228.7,0,0,1,53.7,8.29c5.29,1.51,10.63,3.27,14.88,6.74C3390,1560.4,3375.94,1589.27,3361.14,1607.3Z"/></g><path class="be1a7c8c-5c19-4f79-b027-57e59c71b933" d="M3327.85,1701.38a247.25,247.25,0,0,1-26.51,6.32l-25.85,4.69a248.94,248.94,0,0,1-26.86,3.39c-1.76.13-3.51.23-5.27.32-1.46.07-2.93.13-4.38.17-120.45,3.89-228.78-80.9-250.94-203l-11.87-65.39-20.79-114.58-30-165a247.19,247.19,0,0,1,199.15-287.45l25.83-4.7c109.7-19.89,215.61,35.86,264.08,130.11l0,.07a247.1,247.1,0,0,1,23.35,69l32.91,181.28,19.5,107.48,10.21,56.26C3523.22,1545.57,3447.2,1666,3327.85,1701.38Z"/><path class="be1a7c8c-5c19-4f79-b027-57e59c71b933" d="M3520.54,1366.55a52.43,52.43,0,0,1-7.71,1.09,51.34,51.34,0,0,1-12-.58,47.42,47.42,0,0,1-10.58-3.08c-19.61-8.24-32.77-29.19-35.37-54.63-2.17-21.29,3.58-40.7,15.87-52.85a45.1,45.1,0,0,1,29.4-12.91c20.46-1.35,39.25,8.87,51,25.48,0,0,0,0,0,0a68.08,68.08,0,0,1,11.1,26.36q.57,3,.89,6.08C3566.37,1333,3548.08,1360.55,3520.54,1366.55Z"/><path class="a74c79e1-5bd5-44c2-ab93-cfe1e36bb49d" d="M4054.54,3268l-976.09,9-143.95,1.32S2914,3124.17,2842,2764.52c-328.82-185-174.69-565.16-174.69-565.16q-17.45,3.67-33.16,6c-127.16,18.77-173.11-25-192-46.45-5.7-6.48-8.93-10.89-11.18-10.89-31.7-202.83,96.91-300.09,200.12-344.86a255.55,255.55,0,0,1,196.91-2.5c92,36.93,249,95.16,383.91,121.29q19,3.67,36.78,6.75c181.37,31.4,277.81,19.26,374.24,24.08,197.12-15.17,226.43,154.25,228.24,244.14.65,32-2.17,53.85-2.17,53.85s-38.6,17.35-131,21.2-120.74-36.61-125.87-41.75c206.79,350-30.83,441.85-30.83,441.85L3780,2936.33Z"/><g class="f6d36f9f-7bed-4f93-a203-35edab9a99ba"><path class="a74c79e1-5bd5-44c2-ab93-cfe1e36bb49d" d="M3592.14,2230.19c206.79,350-30.83,441.85-30.83,441.85L3780,2936.33c-19.45,4.91-42.58-.68-61.71-9.22-91.77-41-152.79-131.82-185.6-226.81-5.06-14.65-9.62-30.12-7.31-45.44,2.65-17.65,14-32.58,25-46.58,44.5-56.36,93.32-119.23,88-190.86-2.13-29-13.18-56.39-24.1-83.29q-29.28-72.14-58.56-144.29c-5.32-13.12-10.68-27.79-5.63-41,8.43-22.06,38.25-24.7,61.76-22.36a674,674,0,0,1,239.25,70.43c.65,32-2.17,53.85-2.17,53.85s-38.6,17.35-131,21.2S3597.27,2235.33,3592.14,2230.19Z"/></g><g class="b33aba63-042a-4281-a8bb-5fa86cf720b5"><path class="a74c79e1-5bd5-44c2-ab93-cfe1e36bb49d" d="M3556.62,2667.67a198.82,198.82,0,0,1-25.12,18.53,227.11,227.11,0,0,1-28,15c-1.13.51-2.25,1-3.39,1.49l-1,.43c-.78.33,1.09-.45-.21.08l-2,.83c-2.42,1-4.86,1.93-7.31,2.83q-7.56,2.79-15.3,5.06a248.6,248.6,0,0,1-31.06,7c-1.3.21-2.6.4-3.89.59l-1.73.25c-1,.13-.17,0,0,0l-1.3.17q-4,.51-8,.89-8,.77-15.93,1a257.32,257.32,0,0,1-31.9-.93c-2.68-.25-5.36-.53-8-.87l-2-.24c-1-.13-.16,0,0,0l-.86-.12c-1.45-.2-2.89-.42-4.33-.64q-7.86-1.25-15.64-3a243.4,243.4,0,0,1-30.51-8.95q-3.78-1.4-7.51-2.91l-1.61-.66-.6-.25-.61-.26c-1.2-.51-2.39-1-3.58-1.57q-7.35-3.29-14.45-7.1a218.31,218.31,0,0,1-26.86-17c-1.05-.78-2.1-1.57-3.14-2.38.77.59-.46-.36-.71-.56-.58-.45-1.15-.91-1.72-1.37-2-1.63-5.11-2.13-7.07,0-1.67,1.82-2.18,5.33,0,7.08a230.48,230.48,0,0,0,57.29,33.56A249.82,249.82,0,0,0,3372,2730a257.22,257.22,0,0,0,64.78-.11,252.41,252.41,0,0,0,63.59-16.56,232.16,232.16,0,0,0,57.27-33.53q3.07-2.46,6.06-5a5,5,0,0,0,0-7.07,5.13,5.13,0,0,0-7.07,0Z"/></g><g class="f6d36f9f-7bed-4f93-a203-35edab9a99ba"><path class="a74c79e1-5bd5-44c2-ab93-cfe1e36bb49d" d="M3078.45,3277l-143.95,1.32S2914,3124.17,2842,2764.52c-328.82-185-174.69-565.16-174.69-565.16q-17.45,3.67-33.16,6,4.18-12.27,9-24.4c4.79-12,14.7-26.17,27.06-22.38a278,278,0,0,1,5.23,99.53l-7.12-12a490.37,490.37,0,0,0,49.77,267.22c22.93,45.48,54.17,88.39,97.61,115,65.51,40.1,147.56,37.5,224.28,33.62-7.76,162.18-7.27,325.92,23.38,485.36C3071.61,3190,3081.91,3234.32,3078.45,3277Z"/></g><g class="f6d36f9f-7bed-4f93-a203-35edab9a99ba"><path class="be1a7c8c-5c19-4f79-b027-57e59c71b933" d="M3526,1362.46a52.1,52.1,0,0,1-7.58,1.81,51.09,51.09,0,0,1-18.18-.32l.62,3.11a47.42,47.42,0,0,1-10.58-3.08l10.21,56.26c22.73,125.33-53.29,245.71-172.64,281.14a24.15,24.15,0,0,1-3.33-12.59c.45-14.11,9.87-26.06,18-37.59,65.62-92.69,69.3-216.43,47.63-327.9s-65.74-217.63-87.77-329c-2.54-12.91-3.62-29,7.16-36.49,6.44-4.5,15-4.14,22.81-3.24a247.67,247.67,0,0,1,52.6,12.08,246.85,246.85,0,0,1,29.51,39.56l0,.07a246.74,246.74,0,0,1,30.36,79l32.68,164.53a54.24,54.24,0,0,1,14.71-7.31c24.38-7.79,46.37,4.35,58.88,26.65,0,0,0,0,0,0a82.74,82.74,0,0,1,7.32,17.88C3567.81,1320.15,3556.31,1352.77,3526,1362.46Z"/></g><path class="be1a7c8c-5c19-4f79-b027-57e59c71b933" d="M4011.61,2522.35s-48.13,5.27-112.16,6c-73.48.83-167.9-4.31-234.61-30.25-163.65-63.65-769.52,536.8-1178,648.55-123.67,33.84-163.3-94.3-164.21-269.59q-.07-11.16.09-22.57c0-2.85.08-5.72.13-8.6,5.49-286.42,101.95-674.78,108.12-705.6l50.87,34.23a176.55,176.55,0,0,0,116.9,29.11l68.56-12-65.5,634.51s717.41-346.63,955.68-430.93C3845.16,2293.48,4011.61,2522.35,4011.61,2522.35Z"/><path class="e6e0cad2-227d-4595-88ef-06724f43ed52" d="M3713.14,1288.59c-.08,8.88-49.9,31.22-119.73,36.36-112,8.26-275.53-27.71-367.26-234.66-16.24-36.69-30.06-70.2-41.76-100.9v0l-3.24-8.58c-5.57,33.21-12.77,69.77-21.88,110.1-9.9,43.91-23.89,81.74-40.86,114.25,0,0,0,0,0,0-86.35,165.58-249.08,194.07-337.52,189.56-26.83-1.35-46.83-5.75-55.75-10.29-3.05-1.54-4.81-3.09-5.12-4.56q-1.51-7.29-2.92-14.48a13.88,13.88,0,0,0,2.92-2.86c.23-2.12.45-4.24.68-6.36q.67-6.35,1.37-12.61,2.79-25,5.92-48.79c.53-4,1.06-7.89,1.59-11.79s1.08-7.79,1.63-11.64q1.23-8.67,2.52-17.17,3.42-22.65,7.14-44.06c.86-4.91,1.73-9.76,2.61-14.58s1.76-9.58,2.66-14.3q2-10.62,4.13-20.92c.46-2.29.94-4.57,1.41-6.83.35-1.65.69-3.29,1-4.92.69-3.28,1.39-6.52,2.09-9.75s1.42-6.43,2.14-9.6c12.88-57.17,27.58-106.57,43.56-149.22q1.33-3.56,2.68-7l.05-.14c.43-1.11.86-2.22,1.3-3.34.89-2.3,1.8-4.59,2.71-6.85s1.81-4.51,2.73-6.74l1.37-3.32c.92-2.21,1.85-4.39,2.77-6.56s1.86-4.3,2.79-6.43c1.4-3.18,2.81-6.33,4.22-9.42s2.84-6.16,4.27-9.17,2.86-6,4.31-8.91,2.89-5.8,4.35-8.64l1.46-2.83q2.19-4.2,4.4-8.3l1.67-3.06c1.41-2.59,2.83-5.12,4.27-7.63s3-5.19,4.49-7.72c1-1.7,2-3.37,3-5s2-3.29,3-4.91,2-3.22,3-4.8l1.53-2.37c1-1.57,2-3.11,3-4.65.52-.76,1-1.53,1.54-2.29,1-1.51,2-3,3.08-4.49q3.85-5.55,7.74-10.8,1.56-2.1,3.12-4.15,2.34-3.07,4.69-6,3.14-4,6.29-7.72,9.46-11.28,19.05-20.91l1.6-1.6c1.05-1,2.12-2.09,3.18-3.12l1.61-1.54q2.4-2.28,4.8-4.46,3.21-2.91,6.42-5.66l3.2-2.7h0q2.4-2,4.81-3.91l1.62-1.26c2.13-1.68,4.27-3.29,6.42-4.85h0q4.8-3.52,9.62-6.7h0l3.2-2.08h0a223.26,223.26,0,0,1,35-18.3h0q6.28-2.61,12.49-4.73h0l3.11-1a208.12,208.12,0,0,1,64.5-10.15c1.11,0,2.2,0,3.3,0s2.13,0,3.19.08h.28c1,0,2,.06,3,.11h.05c1,0,2,.09,3,.16,1.32.07,2.63.17,3.94.26q2.83.23,5.59.51c1.07.11,2.12.22,3.17.35l2.49.3,2.39.32c.67.08,1.33.18,2,.28,3.6.53,7.11,1.14,10.49,1.79l2.63.54c.91.19,1.8.37,2.69.57,1.77.39,3.52.79,5.23,1.21,1.37.33,2.72.68,4,1q3.08.81,6,1.65c1.5.44,3,.88,4.41,1.33s2.88.91,4.27,1.37l.1,0c1.63.55,3.21,1.1,4.73,1.63s2.88,1,4.23,1.56c.93.36,1.84.7,2.71,1,1.61.64,3.14,1.25,4.58,1.86l1.41.6c.46.21.92.39,1.36.59,1.33.58,2.57,1.14,3.73,1.67l.91.43,1.69.8.79.38c.25.13.5.26.75.37l.71.35c.95.48,1.78.91,2.5,1.29l.89.47c1.48.79,2.25,1.25,2.25,1.25s.23,1.44.69,4.16l1.17-.89,1.4-1c.26-.17.52-.37.79-.57l1.41-1,1.6-1.11,1.51-1,1.62-1.09,1.73-1.13,1.84-1.18,2.23-1.39c1.88-1.15,3.9-2.36,6-3.58,3.59-2,7.54-4.18,11.84-6.33a236,236,0,0,1,34.29-13.89c.87-.28,1.75-.55,2.63-.81q3.71-1.12,7.57-2.15c1.1-.29,2.2-.58,3.33-.85.89-.22,1.79-.45,2.71-.65l.17,0,2.68-.62.21,0c.9-.21,1.78-.4,2.69-.58l.32-.07,2.3-.46,1.54-.29c.61-.12,1.22-.23,1.84-.33,1-.18,2-.36,3-.52q2.92-.48,5.91-.88c1-.13,2-.26,3-.37s2-.24,3-.34l1-.1c.89-.1,1.77-.18,2.66-.25,1.07-.1,2.13-.19,3.21-.27,1.28-.09,2.58-.17,3.88-.24q9.85-.54,20.26-.1h0c1.23,0,2.45.12,3.69.19h0q2.77.19,5.59.43,5.65.51,11.44,1.35,2.8.41,5.62.89A225.53,225.53,0,0,1,3404.46,732c1.53.74,3.08,1.5,4.63,2.29l1.6.82c1.5.78,3,1.57,4.53,2.39l.26.14c1.51.82,3,1.66,4.54,2.52,1.06.6,2.11,1.21,3.16,1.83s2.1,1.24,3.16,1.88,2.1,1.28,3.16,1.93,2.1,1.31,3.15,2q4.77,3.06,9.58,6.4,2.4,1.66,4.8,3.4l3.23,2.37c1.61,1.2,3.22,2.41,4.83,3.66h0c1.06.83,2.14,1.66,3.21,2.51s2.17,1.73,3.26,2.61q2.43,2,4.86,4h0c1.62,1.37,3.25,2.76,4.88,4.19a437.94,437.94,0,0,1,47.9,49.44q1.52,1.8,3,3.64c1.22,1.49,2.45,3,3.66,4.52,1,1.23,2,2.45,3,3.7q4.26,5.4,8.51,11.08c1.11,1.47,2.21,3,3.33,4.48l3.32,4.55q5.82,8.08,11.66,16.72,2.49,3.69,5,7.48t5,7.69c1.11,1.74,2.22,3.49,3.33,5.27q2.49,4,5,8l1.68,2.75c1.1,1.82,2.2,3.65,3.31,5.51v0q1.65,2.77,3.31,5.61v0c1.1,1.88,2.21,3.79,3.31,5.7v0q6.52,11.35,13,23.48,9.76,18.21,19.47,38.16l2.15,4.46h0q6.57,13.68,13.09,28.18h0q2.43,5.44,4.88,11,5.69,13,11.35,26.66c1.06,2.6,2.14,5.22,3.22,7.85,20.4,50.16,40.39,107.07,59.69,171.55Q3713.44,1260.79,3713.14,1288.59Z"/><path class="ad3412e0-82c7-4218-a162-326fbf288af1" d="M3165.93,1151c8.5,22.26,72.06,404.67,72.06,404.67l49.57-23.45"/><path class="ad3412e0-82c7-4218-a162-326fbf288af1" d="M3283.54,1305.65s65.69,61.94,154.25-24.42"/><path class="ad3412e0-82c7-4218-a162-326fbf288af1" d="M3255.38,1589.22s50.83,42.39,95.28-32"/><path class="ad3412e0-82c7-4218-a162-326fbf288af1" d="M3010.17,1356.07s65.68,61.94,154.25-24.42"/><ellipse class="b208ed46-223d-4ae4-88a3-962d64988cb5" cx="3375.54" cy="1416.82" rx="66.47" ry="34.68" transform="translate(-145.3 414.16) rotate(-6.87)"/><ellipse class="b208ed46-223d-4ae4-88a3-962d64988cb5" cx="3092.87" cy="1462.53" rx="66.47" ry="34.68" transform="translate(-152.8 380.66) rotate(-6.87)"/><g class="fb5d3682-5f27-40e5-8cd7-3eba0af8fd49"><path class="be1a7c8c-5c19-4f79-b027-57e59c71b933" d="M3710.52,1590.79a173.91,173.91,0,0,1,49.21-24.58,178.26,178.26,0,0,1,54.59-8.27,169.35,169.35,0,0,1,30.8,3,2.57,2.57,0,0,0,3.08-1.75,2.51,2.51,0,0,0-1.75-3.07,178.2,178.2,0,0,0-56.49-1.64,184.58,184.58,0,0,0-54.51,15.9,173.53,173.53,0,0,0-27.45,16.11,2.58,2.58,0,0,0-.9,3.42,2.53,2.53,0,0,0,3.42.9Z"/></g><g class="fb5d3682-5f27-40e5-8cd7-3eba0af8fd49"><path class="be1a7c8c-5c19-4f79-b027-57e59c71b933" d="M3860.73,1622.25q26.26-10.65,52-22.49t50.77-24.84q14.19-7.37,28.17-15.09c2.81-1.56.29-5.88-2.53-4.32q-24.63,13.62-49.87,26.07t-50.82,23.62q-14.46,6.3-29.08,12.23a2.57,2.57,0,0,0-1.75,3.07,2.52,2.52,0,0,0,3.08,1.75Z"/></g><g class="fb5d3682-5f27-40e5-8cd7-3eba0af8fd49"><path class="be1a7c8c-5c19-4f79-b027-57e59c71b933" d="M4099.64,2576.45a494.79,494.79,0,0,1,79.87,126.27q8.46,19.34,15.21,39.35c1,3,5.86,1.73,4.82-1.33a498.85,498.85,0,0,0-69.65-134.35q-12.65-17.29-26.71-33.47a2.5,2.5,0,1,0-3.54,3.53Z"/></g><g class="fb5d3682-5f27-40e5-8cd7-3eba0af8fd49"><path class="be1a7c8c-5c19-4f79-b027-57e59c71b933" d="M2480.05,2966.83a771.59,771.59,0,0,1,109.51-130.69q17.42-16.63,35.84-32.18a2.53,2.53,0,0,0,0-3.54,2.56,2.56,0,0,0-3.54,0A776.1,776.1,0,0,0,2503.63,2925q-14.57,19.2-27.9,39.27c-1.79,2.69,2.54,5.19,4.32,2.52Z"/></g><g class="fb5d3682-5f27-40e5-8cd7-3eba0af8fd49"><path class="be1a7c8c-5c19-4f79-b027-57e59c71b933" d="M3768.22,2386a475.93,475.93,0,0,1,65.31,29.93,482.17,482.17,0,0,1,59.95,39.22q16,12.28,30.95,25.93c2.38,2.17,5.92-1.36,3.54-3.53a483.59,483.59,0,0,0-120.38-80.46q-18.68-8.76-38.05-15.91a2.5,2.5,0,0,0-1.32,4.82Z"/></g><g class="fb5d3682-5f27-40e5-8cd7-3eba0af8fd49"><path class="be1a7c8c-5c19-4f79-b027-57e59c71b933" d="M3760.41,2427.41a283.81,283.81,0,0,1,127,73.51c2.28,2.28,5.81-1.26,3.53-3.54a290.05,290.05,0,0,0-129.21-74.8c-3.11-.83-4.43,4-1.32,4.83Z"/></g><g class="fb5d3682-5f27-40e5-8cd7-3eba0af8fd49"><path class="be1a7c8c-5c19-4f79-b027-57e59c71b933" d="M3740.45,2469.15q24,10.08,47,22.38t44.85,26.73c3.22,2.13,6.5,3.79,8.44,7.07a9.54,9.54,0,0,1,.84,1.76c.1.3.17.6.25.9.13.51.08.05.08.55,0,.16,0,.31,0,.46,0,.39,0-.37,0,0,0,.07-.15.5,0,.19s0,.11-.1.16.07-.07,0,0a1.18,1.18,0,0,1-.29.16c.45-.16-.36.06-.36.06-3.13.73-1.81,5.55,1.33,4.82,3.44-.79,4.84-3.91,4.28-7.19a15.26,15.26,0,0,0-4.61-8,34.57,34.57,0,0,0-4.81-3.5q-3-2-6-3.94-5.82-3.78-11.72-7.42-23.82-14.65-49-26.91-14.22-6.9-28.81-13a2.5,2.5,0,0,0-3.07,1.74,2.56,2.56,0,0,0,1.74,3.08Z"/></g><g class="fb5d3682-5f27-40e5-8cd7-3eba0af8fd49"><path class="be1a7c8c-5c19-4f79-b027-57e59c71b933" d="M3593,1580.58q24.6-11.22,50.19-20t51.76-15.21q26.34-6.42,53.2-10.37,26.61-3.92,53.52-5.29c18-.94,36.14-1,54.19-.25,2.23.1,4.45.21,6.68.33,3.21.17,3.2-4.83,0-5q-27.19-1.48-54.44-.38t-54.41,4.8q-27,3.64-53.57,9.79t-52.4,14.77q-26,8.68-51.15,19.81c-2,.9-4.07,1.81-6.09,2.74a2.52,2.52,0,0,0-.9,3.42,2.55,2.55,0,0,0,3.42.89Z"/></g><g class="b33aba63-042a-4281-a8bb-5fa86cf720b5"><path class="a74c79e1-5bd5-44c2-ab93-cfe1e36bb49d" d="M3505.68,1962.76q13,24.75,24.27,50.32,1.46,3.29,2.88,6.6c.43,1,.86,2,1.28,3,.23.54.45,1.07.68,1.6l.29.69c.36.84-.45-1.06.17.41q2.7,6.4,5.29,12.86,5.17,12.9,9.92,26,9.59,26.37,17.38,53.35t13.71,54.16q5.94,27.3,10,54.95c.34,2.29.67,4.59,1,6.88.37,2.6,3.81,4.25,6.15,3.5,2.85-.93,3.88-3.37,3.49-6.15q-3.89-27.79-9.64-55.28t-13.34-54.5q-7.58-27-17-53.49-9.51-26.83-20.82-53-11.11-25.77-23.95-50.75c-1.06-2.06-2.13-4.11-3.2-6.17a5,5,0,0,0-6.84-1.79,5.12,5.12,0,0,0-1.8,6.84Z"/></g><g class="b33aba63-042a-4281-a8bb-5fa86cf720b5"><path class="a74c79e1-5bd5-44c2-ab93-cfe1e36bb49d" d="M2671.61,2190.24a585.45,585.45,0,0,0,41.65-71.38,610.14,610.14,0,0,0,62-240.6,584.75,584.75,0,0,0-1.95-82.65c-.32-3.41-.68-6.81-1.06-10.21-.3-2.68-2.08-5-5-5-2.47,0-5.3,2.3-5,5a589.81,589.81,0,0,1-4.56,163.56,606.61,606.61,0,0,1-19.1,79.77,590.49,590.49,0,0,1-29.63,76.15,583.73,583.73,0,0,1-40.24,71.79q-2.82,4.29-5.71,8.52c-1.52,2.23-.42,5.54,1.79,6.84a5.1,5.1,0,0,0,6.84-1.79Z"/></g><circle class="e6e0cad2-227d-4595-88ef-06724f43ed52" cx="1985.69" cy="1717.3" r="58.52"/><rect class="e6e0cad2-227d-4595-88ef-06724f43ed52" x="1992.19" y="1390.02" width="34.68" height="312.1"/><circle class="ae2b9e29-248c-4739-b7b8-ad1fb66ae0a5" cx="2795.05" cy="609.54" r="58.52"/><rect class="ae2b9e29-248c-4739-b7b8-ad1fb66ae0a5" x="2847.93" y="295.51" width="34.68" height="312.1" transform="translate(236.23 -773.92) rotate(16.04)"/><circle class="be1a7c8c-5c19-4f79-b027-57e59c71b933" cx="4161.58" cy="1426.8" r="24.31"/><rect class="be1a7c8c-5c19-4f79-b027-57e59c71b933" x="4204.03" y="1310.12" width="14.4" height="129.63" transform="translate(1601.25 -2204.58) rotate(35.82)"/><circle class="e6e0cad2-227d-4595-88ef-06724f43ed52" cx="2239.46" cy="2191.52" r="19.53"/><rect class="e6e0cad2-227d-4595-88ef-06724f43ed52" x="2215.53" y="2084.68" width="11.57" height="104.15" transform="translate(-716.05 1203.04) rotate(-26.25)"/><circle class="e6e0cad2-227d-4595-88ef-06724f43ed52" cx="2323.34" cy="2149.72" r="19.53"/><rect class="e6e0cad2-227d-4595-88ef-06724f43ed52" x="2299.41" y="2042.89" width="11.57" height="104.15" transform="translate(-688.91 1235.84) rotate(-26.25)"/><rect class="e6e0cad2-227d-4595-88ef-06724f43ed52" x="2236.65" y="2021.6" width="11.57" height="104.15" transform="translate(3110.23 -854.73) rotate(63.75)"/><rect class="e6e0cad2-227d-4595-88ef-06724f43ed52" x="2246.45" y="2041.47" width="11.57" height="104.15" transform="translate(3133.52 -852.44) rotate(63.75)"/><circle class="a74c79e1-5bd5-44c2-ab93-cfe1e36bb49d" cx="4281.5" cy="1856.17" r="22.31"/><rect class="a74c79e1-5bd5-44c2-ab93-cfe1e36bb49d" x="4254.16" y="1734.1" width="13.22" height="119" transform="translate(-353.86 2069.81) rotate(-26.25)"/><circle class="a74c79e1-5bd5-44c2-ab93-cfe1e36bb49d" cx="4377.34" cy="1808.41" r="22.31"/><rect class="a74c79e1-5bd5-44c2-ab93-cfe1e36bb49d" x="4350" y="1686.34" width="13.22" height="119" transform="translate(-322.85 2107.28) rotate(-26.25)"/><rect class="a74c79e1-5bd5-44c2-ab93-cfe1e36bb49d" x="4278.29" y="1662.02" width="13.22" height="119" transform="translate(3933.38 -2882.87) rotate(63.75)"/><rect class="a74c79e1-5bd5-44c2-ab93-cfe1e36bb49d" x="4289.49" y="1684.73" width="13.22" height="119" transform="translate(3959.99 -2880.25) rotate(63.75)"/><circle class="be1a7c8c-5c19-4f79-b027-57e59c71b933" cx="2135.83" cy="2822.27" r="18.78"/><rect class="be1a7c8c-5c19-4f79-b027-57e59c71b933" x="2112.82" y="2719.54" width="11.13" height="100.14" transform="translate(-1006.62 1222.8) rotate(-26.25)"/><circle class="be1a7c8c-5c19-4f79-b027-57e59c71b933" cx="2216.48" cy="2782.08" r="18.78"/><rect class="be1a7c8c-5c19-4f79-b027-57e59c71b933" x="2193.48" y="2679.36" width="11.13" height="100.14" transform="translate(-980.53 1254.33) rotate(-26.25)"/><rect class="be1a7c8c-5c19-4f79-b027-57e59c71b933" x="2133.13" y="2658.89" width="11.13" height="100.14" transform="translate(3622.13 -407.43) rotate(63.75)"/><rect class="be1a7c8c-5c19-4f79-b027-57e59c71b933" x="2142.55" y="2678" width="11.13" height="100.14" transform="translate(3644.52 -405.22) rotate(63.75)"/><circle class="a74c79e1-5bd5-44c2-ab93-cfe1e36bb49d" cx="2240.34" cy="2543.82" r="16.8"/><rect class="a74c79e1-5bd5-44c2-ab93-cfe1e36bb49d" x="2242.2" y="2449.87" width="9.95" height="89.59"/><path class="a74c79e1-5bd5-44c2-ab93-cfe1e36bb49d" d="M2275.67,2477.82l-26.47-3.24,2.68-24.64,10.26,11.48c4.19,4.69,15.58,6,21.09,9l16.52,28.6Z"/><circle class="e6e0cad2-227d-4595-88ef-06724f43ed52" cx="4049.49" cy="1230.85" r="19.96"/><rect class="e6e0cad2-227d-4595-88ef-06724f43ed52" x="4051.71" y="1119.22" width="11.83" height="106.46"/><path class="e6e0cad2-227d-4595-88ef-06724f43ed52" d="M4091.49,1152.43l-31.46-3.86,3.18-29.28,12.2,13.65c5,5.57,18.51,7.08,25.05,10.68l19.63,34Z"/><circle class="be1a7c8c-5c19-4f79-b027-57e59c71b933" cx="4281.45" cy="606.49" r="53"/><rect class="be1a7c8c-5c19-4f79-b027-57e59c71b933" x="4374.02" y="352.04" width="31.41" height="282.68" transform="translate(1119.08 -2475.79) rotate(35.82)"/><circle class="a74c79e1-5bd5-44c2-ab93-cfe1e36bb49d" cx="3902.39" cy="1052.61" r="48.66"/><rect class="a74c79e1-5bd5-44c2-ab93-cfe1e36bb49d" x="3842.78" y="786.41" width="28.83" height="259.5" transform="translate(-7.36 1800.77) rotate(-26.25)"/><circle class="a74c79e1-5bd5-44c2-ab93-cfe1e36bb49d" cx="4111.39" cy="948.46" r="48.66"/><rect class="a74c79e1-5bd5-44c2-ab93-cfe1e36bb49d" x="4051.78" y="682.27" width="28.83" height="259.5" transform="translate(60.27 1882.48) rotate(-26.25)"/><rect class="a74c79e1-5bd5-44c2-ab93-cfe1e36bb49d" x="3895.39" y="629.23" width="28.83" height="259.5" transform="translate(2860.97 -3083.23) rotate(63.75)"/><rect class="a74c79e1-5bd5-44c2-ab93-cfe1e36bb49d" x="3919.82" y="678.75" width="28.83" height="259.5" transform="translate(2919 -3077.52) rotate(63.75)"/><circle class="be1a7c8c-5c19-4f79-b027-57e59c71b933" cx="2363.18" cy="1374.91" r="48.66"/><rect class="be1a7c8c-5c19-4f79-b027-57e59c71b933" x="2303.56" y="1108.71" width="28.83" height="259.5" transform="translate(-308.72 1153.13) rotate(-26.25)"/><circle class="be1a7c8c-5c19-4f79-b027-57e59c71b933" cx="2572.18" cy="1270.77" r="48.66"/><rect class="be1a7c8c-5c19-4f79-b027-57e59c71b933" x="2512.56" y="1004.57" width="28.83" height="259.5" transform="translate(-241.09 1234.84) rotate(-26.25)"/><rect class="be1a7c8c-5c19-4f79-b027-57e59c71b933" x="2356.18" y="951.54" width="28.83" height="259.5" transform="translate(2291.69 -1523.07) rotate(63.75)"/><rect class="be1a7c8c-5c19-4f79-b027-57e59c71b933" x="2380.6" y="1001.06" width="28.83" height="259.5" transform="translate(2349.72 -1517.36) rotate(63.75)"/><circle class="e6e0cad2-227d-4595-88ef-06724f43ed52" cx="3617.25" cy="595.74" r="43.53"/><rect class="e6e0cad2-227d-4595-88ef-06724f43ed52" x="3622.09" y="352.3" width="25.8" height="232.16"/><path class="e6e0cad2-227d-4595-88ef-06724f43ed52" d="M3708.83,424.74l-68.61-8.42,7-63.85,26.59,29.76c10.86,12.15,40.37,15.43,54.64,23.3l42.81,74.09Z"/><circle class="e6e0cad2-227d-4595-88ef-06724f43ed52" cx="4408.1" cy="2855.64" r="19.96"/><rect class="e6e0cad2-227d-4595-88ef-06724f43ed52" x="4410.32" y="2744.01" width="11.83" height="106.46"/><path class="e6e0cad2-227d-4595-88ef-06724f43ed52" d="M4450.09,2777.23l-31.46-3.86,3.19-29.28,12.19,13.64c5,5.58,18.51,7.08,25.06,10.69l19.63,34Z"/><circle class="a74c79e1-5bd5-44c2-ab93-cfe1e36bb49d" cx="2059.45" cy="866.09" r="73.62"/><rect class="a74c79e1-5bd5-44c2-ab93-cfe1e36bb49d" x="2065.48" y="454.06" width="43.63" height="392.66" transform="matrix(1, -0.01, 0.01, 1, -6.4, 20.9)"/><path class="a74c79e1-5bd5-44c2-ab93-cfe1e36bb49d" d="M2211.43,575.33l-116.17-13.08,10.68-108.1L2151.41,504c18.57,20.37,68.53,25.43,92.81,38.49l73.65,124.59Z"/><g class="f6d36f9f-7bed-4f93-a203-35edab9a99ba"><path class="be1a7c8c-5c19-4f79-b027-57e59c71b933" d="M2335.07,2851.4q-5.46,11.17-10.88,22.44-1.05-9.66-1.44-19.36-.18-4.38-.22-8.76l.35.16Z"/></g><g class="f6d36f9f-7bed-4f93-a203-35edab9a99ba"><path class="be1a7c8c-5c19-4f79-b027-57e59c71b933" d="M3899.45,2528.34c-73.48.83-167.9-4.31-234.61-30.25-163.65-63.65-769.52,536.8-1178,648.55-123.67,33.84-163.3-94.3-164.21-269.59.5-1.07,1-2.14,1.53-3.21a297.8,297.8,0,0,0,54.8,142.48c20.23,27.81,46.44,52.7,79,63.73,37,12.55,78.16,5.75,114.69-8.24,78.56-30.12,140.79-90.61,203.54-146.67A2600.22,2600.22,0,0,1,3237,2596.34c98.14-55,201.29-104.05,311.74-125.38s229.7-12.88,327.93,41.94A160.67,160.67,0,0,1,3899.45,2528.34Z"/></g><g class="f6d36f9f-7bed-4f93-a203-35edab9a99ba"><path class="be1a7c8c-5c19-4f79-b027-57e59c71b933" d="M4148.68,2580c-7.23,20.83-39.41,21.11-55.22,5.73a60.91,60.91,0,0,1-12-16.91c16.07,15.5,24.6,17.91,21.9,1.72-73.21-439.28-228.64-1002.34-259.34-978.73-37.9,29.15-254.67-17.66-322.81-33.31a19.57,19.57,0,0,1,.41-8c.07-.26.15-.52.23-.78,3.73-11.1,22.06-14.71,27.41-5.07a12.13,12.13,0,0,1,.81,1.86l-10.73,0H3534l1.56.71c61.7,28.33,133,25.62,200.5,18,50.75-5.69,109-11.53,146.2,23.45,19.83,18.65,29.31,45.52,37.94,71.35a6373.84,6373.84,0,0,1,228.34,895.53C4150,2563.72,4151.39,2572.25,4148.68,2580Z"/></g><g class="f23a3daa-2269-436d-a92e-eabfc2c20b31"><path class="ae2b9e29-248c-4739-b7b8-ad1fb66ae0a5" d="M3248.72,1928.67a900.44,900.44,0,0,1-417.78-55.57c-44.57-17.27-90.5-38.53-138-32.82-60.78,7.33-106.88,56.43-147,102.66-50.91,58.63-103.55,122.4-113.39,199.41l8.59,9.78a38.42,38.42,0,0,1,1,6.75c-5.7-6.48-8.93-10.89-11.18-10.89-31.7-202.83,96.91-300.09,200.12-344.86a255.55,255.55,0,0,1,196.91-2.5c92,36.93,249,95.16,383.91,121.29Q3230.9,1925.59,3248.72,1928.67Z"/></g><g class="f23a3daa-2269-436d-a92e-eabfc2c20b31"><path class="ae2b9e29-248c-4739-b7b8-ad1fb66ae0a5" d="M3128.62,731.19c-8,28.21-29.49,51.95-53.71,69.2-28,19.91-60,33.19-89.4,51-74.86,45.28-130.89,120.73-152.58,205.5-15.59,60.9-14,125.37-31.33,185.8-15.07,52.57-43.08,98.6-76.49,141.8-43.06,55.69-95.08,106.71-139.9,161.12a932.87,932.87,0,0,0-198.81,436.37l5.84-22.93a114,114,0,0,1-9.9,73.77,552.19,552.19,0,0,1-6.77-110.17c12.59-322.44,308.62-529.37,341.5-557.2a13.88,13.88,0,0,0,2.92-2.86c.23-2.12.45-4.24.68-6.36q.67-6.35,1.37-12.61,2.79-25,5.92-48.79c.53-4,1.05-7.89,1.59-11.79s1.08-7.79,1.63-11.64q1.23-8.67,2.52-17.17,3.42-22.65,7.14-44.06c.86-4.91,1.73-9.76,2.61-14.58s1.76-9.58,2.66-14.3q2-10.62,4.13-20.92c.46-2.29.94-4.57,1.41-6.83.35-1.65.69-3.29,1-4.92.69-3.28,1.39-6.52,2.09-9.75s1.42-6.43,2.14-9.6c12.88-57.17,27.58-106.57,43.56-149.22q1.33-3.56,2.68-7l.05-.14c12.31-28.12,24.9-56.17,38.35-83.57,1.41-2.59,2.83-5.12,4.27-7.63s3-5.19,4.49-7.72c1-1.7,2-3.37,3-5s2-3.29,3-4.91,2-3.22,3-4.8l1.53-2.37c1-1.57,2-3.11,3-4.65.52-.76,1-1.53,1.54-2.29,1-1.51,2-3,3.08-4.49q3.85-5.55,7.74-10.8,1.56-2.1,3.12-4.15,2.34-3.07,4.69-6,3.14-4,6.29-7.72,9.46-11.28,19.05-20.91l1.6-1.6c1.05-1,2.12-2.09,3.18-3.12l1.61-1.54q2.4-2.28,4.8-4.46,3.21-2.91,6.42-5.66l3.2-2.7h0q2.4-2,4.81-3.91l1.62-1.26c2.13-1.68,4.27-3.29,6.42-4.85h0q4.8-3.52,9.62-6.7h0l3.2-2.08h0a223.26,223.26,0,0,1,35-18.3h0q6.28-2.61,12.49-4.73h0l3.11-1a208.12,208.12,0,0,1,64.5-10.15c1.11,0,2.2,0,3.3,0s2.13,0,3.19.08h.28c1,0,2,.06,3,.11h.05c1,0,2,.09,3,.16,1.32.07,2.63.17,3.94.26q2.83.23,5.59.51c1.07.11,2.12.22,3.17.35l2.49.3,2.39.32c.67.08,1.33.18,2,.28,3.6.53,7.11,1.14,10.49,1.79l2.63.54c.91.19,1.8.37,2.69.57q2.65.57,5.23,1.21C3125.94,730.5,3127.29,730.85,3128.62,731.19Z"/></g><rect class="bd772111-a43c-4a95-9424-918b786f1d75" x="1649.72" y="228.1" width="3034.35" height="3034.35"/></g></g></svg>