<svg id="Layer_1" data-name="Layer 1" xmlns="http://www.w3.org/2000/svg" viewBox="0 0 16 16"><defs><style>.cls-1{fill:#6f9ceb;}.cls-2{fill:#e84855;}.cls-3{fill:#eca400;}.cls-4{fill:#fff;}</style></defs><title>fav</title><circle class="cls-1" cx="7.34" cy="7.46" r="0.99"/><circle class="cls-2" cx="10.49" cy="9.88" r="1.23"/><circle class="cls-3" cx="6.55" cy="2.5" r="0.84"/><path class="cls-4" d="M9.88,15.89H7.82v-12H9.88v.47a3.46,3.46,0,0,1,2-.53,3.8,3.8,0,0,1,1.91.65A4.33,4.33,0,0,1,15.21,6a4.8,4.8,0,0,1,.53,2.28,4.37,4.37,0,0,1-.53,2.13A4.25,4.25,0,0,1,13.81,12a3.74,3.74,0,0,1-2,.59l-.63,0a4.4,4.4,0,0,1-.74-.13,1.88,1.88,0,0,1-.57-.25Zm0-5.67a3.38,3.38,0,0,0,1.85.36,2.15,2.15,0,0,0,1.4-.7,2.26,2.26,0,0,0,.53-1.57,2.65,2.65,0,0,0-.56-1.78,2,2,0,0,0-1.42-.74,2.89,2.89,0,0,0-1.8.48Z"/><path class="cls-4" d="M1.21,12.05V.63h2V6.08l2-2.22H7.84L6.45,5.4a3.15,3.15,0,0,0-.22,4l1.94,2.67H5.83L3.2,8.64v3.41Z"/></svg>