<svg id="Layer_1" data-name="Layer 1" xmlns="http://www.w3.org/2000/svg" viewBox="0 0 100 34.94"><defs><style>.cls-1{fill:#6f9ceb;}.cls-2{fill:#e84855;}.cls-3{fill:#eca400;}.cls-4{fill:#fff;}</style></defs><title>logo</title><circle class="cls-1" cx="15.91" cy="15.61" r="1.84"/><circle class="cls-2" cx="21.75" cy="20.09" r="2.28"/><circle class="cls-3" cx="14.44" cy="6.42" r="1.56"/><path class="cls-4" d="M20.62,31.23H16.8V8.94h3.82V9.8a6.46,6.46,0,0,1,3.72-1A7.06,7.06,0,0,1,27.87,10,8,8,0,0,1,30.49,13a9,9,0,0,1,1,4.24,8.11,8.11,0,0,1-1,3.95A8,8,0,0,1,27.89,24a6.79,6.79,0,0,1-3.68,1.09c-.31,0-.71,0-1.17-.06a7.58,7.58,0,0,1-1.36-.24,3.48,3.48,0,0,1-1.06-.46Zm0-10.51a6.32,6.32,0,0,0,3.43.67,4,4,0,0,0,2.58-1.29,4.17,4.17,0,0,0,1-2.91,4.91,4.91,0,0,0-1-3.31A3.81,3.81,0,0,0,24,12.51a5.38,5.38,0,0,0-3.34.89Z"/><path class="cls-4" d="M4.55,24.12V3h3.7v10.1L12,8.94h4.83l-2.57,2.85a5.86,5.86,0,0,0-.4,7.38l3.59,4.95H13.11L8.25,17.8v6.32Z"/><path class="cls-4" d="M40.2,19H39A.12.12,0,0,1,39,19l-2.08-2.54h0a.13.13,0,0,0-.23.08V18.9a.12.12,0,0,1-.12.12h-1a.12.12,0,0,1-.12-.12v-7a.12.12,0,0,1,.12-.12h1a.12.12,0,0,1,.12.12v2.42a.13.13,0,0,0,.23.08l2.06-2.59a.11.11,0,0,1,.09,0h1.19a.13.13,0,0,1,.11.2L37.8,15.32a.14.14,0,0,0,0,.15l2.5,3.35A.13.13,0,0,1,40.2,19Z"/><path class="cls-4" d="M42.47,19.07a1.68,1.68,0,0,1-1.19-.45,1.51,1.51,0,0,1-.4-1.12,1.53,1.53,0,0,1,.27-.91,1.88,1.88,0,0,1,.71-.59,3,3,0,0,1,1-.27,3.43,3.43,0,0,1,1.1.08v-.32a.51.51,0,0,0-.27-.48,1.3,1.3,0,0,0-.65-.13,2.07,2.07,0,0,0-.77.15,1.54,1.54,0,0,0-.63.39l-.69-.75a3,3,0,0,1,.93-.6A3.56,3.56,0,0,1,43,13.83a3,3,0,0,1,1.08.13,1.85,1.85,0,0,1,.84.54,1.21,1.21,0,0,1,.29.76c0,.32,0,.66,0,1V19H44v-.47a1.65,1.65,0,0,1-.71.41A2.32,2.32,0,0,1,42.47,19.07Zm1.44-1.5v-.89a3,3,0,0,0-1.49.14.7.7,0,0,0-.42.67.45.45,0,0,0,.2.41.92.92,0,0,0,.51.13,2.15,2.15,0,0,0,.63-.13A1.78,1.78,0,0,0,43.91,17.57Z"/><path class="cls-4" d="M46.24,19V13.87h1.23v.38a1.22,1.22,0,0,1,1-.4,4.28,4.28,0,0,1,1.24.22l-.6,1.07a1.68,1.68,0,0,0-.76-.09,1.39,1.39,0,0,0-.62.23.5.5,0,0,0-.22.42V19Z"/><path class="cls-4" d="M51,13.26a.75.75,0,0,1-.75-.75.71.71,0,0,1,.22-.53.73.73,0,0,1,.53-.22.75.75,0,0,1,.75.75.73.73,0,0,1-.22.53A.71.71,0,0,1,51,13.26ZM51.61,19H50.48V13.87h1.13Z"/><path class="cls-4" d="M57.45,19H56.22V16a1.08,1.08,0,0,0-.16-.63.84.84,0,0,0-.39-.29,1.9,1.9,0,0,0-.45-.07,2.31,2.31,0,0,0-.48.07,1.09,1.09,0,0,0-.48.29.86.86,0,0,0-.21.63v3H52.82V13.87h1.23v.37a1,1,0,0,1,.55-.34,3,3,0,0,1,.71-.09,2.29,2.29,0,0,1,1.14.27,1.92,1.92,0,0,1,.74.78A2.35,2.35,0,0,1,57.45,16Z"/><path class="cls-4" d="M62.3,19V11.81H65a1.6,1.6,0,0,1,1,.31,2.07,2.07,0,0,1,.65.81A2.46,2.46,0,0,1,66.88,14a2.26,2.26,0,0,1-.15.8,2.79,2.79,0,0,1-.41.71,2.09,2.09,0,0,1-.6.51,1.61,1.61,0,0,1-.75.19H63.54V19Zm1.24-4h1.38a.64.64,0,0,0,.52-.3,1.2,1.2,0,0,0,.22-.69,1.09,1.09,0,0,0-.23-.7A.68.68,0,0,0,65,13H63.54Z"/><path class="cls-4" d="M69.68,19.16a2.55,2.55,0,0,1-1.31-.33,2.31,2.31,0,0,1-.87-.91,2.78,2.78,0,0,1-.32-1.35,2.82,2.82,0,0,1,.69-2.06,2.44,2.44,0,0,1,1.81-.69,2.57,2.57,0,0,1,1.29.31,2.07,2.07,0,0,1,.88.92,3.17,3.17,0,0,1,.32,1.52,2.67,2.67,0,0,1-.32,1.35,2.27,2.27,0,0,1-.88.91A2.48,2.48,0,0,1,69.68,19.16Zm0-1.19a1.29,1.29,0,0,0,.72-.2,1.38,1.38,0,0,0,.44-.52,1.57,1.57,0,0,0,.15-.68,1.81,1.81,0,0,0-.34-1.11,1.12,1.12,0,0,0-1-.46,1.19,1.19,0,0,0-1,.44,1.79,1.79,0,0,0-.34,1.13,1.58,1.58,0,0,0,.15.69,1.39,1.39,0,0,0,.45.51A1.26,1.26,0,0,0,69.68,18Z"/><path class="cls-4" d="M74.34,19H73.1V11.81h1.24Z"/><path class="cls-4" d="M76.85,19.07a1.65,1.65,0,0,1-1.18-.45,1.51,1.51,0,0,1-.4-1.12,1.52,1.52,0,0,1,.26-.91,2,2,0,0,1,.71-.59,3.15,3.15,0,0,1,1-.27,3.43,3.43,0,0,1,1.1.08v-.32a.51.51,0,0,0-.27-.48,1.34,1.34,0,0,0-.66-.13,2.15,2.15,0,0,0-.77.15,1.5,1.5,0,0,0-.62.39l-.69-.75a3,3,0,0,1,.92-.6,3.56,3.56,0,0,1,1.11-.24,3,3,0,0,1,1.08.13,1.85,1.85,0,0,1,.84.54,1.16,1.16,0,0,1,.29.76c0,.32,0,.66,0,1V19H78.34v-.47a1.71,1.71,0,0,1-.71.41A2.37,2.37,0,0,1,76.85,19.07Zm1.45-1.5v-.89a3,3,0,0,0-1.49.14.7.7,0,0,0-.42.67.45.45,0,0,0,.2.41.87.87,0,0,0,.5.13,2,2,0,0,0,.63-.13A1.94,1.94,0,0,0,78.3,17.57Z"/><path class="cls-4" d="M85.26,19H84V16a1.08,1.08,0,0,0-.16-.63.81.81,0,0,0-.4-.29A1.75,1.75,0,0,0,83,15a2.31,2.31,0,0,0-.48.07,1,1,0,0,0-.48.29.86.86,0,0,0-.21.63v3H80.62V13.87h1.24v.37a1,1,0,0,1,.55-.34,3,3,0,0,1,.71-.09,2.29,2.29,0,0,1,1.14.27,1.92,1.92,0,0,1,.74.78A2.35,2.35,0,0,1,85.26,16Z"/><path class="cls-4" d="M90.47,18.31a2.86,2.86,0,0,1-1.11.68,2.66,2.66,0,0,1-1.18.09,2.37,2.37,0,0,1-1.05-.43,2.47,2.47,0,0,1-.76-.9,2.81,2.81,0,0,1-.28-1.31,2.9,2.9,0,0,1,.28-1.33,2.24,2.24,0,0,1,1.8-1.28,2.61,2.61,0,0,1,1.19.13,3.12,3.12,0,0,1,1.14.69l-.83.88a1.33,1.33,0,0,0-.7-.47,1.34,1.34,0,0,0-.77,0,1.3,1.3,0,0,0-.62.49,1.44,1.44,0,0,0-.25.84,1.53,1.53,0,0,0,.25.89,1.26,1.26,0,0,0,.61.49,1.29,1.29,0,0,0,.78,0,1.49,1.49,0,0,0,.76-.46Z"/><path class="cls-4" d="M93.61,19.16a2.51,2.51,0,0,1-1.3-.33,2.27,2.27,0,0,1-.88-.91,2.77,2.77,0,0,1-.31-1.35,2.86,2.86,0,0,1,.68-2.06,2.44,2.44,0,0,1,1.81-.69,2.63,2.63,0,0,1,1.3.31,2.18,2.18,0,0,1,.88.92,3.29,3.29,0,0,1,.32,1.52,2.78,2.78,0,0,1-.32,1.35,2.41,2.41,0,0,1-.88.91A2.54,2.54,0,0,1,93.61,19.16Zm0-1.19a1.29,1.29,0,0,0,.72-.2,1.38,1.38,0,0,0,.44-.52,1.57,1.57,0,0,0,.15-.68,1.87,1.87,0,0,0-.33-1.11,1.14,1.14,0,0,0-1-.46,1.16,1.16,0,0,0-1,.44,1.79,1.79,0,0,0-.35,1.13,1.46,1.46,0,0,0,.16.69,1.25,1.25,0,0,0,1.15.71Z"/></svg>