<svg id="abbe6129-faa9-4c0f-8e1d-71b3066d1b83" data-name="Layer 1" xmlns="http://www.w3.org/2000/svg" viewBox="0 0 2160 1080"><defs><style>.e0572c73-18d8-44a5-a5ec-b76b9f45509f{fill:#384bb7;}.b4700947-b252-4635-ad80-35d66739a13d{fill:#0cf;}.f6096c1c-2fc8-4df2-b86a-645544a3d878{fill:none;stroke:#fff;stroke-miterlimit:10;stroke-width:14px;}.b4d7a28e-14e8-4fa3-bf75-3d4b166d9f70{fill:#fff;}</style></defs><title>electrocapital</title><rect class="e0572c73-18d8-44a5-a5ec-b76b9f45509f" x="-11" y="-8.33" width="2178.67" height="1098.67"/><path class="b4700947-b252-4635-ad80-35d66739a13d" d="M1022.76,317.86h164.6a18,18,0,0,1,18,18v12.82a18,18,0,0,1-18,18H1026.44a18,18,0,0,0-18,18v21.61a18,18,0,0,0,18,18h61.7a18,18,0,0,1,18,18v22.11a18,18,0,0,1-18,18h-61.7a18,18,0,0,0-18,18v24.06a18,18,0,0,0,18,18h161.4a18,18,0,0,1,18,18v19.66a18,18,0,0,1-18,18H1021.2A48.47,48.47,0,0,1,972.73,550V367.89A50,50,0,0,1,1022.76,317.86Z"/><rect class="b4700947-b252-4635-ad80-35d66739a13d" x="941.94" y="336.92" width="100.44" height="8.8" rx="4.4"/><rect class="b4700947-b252-4635-ad80-35d66739a13d" x="970.53" y="318.6" width="100.44" height="8.8" rx="4.4"/><rect class="b4700947-b252-4635-ad80-35d66739a13d" x="959.29" y="296.6" width="12.46" height="8.8" rx="4.4"/><rect class="b4700947-b252-4635-ad80-35d66739a13d" x="904.8" y="318.11" width="12.46" height="8.8" rx="4.4"/><rect class="b4700947-b252-4635-ad80-35d66739a13d" x="873.27" y="364.29" width="12.46" height="8.8" rx="4.4"/><rect class="b4700947-b252-4635-ad80-35d66739a13d" x="909.93" y="394.35" width="12.46" height="8.8" rx="4.4"/><rect class="b4700947-b252-4635-ad80-35d66739a13d" x="905.53" y="414.15" width="12.46" height="8.8" rx="4.4"/><rect class="b4700947-b252-4635-ad80-35d66739a13d" x="876.2" y="435.41" width="12.46" height="8.8" rx="4.4"/><rect class="b4700947-b252-4635-ad80-35d66739a13d" x="901.13" y="433.94" width="12.46" height="8.8" rx="4.4"/><rect class="b4700947-b252-4635-ad80-35d66739a13d" x="896" y="473.53" width="12.46" height="8.8" rx="4.4"/><rect class="b4700947-b252-4635-ad80-35d66739a13d" x="872.54" y="543.18" width="12.46" height="8.8" rx="4.4"/><rect class="b4700947-b252-4635-ad80-35d66739a13d" x="896.73" y="545.38" width="12.46" height="8.8" rx="4.4"/><rect class="b4700947-b252-4635-ad80-35d66739a13d" x="922.88" y="337.41" width="12.46" height="8.8" rx="4.4"/><rect class="b4700947-b252-4635-ad80-35d66739a13d" x="911.88" y="366.01" width="12.46" height="8.8" rx="4.4"/><rect class="b4700947-b252-4635-ad80-35d66739a13d" x="954.16" y="319.33" width="12.46" height="8.8" rx="4.4"/><rect class="b4700947-b252-4635-ad80-35d66739a13d" x="959.29" y="394.6" width="47.9" height="8.8" rx="4.4"/><rect class="b4700947-b252-4635-ad80-35d66739a13d" x="928.74" y="366.49" width="47.9" height="8.8" rx="4.4"/><rect class="b4700947-b252-4635-ad80-35d66739a13d" x="954.89" y="375.29" width="47.9" height="8.8" rx="4.4"/><rect class="b4700947-b252-4635-ad80-35d66739a13d" x="919.21" y="414.15" width="55.88" height="10.26" rx="1.33"/><rect class="b4700947-b252-4635-ad80-35d66739a13d" x="952.45" y="423.92" width="55.88" height="10.26" rx="4.4"/><rect class="b4700947-b252-4635-ad80-35d66739a13d" x="921.66" y="433.7" width="55.88" height="10.26" rx="4.4"/><rect class="b4700947-b252-4635-ad80-35d66739a13d" x="926.06" y="454.23" width="55.88" height="10.26" rx="4.4"/><rect class="b4700947-b252-4635-ad80-35d66739a13d" x="956.85" y="444.94" width="55.88" height="10.26" rx="4.4"/><rect class="b4700947-b252-4635-ad80-35d66739a13d" x="918.24" y="473.78" width="55.88" height="10.26" rx="4.4"/><rect class="b4700947-b252-4635-ad80-35d66739a13d" x="956.36" y="465.47" width="55.88" height="10.26" rx="4.4"/><rect class="b4700947-b252-4635-ad80-35d66739a13d" x="928.99" y="500.17" width="55.88" height="10.26" rx="4.4"/><rect class="b4700947-b252-4635-ad80-35d66739a13d" x="958.8" y="488.44" width="43.74" height="11.24" rx="4.4"/><rect class="b4700947-b252-4635-ad80-35d66739a13d" x="947.56" y="520.7" width="43.74" height="11.24" rx="4.4"/><rect class="b4700947-b252-4635-ad80-35d66739a13d" x="920.68" y="544.16" width="77.96" height="10.75" rx="4.4"/><rect class="b4700947-b252-4635-ad80-35d66739a13d" x="1117.47" y="428.51" width="51.87" height="51.87" rx="2.32"/><rect class="b4700947-b252-4635-ad80-35d66739a13d" x="1176.36" y="390.93" width="29.45" height="29.45" rx="1.61"/><circle class="f6096c1c-2fc8-4df2-b86a-645544a3d878" cx="1068.45" cy="454.88" r="238.43"/><path class="b4700947-b252-4635-ad80-35d66739a13d" d="M718,841h-7c-8.15,0-16.31.15-24.47-.07a62.55,62.55,0,0,1-12.75-1.39c-10.56-2.5-17.91-9.09-21.52-19.28-5-14.2-4.55-28.56.43-42.67,4-11.37,12.58-17.65,24.25-19.75a72.75,72.75,0,0,1,11.52-1c9.43-.19,18.85-.14,28.28-.23,1.16,0,1.43.42,1.42,1.49-.05,3.81-.07,7.62,0,11.44,0,1.32-.4,1.71-1.71,1.7-8.63,0-17.27-.05-25.9,0a38.28,38.28,0,0,0-7.26.63c-7.6,1.55-12.31,6.69-13.77,14.78-.25,1.39-.35,2.8-.54,4.37.86,0,1.48.1,2.1.1l40.67-.05c1.64,0,3.28,0,4.92-.12,1.09-.06,1.5.31,1.48,1.44-.05,3.92-.06,7.84,0,11.76,0,1.24-.47,1.49-1.59,1.49-6.78,0-13.56,0-20.34,0-8.52,0-17,0-25.58,0-1.36,0-1.85.34-1.77,1.78.29,5.52,1.4,10.7,5.45,14.85a11.6,11.6,0,0,0,6.87,3.66,49.64,49.64,0,0,0,6.31.57c9.64,0,19.28,0,28.92,0,1.28,0,1.76.31,1.73,1.67-.08,3.76,0,7.52,0,11.28C718.08,839.85,718,840.31,718,841Z"/><path class="b4700947-b252-4635-ad80-35d66739a13d" d="M1052.4,810.18a36.16,36.16,0,0,1-4,16.53,27.25,27.25,0,0,1-16.74,13.72,39.44,39.44,0,0,1-27.37-1.09,26.73,26.73,0,0,1-15.11-15.68,36.17,36.17,0,0,1,.29-27.57,27,27,0,0,1,15.68-15.35,38.55,38.55,0,0,1,25.24-1.15c12.43,3.56,19.22,12.12,21.44,24.59C1052.15,806.15,1052.21,808.18,1052.4,810.18Zm-49.23-.5.28.08c.13,1.37.16,2.75.4,4.1,1.21,6.71,3.85,12.25,11.06,14.5,6.62,2.07,14.78-.87,17.86-7.09a24.09,24.09,0,0,0,.52-20.9,14.22,14.22,0,0,0-14-9c-6.4.22-12.29,4.19-14.23,10A76.49,76.49,0,0,0,1003.17,809.68Z"/><path class="b4700947-b252-4635-ad80-35d66739a13d" d="M814.36,779.12c0,4.13,0,7.94,0,11.75,0,1.31-.85,1.1-1.62,1.1-6.72,0-13.45-.16-20.17.09a41,41,0,0,0-9.94,1.7c-3.34,1-5.74,5.72-5.08,9.15.06.37.87.83,1.34.84,5.45,0,10.9,0,16.36,0,5.93,0,11.86,0,17.79,0,.43,0,1.23.58,1.24.9.09,3.86.06,7.71.06,11.81h-2l-32.89,0c-2.09,0-2.14,0-1.92,2.14a21.81,21.81,0,0,0,.71,3.58,6.13,6.13,0,0,0,4.79,4.79,50.55,50.55,0,0,0,8.45,1.18c5.66.16,11.33,0,17,0,1.88,0,3.77.17,5.65.26.07,1.84.17,3.68.19,5.52,0,2.26,0,4.52,0,7h-1.9c-7.84,0-15.68.15-23.51-.05a53.34,53.34,0,0,1-10.67-1.4c-8-1.86-13.3-7.06-16.25-14.53a40.47,40.47,0,0,1-1.12-26.21c3.13-11.3,10.58-17.79,22.34-19,3-.32,6.12-.53,9.19-.57,6.61-.09,13.23,0,19.85,0Z"/><path class="b4700947-b252-4635-ad80-35d66739a13d" d="M892.29,756.72c.65-.05,1.11-.12,1.57-.12,4.35,0,8.69,0,13,0,1.29,0,1.6.43,1.6,1.65,0,6.3,0,12.6,0,18.9,0,1.48.38,2,1.95,2,4.61-.09,9.22,0,13.82,0,1.2,0,1.56.39,1.54,1.55q-.1,4.53,0,9.06c0,1.23-.35,1.65-1.62,1.64-4.66-.05-9.32,0-14,0-1.18,0-1.7.3-1.7,1.6,0,8.15-.08,16.31,0,24.46.13,8.3,2.28,10.48,10.6,11.23,1.79.16,3.59.23,5.39.26.86,0,1.25.32,1.24,1.21,0,3.23,0,6.46,0,9.69,0,.74-.17,1.19-1.06,1.19-5.46,0-10.93.26-16.36-.13-9.81-.71-15.68-7.06-16-17.16-.22-8.1-.07-16.2-.08-24.3,0-2.07-.1-4.14,0-6.2.09-1.52-.52-1.9-1.93-1.86-2.7.08-5.4,0-8.1,0-1.07,0-1.52-.29-1.5-1.43,0-3.12,0-6.25,0-9.37,0-1.12.4-1.46,1.49-1.44,2.7,0,5.4-.08,8.1,0,1.58.07,1.95-.52,1.94-2-.06-6.15,0-12.29,0-18.43Z"/><path class="b4700947-b252-4635-ad80-35d66739a13d" d="M876,841h-3.56c-8.21-.09-16.42,0-24.61-.33-8.6-.36-15.85-3.66-20.77-11-4.75-7.13-6.31-15.05-5.41-23.49.77-7.31,3.33-13.84,8.58-19.18a24.18,24.18,0,0,1,16.2-7.15c7-.47,14.07-.49,21.1-.66,2.38-.06,4.76,0,7.15,0,.77,0,1.34.08,1.34,1.08,0,3.81,0,7.62,0,11.43a2.6,2.6,0,0,1-.19.66c-.43,0-.84.1-1.26.1-6.66.08-13.34.33-20,.17-8.81-.21-14.68,4.33-15.91,13.93a25.68,25.68,0,0,0,1.52,12.94,12.19,12.19,0,0,0,9.9,8,61.33,61.33,0,0,0,8.69.42c5.4,0,10.8,0,16.2,0,.36,0,1,.53,1,.82C876,832.69,876,836.7,876,841Z"/><path class="b4700947-b252-4635-ad80-35d66739a13d" d="M980.33,805c-5,0-9.79,0-14.55-.06-.32,0-.87-.79-.9-1.25-.19-2.63-.15-5.29-.41-7.92-.34-3.37-1.1-4.07-4.47-4.39-2.21-.21-4.44-.16-6.65-.33-1.32-.1-1.61.47-1.6,1.66,0,7.2,0,14.4,0,21.61q0,12.3,0,24.62v2h-16V779.21c.57,0,1.14-.09,1.7-.09,8.84,0,17.69-.11,26.53,0a40.53,40.53,0,0,1,8.61,1.22A8.25,8.25,0,0,1,979,786.9C980.45,792.83,980.45,798.83,980.33,805Z"/><path class="b4700947-b252-4635-ad80-35d66739a13d" d="M748.47,841h-8c-2.43,0-4.87-.06-7.3,0-1.08,0-1.55-.28-1.49-1.42s0-2.54,0-3.81q0-38.35,0-76.72c0-2.78-.17-2.43,2.51-2.44,4.34,0,8.68,0,13,0,1,0,1.38.31,1.38,1.36q0,41.05,0,82.12C748.59,840.26,748.54,840.47,748.47,841Z"/><path class="b4d7a28e-14e8-4fa3-bf75-3d4b166d9f70" d="M1265.67,863.56V780.45c0-2.11,0-2.12,2.07-2.12,10.21,0,20.42-.12,30.63,0,9.66.13,18.06,3.18,24,11.34a31.28,31.28,0,0,1,5.45,14.89c.83,6.74.49,13.39-2.12,19.71-3.91,9.42-10.62,15.48-21.14,16.23-6.07.44-12.17.39-18.26.55-1.22,0-2.44,0-3.89,0v22.5Zm16.77-36c7,.29,13.81,0,20.48-1.87a8.7,8.7,0,0,0,6.29-6.07,32.67,32.67,0,0,0,0-20,8.32,8.32,0,0,0-6.68-6,61.58,61.58,0,0,0-8.06-1.24c-4-.2-8,0-12,0Z"/><path class="b4d7a28e-14e8-4fa3-bf75-3d4b166d9f70" d="M1191.6,778.33h2c10.69,0,21.38-.13,32.07,0a42.76,42.76,0,0,1,10.77,1.39c7.86,2.22,12.52,7.67,14.08,15.67a34.81,34.81,0,0,1,.64,6.36c0,12.35,0,24.7,0,37.05v2.06c-.7.05-1.26.11-1.82.11-14.54,0-29.08.05-43.62,0-5.25,0-10.17-1.28-13.79-5.33a18.28,18.28,0,0,1-3.64-6.11,23.29,23.29,0,0,1,.93-17.05,12.16,12.16,0,0,1,6.88-6.6,40.26,40.26,0,0,1,15.17-2.92c7-.06,13.9-.13,20.85-.1,1.4,0,1.83-.37,1.77-1.81-.21-5.18-1.78-7.52-6.86-8.57a57.52,57.52,0,0,0-10.49-1c-7.65-.16-15.29-.09-22.94-.11h-2Zm42.34,37.35c-.42,0-.63-.1-.84-.1-6,0-12-.12-17.94,0a27.38,27.38,0,0,0-7.07,1.17c-3.36,1-4.74,7.17-2.32,9.76a3.27,3.27,0,0,0,1.62,1,29.67,29.67,0,0,0,5.52.82c6.41.09,12.82,0,19.22,0h1.81Z"/><path class="b4d7a28e-14e8-4fa3-bf75-3d4b166d9f70" d="M1480,841.05h-3.85q-20.61,0-41.22,0c-5.06,0-9.78-1.19-13.56-4.79-4.66-4.45-5.56-10.14-5.08-16.23,0-.69.18-1.37.28-2.06,1-7.31,5.27-11.59,12.36-13.43,5.51-1.42,11.09-1.54,16.71-1.57,5.23,0,10.47-.09,15.71-.05,1.31,0,1.76-.43,1.55-1.68a39.33,39.33,0,0,0-.68-3.93,6,6,0,0,0-3.93-4.13c-4.09-1.57-8.36-1.63-12.64-1.65l-23.25-.07h-1.9v-13c.55,0,1.11-.09,1.68-.09,10.85,0,21.7-.13,32.55,0a41.81,41.81,0,0,1,10.76,1.41c8.2,2.36,12.77,8.17,14.19,16.5a24.94,24.94,0,0,1,.41,4.3q0,19.41,0,38.81C1480,839.87,1480,840.34,1480,841.05Zm-17.1-25.39c-.35,0-.61-.08-.87-.08-6,0-12-.13-17.94,0a26.79,26.79,0,0,0-7.21,1.24c-3.37,1.06-4.58,7.3-2,9.8a3.08,3.08,0,0,0,1.5.84,32.69,32.69,0,0,0,5.53.83c6.19.08,12.38,0,18.58,0h2.46Z"/><path class="b4d7a28e-14e8-4fa3-bf75-3d4b166d9f70" d="M1178.59,840.88a5.7,5.7,0,0,1-.91.13c-11.44,0-22.88.08-34.32-.13-5.34-.1-10.68-.87-15.56-3.32a31,31,0,0,1-16.46-19.32A65.25,65.25,0,0,1,1112,778c4.23-12.85,13.71-19.55,26.8-21.52a63.69,63.69,0,0,1,8.61-.72c10.1-.13,20.2-.14,30.3-.19a8.53,8.53,0,0,1,.93.1v14.7h-1.93c-9.2,0-18.39-.14-27.58.09a35,35,0,0,0-9.53,1.78c-3.59,1.12-5.89,3.9-7.35,7.38a53.84,53.84,0,0,0-3.78,23.86,43.87,43.87,0,0,0,1.64,10.72c2.62,8.54,7.42,11.53,14.68,11.77,6.67.22,13.35.08,20,.09l12.51,0c.8,0,1.48,0,1.46,1.12,0,4.38,0,8.77,0,13.15A1.94,1.94,0,0,1,1178.59,840.88Z"/><path class="b4d7a28e-14e8-4fa3-bf75-3d4b166d9f70" d="M1363.54,778.33H1375V755.7h16.73v22.57H1409V790.9h-17.26v1.93c0,7.86-.07,15.72,0,23.58a32.39,32.39,0,0,0,.86,6.64,5.25,5.25,0,0,0,4.48,4.28c3.89.62,7.81,1.08,11.91,1.63v12.09h-15.45c-11.12,0-18-6.46-18.43-17.62-.3-8.27-.1-16.57-.12-24.85V791h-11.5Z"/><path class="b4d7a28e-14e8-4fa3-bf75-3d4b166d9f70" d="M1511.32,840.93H1494c0-.6-.08-1.17-.08-1.73q0-40.87,0-81.75c0-1.43.32-1.94,1.85-1.91,4.59.1,9.19.09,13.79,0,1.4,0,1.8.37,1.8,1.79q-.06,24.52,0,49,0,16.35,0,32.7Z"/><path class="b4d7a28e-14e8-4fa3-bf75-3d4b166d9f70" d="M1355.43,840.94h-17.22V778.46h17.22Z"/><path class="b4d7a28e-14e8-4fa3-bf75-3d4b166d9f70" d="M1338.23,755.67h17.25v15.55h-17.25Z"/></svg>