<svg id="be6a0eef-2fc2-4f07-95ca-a811c7d156ab" data-name="Layer 1" xmlns="http://www.w3.org/2000/svg" viewBox="0 0 1080 1080"><defs><style>.f01708ab-5453-42f0-972b-1a402dd907d7{fill:#384bb7;}.f186589b-0ea2-4177-9075-77ef8caa0b34{fill:#0cf;}.a21d547d-fb40-48a0-b003-ca188c771e44{fill:none;stroke:#fff;stroke-miterlimit:10;stroke-width:14px;}.e22fa5e9-8cb1-4f18-b082-031874288903{fill:#fff;}</style></defs><title>electrocapital</title><rect class="f01708ab-5453-42f0-972b-1a402dd907d7" x="-11" y="-8.33" width="1104" height="1098.67"/><path class="f186589b-0ea2-4177-9075-77ef8caa0b34" d="M503.21,397.22H609a11.59,11.59,0,0,1,11.59,11.59v8.24A11.58,11.58,0,0,1,609,428.63H505.57A11.58,11.58,0,0,0,494,440.22v13.9a11.57,11.57,0,0,0,11.58,11.58h39.66a11.59,11.59,0,0,1,11.59,11.59V491.5a11.59,11.59,0,0,1-11.59,11.59H505.57A11.58,11.58,0,0,0,494,514.68v15.46a11.58,11.58,0,0,0,11.58,11.59H609.32a11.59,11.59,0,0,1,11.59,11.59V566a11.59,11.59,0,0,1-11.59,11.59H502.2a31.15,31.15,0,0,1-31.15-31.15v-117A32.15,32.15,0,0,1,503.21,397.22Z"/><rect class="f186589b-0ea2-4177-9075-77ef8caa0b34" x="451.26" y="409.47" width="64.56" height="5.65" rx="2.83"/><rect class="f186589b-0ea2-4177-9075-77ef8caa0b34" x="469.64" y="397.69" width="64.56" height="5.65" rx="2.83"/><rect class="f186589b-0ea2-4177-9075-77ef8caa0b34" x="462.41" y="383.55" width="8.01" height="5.65" rx="2.83"/><rect class="f186589b-0ea2-4177-9075-77ef8caa0b34" x="427.38" y="397.37" width="8.01" height="5.65" rx="2.83"/><rect class="f186589b-0ea2-4177-9075-77ef8caa0b34" x="407.12" y="427.06" width="8.01" height="5.65" rx="2.83"/><rect class="f186589b-0ea2-4177-9075-77ef8caa0b34" x="430.68" y="446.38" width="8.01" height="5.65" rx="2.83"/><rect class="f186589b-0ea2-4177-9075-77ef8caa0b34" x="427.86" y="459.11" width="8.01" height="5.65" rx="2.83"/><rect class="f186589b-0ea2-4177-9075-77ef8caa0b34" x="409.01" y="472.77" width="8.01" height="5.65" rx="2.83"/><rect class="f186589b-0ea2-4177-9075-77ef8caa0b34" x="425.03" y="471.83" width="8.01" height="5.65" rx="2.83"/><rect class="f186589b-0ea2-4177-9075-77ef8caa0b34" x="421.73" y="497.28" width="8.01" height="5.65" rx="2.83"/><rect class="f186589b-0ea2-4177-9075-77ef8caa0b34" x="406.65" y="542.05" width="8.01" height="5.65" rx="2.83"/><rect class="f186589b-0ea2-4177-9075-77ef8caa0b34" x="422.2" y="543.46" width="8.01" height="5.65" rx="2.83"/><rect class="f186589b-0ea2-4177-9075-77ef8caa0b34" x="439.01" y="409.78" width="8.01" height="5.65" rx="2.83"/><rect class="f186589b-0ea2-4177-9075-77ef8caa0b34" x="431.94" y="428.16" width="8.01" height="5.65" rx="2.83"/><rect class="f186589b-0ea2-4177-9075-77ef8caa0b34" x="459.11" y="398.16" width="8.01" height="5.65" rx="2.83"/><rect class="f186589b-0ea2-4177-9075-77ef8caa0b34" x="462.41" y="446.54" width="30.79" height="5.65" rx="2.83"/><rect class="f186589b-0ea2-4177-9075-77ef8caa0b34" x="442.78" y="428.48" width="30.79" height="5.65" rx="2.83"/><rect class="f186589b-0ea2-4177-9075-77ef8caa0b34" x="459.59" y="434.13" width="30.79" height="5.65" rx="2.83"/><rect class="f186589b-0ea2-4177-9075-77ef8caa0b34" x="436.65" y="459.11" width="35.92" height="6.6" rx="1.33"/><rect class="f186589b-0ea2-4177-9075-77ef8caa0b34" x="458.01" y="465.39" width="35.92" height="6.6" rx="3.3"/><rect class="f186589b-0ea2-4177-9075-77ef8caa0b34" x="438.22" y="471.67" width="35.92" height="6.6" rx="3.3"/><rect class="f186589b-0ea2-4177-9075-77ef8caa0b34" x="441.05" y="484.87" width="35.92" height="6.6" rx="3.3"/><rect class="f186589b-0ea2-4177-9075-77ef8caa0b34" x="460.84" y="478.9" width="35.92" height="6.6" rx="3.3"/><rect class="f186589b-0ea2-4177-9075-77ef8caa0b34" x="436.02" y="497.43" width="35.92" height="6.6" rx="3.3"/><rect class="f186589b-0ea2-4177-9075-77ef8caa0b34" x="460.53" y="492.09" width="35.92" height="6.6" rx="3.3"/><rect class="f186589b-0ea2-4177-9075-77ef8caa0b34" x="442.94" y="514.4" width="35.92" height="6.6" rx="3.3"/><rect class="f186589b-0ea2-4177-9075-77ef8caa0b34" x="462.1" y="506.86" width="28.12" height="7.23" rx="3.61"/><rect class="f186589b-0ea2-4177-9075-77ef8caa0b34" x="454.87" y="527.59" width="28.12" height="7.23" rx="3.61"/><rect class="f186589b-0ea2-4177-9075-77ef8caa0b34" x="437.59" y="542.67" width="50.11" height="6.91" rx="3.46"/><rect class="f186589b-0ea2-4177-9075-77ef8caa0b34" x="564.08" y="468.34" width="33.34" height="33.34" rx="2.32"/><rect class="f186589b-0ea2-4177-9075-77ef8caa0b34" x="601.94" y="444.18" width="18.93" height="18.93" rx="1.61"/><circle class="a21d547d-fb40-48a0-b003-ca188c771e44" cx="532.58" cy="485.29" r="153.26"/><path class="f186589b-0ea2-4177-9075-77ef8caa0b34" d="M307.29,733.46h-4.51c-5.24,0-10.49.1-15.72,0a40.78,40.78,0,0,1-8.2-.89A18.53,18.53,0,0,1,265,720.14a40.21,40.21,0,0,1,.28-27.43c2.58-7.31,8.09-11.35,15.59-12.69a45.87,45.87,0,0,1,7.41-.66c6.05-.12,12.11-.09,18.17-.15.74,0,.92.27.91,1,0,2.45,0,4.9,0,7.35,0,.85-.26,1.1-1.1,1.1-5.55,0-11.1,0-16.65,0a24.18,24.18,0,0,0-4.66.4c-4.89,1-7.92,4.3-8.85,9.5-.17.89-.23,1.8-.35,2.81.55,0,1,.06,1.35.06q13.06,0,26.14,0c1.06,0,2.11,0,3.16-.08.7,0,1,.2.95.93,0,2.52,0,5,0,7.56,0,.8-.3,1-1,1-4.36,0-8.72,0-13.07,0-5.49,0-11,0-16.45,0-.88,0-1.19.21-1.14,1.14.19,3.55.91,6.87,3.5,9.54a7.5,7.5,0,0,0,4.42,2.36,32.73,32.73,0,0,0,4.06.36q9.3,0,18.59,0c.82,0,1.13.2,1.11,1.08-.05,2.41,0,4.83,0,7.25C307.37,732.73,307.33,733,307.29,733.46Z"/><path class="f186589b-0ea2-4177-9075-77ef8caa0b34" d="M522.26,713.66a23.3,23.3,0,0,1-2.59,10.63,17.56,17.56,0,0,1-10.76,8.82,25.36,25.36,0,0,1-17.59-.71,17.13,17.13,0,0,1-9.71-10.07,23.2,23.2,0,0,1,.18-17.72,17.33,17.33,0,0,1,10.08-9.87,24.74,24.74,0,0,1,16.22-.74c8,2.29,12.36,7.79,13.78,15.81C522.1,711.08,522.14,712.38,522.26,713.66Zm-31.64-.32.18,0c.08.88.1,1.77.26,2.64.77,4.31,2.47,7.87,7.1,9.32,4.26,1.33,9.5-.56,11.48-4.56a15.47,15.47,0,0,0,.33-13.43,9.12,9.12,0,0,0-9-5.76A10,10,0,0,0,491.8,708,47.59,47.59,0,0,0,490.62,713.34Z"/><path class="f186589b-0ea2-4177-9075-77ef8caa0b34" d="M369.26,693.7c0,2.65,0,5.1,0,7.55,0,.84-.55.71-1,.71-4.32,0-8.65-.11-13,.06a26.24,26.24,0,0,0-6.39,1.09c-2.14.63-3.69,3.67-3.26,5.88,0,.23.56.53.86.54,3.5,0,7,0,10.51,0,3.82,0,7.63,0,11.44,0,.28,0,.79.37.8.58,0,2.47,0,5,0,7.59h-22.4c-1.35,0-1.38,0-1.24,1.38a14.84,14.84,0,0,0,.45,2.3,4,4,0,0,0,3.08,3.08,32.52,32.52,0,0,0,5.44.76c3.64.1,7.28,0,10.92,0,1.21,0,2.42.11,3.63.17.05,1.18.11,2.36.13,3.54,0,1.46,0,2.91,0,4.49H368c-5,0-10.08.09-15.11,0a34.48,34.48,0,0,1-6.86-.9c-5.14-1.2-8.55-4.54-10.45-9.34a26.09,26.09,0,0,1-.71-16.85c2-7.26,6.8-11.43,14.36-12.23,2-.21,3.93-.34,5.9-.37,4.25-.06,8.51,0,12.76,0Z"/><path class="f186589b-0ea2-4177-9075-77ef8caa0b34" d="M419.35,679.3c.41,0,.71-.08,1-.08,2.79,0,5.58,0,8.37,0,.83,0,1,.28,1,1.06,0,4,0,8.1,0,12.15,0,1,.24,1.31,1.25,1.29,3-.05,5.93,0,8.89,0,.77,0,1,.25,1,1,0,1.94,0,3.88,0,5.82,0,.79-.23,1.07-1,1.06-3,0-6,0-9,0-.76,0-1.1.19-1.09,1,0,5.24-.05,10.48,0,15.72s1.47,6.74,6.81,7.22c1.15.1,2.31.15,3.47.17.55,0,.8.2.79.78q0,3.1,0,6.23c0,.47-.11.76-.68.76-3.5,0-7,.17-10.51-.08-6.31-.46-10.08-4.54-10.27-11-.14-5.21,0-10.42-.05-15.63,0-1.32-.07-2.65,0-4,0-1-.34-1.22-1.24-1.19-1.74.05-3.47,0-5.21,0-.69,0-1-.18-1-.92q.06-3,0-6c0-.72.27-.94,1-.92,1.74,0,3.48-.06,5.21,0,1,0,1.26-.34,1.25-1.29,0-3.95,0-7.9,0-11.85Z"/><path class="f186589b-0ea2-4177-9075-77ef8caa0b34" d="M408.84,733.46h-2.29c-5.27-.06-10.55,0-15.82-.21-5.52-.23-10.18-2.35-13.35-7.1a22.19,22.19,0,0,1-3.47-15.1,19.86,19.86,0,0,1,5.52-12.33,15.54,15.54,0,0,1,10.41-4.6c4.51-.3,9-.31,13.56-.42,1.53,0,3.06,0,4.59,0,.5,0,.87,0,.86.69,0,2.45,0,4.9,0,7.35a1.77,1.77,0,0,1-.12.43c-.28,0-.54.06-.81.06-4.28,0-8.57.21-12.86.11-5.66-.14-9.43,2.78-10.22,8.95a16.47,16.47,0,0,0,1,8.32,7.84,7.84,0,0,0,6.37,5.13,38.42,38.42,0,0,0,5.58.27c3.48,0,6.95,0,10.42,0,.23,0,.65.34.65.53C408.86,728.13,408.84,730.71,408.84,733.46Z"/><path class="f186589b-0ea2-4177-9075-77ef8caa0b34" d="M475.93,710.33c-3.23,0-6.29,0-9.35,0-.2,0-.55-.51-.57-.8-.13-1.7-.1-3.41-.27-5.1-.22-2.16-.71-2.61-2.87-2.82-1.42-.13-2.85-.1-4.28-.21-.84-.06-1,.3-1,1.07,0,4.63,0,9.25,0,13.88V733.4H447.25V693.75c.37,0,.73,0,1.09,0,5.69,0,11.37-.07,17.06,0a26,26,0,0,1,5.53.79,5.29,5.29,0,0,1,4.13,4.18A43.83,43.83,0,0,1,475.93,710.33Z"/><path class="f186589b-0ea2-4177-9075-77ef8caa0b34" d="M326.9,733.46h-5.13c-1.57,0-3.13,0-4.7,0-.69,0-1-.19-.95-.92s0-1.63,0-2.45V680.79c0-1.79-.1-1.56,1.62-1.57,2.79,0,5.58,0,8.37,0,.65,0,.89.2.89.88q0,26.38,0,52.78A4.87,4.87,0,0,1,326.9,733.46Z"/><path class="e22fa5e9-8cb1-4f18-b082-031874288903" d="M659.34,748V694.55c0-1.35,0-1.36,1.33-1.36,6.56,0,13.13-.08,19.69,0,6.21.08,11.61,2,15.4,7.29a20.12,20.12,0,0,1,3.51,9.57,24.75,24.75,0,0,1-1.37,12.67c-2.51,6-6.83,9.94-13.59,10.43-3.9.28-7.82.25-11.73.35-.79,0-1.57,0-2.5,0V748Zm10.78-23.17a42,42,0,0,0,13.16-1.2,5.59,5.59,0,0,0,4.05-3.9,21,21,0,0,0,0-12.87A5.33,5.33,0,0,0,683,703a38.14,38.14,0,0,0-5.18-.79c-2.56-.14-5.12,0-7.74,0Z"/><path class="e22fa5e9-8cb1-4f18-b082-031874288903" d="M611.73,693.19H613c6.87,0,13.74-.08,20.61,0a27.33,27.33,0,0,1,6.93.9c5,1.42,8,4.93,9,10.07a21.57,21.57,0,0,1,.41,4.09c0,7.93,0,15.87,0,23.81v1.33c-.45,0-.81.07-1.17.07-9.35,0-18.69,0-28,0-3.37,0-6.53-.82-8.86-3.42a11.73,11.73,0,0,1-2.34-3.93,15,15,0,0,1,.6-11,7.82,7.82,0,0,1,4.42-4.25,25.85,25.85,0,0,1,9.75-1.87c4.47,0,8.94-.08,13.4-.07.9,0,1.18-.23,1.14-1.16-.13-3.32-1.14-4.83-4.41-5.51a37.07,37.07,0,0,0-6.74-.62c-4.92-.11-9.83-.06-14.74-.08h-1.32Zm27.21,24c-.27,0-.4-.06-.53-.06-3.85,0-7.69-.08-11.53,0a17.53,17.53,0,0,0-4.55.75c-2.16.66-3.05,4.61-1.49,6.27a2.11,2.11,0,0,0,1,.62,20.43,20.43,0,0,0,3.55.53c4.12,0,8.24,0,12.36,0h1.15Z"/><path class="e22fa5e9-8cb1-4f18-b082-031874288903" d="M797.08,733.5h-29c-3.26,0-6.29-.76-8.72-3.08-3-2.86-3.58-6.52-3.27-10.43,0-.44.12-.88.18-1.33.68-4.69,3.39-7.44,8-8.63A43.62,43.62,0,0,1,775,709c3.36,0,6.73,0,10.1,0,.84,0,1.13-.28,1-1.08a23.86,23.86,0,0,0-.43-2.53,3.9,3.9,0,0,0-2.53-2.65,22.41,22.41,0,0,0-8.13-1.06l-14.94,0h-1.22v-8.37c.35,0,.71-.06,1.08-.06,7,0,14-.08,20.92,0a26.77,26.77,0,0,1,6.92.91c5.27,1.52,8.2,5.25,9.12,10.61a16,16,0,0,1,.26,2.76q0,12.48,0,25C797.13,732.75,797.1,733.05,797.08,733.5Zm-11-16.31a4.35,4.35,0,0,0-.55-.06c-3.85,0-7.7-.08-11.54,0a17.35,17.35,0,0,0-4.63.79c-2.17.69-3,4.7-1.32,6.31a2,2,0,0,0,1,.54,21.43,21.43,0,0,0,3.55.53c4,0,8,0,11.94,0h1.58Z"/><path class="e22fa5e9-8cb1-4f18-b082-031874288903" d="M603.37,733.4a5.59,5.59,0,0,1-.59.08c-7.35,0-14.7,0-22-.09a22.83,22.83,0,0,1-10-2.13,19.92,19.92,0,0,1-10.58-12.42,42,42,0,0,1,.43-25.85c2.72-8.26,8.81-12.57,17.22-13.83a39.55,39.55,0,0,1,5.54-.46c6.49-.09,13-.09,19.48-.13.16,0,.33,0,.59.07v9.45h-1.24c-5.91,0-11.82-.09-17.73.06a22.57,22.57,0,0,0-6.12,1.14,7.71,7.71,0,0,0-4.72,4.74,34.6,34.6,0,0,0-2.44,15.34,28.51,28.51,0,0,0,1.06,6.89c1.69,5.49,4.77,7.41,9.43,7.56,4.29.14,8.59,0,12.88.06,2.68,0,5.36,0,8,0,.52,0,1,0,.94.73,0,2.81,0,5.63,0,8.45A1.64,1.64,0,0,1,603.37,733.4Z"/><path class="e22fa5e9-8cb1-4f18-b082-031874288903" d="M722.25,693.19h7.35V678.64h10.76v14.51h11.13v8.12h-11.1v1.24c0,5,0,10.11,0,15.16a21.35,21.35,0,0,0,.55,4.27,3.4,3.4,0,0,0,2.88,2.75c2.5.4,5,.69,7.65,1v7.77h-9.92c-7.15,0-11.6-4.15-11.85-11.32-.19-5.32-.06-10.65-.08-16v-4.89h-7.39Z"/><path class="e22fa5e9-8cb1-4f18-b082-031874288903" d="M817.24,733.43H806.12c0-.39,0-.75,0-1.12q0-26.26,0-52.54c0-.92.21-1.25,1.19-1.23,3,.07,5.9.06,8.86,0,.9,0,1.16.24,1.16,1.15q0,15.76,0,31.53,0,10.51,0,21Z"/><path class="e22fa5e9-8cb1-4f18-b082-031874288903" d="M717,733.43H706V693.28H717Z"/><path class="e22fa5e9-8cb1-4f18-b082-031874288903" d="M706,678.63h11.09v10H706Z"/></svg>