<svg id="b17fd34e-bf66-4529-80a1-897429019187" data-name="Layer 1" xmlns="http://www.w3.org/2000/svg" xmlns:xlink="http://www.w3.org/1999/xlink" viewBox="0 0 1080 1080"><defs><style>.e8c4be35-b5d7-4fac-8aaf-3e68675aab6b{fill:#ea7317;}.fcc1397c-6c4c-4d34-824d-4762c90ec6da{opacity:0.08;}.fbc74c6f-cda2-4ed7-8b01-35386bcd3e8b{fill:#fff;}.ae350282-b9b3-4d94-89a1-397a50e19c4f{fill:#fff9ff;}.a2860770-8ebb-450c-afe5-0064f542dd62{fill:#4ff9ff;}.e7caa0d6-e769-460e-abdd-68ea060262cf{fill:url(#b3cb35d8-3e76-4ab0-a0c5-7ac33cc80aef);}</style><linearGradient id="b3cb35d8-3e76-4ab0-a0c5-7ac33cc80aef" x1="191.51" y1="500.32" x2="284.64" y2="584.17" gradientUnits="userSpaceOnUse"><stop offset="0" stop-color="#4ff9ff"/><stop offset="1" stop-color="#654fff"/></linearGradient></defs><title>Artboard 1 copy 3</title><rect class="e8c4be35-b5d7-4fac-8aaf-3e68675aab6b" x="-15.77" y="-11.53" width="1106.25" height="1100"/><g class="fcc1397c-6c4c-4d34-824d-4762c90ec6da"><path class="fbc74c6f-cda2-4ed7-8b01-35386bcd3e8b" d="M12.81,43.47l-49,49a16.46,16.46,0,0,1-23.28,0h0a16.45,16.45,0,0,1,0-23.27l25.74-25.75a16.46,16.46,0,0,0,0-23.28L-59.5-5.55a16.45,16.45,0,0,1,0-23.27h0a16.46,16.46,0,0,1,23.28,0l49,49A16.46,16.46,0,0,1,12.81,43.47Z"/><path class="fbc74c6f-cda2-4ed7-8b01-35386bcd3e8b" d="M88.91,43.47l-49,49a16.46,16.46,0,0,1-23.28,0h0a16.45,16.45,0,0,1,0-23.27L42.34,43.47a16.46,16.46,0,0,0,0-23.28L16.6-5.55a16.45,16.45,0,0,1,0-23.27h0a16.46,16.46,0,0,1,23.28,0l49,49A16.46,16.46,0,0,1,88.91,43.47Z"/><path class="fbc74c6f-cda2-4ed7-8b01-35386bcd3e8b" d="M165,43.47l-49,49a16.46,16.46,0,0,1-23.28,0h0a16.46,16.46,0,0,1,0-23.27l25.74-25.75a16.46,16.46,0,0,0,0-23.28L92.7-5.55a16.45,16.45,0,0,1,0-23.27h0a16.46,16.46,0,0,1,23.28,0l49,49A16.46,16.46,0,0,1,165,43.47Z"/><path class="fbc74c6f-cda2-4ed7-8b01-35386bcd3e8b" d="M241.11,43.47l-49,49a16.46,16.46,0,0,1-23.28,0h0a16.46,16.46,0,0,1,0-23.27l25.74-25.75a16.46,16.46,0,0,0,0-23.28L168.8-5.55a16.45,16.45,0,0,1,0-23.27h0a16.46,16.46,0,0,1,23.28,0l49,49A16.46,16.46,0,0,1,241.11,43.47Z"/><path class="fbc74c6f-cda2-4ed7-8b01-35386bcd3e8b" d="M317.21,43.47l-49,49a16.46,16.46,0,0,1-23.28,0h0a16.46,16.46,0,0,1,0-23.27l25.74-25.75a16.46,16.46,0,0,0,0-23.28L244.9-5.55a16.45,16.45,0,0,1,0-23.27h0a16.46,16.46,0,0,1,23.28,0l49,49A16.46,16.46,0,0,1,317.21,43.47Z"/><path class="fbc74c6f-cda2-4ed7-8b01-35386bcd3e8b" d="M50.86,166.9l-49,49a16.46,16.46,0,0,1-23.28,0h0a16.45,16.45,0,0,1,0-23.27L4.29,166.9a16.46,16.46,0,0,0,0-23.28l-25.74-25.73a16.46,16.46,0,0,1,0-23.28h0a16.46,16.46,0,0,1,23.28,0l49,49A16.46,16.46,0,0,1,50.86,166.9Z"/><path class="fbc74c6f-cda2-4ed7-8b01-35386bcd3e8b" d="M127,166.9l-49,49a16.46,16.46,0,0,1-23.28,0h0a16.45,16.45,0,0,1,0-23.27L80.39,166.9a16.46,16.46,0,0,0,0-23.28L54.65,117.89a16.46,16.46,0,0,1,0-23.28h0a16.46,16.46,0,0,1,23.28,0l49,49A16.46,16.46,0,0,1,127,166.9Z"/><path class="fbc74c6f-cda2-4ed7-8b01-35386bcd3e8b" d="M203.06,166.9l-49,49a16.46,16.46,0,0,1-23.28,0h0a16.46,16.46,0,0,1,0-23.27l25.74-25.75a16.46,16.46,0,0,0,0-23.28l-25.74-25.73a16.46,16.46,0,0,1,0-23.28h0a16.46,16.46,0,0,1,23.28,0l49,49A16.46,16.46,0,0,1,203.06,166.9Z"/><path class="fbc74c6f-cda2-4ed7-8b01-35386bcd3e8b" d="M279.16,166.9l-49,49a16.46,16.46,0,0,1-23.28,0h0a16.46,16.46,0,0,1,0-23.27l25.74-25.75a16.46,16.46,0,0,0,0-23.28l-25.74-25.73a16.46,16.46,0,0,1,0-23.28h0a16.46,16.46,0,0,1,23.28,0l49,49A16.46,16.46,0,0,1,279.16,166.9Z"/><path class="fbc74c6f-cda2-4ed7-8b01-35386bcd3e8b" d="M12.81,290.33l-49,49a16.47,16.47,0,0,1-23.28,0h0a16.45,16.45,0,0,1,0-23.27l25.74-25.75a16.46,16.46,0,0,0,0-23.28L-59.5,241.32a16.46,16.46,0,0,1,0-23.28h0a16.46,16.46,0,0,1,23.28,0l49,49A16.46,16.46,0,0,1,12.81,290.33Z"/><path class="fbc74c6f-cda2-4ed7-8b01-35386bcd3e8b" d="M88.91,290.33l-49,49a16.47,16.47,0,0,1-23.28,0h0a16.45,16.45,0,0,1,0-23.27l25.74-25.75a16.46,16.46,0,0,0,0-23.28L16.6,241.32a16.46,16.46,0,0,1,0-23.28h0a16.46,16.46,0,0,1,23.28,0l49,49A16.46,16.46,0,0,1,88.91,290.33Z"/><path class="fbc74c6f-cda2-4ed7-8b01-35386bcd3e8b" d="M165,290.33l-49,49a16.47,16.47,0,0,1-23.28,0h0a16.46,16.46,0,0,1,0-23.27l25.74-25.75a16.46,16.46,0,0,0,0-23.28L92.7,241.32a16.46,16.46,0,0,1,0-23.28h0A16.46,16.46,0,0,1,116,218l49,49A16.46,16.46,0,0,1,165,290.33Z"/><path class="fbc74c6f-cda2-4ed7-8b01-35386bcd3e8b" d="M241.11,290.33l-49,49a16.47,16.47,0,0,1-23.28,0h0a16.46,16.46,0,0,1,0-23.27l25.74-25.75a16.46,16.46,0,0,0,0-23.28L168.8,241.32a16.46,16.46,0,0,1,0-23.28h0a16.46,16.46,0,0,1,23.28,0l49,49A16.46,16.46,0,0,1,241.11,290.33Z"/><path class="fbc74c6f-cda2-4ed7-8b01-35386bcd3e8b" d="M385.89,44.4l-49,49a16.46,16.46,0,0,1-23.28,0h0a16.46,16.46,0,0,1,0-23.28L339.32,44.4a16.47,16.47,0,0,0,0-23.28L313.58-4.62a16.46,16.46,0,0,1,0-23.27h0a16.46,16.46,0,0,1,23.28,0l49,49A16.46,16.46,0,0,1,385.89,44.4Z"/><path class="fbc74c6f-cda2-4ed7-8b01-35386bcd3e8b" d="M462,44.4l-49,49a16.46,16.46,0,0,1-23.28,0h0a16.46,16.46,0,0,1,0-23.28L415.42,44.4a16.48,16.48,0,0,0,0-23.28L389.68-4.62a16.46,16.46,0,0,1,0-23.27h0a16.46,16.46,0,0,1,23.28,0l49,49A16.46,16.46,0,0,1,462,44.4Z"/><path class="fbc74c6f-cda2-4ed7-8b01-35386bcd3e8b" d="M538.09,44.4l-49,49a16.46,16.46,0,0,1-23.28,0h0a16.46,16.46,0,0,1,0-23.28L491.52,44.4a16.48,16.48,0,0,0,0-23.28L465.78-4.62a16.46,16.46,0,0,1,0-23.27h0a16.46,16.46,0,0,1,23.28,0l49,49A16.46,16.46,0,0,1,538.09,44.4Z"/><path class="fbc74c6f-cda2-4ed7-8b01-35386bcd3e8b" d="M614.19,44.4l-49,49a16.46,16.46,0,0,1-23.28,0h0a16.46,16.46,0,0,1,0-23.28L567.62,44.4a16.48,16.48,0,0,0,0-23.28L541.88-4.62a16.46,16.46,0,0,1,0-23.27h0a16.46,16.46,0,0,1,23.28,0l49,49A16.46,16.46,0,0,1,614.19,44.4Z"/><path class="fbc74c6f-cda2-4ed7-8b01-35386bcd3e8b" d="M690.29,44.4l-49,49a16.46,16.46,0,0,1-23.28,0h0a16.46,16.46,0,0,1,0-23.28L643.72,44.4a16.48,16.48,0,0,0,0-23.28L618-4.62a16.46,16.46,0,0,1,0-23.27h0a16.46,16.46,0,0,1,23.28,0l49,49A16.46,16.46,0,0,1,690.29,44.4Z"/><path class="fbc74c6f-cda2-4ed7-8b01-35386bcd3e8b" d="M347.84,167.83l-49,49a16.46,16.46,0,0,1-23.28,0h0a16.46,16.46,0,0,1,0-23.28l25.74-25.74a16.47,16.47,0,0,0,0-23.28l-25.73-25.74a16.46,16.46,0,0,1,0-23.27h0a16.46,16.46,0,0,1,23.28,0l49,49A16.46,16.46,0,0,1,347.84,167.83Z"/><path class="fbc74c6f-cda2-4ed7-8b01-35386bcd3e8b" d="M423.94,167.83l-49,49a16.46,16.46,0,0,1-23.28,0h0a16.46,16.46,0,0,1,0-23.28l25.74-25.74a16.47,16.47,0,0,0,0-23.28l-25.73-25.74a16.46,16.46,0,0,1,0-23.27h0a16.46,16.46,0,0,1,23.28,0l49,49A16.46,16.46,0,0,1,423.94,167.83Z"/><path class="fbc74c6f-cda2-4ed7-8b01-35386bcd3e8b" d="M500,167.83l-49,49a16.46,16.46,0,0,1-23.28,0h0a16.46,16.46,0,0,1,0-23.28l25.74-25.74a16.48,16.48,0,0,0,0-23.28l-25.74-25.74a16.46,16.46,0,0,1,0-23.27h0a16.46,16.46,0,0,1,23.28,0l49,49A16.46,16.46,0,0,1,500,167.83Z"/><path class="fbc74c6f-cda2-4ed7-8b01-35386bcd3e8b" d="M576.14,167.83l-49,49a16.46,16.46,0,0,1-23.28,0h0a16.46,16.46,0,0,1,0-23.28l25.74-25.74a16.48,16.48,0,0,0,0-23.28l-25.74-25.74a16.46,16.46,0,0,1,0-23.27h0a16.46,16.46,0,0,1,23.28,0l49,49A16.46,16.46,0,0,1,576.14,167.83Z"/><path class="fbc74c6f-cda2-4ed7-8b01-35386bcd3e8b" d="M652.24,167.83l-49,49a16.46,16.46,0,0,1-23.28,0h0a16.46,16.46,0,0,1,0-23.28l25.74-25.74a16.48,16.48,0,0,0,0-23.28l-25.74-25.74a16.46,16.46,0,0,1,0-23.27h0a16.46,16.46,0,0,1,23.28,0l49,49A16.46,16.46,0,0,1,652.24,167.83Z"/><path class="fbc74c6f-cda2-4ed7-8b01-35386bcd3e8b" d="M309.79,291.26l-49,49a16.46,16.46,0,0,1-23.28,0h0a16.45,16.45,0,0,1,0-23.27l25.74-25.75a16.47,16.47,0,0,0,0-23.28l-25.73-25.74a16.46,16.46,0,0,1,0-23.27h0a16.46,16.46,0,0,1,23.28,0l49,49A16.46,16.46,0,0,1,309.79,291.26Z"/><path class="fbc74c6f-cda2-4ed7-8b01-35386bcd3e8b" d="M385.89,291.26l-49,49a16.46,16.46,0,0,1-23.28,0h0a16.45,16.45,0,0,1,0-23.27l25.74-25.75a16.47,16.47,0,0,0,0-23.28l-25.73-25.74a16.46,16.46,0,0,1,0-23.27h0a16.46,16.46,0,0,1,23.28,0l49,49A16.46,16.46,0,0,1,385.89,291.26Z"/><path class="fbc74c6f-cda2-4ed7-8b01-35386bcd3e8b" d="M462,291.26l-49,49a16.46,16.46,0,0,1-23.28,0h0a16.45,16.45,0,0,1,0-23.27l25.74-25.75a16.48,16.48,0,0,0,0-23.28l-25.74-25.74a16.46,16.46,0,0,1,0-23.27h0A16.46,16.46,0,0,1,413,219l49,49A16.46,16.46,0,0,1,462,291.26Z"/><path class="fbc74c6f-cda2-4ed7-8b01-35386bcd3e8b" d="M538.09,291.26l-49,49a16.46,16.46,0,0,1-23.28,0h0a16.45,16.45,0,0,1,0-23.27l25.74-25.75a16.48,16.48,0,0,0,0-23.28l-25.74-25.74a16.46,16.46,0,0,1,0-23.27h0a16.46,16.46,0,0,1,23.28,0l49,49A16.46,16.46,0,0,1,538.09,291.26Z"/><path class="fbc74c6f-cda2-4ed7-8b01-35386bcd3e8b" d="M614.19,291.26l-49,49a16.46,16.46,0,0,1-23.28,0h0a16.45,16.45,0,0,1,0-23.27l25.74-25.75a16.48,16.48,0,0,0,0-23.28l-25.74-25.74a16.46,16.46,0,0,1,0-23.27h0a16.46,16.46,0,0,1,23.28,0l49,49A16.46,16.46,0,0,1,614.19,291.26Z"/><path class="fbc74c6f-cda2-4ed7-8b01-35386bcd3e8b" d="M761.75,43.47l-49,49a16.46,16.46,0,0,1-23.28,0h0a16.45,16.45,0,0,1,0-23.27l25.74-25.75a16.48,16.48,0,0,0,0-23.28L689.44-5.55a16.46,16.46,0,0,1,0-23.27h0a16.46,16.46,0,0,1,23.28,0l49,49A16.46,16.46,0,0,1,761.75,43.47Z"/><path class="fbc74c6f-cda2-4ed7-8b01-35386bcd3e8b" d="M837.85,43.47l-49,49a16.46,16.46,0,0,1-23.28,0h0a16.45,16.45,0,0,1,0-23.27l25.74-25.75a16.48,16.48,0,0,0,0-23.28L765.54-5.55a16.46,16.46,0,0,1,0-23.27h0a16.46,16.46,0,0,1,23.28,0l49,49A16.46,16.46,0,0,1,837.85,43.47Z"/><path class="fbc74c6f-cda2-4ed7-8b01-35386bcd3e8b" d="M914,43.47l-49,49a16.46,16.46,0,0,1-23.28,0h0a16.45,16.45,0,0,1,0-23.27l25.74-25.75a16.48,16.48,0,0,0,0-23.28L841.64-5.55a16.45,16.45,0,0,1,0-23.27h0a16.46,16.46,0,0,1,23.28,0l49,49A16.46,16.46,0,0,1,914,43.47Z"/><path class="fbc74c6f-cda2-4ed7-8b01-35386bcd3e8b" d="M990.05,43.47l-49,49a16.46,16.46,0,0,1-23.28,0h0a16.45,16.45,0,0,1,0-23.27l25.74-25.75a16.48,16.48,0,0,0,0-23.28L917.74-5.55a16.45,16.45,0,0,1,0-23.27h0a16.46,16.46,0,0,1,23.28,0l49,49A16.46,16.46,0,0,1,990.05,43.47Z"/><path class="fbc74c6f-cda2-4ed7-8b01-35386bcd3e8b" d="M1066.15,43.47l-49,49a16.46,16.46,0,0,1-23.28,0h0a16.45,16.45,0,0,1,0-23.27l25.74-25.75a16.48,16.48,0,0,0,0-23.28L993.84-5.55a16.45,16.45,0,0,1,0-23.27h0a16.46,16.46,0,0,1,23.28,0l49,49A16.46,16.46,0,0,1,1066.15,43.47Z"/><path class="fbc74c6f-cda2-4ed7-8b01-35386bcd3e8b" d="M723.7,166.9l-49,49a16.46,16.46,0,0,1-23.28,0h0a16.45,16.45,0,0,1,0-23.27l25.74-25.75a16.48,16.48,0,0,0,0-23.28l-25.74-25.73a16.47,16.47,0,0,1,0-23.28h0a16.46,16.46,0,0,1,23.28,0l49,49A16.46,16.46,0,0,1,723.7,166.9Z"/><path class="fbc74c6f-cda2-4ed7-8b01-35386bcd3e8b" d="M799.8,166.9l-49,49a16.46,16.46,0,0,1-23.28,0h0a16.45,16.45,0,0,1,0-23.27l25.74-25.75a16.48,16.48,0,0,0,0-23.28l-25.74-25.73a16.47,16.47,0,0,1,0-23.28h0a16.46,16.46,0,0,1,23.28,0l49,49A16.46,16.46,0,0,1,799.8,166.9Z"/><path class="fbc74c6f-cda2-4ed7-8b01-35386bcd3e8b" d="M875.9,166.9l-49,49a16.46,16.46,0,0,1-23.28,0h0a16.45,16.45,0,0,1,0-23.27l25.74-25.75a16.48,16.48,0,0,0,0-23.28l-25.74-25.73a16.47,16.47,0,0,1,0-23.28h0a16.46,16.46,0,0,1,23.28,0l49,49A16.46,16.46,0,0,1,875.9,166.9Z"/><path class="fbc74c6f-cda2-4ed7-8b01-35386bcd3e8b" d="M952,166.9l-49,49a16.46,16.46,0,0,1-23.28,0h0a16.45,16.45,0,0,1,0-23.27l25.74-25.75a16.48,16.48,0,0,0,0-23.28l-25.74-25.73a16.46,16.46,0,0,1,0-23.28h0a16.46,16.46,0,0,1,23.28,0l49,49A16.46,16.46,0,0,1,952,166.9Z"/><path class="fbc74c6f-cda2-4ed7-8b01-35386bcd3e8b" d="M1028.1,166.9l-49,49a16.46,16.46,0,0,1-23.28,0h0a16.45,16.45,0,0,1,0-23.27l25.74-25.75a16.48,16.48,0,0,0,0-23.28l-25.74-25.73a16.46,16.46,0,0,1,0-23.28h0a16.46,16.46,0,0,1,23.28,0l49,49A16.46,16.46,0,0,1,1028.1,166.9Z"/><path class="fbc74c6f-cda2-4ed7-8b01-35386bcd3e8b" d="M685.65,290.33l-49,49a16.47,16.47,0,0,1-23.28,0h0a16.45,16.45,0,0,1,0-23.27l25.74-25.75a16.48,16.48,0,0,0,0-23.28l-25.74-25.73a16.47,16.47,0,0,1,0-23.28h0a16.46,16.46,0,0,1,23.28,0l49,49A16.46,16.46,0,0,1,685.65,290.33Z"/><path class="fbc74c6f-cda2-4ed7-8b01-35386bcd3e8b" d="M761.75,290.33l-49,49a16.47,16.47,0,0,1-23.28,0h0a16.45,16.45,0,0,1,0-23.27l25.74-25.75a16.48,16.48,0,0,0,0-23.28l-25.74-25.73a16.47,16.47,0,0,1,0-23.28h0a16.46,16.46,0,0,1,23.28,0l49,49A16.46,16.46,0,0,1,761.75,290.33Z"/><path class="fbc74c6f-cda2-4ed7-8b01-35386bcd3e8b" d="M837.85,290.33l-49,49a16.47,16.47,0,0,1-23.28,0h0a16.45,16.45,0,0,1,0-23.27l25.74-25.75a16.48,16.48,0,0,0,0-23.28l-25.74-25.73a16.47,16.47,0,0,1,0-23.28h0a16.46,16.46,0,0,1,23.28,0l49,49A16.46,16.46,0,0,1,837.85,290.33Z"/><path class="fbc74c6f-cda2-4ed7-8b01-35386bcd3e8b" d="M914,290.33l-49,49a16.47,16.47,0,0,1-23.28,0h0a16.45,16.45,0,0,1,0-23.27l25.74-25.75a16.48,16.48,0,0,0,0-23.28l-25.74-25.73a16.46,16.46,0,0,1,0-23.28h0a16.46,16.46,0,0,1,23.28,0l49,49A16.46,16.46,0,0,1,914,290.33Z"/><path class="fbc74c6f-cda2-4ed7-8b01-35386bcd3e8b" d="M990.05,290.33l-49,49a16.47,16.47,0,0,1-23.28,0h0a16.45,16.45,0,0,1,0-23.27l25.74-25.75a16.48,16.48,0,0,0,0-23.28l-25.74-25.73a16.46,16.46,0,0,1,0-23.28h0A16.46,16.46,0,0,1,941,218l49,49A16.46,16.46,0,0,1,990.05,290.33Z"/><path class="fbc74c6f-cda2-4ed7-8b01-35386bcd3e8b" d="M1134.83,44.4l-49,49a16.45,16.45,0,0,1-23.27,0h0a16.47,16.47,0,0,1,0-23.28l25.74-25.74a16.46,16.46,0,0,0,0-23.28L1062.51-4.62a16.46,16.46,0,0,1,0-23.27h0a16.46,16.46,0,0,1,23.28,0l49,49A16.46,16.46,0,0,1,1134.83,44.4Z"/><path class="fbc74c6f-cda2-4ed7-8b01-35386bcd3e8b" d="M1096.78,167.83l-49,49a16.45,16.45,0,0,1-23.27,0h0a16.47,16.47,0,0,1,0-23.28l25.74-25.74a16.46,16.46,0,0,0,0-23.28l-25.74-25.74a16.46,16.46,0,0,1,0-23.27h0a16.46,16.46,0,0,1,23.28,0l49,49A16.46,16.46,0,0,1,1096.78,167.83Z"/><path class="fbc74c6f-cda2-4ed7-8b01-35386bcd3e8b" d="M1058.73,291.26l-49,49a16.45,16.45,0,0,1-23.27,0h0a16.46,16.46,0,0,1,0-23.27l25.74-25.75a16.46,16.46,0,0,0,0-23.28l-25.74-25.74a16.46,16.46,0,0,1,0-23.27h0a16.46,16.46,0,0,1,23.28,0l49,49A16.46,16.46,0,0,1,1058.73,291.26Z"/><path class="fbc74c6f-cda2-4ed7-8b01-35386bcd3e8b" d="M1134.83,291.26l-49,49a16.45,16.45,0,0,1-23.27,0h0a16.46,16.46,0,0,1,0-23.27l25.74-25.75a16.46,16.46,0,0,0,0-23.28l-25.74-25.74a16.46,16.46,0,0,1,0-23.27h0a16.46,16.46,0,0,1,23.28,0l49,49A16.46,16.46,0,0,1,1134.83,291.26Z"/><path class="fbc74c6f-cda2-4ed7-8b01-35386bcd3e8b" d="M49,421.19l-49,49a16.45,16.45,0,0,1-23.27,0h0a16.47,16.47,0,0,1,0-23.28L2.43,421.19a16.46,16.46,0,0,0,0-23.28l-25.74-25.74a16.46,16.46,0,0,1,0-23.27h0a16.46,16.46,0,0,1,23.28,0l49,49A16.46,16.46,0,0,1,49,421.19Z"/><path class="fbc74c6f-cda2-4ed7-8b01-35386bcd3e8b" d="M125.11,421.19l-49,49a16.45,16.45,0,0,1-23.27,0h0a16.46,16.46,0,0,1,0-23.28l25.73-25.74a16.46,16.46,0,0,0,0-23.28L52.79,372.17a16.46,16.46,0,0,1,0-23.27h0a16.46,16.46,0,0,1,23.28,0l49,49A16.46,16.46,0,0,1,125.11,421.19Z"/><path class="fbc74c6f-cda2-4ed7-8b01-35386bcd3e8b" d="M201.21,421.19l-49,49a16.46,16.46,0,0,1-23.28,0h0a16.46,16.46,0,0,1,0-23.28l25.73-25.74a16.46,16.46,0,0,0,0-23.28L128.9,372.17a16.46,16.46,0,0,1,0-23.27h0a16.46,16.46,0,0,1,23.28,0l49,49A16.46,16.46,0,0,1,201.21,421.19Z"/><path class="fbc74c6f-cda2-4ed7-8b01-35386bcd3e8b" d="M277.31,421.19l-49,49a16.46,16.46,0,0,1-23.28,0h0a16.46,16.46,0,0,1,0-23.28l25.73-25.74a16.46,16.46,0,0,0,0-23.28L205,372.17a16.46,16.46,0,0,1,0-23.27h0a16.46,16.46,0,0,1,23.28,0l49,49A16.46,16.46,0,0,1,277.31,421.19Z"/><path class="fbc74c6f-cda2-4ed7-8b01-35386bcd3e8b" d="M11,544.62l-49,49a16.45,16.45,0,0,1-23.27,0h0a16.47,16.47,0,0,1,0-23.28l25.74-25.74a16.46,16.46,0,0,0,0-23.28L-61.36,495.6a16.46,16.46,0,0,1,0-23.27h0a16.46,16.46,0,0,1,23.28,0l49,49A16.46,16.46,0,0,1,11,544.62Z"/><path class="fbc74c6f-cda2-4ed7-8b01-35386bcd3e8b" d="M87.06,544.62l-49,49a16.45,16.45,0,0,1-23.27,0h0a16.47,16.47,0,0,1,0-23.28l25.74-25.74a16.46,16.46,0,0,0,0-23.28L14.74,495.6a16.46,16.46,0,0,1,0-23.27h0a16.46,16.46,0,0,1,23.28,0l49,49A16.46,16.46,0,0,1,87.06,544.62Z"/><path class="fbc74c6f-cda2-4ed7-8b01-35386bcd3e8b" d="M163.16,544.62l-49,49a16.45,16.45,0,0,1-23.27,0h0a16.46,16.46,0,0,1,0-23.28l25.73-25.74a16.46,16.46,0,0,0,0-23.28L90.85,495.6a16.46,16.46,0,0,1,0-23.27h0a16.46,16.46,0,0,1,23.28,0l49,49A16.46,16.46,0,0,1,163.16,544.62Z"/><path class="fbc74c6f-cda2-4ed7-8b01-35386bcd3e8b" d="M239.26,544.62l-49,49a16.46,16.46,0,0,1-23.28,0h0a16.46,16.46,0,0,1,0-23.28l25.73-25.74a16.46,16.46,0,0,0,0-23.28L167,495.6a16.46,16.46,0,0,1,0-23.27h0a16.46,16.46,0,0,1,23.28,0l49,49A16.46,16.46,0,0,1,239.26,544.62Z"/><path class="fbc74c6f-cda2-4ed7-8b01-35386bcd3e8b" d="M49,668.05l-49,49a16.45,16.45,0,0,1-23.27,0h0a16.47,16.47,0,0,1,0-23.28L2.43,668.05a16.46,16.46,0,0,0,0-23.28L-23.31,619a16.46,16.46,0,0,1,0-23.27h0a16.46,16.46,0,0,1,23.28,0l49,49A16.46,16.46,0,0,1,49,668.05Z"/><path class="fbc74c6f-cda2-4ed7-8b01-35386bcd3e8b" d="M125.11,668.05l-49,49a16.45,16.45,0,0,1-23.27,0h0a16.46,16.46,0,0,1,0-23.28l25.73-25.74a16.46,16.46,0,0,0,0-23.28L52.79,619a16.46,16.46,0,0,1,0-23.27h0a16.46,16.46,0,0,1,23.28,0l49,49A16.46,16.46,0,0,1,125.11,668.05Z"/><path class="fbc74c6f-cda2-4ed7-8b01-35386bcd3e8b" d="M201.21,668.05l-49,49a16.46,16.46,0,0,1-23.28,0h0a16.46,16.46,0,0,1,0-23.28l25.73-25.74a16.46,16.46,0,0,0,0-23.28L128.9,619a16.46,16.46,0,0,1,0-23.27h0a16.46,16.46,0,0,1,23.28,0l49,49A16.46,16.46,0,0,1,201.21,668.05Z"/><path class="fbc74c6f-cda2-4ed7-8b01-35386bcd3e8b" d="M11,791.48l-49,49a16.45,16.45,0,0,1-23.27,0h0a16.47,16.47,0,0,1,0-23.28l25.74-25.74a16.46,16.46,0,0,0,0-23.28l-25.74-25.74a16.46,16.46,0,0,1,0-23.27h0a16.46,16.46,0,0,1,23.28,0l49,49A16.46,16.46,0,0,1,11,791.48Z"/><path class="fbc74c6f-cda2-4ed7-8b01-35386bcd3e8b" d="M87.06,791.48l-49,49a16.45,16.45,0,0,1-23.27,0h0a16.47,16.47,0,0,1,0-23.28l25.74-25.74a16.46,16.46,0,0,0,0-23.28L14.74,742.46a16.46,16.46,0,0,1,0-23.27h0a16.46,16.46,0,0,1,23.28,0l49,49A16.46,16.46,0,0,1,87.06,791.48Z"/><path class="fbc74c6f-cda2-4ed7-8b01-35386bcd3e8b" d="M163.16,791.48l-49,49a16.45,16.45,0,0,1-23.27,0h0a16.46,16.46,0,0,1,0-23.28l25.73-25.74a16.46,16.46,0,0,0,0-23.28L90.85,742.46a16.46,16.46,0,0,1,0-23.27h0a16.46,16.46,0,0,1,23.28,0l49,49A16.46,16.46,0,0,1,163.16,791.48Z"/><path class="fbc74c6f-cda2-4ed7-8b01-35386bcd3e8b" d="M346,422.12l-49,49a16.46,16.46,0,0,1-23.28,0h0a16.47,16.47,0,0,1,0-23.28l25.74-25.75a16.45,16.45,0,0,0,0-23.27L273.67,373.1a16.46,16.46,0,0,1,0-23.28h0a16.47,16.47,0,0,1,23.28,0l49,49A16.47,16.47,0,0,1,346,422.12Z"/><path class="fbc74c6f-cda2-4ed7-8b01-35386bcd3e8b" d="M422.08,422.12l-49,49a16.46,16.46,0,0,1-23.28,0h0a16.47,16.47,0,0,1,0-23.28l25.74-25.75a16.45,16.45,0,0,0,0-23.27L349.77,373.1a16.46,16.46,0,0,1,0-23.28h0a16.47,16.47,0,0,1,23.28,0l49,49A16.47,16.47,0,0,1,422.08,422.12Z"/><path class="fbc74c6f-cda2-4ed7-8b01-35386bcd3e8b" d="M498.18,422.12l-49,49a16.46,16.46,0,0,1-23.28,0h0a16.47,16.47,0,0,1,0-23.28l25.74-25.75a16.45,16.45,0,0,0,0-23.27L425.87,373.1a16.46,16.46,0,0,1,0-23.28h0a16.47,16.47,0,0,1,23.28,0l49,49A16.47,16.47,0,0,1,498.18,422.12Z"/><path class="fbc74c6f-cda2-4ed7-8b01-35386bcd3e8b" d="M574.28,422.12l-49,49a16.46,16.46,0,0,1-23.28,0h0a16.47,16.47,0,0,1,0-23.28l25.74-25.75a16.45,16.45,0,0,0,0-23.27L502,373.1a16.46,16.46,0,0,1,0-23.28h0a16.47,16.47,0,0,1,23.28,0l49,49A16.47,16.47,0,0,1,574.28,422.12Z"/><path class="fbc74c6f-cda2-4ed7-8b01-35386bcd3e8b" d="M307.93,545.55l-49,49a16.46,16.46,0,0,1-23.28,0h0a16.46,16.46,0,0,1,0-23.28l25.74-25.74a16.46,16.46,0,0,0,0-23.28l-25.74-25.74a16.46,16.46,0,0,1,0-23.28h0a16.47,16.47,0,0,1,23.28,0l49,49A16.47,16.47,0,0,1,307.93,545.55Z"/><path class="fbc74c6f-cda2-4ed7-8b01-35386bcd3e8b" d="M384,545.55l-49,49a16.46,16.46,0,0,1-23.28,0h0a16.47,16.47,0,0,1,0-23.28l25.74-25.74a16.46,16.46,0,0,0,0-23.28l-25.74-25.74a16.46,16.46,0,0,1,0-23.28h0a16.47,16.47,0,0,1,23.28,0l49,49A16.47,16.47,0,0,1,384,545.55Z"/><path class="fbc74c6f-cda2-4ed7-8b01-35386bcd3e8b" d="M460.13,545.55l-49,49a16.46,16.46,0,0,1-23.28,0h0a16.47,16.47,0,0,1,0-23.28l25.74-25.74a16.46,16.46,0,0,0,0-23.28l-25.74-25.74a16.46,16.46,0,0,1,0-23.28h0a16.47,16.47,0,0,1,23.28,0l49,49A16.47,16.47,0,0,1,460.13,545.55Z"/><path class="fbc74c6f-cda2-4ed7-8b01-35386bcd3e8b" d="M536.23,545.55l-49,49a16.46,16.46,0,0,1-23.28,0h0a16.47,16.47,0,0,1,0-23.28l25.74-25.74a16.46,16.46,0,0,0,0-23.28l-25.74-25.74a16.46,16.46,0,0,1,0-23.28h0a16.47,16.47,0,0,1,23.28,0l49,49A16.47,16.47,0,0,1,536.23,545.55Z"/><path class="fbc74c6f-cda2-4ed7-8b01-35386bcd3e8b" d="M612.33,545.55l-49,49a16.46,16.46,0,0,1-23.28,0h0a16.47,16.47,0,0,1,0-23.28l25.74-25.74a16.46,16.46,0,0,0,0-23.28L540,496.53a16.46,16.46,0,0,1,0-23.28h0a16.47,16.47,0,0,1,23.28,0l49,49A16.47,16.47,0,0,1,612.33,545.55Z"/><path class="fbc74c6f-cda2-4ed7-8b01-35386bcd3e8b" d="M269.88,669l-49,49a16.46,16.46,0,0,1-23.28,0h0a16.46,16.46,0,0,1,0-23.28L223.31,669a16.46,16.46,0,0,0,0-23.28L197.57,620a16.46,16.46,0,0,1,0-23.28h0a16.46,16.46,0,0,1,23.28,0l49,49A16.46,16.46,0,0,1,269.88,669Z"/><path class="fbc74c6f-cda2-4ed7-8b01-35386bcd3e8b" d="M346,669l-49,49a16.46,16.46,0,0,1-23.28,0h0a16.47,16.47,0,0,1,0-23.28L299.41,669a16.46,16.46,0,0,0,0-23.28L273.67,620a16.46,16.46,0,0,1,0-23.28h0a16.46,16.46,0,0,1,23.28,0l49,49A16.46,16.46,0,0,1,346,669Z"/><path class="fbc74c6f-cda2-4ed7-8b01-35386bcd3e8b" d="M422.08,669l-49,49a16.46,16.46,0,0,1-23.28,0h0a16.47,16.47,0,0,1,0-23.28L375.51,669a16.46,16.46,0,0,0,0-23.28L349.77,620a16.46,16.46,0,0,1,0-23.28h0a16.46,16.46,0,0,1,23.28,0l49,49A16.46,16.46,0,0,1,422.08,669Z"/><path class="fbc74c6f-cda2-4ed7-8b01-35386bcd3e8b" d="M498.18,669l-49,49a16.46,16.46,0,0,1-23.28,0h0a16.47,16.47,0,0,1,0-23.28L451.61,669a16.46,16.46,0,0,0,0-23.28L425.87,620a16.46,16.46,0,0,1,0-23.28h0a16.46,16.46,0,0,1,23.28,0l49,49A16.46,16.46,0,0,1,498.18,669Z"/><path class="fbc74c6f-cda2-4ed7-8b01-35386bcd3e8b" d="M574.28,669l-49,49A16.46,16.46,0,0,1,502,718h0a16.47,16.47,0,0,1,0-23.28L527.71,669a16.46,16.46,0,0,0,0-23.28L502,620a16.46,16.46,0,0,1,0-23.28h0a16.46,16.46,0,0,1,23.28,0l49,49A16.46,16.46,0,0,1,574.28,669Z"/><path class="fbc74c6f-cda2-4ed7-8b01-35386bcd3e8b" d="M231.83,792.41l-49,49a16.46,16.46,0,0,1-23.28,0h0a16.46,16.46,0,0,1,0-23.28l25.74-25.74a16.46,16.46,0,0,0,0-23.28l-25.74-25.74a16.45,16.45,0,0,1,0-23.27h0a16.46,16.46,0,0,1,23.28,0l49,49A16.46,16.46,0,0,1,231.83,792.41Z"/><path class="fbc74c6f-cda2-4ed7-8b01-35386bcd3e8b" d="M307.93,792.41l-49,49a16.46,16.46,0,0,1-23.28,0h0a16.46,16.46,0,0,1,0-23.28l25.74-25.74a16.46,16.46,0,0,0,0-23.28l-25.74-25.74a16.45,16.45,0,0,1,0-23.27h0a16.46,16.46,0,0,1,23.28,0l49,49A16.46,16.46,0,0,1,307.93,792.41Z"/><path class="fbc74c6f-cda2-4ed7-8b01-35386bcd3e8b" d="M384,792.41l-49,49a16.46,16.46,0,0,1-23.28,0h0a16.47,16.47,0,0,1,0-23.28l25.74-25.74a16.46,16.46,0,0,0,0-23.28l-25.74-25.74a16.45,16.45,0,0,1,0-23.27h0a16.46,16.46,0,0,1,23.28,0l49,49A16.46,16.46,0,0,1,384,792.41Z"/><path class="fbc74c6f-cda2-4ed7-8b01-35386bcd3e8b" d="M460.13,792.41l-49,49a16.46,16.46,0,0,1-23.28,0h0a16.47,16.47,0,0,1,0-23.28l25.74-25.74a16.46,16.46,0,0,0,0-23.28l-25.74-25.74a16.45,16.45,0,0,1,0-23.27h0a16.46,16.46,0,0,1,23.28,0l49,49A16.46,16.46,0,0,1,460.13,792.41Z"/><path class="fbc74c6f-cda2-4ed7-8b01-35386bcd3e8b" d="M536.23,792.41l-49,49a16.46,16.46,0,0,1-23.28,0h0a16.47,16.47,0,0,1,0-23.28l25.74-25.74a16.46,16.46,0,0,0,0-23.28l-25.74-25.74a16.45,16.45,0,0,1,0-23.27h0a16.46,16.46,0,0,1,23.28,0l49,49A16.46,16.46,0,0,1,536.23,792.41Z"/><path class="fbc74c6f-cda2-4ed7-8b01-35386bcd3e8b" d="M721.84,421.19l-49,49a16.46,16.46,0,0,1-23.28,0h0a16.48,16.48,0,0,1,0-23.28l25.74-25.74a16.46,16.46,0,0,0,0-23.28l-25.74-25.74a16.45,16.45,0,0,1,0-23.27h0a16.47,16.47,0,0,1,23.29,0l49,49A16.46,16.46,0,0,1,721.84,421.19Z"/><path class="fbc74c6f-cda2-4ed7-8b01-35386bcd3e8b" d="M649.46,415.62l-49,49a16.45,16.45,0,0,1-23.27,0h0a16.47,16.47,0,0,1,0-23.28l25.74-25.74a16.46,16.46,0,0,0,0-23.28L577.14,366.6a16.46,16.46,0,0,1,0-23.27h0a16.46,16.46,0,0,1,23.28,0l49,49A16.46,16.46,0,0,1,649.46,415.62Z"/><path class="fbc74c6f-cda2-4ed7-8b01-35386bcd3e8b" d="M797.94,421.19l-49,49a16.46,16.46,0,0,1-23.28,0h0a16.48,16.48,0,0,1,0-23.28l25.74-25.74a16.46,16.46,0,0,0,0-23.28l-25.74-25.74a16.45,16.45,0,0,1,0-23.27h0a16.47,16.47,0,0,1,23.29,0l49,49A16.46,16.46,0,0,1,797.94,421.19Z"/><path class="fbc74c6f-cda2-4ed7-8b01-35386bcd3e8b" d="M874,421.19l-49,49a16.46,16.46,0,0,1-23.28,0h0a16.48,16.48,0,0,1,0-23.28l25.74-25.74a16.46,16.46,0,0,0,0-23.28l-25.74-25.74a16.46,16.46,0,0,1,0-23.27h0a16.47,16.47,0,0,1,23.29,0l49,49A16.46,16.46,0,0,1,874,421.19Z"/><path class="fbc74c6f-cda2-4ed7-8b01-35386bcd3e8b" d="M950.14,421.19l-49,49a16.46,16.46,0,0,1-23.28,0h0a16.48,16.48,0,0,1,0-23.28l25.74-25.74a16.46,16.46,0,0,0,0-23.28l-25.74-25.74a16.46,16.46,0,0,1,0-23.27h0a16.47,16.47,0,0,1,23.29,0l49,49A16.46,16.46,0,0,1,950.14,421.19Z"/><path class="fbc74c6f-cda2-4ed7-8b01-35386bcd3e8b" d="M1026.25,421.19l-49,49a16.46,16.46,0,0,1-23.28,0h0a16.48,16.48,0,0,1,0-23.28l25.74-25.74a16.46,16.46,0,0,0,0-23.28l-25.74-25.74a16.46,16.46,0,0,1,0-23.27h0a16.47,16.47,0,0,1,23.29,0l49,49A16.48,16.48,0,0,1,1026.25,421.19Z"/><path class="fbc74c6f-cda2-4ed7-8b01-35386bcd3e8b" d="M683.79,544.62l-49,49a16.46,16.46,0,0,1-23.28,0h0a16.47,16.47,0,0,1,0-23.28l25.74-25.74a16.46,16.46,0,0,0,0-23.28L611.48,495.6a16.45,16.45,0,0,1,0-23.27h0a16.46,16.46,0,0,1,23.28,0l49,49A16.46,16.46,0,0,1,683.79,544.62Z"/><path class="fbc74c6f-cda2-4ed7-8b01-35386bcd3e8b" d="M759.89,544.62l-49,49a16.46,16.46,0,0,1-23.28,0h0a16.48,16.48,0,0,1,0-23.28l25.74-25.74a16.46,16.46,0,0,0,0-23.28L687.58,495.6a16.45,16.45,0,0,1,0-23.27h0a16.47,16.47,0,0,1,23.29,0l49,49A16.46,16.46,0,0,1,759.89,544.62Z"/><path class="fbc74c6f-cda2-4ed7-8b01-35386bcd3e8b" d="M836,544.62l-49,49a16.46,16.46,0,0,1-23.28,0h0a16.48,16.48,0,0,1,0-23.28l25.74-25.74a16.46,16.46,0,0,0,0-23.28L763.68,495.6a16.45,16.45,0,0,1,0-23.27h0a16.47,16.47,0,0,1,23.29,0l49,49A16.46,16.46,0,0,1,836,544.62Z"/><path class="fbc74c6f-cda2-4ed7-8b01-35386bcd3e8b" d="M912.09,544.62l-49,49a16.46,16.46,0,0,1-23.28,0h0a16.48,16.48,0,0,1,0-23.28l25.74-25.74a16.46,16.46,0,0,0,0-23.28L839.78,495.6a16.46,16.46,0,0,1,0-23.27h0a16.47,16.47,0,0,1,23.29,0l49,49A16.46,16.46,0,0,1,912.09,544.62Z"/><path class="fbc74c6f-cda2-4ed7-8b01-35386bcd3e8b" d="M988.19,544.62l-49,49a16.46,16.46,0,0,1-23.28,0h0a16.48,16.48,0,0,1,0-23.28l25.74-25.74a16.46,16.46,0,0,0,0-23.28L915.88,495.6a16.46,16.46,0,0,1,0-23.27h0a16.47,16.47,0,0,1,23.29,0l49,49A16.46,16.46,0,0,1,988.19,544.62Z"/><path class="fbc74c6f-cda2-4ed7-8b01-35386bcd3e8b" d="M645.74,668.05l-49,49a16.46,16.46,0,0,1-23.28,0h0a16.47,16.47,0,0,1,0-23.28l25.74-25.74a16.46,16.46,0,0,0,0-23.28L573.43,619a16.45,16.45,0,0,1,0-23.27h0a16.46,16.46,0,0,1,23.28,0l49,49A16.46,16.46,0,0,1,645.74,668.05Z"/><path class="fbc74c6f-cda2-4ed7-8b01-35386bcd3e8b" d="M721.84,668.05l-49,49a16.46,16.46,0,0,1-23.28,0h0a16.48,16.48,0,0,1,0-23.28l25.74-25.74a16.46,16.46,0,0,0,0-23.28L649.53,619a16.45,16.45,0,0,1,0-23.27h0a16.47,16.47,0,0,1,23.29,0l49,49A16.46,16.46,0,0,1,721.84,668.05Z"/><path class="fbc74c6f-cda2-4ed7-8b01-35386bcd3e8b" d="M797.94,668.05l-49,49a16.46,16.46,0,0,1-23.28,0h0a16.48,16.48,0,0,1,0-23.28l25.74-25.74a16.46,16.46,0,0,0,0-23.28L725.63,619a16.45,16.45,0,0,1,0-23.27h0a16.47,16.47,0,0,1,23.29,0l49,49A16.46,16.46,0,0,1,797.94,668.05Z"/><path class="fbc74c6f-cda2-4ed7-8b01-35386bcd3e8b" d="M874,668.05l-49,49a16.46,16.46,0,0,1-23.28,0h0a16.48,16.48,0,0,1,0-23.28l25.74-25.74a16.46,16.46,0,0,0,0-23.28L801.73,619a16.46,16.46,0,0,1,0-23.27h0a16.47,16.47,0,0,1,23.29,0l49,49A16.46,16.46,0,0,1,874,668.05Z"/><path class="fbc74c6f-cda2-4ed7-8b01-35386bcd3e8b" d="M950.14,668.05l-49,49a16.46,16.46,0,0,1-23.28,0h0a16.48,16.48,0,0,1,0-23.28l25.74-25.74a16.46,16.46,0,0,0,0-23.28L877.83,619a16.46,16.46,0,0,1,0-23.27h0a16.47,16.47,0,0,1,23.29,0l49,49A16.46,16.46,0,0,1,950.14,668.05Z"/><path class="fbc74c6f-cda2-4ed7-8b01-35386bcd3e8b" d="M607.69,791.48l-49,49a16.46,16.46,0,0,1-23.28,0h0a16.47,16.47,0,0,1,0-23.28l25.74-25.74a16.46,16.46,0,0,0,0-23.28l-25.74-25.74a16.45,16.45,0,0,1,0-23.27h0a16.46,16.46,0,0,1,23.28,0l49,49A16.46,16.46,0,0,1,607.69,791.48Z"/><path class="fbc74c6f-cda2-4ed7-8b01-35386bcd3e8b" d="M683.79,791.48l-49,49a16.46,16.46,0,0,1-23.28,0h0a16.47,16.47,0,0,1,0-23.28l25.74-25.74a16.46,16.46,0,0,0,0-23.28l-25.74-25.74a16.45,16.45,0,0,1,0-23.27h0a16.46,16.46,0,0,1,23.28,0l49,49A16.46,16.46,0,0,1,683.79,791.48Z"/><path class="fbc74c6f-cda2-4ed7-8b01-35386bcd3e8b" d="M759.89,791.48l-49,49a16.46,16.46,0,0,1-23.28,0h0a16.48,16.48,0,0,1,0-23.28l25.74-25.74a16.46,16.46,0,0,0,0-23.28l-25.74-25.74a16.45,16.45,0,0,1,0-23.27h0a16.47,16.47,0,0,1,23.29,0l49,49A16.46,16.46,0,0,1,759.89,791.48Z"/><path class="fbc74c6f-cda2-4ed7-8b01-35386bcd3e8b" d="M836,791.48l-49,49a16.46,16.46,0,0,1-23.28,0h0a16.48,16.48,0,0,1,0-23.28l25.74-25.74a16.46,16.46,0,0,0,0-23.28l-25.74-25.74a16.45,16.45,0,0,1,0-23.27h0a16.47,16.47,0,0,1,23.29,0l49,49A16.46,16.46,0,0,1,836,791.48Z"/><path class="fbc74c6f-cda2-4ed7-8b01-35386bcd3e8b" d="M912.09,791.48l-49,49a16.46,16.46,0,0,1-23.28,0h0a16.48,16.48,0,0,1,0-23.28l25.74-25.74a16.46,16.46,0,0,0,0-23.28l-25.74-25.74a16.46,16.46,0,0,1,0-23.27h0a16.47,16.47,0,0,1,23.29,0l49,49A16.46,16.46,0,0,1,912.09,791.48Z"/><path class="fbc74c6f-cda2-4ed7-8b01-35386bcd3e8b" d="M1094.92,422.12l-49,49a16.46,16.46,0,0,1-23.28,0h0a16.46,16.46,0,0,1,0-23.28l25.74-25.75a16.46,16.46,0,0,0,0-23.27l-25.74-25.74a16.47,16.47,0,0,1,0-23.28h0a16.47,16.47,0,0,1,23.28,0l49,49A16.47,16.47,0,0,1,1094.92,422.12Z"/><path class="fbc74c6f-cda2-4ed7-8b01-35386bcd3e8b" d="M1056.87,545.55l-49,49a16.46,16.46,0,0,1-23.28,0h0a16.46,16.46,0,0,1,0-23.28l25.74-25.74a16.48,16.48,0,0,0,0-23.28l-25.74-25.74a16.47,16.47,0,0,1,0-23.28h0a16.47,16.47,0,0,1,23.28,0l49,49A16.47,16.47,0,0,1,1056.87,545.55Z"/><path class="fbc74c6f-cda2-4ed7-8b01-35386bcd3e8b" d="M1133,545.55l-49,49a16.46,16.46,0,0,1-23.28,0h0a16.46,16.46,0,0,1,0-23.28l25.74-25.74a16.48,16.48,0,0,0,0-23.28l-25.74-25.74a16.46,16.46,0,0,1,0-23.28h0a16.47,16.47,0,0,1,23.28,0l49,49A16.47,16.47,0,0,1,1133,545.55Z"/><path class="fbc74c6f-cda2-4ed7-8b01-35386bcd3e8b" d="M1018.82,669l-49,49a16.46,16.46,0,0,1-23.28,0h0a16.46,16.46,0,0,1,0-23.28L972.25,669a16.48,16.48,0,0,0,0-23.28L946.51,620a16.47,16.47,0,0,1,0-23.28h0a16.46,16.46,0,0,1,23.28,0l49,49A16.46,16.46,0,0,1,1018.82,669Z"/><path class="fbc74c6f-cda2-4ed7-8b01-35386bcd3e8b" d="M1094.92,669l-49,49a16.46,16.46,0,0,1-23.28,0h0a16.46,16.46,0,0,1,0-23.28L1048.35,669a16.48,16.48,0,0,0,0-23.28L1022.61,620a16.47,16.47,0,0,1,0-23.28h0a16.46,16.46,0,0,1,23.28,0l49,49A16.46,16.46,0,0,1,1094.92,669Z"/><path class="fbc74c6f-cda2-4ed7-8b01-35386bcd3e8b" d="M980.77,792.41l-49,49a16.46,16.46,0,0,1-23.28,0h0a16.46,16.46,0,0,1,0-23.28l25.74-25.74a16.48,16.48,0,0,0,0-23.28l-25.74-25.74a16.46,16.46,0,0,1,0-23.27h0a16.46,16.46,0,0,1,23.28,0l49,49A16.46,16.46,0,0,1,980.77,792.41Z"/><path class="fbc74c6f-cda2-4ed7-8b01-35386bcd3e8b" d="M1056.87,792.41l-49,49a16.46,16.46,0,0,1-23.28,0h0a16.46,16.46,0,0,1,0-23.28l25.74-25.74a16.48,16.48,0,0,0,0-23.28l-25.74-25.74a16.46,16.46,0,0,1,0-23.27h0a16.46,16.46,0,0,1,23.28,0l49,49A16.46,16.46,0,0,1,1056.87,792.41Z"/><path class="fbc74c6f-cda2-4ed7-8b01-35386bcd3e8b" d="M1133,792.41l-49,49a16.46,16.46,0,0,1-23.28,0h0a16.46,16.46,0,0,1,0-23.28l25.74-25.74a16.48,16.48,0,0,0,0-23.28l-25.74-25.74a16.45,16.45,0,0,1,0-23.27h0a16.46,16.46,0,0,1,23.28,0l49,49A16.46,16.46,0,0,1,1133,792.41Z"/><path class="fbc74c6f-cda2-4ed7-8b01-35386bcd3e8b" d="M47.15,922.33l-49,49a16.46,16.46,0,0,1-23.28,0h0a16.46,16.46,0,0,1,0-23.28L.58,922.33a16.46,16.46,0,0,0,0-23.27l-25.74-25.74a16.46,16.46,0,0,1,0-23.28h0a16.46,16.46,0,0,1,23.28,0l49,49A16.46,16.46,0,0,1,47.15,922.33Z"/><path class="fbc74c6f-cda2-4ed7-8b01-35386bcd3e8b" d="M123.25,922.33l-49,49a16.46,16.46,0,0,1-23.28,0h0a16.46,16.46,0,0,1,0-23.28l25.74-25.75a16.46,16.46,0,0,0,0-23.27L50.94,873.32a16.46,16.46,0,0,1,0-23.28h0a16.46,16.46,0,0,1,23.28,0l49,49A16.46,16.46,0,0,1,123.25,922.33Z"/><path class="fbc74c6f-cda2-4ed7-8b01-35386bcd3e8b" d="M199.35,922.33l-49,49a16.46,16.46,0,0,1-23.28,0h0a16.46,16.46,0,0,1,0-23.28l25.74-25.75a16.46,16.46,0,0,0,0-23.27L127,873.32A16.46,16.46,0,0,1,127,850h0a16.46,16.46,0,0,1,23.28,0l49,49A16.46,16.46,0,0,1,199.35,922.33Z"/><path class="fbc74c6f-cda2-4ed7-8b01-35386bcd3e8b" d="M9.1,1045.77l-49,49a16.46,16.46,0,0,1-23.28,0h0a16.46,16.46,0,0,1,0-23.28l25.74-25.75a16.46,16.46,0,0,0,0-23.27l-25.74-25.74a16.46,16.46,0,0,1,0-23.28h0a16.47,16.47,0,0,1,23.28,0l49,49A16.47,16.47,0,0,1,9.1,1045.77Z"/><path class="fbc74c6f-cda2-4ed7-8b01-35386bcd3e8b" d="M85.2,1045.77l-49,49a16.46,16.46,0,0,1-23.28,0h0a16.46,16.46,0,0,1,0-23.28l25.74-25.75a16.46,16.46,0,0,0,0-23.27L12.89,996.75a16.46,16.46,0,0,1,0-23.28h0a16.47,16.47,0,0,1,23.28,0l49,49A16.47,16.47,0,0,1,85.2,1045.77Z"/><path class="fbc74c6f-cda2-4ed7-8b01-35386bcd3e8b" d="M161.3,1045.77l-49,49a16.46,16.46,0,0,1-23.28,0h0a16.46,16.46,0,0,1,0-23.28l25.74-25.75a16.46,16.46,0,0,0,0-23.27L89,996.75a16.46,16.46,0,0,1,0-23.28h0a16.47,16.47,0,0,1,23.28,0l49,49A16.47,16.47,0,0,1,161.3,1045.77Z"/><path class="fbc74c6f-cda2-4ed7-8b01-35386bcd3e8b" d="M268,923.26l-49,49a16.46,16.46,0,0,1-23.27,0h0a16.47,16.47,0,0,1,0-23.28l25.74-25.75a16.46,16.46,0,0,0,0-23.28l-25.74-25.73a16.48,16.48,0,0,1,0-23.28h0A16.45,16.45,0,0,1,219,851l49,49A16.46,16.46,0,0,1,268,923.26Z"/><path class="fbc74c6f-cda2-4ed7-8b01-35386bcd3e8b" d="M344.13,923.26l-49,49a16.46,16.46,0,0,1-23.27,0h0a16.46,16.46,0,0,1,0-23.28l25.73-25.75a16.46,16.46,0,0,0,0-23.28l-25.74-25.73a16.48,16.48,0,0,1,0-23.28h0a16.45,16.45,0,0,1,23.28,0l49,49A16.46,16.46,0,0,1,344.13,923.26Z"/><path class="fbc74c6f-cda2-4ed7-8b01-35386bcd3e8b" d="M420.23,923.26l-49,49a16.48,16.48,0,0,1-23.28,0h0a16.46,16.46,0,0,1,0-23.28l25.73-25.75a16.46,16.46,0,0,0,0-23.28l-25.73-25.73a16.47,16.47,0,0,1,0-23.28h0a16.45,16.45,0,0,1,23.28,0l49,49A16.46,16.46,0,0,1,420.23,923.26Z"/><path class="fbc74c6f-cda2-4ed7-8b01-35386bcd3e8b" d="M496.33,923.26l-49,49a16.48,16.48,0,0,1-23.28,0h0A16.46,16.46,0,0,1,424,949l25.73-25.75a16.46,16.46,0,0,0,0-23.28L424,874.25A16.47,16.47,0,0,1,424,851h0a16.45,16.45,0,0,1,23.28,0l49,49A16.46,16.46,0,0,1,496.33,923.26Z"/><path class="fbc74c6f-cda2-4ed7-8b01-35386bcd3e8b" d="M230,1046.69l-49,49a16.46,16.46,0,0,1-23.27,0h0a16.47,16.47,0,0,1,0-23.28l25.74-25.75a16.45,16.45,0,0,0,0-23.27l-25.74-25.74a16.48,16.48,0,0,1,0-23.28h0a16.46,16.46,0,0,1,23.28,0l49,49A16.46,16.46,0,0,1,230,1046.69Z"/><path class="fbc74c6f-cda2-4ed7-8b01-35386bcd3e8b" d="M306.08,1046.69l-49,49a16.46,16.46,0,0,1-23.27,0h0a16.46,16.46,0,0,1,0-23.28l25.73-25.75a16.45,16.45,0,0,0,0-23.27l-25.74-25.74a16.48,16.48,0,0,1,0-23.28h0a16.46,16.46,0,0,1,23.28,0l49,49A16.46,16.46,0,0,1,306.08,1046.69Z"/><path class="fbc74c6f-cda2-4ed7-8b01-35386bcd3e8b" d="M382.18,1046.69l-49,49a16.48,16.48,0,0,1-23.28,0h0a16.46,16.46,0,0,1,0-23.28l25.73-25.75a16.45,16.45,0,0,0,0-23.27l-25.73-25.74a16.47,16.47,0,0,1,0-23.28h0a16.46,16.46,0,0,1,23.28,0l49,49A16.46,16.46,0,0,1,382.18,1046.69Z"/><path class="fbc74c6f-cda2-4ed7-8b01-35386bcd3e8b" d="M458.28,1046.69l-49,49a16.48,16.48,0,0,1-23.28,0h0a16.46,16.46,0,0,1,0-23.28l25.73-25.75a16.45,16.45,0,0,0,0-23.27L386,997.68a16.47,16.47,0,0,1,0-23.28h0a16.46,16.46,0,0,1,23.28,0l49,49A16.46,16.46,0,0,1,458.28,1046.69Z"/><path class="fbc74c6f-cda2-4ed7-8b01-35386bcd3e8b" d="M534.38,1046.69l-49,49a16.48,16.48,0,0,1-23.28,0h0a16.46,16.46,0,0,1,0-23.28l25.73-25.75a16.45,16.45,0,0,0,0-23.27l-25.73-25.74a16.47,16.47,0,0,1,0-23.28h0a16.46,16.46,0,0,1,23.28,0l49,49A16.46,16.46,0,0,1,534.38,1046.69Z"/><path class="fbc74c6f-cda2-4ed7-8b01-35386bcd3e8b" d="M643.89,922.33l-49,49a16.46,16.46,0,0,1-23.28,0h0a16.46,16.46,0,0,1,0-23.28l25.73-25.75a16.45,16.45,0,0,0,0-23.27l-25.73-25.74a16.47,16.47,0,0,1,0-23.28h0a16.46,16.46,0,0,1,23.28,0l49,49A16.46,16.46,0,0,1,643.89,922.33Z"/><path class="fbc74c6f-cda2-4ed7-8b01-35386bcd3e8b" d="M571.5,916.77l-49,49a16.46,16.46,0,0,1-23.28,0h0a16.46,16.46,0,0,1,0-23.28l25.74-25.74a16.48,16.48,0,0,0,0-23.28l-25.74-25.74a16.47,16.47,0,0,1,0-23.28h0a16.47,16.47,0,0,1,23.28,0l49,49A16.46,16.46,0,0,1,571.5,916.77Z"/><path class="fbc74c6f-cda2-4ed7-8b01-35386bcd3e8b" d="M720,922.33l-49,49a16.46,16.46,0,0,1-23.28,0h0a16.46,16.46,0,0,1,0-23.28l25.73-25.75a16.45,16.45,0,0,0,0-23.27l-25.73-25.74a16.47,16.47,0,0,1,0-23.28h0A16.46,16.46,0,0,1,671,850l49,49A16.46,16.46,0,0,1,720,922.33Z"/><path class="fbc74c6f-cda2-4ed7-8b01-35386bcd3e8b" d="M796.09,922.33l-49,49a16.46,16.46,0,0,1-23.28,0h0a16.46,16.46,0,0,1,0-23.28l25.73-25.75a16.45,16.45,0,0,0,0-23.27l-25.73-25.74a16.47,16.47,0,0,1,0-23.28h0a16.46,16.46,0,0,1,23.28,0l49,49A16.46,16.46,0,0,1,796.09,922.33Z"/><path class="fbc74c6f-cda2-4ed7-8b01-35386bcd3e8b" d="M872.19,922.33l-49,49a16.46,16.46,0,0,1-23.28,0h0a16.46,16.46,0,0,1,0-23.28l25.74-25.75a16.46,16.46,0,0,0,0-23.27l-25.73-25.74a16.47,16.47,0,0,1,0-23.28h0a16.46,16.46,0,0,1,23.28,0l49,49A16.46,16.46,0,0,1,872.19,922.33Z"/><path class="fbc74c6f-cda2-4ed7-8b01-35386bcd3e8b" d="M948.29,922.33l-49,49a16.46,16.46,0,0,1-23.28,0h0a16.46,16.46,0,0,1,0-23.28l25.74-25.75a16.46,16.46,0,0,0,0-23.27L876,873.32A16.47,16.47,0,0,1,876,850h0a16.46,16.46,0,0,1,23.28,0l49,49A16.46,16.46,0,0,1,948.29,922.33Z"/><path class="fbc74c6f-cda2-4ed7-8b01-35386bcd3e8b" d="M605.84,1045.77l-49,49a16.46,16.46,0,0,1-23.28,0h0a16.46,16.46,0,0,1,0-23.28l25.73-25.75a16.45,16.45,0,0,0,0-23.27l-25.73-25.74a16.47,16.47,0,0,1,0-23.28h0a16.47,16.47,0,0,1,23.28,0l49,49A16.47,16.47,0,0,1,605.84,1045.77Z"/><path class="fbc74c6f-cda2-4ed7-8b01-35386bcd3e8b" d="M681.94,1045.77l-49,49a16.46,16.46,0,0,1-23.28,0h0a16.46,16.46,0,0,1,0-23.28l25.73-25.75a16.45,16.45,0,0,0,0-23.27l-25.73-25.74a16.47,16.47,0,0,1,0-23.28h0a16.47,16.47,0,0,1,23.28,0l49,49A16.47,16.47,0,0,1,681.94,1045.77Z"/><path class="fbc74c6f-cda2-4ed7-8b01-35386bcd3e8b" d="M758,1045.77l-49,49a16.46,16.46,0,0,1-23.28,0h0a16.46,16.46,0,0,1,0-23.28l25.73-25.75a16.45,16.45,0,0,0,0-23.27l-25.73-25.74a16.47,16.47,0,0,1,0-23.28h0a16.47,16.47,0,0,1,23.28,0l49,49A16.47,16.47,0,0,1,758,1045.77Z"/><path class="fbc74c6f-cda2-4ed7-8b01-35386bcd3e8b" d="M834.14,1045.77l-49,49a16.46,16.46,0,0,1-23.28,0h0a16.46,16.46,0,0,1,0-23.28l25.74-25.75a16.46,16.46,0,0,0,0-23.27l-25.73-25.74a16.47,16.47,0,0,1,0-23.28h0a16.47,16.47,0,0,1,23.28,0l49,49A16.47,16.47,0,0,1,834.14,1045.77Z"/><path class="fbc74c6f-cda2-4ed7-8b01-35386bcd3e8b" d="M910.24,1045.77l-49,49a16.46,16.46,0,0,1-23.28,0h0a16.46,16.46,0,0,1,0-23.28l25.74-25.75a16.46,16.46,0,0,0,0-23.27l-25.73-25.74a16.47,16.47,0,0,1,0-23.28h0a16.47,16.47,0,0,1,23.28,0l49,49A16.47,16.47,0,0,1,910.24,1045.77Z"/><path class="fbc74c6f-cda2-4ed7-8b01-35386bcd3e8b" d="M1017,923.26l-49,49a16.48,16.48,0,0,1-23.28,0h0a16.48,16.48,0,0,1,0-23.28l25.74-25.75a16.46,16.46,0,0,0,0-23.28l-25.74-25.73a16.46,16.46,0,0,1,0-23.28h0a16.46,16.46,0,0,1,23.29,0l49,49A16.46,16.46,0,0,1,1017,923.26Z"/><path class="fbc74c6f-cda2-4ed7-8b01-35386bcd3e8b" d="M1093.06,923.26l-49,49a16.48,16.48,0,0,1-23.28,0h0a16.48,16.48,0,0,1,0-23.28l25.74-25.75a16.46,16.46,0,0,0,0-23.28l-25.74-25.73a16.47,16.47,0,0,1,0-23.28h0a16.46,16.46,0,0,1,23.29,0l49,49A16.46,16.46,0,0,1,1093.06,923.26Z"/><path class="fbc74c6f-cda2-4ed7-8b01-35386bcd3e8b" d="M978.91,1046.69l-49,49a16.48,16.48,0,0,1-23.28,0h0a16.48,16.48,0,0,1,0-23.28l25.74-25.75a16.45,16.45,0,0,0,0-23.27L906.6,997.68a16.46,16.46,0,0,1,0-23.28h0a16.47,16.47,0,0,1,23.29,0l49,49A16.46,16.46,0,0,1,978.91,1046.69Z"/><path class="fbc74c6f-cda2-4ed7-8b01-35386bcd3e8b" d="M1055,1046.69l-49,49a16.48,16.48,0,0,1-23.28,0h0a16.48,16.48,0,0,1,0-23.28l25.74-25.75a16.45,16.45,0,0,0,0-23.27L982.7,997.68a16.46,16.46,0,0,1,0-23.28h0a16.47,16.47,0,0,1,23.29,0l49,49A16.46,16.46,0,0,1,1055,1046.69Z"/><path class="fbc74c6f-cda2-4ed7-8b01-35386bcd3e8b" d="M1131.11,1046.69l-49,49a16.48,16.48,0,0,1-23.28,0h0a16.48,16.48,0,0,1,0-23.28l25.74-25.75a16.45,16.45,0,0,0,0-23.27l-25.74-25.74a16.47,16.47,0,0,1,0-23.28h0a16.47,16.47,0,0,1,23.29,0l49,49A16.46,16.46,0,0,1,1131.11,1046.69Z"/></g><path class="ae350282-b9b3-4d94-89a1-397a50e19c4f" d="M689.81,493.29l-13.07,13.07a4,4,0,0,1-5.62,0l-.4-.39a4,4,0,0,1,0-5.63l7-7a4,4,0,0,0,0-5.62l-7-7.05a4,4,0,0,1,0-5.62l.4-.4a4,4,0,0,1,5.62,0l13.07,13.07A4,4,0,0,1,689.81,493.29Z"/><path class="a2860770-8ebb-450c-afe5-0064f542dd62" d="M391.19,544.19a76.83,76.83,0,0,0-7.9-.32H364v37H346.52V495.63c1.15.09,2.47.15,4,.19l4.72.13c3.23.09,6.58.13,10.07.13q15.67,0,29.94-.51a128,128,0,0,0-.7,15,7.07,7.07,0,0,0,.13,1.53l-.13.19a36.61,36.61,0,0,0-9.43-.95H364v17.52h18.61a50.41,50.41,0,0,0,8.41-.38Z"/><path class="a2860770-8ebb-450c-afe5-0064f542dd62" d="M405.21,547.88a37.9,37.9,0,0,1,2.39-13.41,33,33,0,0,1,6.85-11.18Q424.2,513,439.74,513t24.6,9.75q8.73,9.3,8.73,24.15t-9,24.6q-9.49,10.32-25.16,10.32-16.19,0-25.36-10.13Q405.21,562.41,405.21,547.88Zm15.48-.38a23,23,0,0,0,1.34,7.77,18.49,18.49,0,0,0,3.82,6.44,17.94,17.94,0,0,0,13.89,5.8q8,0,12.56-5.67,4.45-5.49,4.46-14.28t-4.59-14.4q-4.91-5.86-13.45-5.86t-13.57,6.25A22,22,0,0,0,420.69,547.5Z"/><path class="a2860770-8ebb-450c-afe5-0064f542dd62" d="M501.36,573.69a60.82,60.82,0,0,0,.25,7.13H485.75V514.24h15.61v4.9q5.42-6.18,11.37-6.18a24.43,24.43,0,0,1,9.4,1.47L521,531.57l-.25.19q-2.24-3.94-9.24-4a10,10,0,0,0-5.45,1.82,15.71,15.71,0,0,0-4.68,4.81Z"/><path class="ae350282-b9b3-4d94-89a1-397a50e19c4f" d="M562.08,581.21q-3.06-.39-15.74-.39h-2V510.35H531.69q-5.61,0-6.63.57a15.07,15.07,0,0,0-1.59,1l-.19-.06V495.57l.19-.19q2.1.69,11.34.7h40q5.61,0,6.63-.57a15.07,15.07,0,0,0,1.59-1l.19.06v16.31l-.19.19q-2.1-.69-11.34-.7h-9.56Z"/><path class="ae350282-b9b3-4d94-89a1-397a50e19c4f" d="M612.55,573.69a60.82,60.82,0,0,0,.25,7.13H596.94V489.71h15.61v29.5q8.22-6.24,17-6.25,10.69,0,17.2,7.08t6.37,18.73v25.36q0,10.77.32,12.93a6.24,6.24,0,0,0,.86,2.81c.36.42.67.81.93,1.15l-.13.25q-5.16-.45-7.52-.45H643c-1.41,0-3.25.07-5.55.2v-36.9q0-8.79-3.88-13a10.31,10.31,0,0,0-8-3.18q-7.46,0-13.06,8.6Z"/><path class="ae350282-b9b3-4d94-89a1-397a50e19c4f" d="M686,573.69a60.82,60.82,0,0,0,.25,7.13H670.09V514.24H686Z"/><path class="ae350282-b9b3-4d94-89a1-397a50e19c4f" d="M720.74,572.67a46.09,46.09,0,0,0,.51,8.15h-16V514.24h15.48v5.67q8.41-6.95,18-6.95,10.45,0,16.7,7.11t6.24,18.7v25.36q0,10.77.32,12.93a6.24,6.24,0,0,0,.86,2.81c.36.42.67.81.92,1.15l-.13.25q-5.16-.45-7.51-.45h-4.46c-1.36,0-3.19.07-5.48.2V546.29q0-18.67-11.35-18.67-8.4,0-14.08,8.66Z"/><path class="ae350282-b9b3-4d94-89a1-397a50e19c4f" d="M796.82,572.41a59.18,59.18,0,0,0,.45,8.41H781.21V489.71h15.61v55.81l29.12-31.28h18.93l-25.11,26.44,14.34,19.56q4.65,7.39,7,10.84l4.2,5.92a49.67,49.67,0,0,0,3.19,3.82H838.43a41.88,41.88,0,0,0-9.62,1l-19.88-29.06L796.82,565.6Z"/><path class="e7caa0d6-e769-460e-abdd-68ea060262cf" d="M310.84,555,250.7,615.17a20.2,20.2,0,0,1-28.56,0h0a20.19,20.19,0,0,1,0-28.55L253.71,555a20.19,20.19,0,0,0,0-28.56L222.14,494.9a20.19,20.19,0,0,1,0-28.55h0a20.19,20.19,0,0,1,28.56,0l60.14,60.13A20.19,20.19,0,0,1,310.84,555Z"/></svg>