<svg id="f4bc9981-08fc-44a4-abff-bfe401bcfac0" data-name="Layer 1" xmlns="http://www.w3.org/2000/svg" xmlns:xlink="http://www.w3.org/1999/xlink" viewBox="0 0 2160 1080"><defs><style>.e8594f23-91d6-44ff-9689-a24a5fffc396{fill:#efedff;}.a80f7389-572c-4c4d-8fef-2ac4be80651b{fill:#190933;}.b258d82e-ea82-49a6-828e-168b0747f46a{fill:#fff9ff;}.e95903fa-79ae-49b1-b530-43dc7ce9ec5b{fill:#4ff9ff;}.f5479386-6464-47fd-92ed-5476899b37d7{fill:url(#f170c96a-f679-4cc6-84bb-c6e4977c81f7);}.e6101c73-b8d9-4785-8696-f075dadd83e4{fill:#654fff;}.bf754376-9697-4cd9-9adf-3dc0131567dc{fill:#4c4c47;}.ee8dbd34-9a5e-4a94-b728-fc869ecc91c8{fill:#ea7317;}</style><linearGradient id="f170c96a-f679-4cc6-84bb-c6e4977c81f7" x1="850.56" y1="170.84" x2="913.25" y2="227.28" gradientUnits="userSpaceOnUse"><stop offset="0" stop-color="#4ff9ff"/><stop offset="1" stop-color="#654fff"/></linearGradient></defs><title>Artboard 1 copy 2</title><rect class="e8594f23-91d6-44ff-9689-a24a5fffc396" x="-44.72" y="296.03" width="2204.52" height="1100"/><rect class="a80f7389-572c-4c4d-8fef-2ac4be80651b" x="-9.58" y="-6.56" width="2181.33" height="387.56" rx="42.67"/><path class="b258d82e-ea82-49a6-828e-168b0747f46a" d="M1186,166.11l-8.79,8.79a2.67,2.67,0,0,1-3.79,0l-.26-.26a2.67,2.67,0,0,1,0-3.79l4.74-4.74a2.69,2.69,0,0,0,0-3.79l-4.74-4.74a2.67,2.67,0,0,1,0-3.79l.26-.26a2.67,2.67,0,0,1,3.79,0l8.79,8.79A2.67,2.67,0,0,1,1186,166.11Z"/><path class="e95903fa-79ae-49b1-b530-43dc7ce9ec5b" d="M985,200.37a50.92,50.92,0,0,0-5.32-.22h-13V225H954.91V167.68c.77.06,1.65.1,2.66.13l3.17.09q3.25.07,6.78.08,10.54,0,20.15-.34a86.24,86.24,0,0,0-.47,10.08,4.36,4.36,0,0,0,.09,1l-.09.13a24.27,24.27,0,0,0-6.34-.65h-14.2V190h12.52a33.42,33.42,0,0,0,5.66-.26Z"/><path class="e95903fa-79ae-49b1-b530-43dc7ce9ec5b" d="M994.41,202.85a25.4,25.4,0,0,1,1.61-9,22.25,22.25,0,0,1,4.61-7.53q6.55-6.95,17-7t16.55,6.56q5.88,6.27,5.88,16.26t-6,16.55q-6.39,7-16.94,6.95-10.89,0-17.07-6.82Q994.41,212.64,994.41,202.85Zm10.42-.25a15.5,15.5,0,0,0,.9,5.23,12.27,12.27,0,0,0,2.58,4.33,12.06,12.06,0,0,0,9.35,3.9,10.3,10.3,0,0,0,8.45-3.81,14.75,14.75,0,0,0,3-9.61A14.59,14.59,0,0,0,1026,193a11.18,11.18,0,0,0-9-3.95,11,11,0,0,0-9.14,4.2A14.87,14.87,0,0,0,1004.83,202.6Z"/><path class="e95903fa-79ae-49b1-b530-43dc7ce9ec5b" d="M1059.13,220.22a42,42,0,0,0,.17,4.81h-10.68V180.21h10.51v3.3q3.64-4.15,7.66-4.16a16.42,16.42,0,0,1,6.32,1l-.77,11.53-.17.13q-1.5-2.66-6.22-2.66a6.68,6.68,0,0,0-3.67,1.23,10.68,10.68,0,0,0-3.15,3.23Z"/><path class="b258d82e-ea82-49a6-828e-168b0747f46a" d="M1100,225.29c-1.38-.18-4.91-.26-10.6-.26H1088V177.59h-8.49c-2.52,0-4,.13-4.46.39a8.35,8.35,0,0,0-1.08.68l-.12,0v-11l.12-.13c1,.32,3.49.47,7.64.47h26.89c2.52,0,4-.13,4.46-.38a9.46,9.46,0,0,0,1.08-.69l.12,0v11l-.12.13c-.95-.31-3.49-.47-7.64-.47H1100Z"/><path class="b258d82e-ea82-49a6-828e-168b0747f46a" d="M1134,220.22a39.73,39.73,0,0,0,.17,4.81h-10.68V163.69H1134v19.86a18.67,18.67,0,0,1,11.41-4.2,15,15,0,0,1,11.58,4.76q4.29,4.75,4.29,12.61v17.07c0,4.83.07,7.74.21,8.71a4.23,4.23,0,0,0,.58,1.89c.24.28.45.54.62.77l-.08.17q-3.48-.3-5.07-.3h-3c-.94,0-2.19,0-3.73.13V200.32q0-5.91-2.62-8.75a6.91,6.91,0,0,0-5.36-2.14q-5,0-8.79,5.79Z"/><path class="b258d82e-ea82-49a6-828e-168b0747f46a" d="M1183.43,220.22a42,42,0,0,0,.17,4.81h-10.89V180.21h10.72Z"/><path class="b258d82e-ea82-49a6-828e-168b0747f46a" d="M1206.81,219.54a31.14,31.14,0,0,0,.34,5.49h-10.77V180.21h10.43V184a18.69,18.69,0,0,1,12.09-4.67,14.21,14.21,0,0,1,11.24,4.78q4.2,4.78,4.2,12.59v17.07c0,4.83.07,7.74.22,8.71a4.11,4.11,0,0,0,.58,1.89c.24.28.45.54.62.77l-.09.17c-2.31-.2-4-.3-5.06-.3h-3c-.92,0-2.15,0-3.69.13V201.78q0-12.57-7.63-12.57-5.67,0-9.48,5.84Z"/><path class="b258d82e-ea82-49a6-828e-168b0747f46a" d="M1258,219.37a40.31,40.31,0,0,0,.3,5.66h-10.81V163.69H1258v37.58l19.6-21.06h12.74l-16.9,17.8,9.65,13.16q3.14,5,4.72,7.3l2.83,4c.86,1.11,1.57,2,2.14,2.57H1286a28.26,28.26,0,0,0-6.48.64l-13.38-19.56-8.15,8.67Z"/><path class="f5479386-6464-47fd-92ed-5476899b37d7" d="M930.89,207.66,890.4,248.15a13.6,13.6,0,0,1-19.22,0h0a13.59,13.59,0,0,1,0-19.22l21.25-21.26a13.59,13.59,0,0,0,0-19.22l-21.25-21.25a13.6,13.6,0,0,1,0-19.22h0a13.59,13.59,0,0,1,19.22,0l40.49,40.48A13.59,13.59,0,0,1,930.89,207.66Z"/><path class="e6101c73-b8d9-4785-8696-f075dadd83e4" d="M156.63,950.25q-7.59-.71-17.74-.71h-7L170.31,842q2.56-7.23,2.56-8.43a6.64,6.64,0,0,0-.09-1.46l.09-.17q5.74.25,12.18.26,5.3,0,12.71-.17l.09.17a2.18,2.18,0,0,0-.18,1c0,1.12.89,4.09,2.65,8.92l39.19,107.77c-1.18-.06-2.56-.09-4.15-.09l-4.59-.18H213.12l-8.3-25.42H164.93Zm41.31-47.31-13.33-41-13,41Z"/><path class="e6101c73-b8d9-4785-8696-f075dadd83e4" d="M312.41,944.07q-12.53,6.79-22.68,6.8a69.58,69.58,0,0,1-17.39-1.9,36,36,0,0,1-12.27-5.61q-10.23-7.5-10.24-21.71,0-12.71,12.54-21.18,13.59-9.18,36.89-9.18l3.53.09c.71.06,1.5.1,2.39.13a18.06,18.06,0,0,1,2.38.22q-.71-14.12-12.18-16.51a39.34,39.34,0,0,0-8.08-.79,46.48,46.48,0,0,0-8.38.75,63.46,63.46,0,0,0-8,2q-8.56,2.73-12.27,6.26l-.26-.17-2.65-19.51a72.35,72.35,0,0,1,34.16-8.21q28.77,0,36.8,20.74a41.07,41.07,0,0,1,2.56,14.92v31.95q0,10.25,7.24,14l-16,14.65A20.85,20.85,0,0,1,312.41,944.07Zm-4.76-36.45a26.66,26.66,0,0,0-4.95-.44h-3.52q-19.51,0-24.81,8.65a10,10,0,0,0-1.59,5.38,11.61,11.61,0,0,0,1,5,8.19,8.19,0,0,0,3.4,3.57q4.59,2.65,13.63,2.65a34.47,34.47,0,0,0,16.91-4.33c-.06-.64-.09-1.32-.09-2Z"/><path class="e6101c73-b8d9-4785-8696-f075dadd83e4" d="M338,993.57c-.91-.05-2-.08-3.26-.08h-.46V974.35c.59,0,1,.07,1.26.07h.59a12.19,12.19,0,0,0,1.87-.11V982h6.74v-7.6c.79,0,1.57.07,2.32.07a5,5,0,0,0,1.41-.11v19.26c-.46-.05-1.37-.08-2.73-.08h-1v-8.1H338Z"/><path class="e6101c73-b8d9-4785-8696-f075dadd83e4" d="M363.21,992.6a8,8,0,0,1-3.69,1.1,11,11,0,0,1-2.82-.31,5.53,5.53,0,0,1-2-.91,4.2,4.2,0,0,1,.37-7,10.52,10.52,0,0,1,6-1.49h.57l.39,0,.39,0c-.08-1.53-.74-2.42-2-2.68a6.13,6.13,0,0,0-1.31-.13,7.64,7.64,0,0,0-1.36.12,10.73,10.73,0,0,0-1.3.32,5.27,5.27,0,0,0-2,1l-.05,0-.43-3.16a11.79,11.79,0,0,1,5.55-1.34c3.12,0,5.11,1.13,6,3.37a6.61,6.61,0,0,1,.41,2.42v5.19a2.32,2.32,0,0,0,1.18,2.27l-2.59,2.38A3.37,3.37,0,0,1,363.21,992.6Zm-.78-5.92a4.11,4.11,0,0,0-.8-.07h-.57c-2.11,0-3.46.47-4,1.4a1.67,1.67,0,0,0-.26.88,1.92,1.92,0,0,0,.17.81,1.38,1.38,0,0,0,.55.58,4.57,4.57,0,0,0,2.21.43,5.61,5.61,0,0,0,2.75-.71,3.25,3.25,0,0,1,0-.33Z"/><path class="e6101c73-b8d9-4785-8696-f075dadd83e4" d="M374.29,989.35c0,2.15,0,3.53.11,4.14h-3.74v-15h3.63v1.29a6.39,6.39,0,0,1,4-1.58,3.7,3.7,0,0,1,3.54,2.11,7.41,7.41,0,0,1,1.84-1.49,5.39,5.39,0,0,1,2.44-.62,4.72,4.72,0,0,1,2.09.42,3.86,3.86,0,0,1,1.42,1.17,7,7,0,0,1,1.13,4.22v5.7c0,1.62,0,2.59.07,2.91a1.26,1.26,0,0,0,.2.63,3.08,3.08,0,0,1,.2.26l0,.06c-.76-.07-1.32-.1-1.69-.1h-1.07c-.36,0-.79,0-1.31,0v-7.75c0-2.24-.34-3.57-1-4a1.62,1.62,0,0,0-.81-.2,2.91,2.91,0,0,0-.82.11,2.1,2.1,0,0,0-.68.35,5.28,5.28,0,0,0-1.2,1.52,1.77,1.77,0,0,1,0,.23v3.78q0,3.67.18,5.91h-2.07c-.57,0-1.12,0-1.63,0v-7.77a10.07,10.07,0,0,0-.28-3,2,2,0,0,0-.6-.91,1.27,1.27,0,0,0-.77-.22,3.74,3.74,0,0,0-3.15,1.82Z"/><path class="e6101c73-b8d9-4785-8696-f075dadd83e4" d="M398.8,989.35c0,2.15,0,3.53.11,4.14h-3.74v-15h3.63v1.29a6.4,6.4,0,0,1,4-1.58,3.72,3.72,0,0,1,3.54,2.11,7.23,7.23,0,0,1,1.83-1.49,5.39,5.39,0,0,1,2.44-.62,4.72,4.72,0,0,1,2.09.42,3.86,3.86,0,0,1,1.42,1.17,7,7,0,0,1,1.13,4.22v5.7c0,1.62,0,2.59.07,2.91a1.26,1.26,0,0,0,.2.63,3.08,3.08,0,0,1,.2.26l0,.06c-.77-.07-1.33-.1-1.7-.1H413c-.35,0-.79,0-1.31,0v-7.75c0-2.24-.34-3.57-1-4a1.62,1.62,0,0,0-.81-.2,2.91,2.91,0,0,0-.82.11,2.1,2.1,0,0,0-.68.35,5.28,5.28,0,0,0-1.2,1.52,1.79,1.79,0,0,1,0,.23v3.78c0,2.45.05,4.42.17,5.91h-2.07c-.57,0-1.11,0-1.63,0v-7.77a10.07,10.07,0,0,0-.28-3,2,2,0,0,0-.6-.91,1.27,1.27,0,0,0-.77-.22,3.74,3.74,0,0,0-3.15,1.82Z"/><path class="e6101c73-b8d9-4785-8696-f075dadd83e4" d="M418.72,986.12a8.35,8.35,0,0,1,.57-3.11,7.57,7.57,0,0,1,7.47-4.79,6.33,6.33,0,0,1,4.9,2,6.89,6.89,0,0,1,1.82,4.91,4.45,4.45,0,0,1-.17,1.54,26.43,26.43,0,0,1-5.83.4h-5.05a3.77,3.77,0,0,0,1.74,2.39,6.58,6.58,0,0,0,3.54.85,8.71,8.71,0,0,0,3.91-.81,4,4,0,0,0,.65-.4c0,.4,0,.81-.08,1.23l-.15,2.23a8.09,8.09,0,0,1-3.53,1,13.35,13.35,0,0,1-1.37.08,8.67,8.67,0,0,1-6-2.12A7,7,0,0,1,418.72,986.12Zm10.95-1.81q-.59-3.07-3.35-3.08a3.64,3.64,0,0,0-3.31,1.88,4.73,4.73,0,0,0-.53,1.26l.84,0h4.33l1.18,0Z"/><path class="e6101c73-b8d9-4785-8696-f075dadd83e4" d="M440,991.88c0,.82,0,1.36,0,1.61h-3.56v-15H440v1.1a3.46,3.46,0,0,1,2.56-1.39,5.52,5.52,0,0,1,2.11.33l-.26,3.86-.05,0a2.2,2.2,0,0,0-2.08-.89A2.28,2.28,0,0,0,441,982a3.5,3.5,0,0,0-1,1.08Z"/><path class="e6101c73-b8d9-4785-8696-f075dadd83e4" d="M451.44,993.7a10.44,10.44,0,0,1-6.09-1.47c0-.29,0-.62.09-1l.13-1c.07-.68.12-1.1.14-1.27a1.48,1.48,0,0,1,0-.27s.09.06.23.23a3.64,3.64,0,0,0,.82.61,7.46,7.46,0,0,0,1.39.63,10.9,10.9,0,0,0,3.56.59c1.65,0,2.48-.55,2.48-1.65a.84.84,0,0,0-.48-.79,8,8,0,0,0-2.48-.65,11,11,0,0,1-2.69-.66,5.63,5.63,0,0,1-1.71-1,3.85,3.85,0,0,1-1.22-3,4.15,4.15,0,0,1,1.72-3.52,7.81,7.81,0,0,1,4.72-1.26,7.92,7.92,0,0,1,5.09,1.69c-.07.25-.14.49-.22.72-.22.63-.38,1.09-.48,1.36l-.33.85c0,.07,0,.11,0,.11a1.43,1.43,0,0,1-.23-.3,4.56,4.56,0,0,0-2.81-1.37,6,6,0,0,0-1.2-.12c-1.74,0-2.61.53-2.61,1.58a.9.9,0,0,0,.55.83,8.57,8.57,0,0,0,2.78.8,9.77,9.77,0,0,1,2.69.7,4.67,4.67,0,0,1,1.48,1,4.19,4.19,0,0,1,1,3,4,4,0,0,1-1.62,3.28A7.44,7.44,0,0,1,451.44,993.7Z"/><path class="e6101c73-b8d9-4785-8696-f075dadd83e4" d="M465,989.35c0,2.15,0,3.53.11,4.14h-3.74v-15H465v1.29a6.37,6.37,0,0,1,4-1.58,3.7,3.7,0,0,1,3.54,2.11,7.41,7.41,0,0,1,1.84-1.49,5.39,5.39,0,0,1,2.44-.62,4.75,4.75,0,0,1,2.09.42,3.94,3.94,0,0,1,1.42,1.17,7,7,0,0,1,1.13,4.22v5.7c0,1.62,0,2.59.07,2.91a1.4,1.4,0,0,0,.19.63c.09.1.15.18.21.26l0,.06c-.76-.07-1.32-.1-1.69-.1h-1.07c-.36,0-.79,0-1.31,0v-7.75c0-2.24-.34-3.57-1-4a1.62,1.62,0,0,0-.81-.2,2.91,2.91,0,0,0-.82.11,2.1,2.1,0,0,0-.68.35,5.28,5.28,0,0,0-1.2,1.52,1.77,1.77,0,0,1,0,.23v3.78q0,3.67.18,5.91H471.4c-.56,0-1.11,0-1.62,0v-7.77a10.42,10.42,0,0,0-.28-3,2,2,0,0,0-.6-.91,1.29,1.29,0,0,0-.77-.22,3.74,3.74,0,0,0-3.15,1.82Z"/><path class="e6101c73-b8d9-4785-8696-f075dadd83e4" d="M485.16,974.24a22.69,22.69,0,0,1,2.39-3.16l3.08,2.43c-.41.5-.79,1-1.14,1.49l-1.11,1.56Zm3.77,17.64c0,.82,0,1.36.05,1.61h-3.64v-15h3.59Z"/><path class="e6101c73-b8d9-4785-8696-f075dadd83e4" d="M499.62,990.33a2.94,2.94,0,0,0,2.54-1h.11l0,3.33a4.4,4.4,0,0,1-2.6.93,9.43,9.43,0,0,1-1.29.07,5.5,5.5,0,0,1-1.66-.28,3.76,3.76,0,0,1-1.53-.94,5.76,5.76,0,0,1-1.3-4.17v-6.5h-2.16c0-.28,0-.56,0-.85v-2.21a.64.64,0,0,1,0-.24h2.16v-4.09h3.51v4.09h3.94v3.3h-3.94v5.84c0,1.5.42,2.36,1.25,2.57A3.3,3.3,0,0,0,499.62,990.33Z"/><path class="e6101c73-b8d9-4785-8696-f075dadd83e4" d="M509.11,991.88a13.16,13.16,0,0,0,.06,1.61H505.6V973h3.51v6.64a6.21,6.21,0,0,1,3.81-1.41,5,5,0,0,1,3.87,1.59,6,6,0,0,1,1.43,4.22v5.7c0,1.62,0,2.59.08,2.91a1.28,1.28,0,0,0,.19.63l.21.26,0,.06c-.77-.07-1.34-.1-1.69-.1h-1c-.32,0-.73,0-1.25,0v-8.3a4.19,4.19,0,0,0-.87-2.92,2.31,2.31,0,0,0-1.79-.72,3.56,3.56,0,0,0-2.94,1.94Z"/><path class="e6101c73-b8d9-4785-8696-f075dadd83e4" d="M534,991.22a9,9,0,0,1-2.06-3,9.67,9.67,0,0,1-.75-3.84,11.1,11.1,0,0,1,.7-3.95,10.11,10.11,0,0,1,2-3.28A9.76,9.76,0,0,1,537,974.9a9.88,9.88,0,0,1,4.14-.83,9.5,9.5,0,0,1,6.67,2.49,9.31,9.31,0,0,1,2.89,7.2,9.86,9.86,0,0,1-7.35,9.76,11.46,11.46,0,0,1-2.92.33,9.77,9.77,0,0,1-6.48-2.63Zm1.17-7a6.48,6.48,0,0,0,.45,2.45,5.46,5.46,0,0,0,1.23,1.92,5.81,5.81,0,0,0,4.31,1.69,5.25,5.25,0,0,0,4-1.62,6.49,6.49,0,0,0,1.55-4.57,6.92,6.92,0,0,0-1.48-4.54,5.31,5.31,0,0,0-4.35-1.95,5.16,5.16,0,0,0-4.26,2A7.17,7.17,0,0,0,535.15,984.2Z"/><path class="e6101c73-b8d9-4785-8696-f075dadd83e4" d="M557.83,991.65a11.26,11.26,0,0,0,.11,1.84h-3.59v-15h3.48v1.27a6.25,6.25,0,0,1,4-1.56,4.78,4.78,0,0,1,3.76,1.6A6.18,6.18,0,0,1,567,984v5.7c0,1.62,0,2.59.07,2.91a1.26,1.26,0,0,0,.2.63,3.08,3.08,0,0,1,.2.26l0,.06c-.78-.07-1.34-.1-1.7-.1h-1c-.31,0-.72,0-1.23,0v-7.81q0-4.2-2.55-4.2a3.73,3.73,0,0,0-3.17,2Z"/><path class="e6101c73-b8d9-4785-8696-f075dadd83e4" d="M570.5,986.12a8.35,8.35,0,0,1,.57-3.11,7.53,7.53,0,0,1,1.62-2.51,7.83,7.83,0,0,1,5.85-2.28,6.33,6.33,0,0,1,4.9,2,6.89,6.89,0,0,1,1.82,4.91,4.45,4.45,0,0,1-.17,1.54,26.43,26.43,0,0,1-5.83.4h-5a3.77,3.77,0,0,0,1.74,2.39,6.53,6.53,0,0,0,3.54.85,8.71,8.71,0,0,0,3.91-.81,3.45,3.45,0,0,0,.64-.4c0,.4,0,.81-.07,1.23l-.15,2.23a8.13,8.13,0,0,1-3.53,1,13.38,13.38,0,0,1-1.38.08,8.7,8.7,0,0,1-6-2.12A7,7,0,0,1,570.5,986.12Zm11-1.81q-.59-3.07-3.35-3.08a3.63,3.63,0,0,0-3.31,1.88,5.1,5.1,0,0,0-.54,1.26l.85,0h4.33l1.17,0Z"/><path class="e6101c73-b8d9-4785-8696-f075dadd83e4" d="M402,917.61c-1.86-.11-4.06-.17-6.62-.17h-.92V878.7q1.8.15,2.55.15h1.19a24.8,24.8,0,0,0,3.8-.24v15.47h13.64V878.7c1.61.1,3.17.15,4.69.15a9.87,9.87,0,0,0,2.85-.24v39c-.92-.11-2.76-.17-5.51-.17h-2V901H402Z"/><path class="e6101c73-b8d9-4785-8696-f075dadd83e4" d="M431.57,902.52a16.83,16.83,0,0,1,1.16-6.29,15.32,15.32,0,0,1,3.28-5.08,15.83,15.83,0,0,1,11.84-4.62,12.79,12.79,0,0,1,9.92,4.1,14,14,0,0,1,3.69,9.92,9.41,9.41,0,0,1-.35,3.13q-2.89.83-11.81.82H439.09a7.62,7.62,0,0,0,3.51,4.83,13.32,13.32,0,0,0,7.16,1.73,17.61,17.61,0,0,0,7.93-1.66,6.46,6.46,0,0,0,1.3-.81c0,.81-.09,1.64-.14,2.49l-.32,4.53c-1.47,1-3.85,1.7-7.14,2.09a22.67,22.67,0,0,1-2.79.17,17.63,17.63,0,0,1-12.18-4.29A14.16,14.16,0,0,1,431.57,902.52Zm22.17-3.65q-1.19-6.24-6.79-6.24a7.37,7.37,0,0,0-6.7,3.8,9.84,9.84,0,0,0-1.08,2.55l1.71.06H443l2.06,0h1.66c1,0,1.95,0,2.9,0L452,899C452.67,898.94,453.24,898.91,453.74,898.87Z"/><path class="e6101c73-b8d9-4785-8696-f075dadd83e4" d="M487.78,915.64a16,16,0,0,1-7.46,2.23,22.69,22.69,0,0,1-5.72-.62,11.88,11.88,0,0,1-4-1.84,8.33,8.33,0,0,1-3.37-7.14c0-2.79,1.38-5.11,4.12-7q4.47-3,12.13-3l1.17,0,.78,0a5.79,5.79,0,0,1,.78.07c-.15-3.09-1.49-4.9-4-5.42a12.56,12.56,0,0,0-2.66-.27,15.54,15.54,0,0,0-2.75.25,22.45,22.45,0,0,0-2.63.65,10.6,10.6,0,0,0-4,2.06l-.09-.05-.87-6.42a23.76,23.76,0,0,1,11.23-2.7q9.47,0,12.1,6.82a13.59,13.59,0,0,1,.84,4.91v10.5c0,2.25.79,3.77,2.38,4.59l-5.25,4.81A6.8,6.8,0,0,1,487.78,915.64Zm-1.57-12a8.56,8.56,0,0,0-1.62-.15h-1.16q-6.42,0-8.16,2.84a3.33,3.33,0,0,0-.52,1.77,3.84,3.84,0,0,0,.33,1.64,2.7,2.7,0,0,0,1.12,1.18,9.15,9.15,0,0,0,4.48.87,11.3,11.3,0,0,0,5.56-1.42c0-.21,0-.44,0-.67Z"/><path class="e6101c73-b8d9-4785-8696-f075dadd83e4" d="M523.18,915.81a14.92,14.92,0,0,1-7.37,2.06,16.35,16.35,0,0,1-6.44-1.16,13.64,13.64,0,0,1-4.7-3.19,15,15,0,0,1-4-10.85,15.48,15.48,0,0,1,4.64-11.49,16.24,16.24,0,0,1,12-4.65,17,17,0,0,1,4.38.58V874.2h7.11v31a21.78,21.78,0,0,0,.36,5,5.23,5.23,0,0,0,.82,1.74,5.82,5.82,0,0,0,1.14,1l-5.45,4.81A7.16,7.16,0,0,1,523.18,915.81Zm-6-4.61a10.58,10.58,0,0,0,4.47-.93V894.2a11.22,11.22,0,0,0-4.41-.85,11.73,11.73,0,0,0-4.08.64,8.87,8.87,0,0,0-2.91,1.77,8,8,0,0,0-2.56,6.18,9.25,9.25,0,0,0,2.33,6.62Q512.5,911.2,517.17,911.2Z"/><path class="e6101c73-b8d9-4785-8696-f075dadd83e4" d="M543.84,914.19a26.71,26.71,0,0,0,.12,3.25h-7.37V874.2h7.25Z"/><path class="e6101c73-b8d9-4785-8696-f075dadd83e4" d="M551.06,878.47a47.25,47.25,0,0,1,4.85-6.39l6.24,4.91c-.83,1-1.61,2-2.32,3l-2.24,3.16Zm7.64,35.72a30,30,0,0,0,.11,3.25h-7.37V887.11h7.26Z"/><path class="e6101c73-b8d9-4785-8696-f075dadd83e4" d="M574.51,913.73a21.5,21.5,0,0,0,.23,3.71h-7.28V887.11h7v2.59a12.63,12.63,0,0,1,8.18-3.17,9.62,9.62,0,0,1,7.61,3.24,12.47,12.47,0,0,1,2.84,8.52v11.55q0,4.9.14,5.89a2.72,2.72,0,0,0,.4,1.27l.42.53-.06.11c-1.57-.13-2.71-.2-3.42-.2h-2q-.93,0-2.49.09V901.71q0-8.51-5.17-8.5c-2.55,0-4.69,1.31-6.41,3.95Z"/><path class="e6101c73-b8d9-4785-8696-f075dadd83e4" d="M600.16,902.52a16.83,16.83,0,0,1,1.16-6.29,15.48,15.48,0,0,1,3.28-5.08,15.85,15.85,0,0,1,11.84-4.62,12.82,12.82,0,0,1,9.93,4.1,14,14,0,0,1,3.68,9.92,9.14,9.14,0,0,1-.35,3.13q-2.9.83-11.81.82H607.68a7.62,7.62,0,0,0,3.51,4.83,13.35,13.35,0,0,0,7.17,1.73,17.6,17.6,0,0,0,7.92-1.66,6.46,6.46,0,0,0,1.3-.81c0,.81-.08,1.64-.14,2.49l-.32,4.53c-1.47,1-3.85,1.7-7.14,2.09a22.51,22.51,0,0,1-2.78.17A17.64,17.64,0,0,1,605,913.58,14.16,14.16,0,0,1,600.16,902.52Zm22.17-3.65q-1.19-6.24-6.79-6.24a7.37,7.37,0,0,0-6.7,3.8,9.82,9.82,0,0,0-1.07,2.55l1.71.06h2.14l2.07,0h1.65c1,0,1.95,0,2.9,0l2.38-.09C621.26,898.94,621.83,898.91,622.33,898.87Z"/><path class="e6101c73-b8d9-4785-8696-f075dadd83e4" d="M646.56,917.87q-8.17,0-12.33-3c0-.58.1-1.24.17-2l.27-2.09c.15-1.37.25-2.23.28-2.57a3,3,0,0,1,.09-.55s.18.13.47.47a6.91,6.91,0,0,0,1.65,1.23,14.94,14.94,0,0,0,2.81,1.28,22.1,22.1,0,0,0,7.2,1.19q5,0,5-3.34a1.71,1.71,0,0,0-1-1.6,16.4,16.4,0,0,0-5-1.32,22.43,22.43,0,0,1-5.44-1.32,11.47,11.47,0,0,1-3.45-2.09,7.78,7.78,0,0,1-2.47-6,8.36,8.36,0,0,1,3.48-7.11q3.45-2.55,9.55-2.56a16,16,0,0,1,10.3,3.43c-.14.5-.28,1-.44,1.45-.44,1.28-.77,2.2-1,2.76l-.67,1.71c0,.15-.07.23-.09.23a2.45,2.45,0,0,1-.46-.61,9.33,9.33,0,0,0-5.69-2.78,12.24,12.24,0,0,0-2.44-.24q-5.28,0-5.28,3.2a1.83,1.83,0,0,0,1.1,1.68,17.54,17.54,0,0,0,5.65,1.62,19.91,19.91,0,0,1,5.44,1.41,9.54,9.54,0,0,1,3,2.13,8.52,8.52,0,0,1,2.09,6,8.07,8.07,0,0,1-3.28,6.65Q652.69,917.88,646.56,917.87Z"/><path class="e6101c73-b8d9-4785-8696-f075dadd83e4" d="M705.85,915.64a16,16,0,0,1-7.46,2.23,22.64,22.64,0,0,1-5.72-.62,11.88,11.88,0,0,1-4-1.84,8.31,8.31,0,0,1-3.37-7.14c0-2.79,1.38-5.11,4.12-7q4.47-3,12.13-3l1.16,0,.79,0a5.79,5.79,0,0,1,.78.07c-.15-3.09-1.49-4.9-4-5.42a12.62,12.62,0,0,0-2.66-.27,15.74,15.74,0,0,0-2.76.25,22.28,22.28,0,0,0-2.62.65,10.73,10.73,0,0,0-4,2.06l-.08-.05-.87-6.42a23.73,23.73,0,0,1,11.23-2.7q9.45,0,12.1,6.82a13.59,13.59,0,0,1,.84,4.91v10.5c0,2.25.79,3.77,2.38,4.59l-5.25,4.81A6.73,6.73,0,0,1,705.85,915.64Zm-1.57-12a8.67,8.67,0,0,0-1.63-.15h-1.16q-6.4,0-8.15,2.84a3.33,3.33,0,0,0-.52,1.77,3.84,3.84,0,0,0,.33,1.64,2.7,2.7,0,0,0,1.12,1.18,9.15,9.15,0,0,0,4.48.87,11.33,11.33,0,0,0,5.56-1.42c0-.21,0-.44,0-.67Z"/><path class="e6101c73-b8d9-4785-8696-f075dadd83e4" d="M728.07,913.73a20.3,20.3,0,0,0,.24,3.71H721V887.11h7.05v2.59a12.67,12.67,0,0,1,8.19-3.17,9.61,9.61,0,0,1,7.6,3.24,12.42,12.42,0,0,1,2.84,8.52v11.55q0,4.9.15,5.89a2.87,2.87,0,0,0,.39,1.27l.42.53-.06.11c-1.57-.13-2.71-.2-3.42-.2h-2c-.62,0-1.45,0-2.5.09V901.71q0-8.51-5.16-8.5c-2.56,0-4.7,1.31-6.42,3.95Z"/><path class="e6101c73-b8d9-4785-8696-f075dadd83e4" d="M776,915.81a14.89,14.89,0,0,1-7.37,2.06,16.38,16.38,0,0,1-6.44-1.16,13.64,13.64,0,0,1-4.7-3.19,15,15,0,0,1-4-10.85,15.45,15.45,0,0,1,4.65-11.49,16.22,16.22,0,0,1,11.95-4.65,17,17,0,0,1,4.38.58V874.2h7.11v31a21,21,0,0,0,.37,5,5.24,5.24,0,0,0,.81,1.74,5.82,5.82,0,0,0,1.14,1l-5.45,4.81A7.16,7.16,0,0,1,776,915.81Zm-6-4.61a10.58,10.58,0,0,0,4.47-.93V894.2a11.22,11.22,0,0,0-4.41-.85A11.71,11.71,0,0,0,766,894a8.82,8.82,0,0,0-2.92,1.77,8.08,8.08,0,0,0-2.55,6.18,9.25,9.25,0,0,0,2.32,6.62Q765.3,911.2,770,911.2Z"/><path class="e6101c73-b8d9-4785-8696-f075dadd83e4" d="M823.08,911.06q3.74,0,5.13-1.95h.24l.08,6.73c-.94.95-2.71,1.58-5.28,1.89a18.88,18.88,0,0,1-2.6.14,11,11,0,0,1-3.36-.58,7.31,7.31,0,0,1-3.09-1.88q-2.64-2.7-2.64-8.45V893.79h-4.38q0-.84,0-1.71v-4.47a1.61,1.61,0,0,1,0-.5h4.38v-8.26h7.11v8.26h8v6.68h-8v11.84q0,4.56,2.52,5.19A6.68,6.68,0,0,0,823.08,911.06Z"/><path class="e6101c73-b8d9-4785-8696-f075dadd83e4" d="M833.5,878.47a46.41,46.41,0,0,1,4.84-6.39l6.24,4.91c-.83,1-1.61,2-2.32,3L840,883.17Zm7.63,35.72a30,30,0,0,0,.11,3.25h-7.37V887.11h7.26Z"/><path class="e6101c73-b8d9-4785-8696-f075dadd83e4" d="M862.78,911.06q3.74,0,5.13-1.95h.23l.09,6.73q-1.43,1.42-5.28,1.89a19,19,0,0,1-2.6.14,11.05,11.05,0,0,1-3.37-.58,7.44,7.44,0,0,1-3.09-1.88q-2.64-2.7-2.64-8.45V893.79h-4.38q0-.84,0-1.71v-4.47a1.61,1.61,0,0,1,0-.5h4.38v-8.26h7.11v8.26h8v6.68h-8v11.84q0,4.56,2.53,5.19A6.68,6.68,0,0,0,862.78,911.06Z"/><path class="e6101c73-b8d9-4785-8696-f075dadd83e4" d="M880.85,914.19a26.71,26.71,0,0,0,.12,3.25H873.6V874.2h7.25Z"/><path class="e6101c73-b8d9-4785-8696-f075dadd83e4" d="M887.55,902.52a16.64,16.64,0,0,1,1.17-6.29,15.16,15.16,0,0,1,3.28-5.08,15.81,15.81,0,0,1,11.83-4.62,12.82,12.82,0,0,1,9.93,4.1,14,14,0,0,1,3.68,9.92,9.48,9.48,0,0,1-.34,3.13q-2.91.83-11.82.82H895.07a7.62,7.62,0,0,0,3.51,4.83,13.35,13.35,0,0,0,7.17,1.73,17.54,17.54,0,0,0,7.92-1.66,6.58,6.58,0,0,0,1.31-.81q-.06,1.21-.15,2.49l-.32,4.53c-1.47,1-3.85,1.7-7.14,2.09a22.4,22.4,0,0,1-2.78.17,17.65,17.65,0,0,1-12.19-4.29A14.16,14.16,0,0,1,887.55,902.52Zm22.17-3.65q-1.19-6.24-6.78-6.24a7.38,7.38,0,0,0-6.71,3.8,10.17,10.17,0,0,0-1.07,2.55l1.71.06H899l2.06,0h1.65c1,0,2,0,2.9,0L908,899C908.65,898.94,909.22,898.91,909.72,898.87Z"/><path class="e6101c73-b8d9-4785-8696-f075dadd83e4" d="M934,917.87q-8.18,0-12.33-3,.06-.87.18-2l.26-2.09c.15-1.37.25-2.23.29-2.57a3,3,0,0,1,.09-.55s.17.13.46.47a6.91,6.91,0,0,0,1.65,1.23,15,15,0,0,0,2.82,1.28,22,22,0,0,0,7.19,1.19q5,0,5-3.34a1.7,1.7,0,0,0-1-1.6,16.48,16.48,0,0,0-5-1.32,22.55,22.55,0,0,1-5.44-1.32,11.47,11.47,0,0,1-3.45-2.09,7.78,7.78,0,0,1-2.47-6,8.36,8.36,0,0,1,3.48-7.11q3.46-2.55,9.55-2.56a16,16,0,0,1,10.3,3.43c-.13.5-.28,1-.43,1.45q-.68,1.92-1,2.76l-.67,1.71a.74.74,0,0,1-.08.23,2.33,2.33,0,0,1-.47-.61,9.3,9.3,0,0,0-5.69-2.78,12.21,12.21,0,0,0-2.43-.24q-5.28,0-5.28,3.2a1.82,1.82,0,0,0,1.1,1.68,17.39,17.39,0,0,0,5.64,1.62,19.91,19.91,0,0,1,5.44,1.41,9.43,9.43,0,0,1,3,2.13,8.52,8.52,0,0,1,2.09,6,8,8,0,0,1-3.28,6.65Q940.08,917.88,934,917.87Z"/><path class="a80f7389-572c-4c4d-8fef-2ac4be80651b" d="M1366.09,920.66h-50.88l-11.43,31.77h-16.51L1333.64,831h14l46.46,121.43h-16.43Zm-46-13.1h41.28l-20.68-56.79Z"/><path class="a80f7389-572c-4c4d-8fef-2ac4be80651b" d="M1463.75,952.43c-.89-1.78-1.62-4.95-2.17-9.51q-10.75,11.18-25.69,11.18-13.35,0-21.89-7.55a24.41,24.41,0,0,1-8.55-19.14q0-14.1,10.72-21.89t30.15-7.8h15v-7.09q0-8.08-4.84-12.88t-14.26-4.8a22.53,22.53,0,0,0-13.85,4.17q-5.58,4.17-5.58,10.09h-15.51a21.27,21.27,0,0,1,4.79-13.05,32.75,32.75,0,0,1,13-10,43.9,43.9,0,0,1,18.06-3.67q15.58,0,24.43,7.8t9.18,21.48v41.53q0,12.43,3.17,19.77v1.33Zm-25.61-11.76a27.1,27.1,0,0,0,13.76-3.75,22.73,22.73,0,0,0,9.43-9.76V908.65h-12.09q-28.37,0-28.36,16.59,0,7.26,4.83,11.34T1438.14,940.67Z"/><path class="a80f7389-572c-4c4d-8fef-2ac4be80651b" d="M1612.66,981.61h-5.36v9.22h-3V968h7.55a8.92,8.92,0,0,1,5.92,1.75,6.32,6.32,0,0,1,2.07,5.11,6.13,6.13,0,0,1-1.15,3.71,6.82,6.82,0,0,1-3.2,2.36l5.36,9.67v.19h-3.23Zm-5.36-2.46h4.62a5.17,5.17,0,0,0,3.56-1.16,3.92,3.92,0,0,0,1.32-3.1,4.15,4.15,0,0,0-1.26-3.25,5.34,5.34,0,0,0-3.64-1.14h-4.6Z"/><path class="a80f7389-572c-4c4d-8fef-2ac4be80651b" d="M1622.81,982.21a10,10,0,0,1,1-4.48,7.23,7.23,0,0,1,2.73-3.07,7.4,7.4,0,0,1,4-1.08,7.15,7.15,0,0,1,5.6,2.4,9.22,9.22,0,0,1,2.13,6.37v.2a10.12,10.12,0,0,1-.94,4.44,7.27,7.27,0,0,1-2.71,3.06,7.51,7.51,0,0,1-4,1.09,7.13,7.13,0,0,1-5.58-2.39,9.2,9.2,0,0,1-2.14-6.34Zm2.92.34a7.22,7.22,0,0,0,1.3,4.52,4.43,4.43,0,0,0,7,0,8,8,0,0,0,1.3-4.84,7.19,7.19,0,0,0-1.33-4.52,4.2,4.2,0,0,0-3.51-1.73,4.16,4.16,0,0,0-3.46,1.71A7.81,7.81,0,0,0,1625.73,982.55Z"/><path class="a80f7389-572c-4c4d-8fef-2ac4be80651b" d="M1656.2,982.55a10.07,10.07,0,0,1-1.78,6.24,5.7,5.7,0,0,1-4.79,2.35,5.87,5.87,0,0,1-5-2.27l-.14,2h-2.67v-24h2.9v9a5.88,5.88,0,0,1,4.84-2.18,5.74,5.74,0,0,1,4.84,2.33,10.36,10.36,0,0,1,1.76,6.39Zm-2.89-.33a7.78,7.78,0,0,0-1.15-4.57,3.78,3.78,0,0,0-3.28-1.61,4.27,4.27,0,0,0-4.12,2.66V986a4.38,4.38,0,0,0,4.15,2.66,3.75,3.75,0,0,0,3.24-1.62A8.32,8.32,0,0,0,1653.31,982.22Z"/><path class="a80f7389-572c-4c4d-8fef-2ac4be80651b" d="M1659.08,982.21a10,10,0,0,1,1-4.48,7.28,7.28,0,0,1,2.72-3.07,7.46,7.46,0,0,1,4-1.08,7.15,7.15,0,0,1,5.6,2.4,9.22,9.22,0,0,1,2.13,6.37v.2a10,10,0,0,1-1,4.44,7.19,7.19,0,0,1-2.7,3.06,7.54,7.54,0,0,1-4,1.09,7.1,7.1,0,0,1-5.58-2.39,9.2,9.2,0,0,1-2.14-6.34Zm2.91.34a7.23,7.23,0,0,0,1.31,4.52,4.43,4.43,0,0,0,7,0,8,8,0,0,0,1.3-4.84,7.25,7.25,0,0,0-1.33-4.52,4.2,4.2,0,0,0-3.51-1.73,4.16,4.16,0,0,0-3.46,1.71A7.81,7.81,0,0,0,1662,982.55Z"/><path class="a80f7389-572c-4c4d-8fef-2ac4be80651b" d="M1682.06,969.79v4.1h3.16v2.24h-3.16v10.52a2.37,2.37,0,0,0,.42,1.53,1.8,1.8,0,0,0,1.44.51,7.38,7.38,0,0,0,1.38-.19v2.33a8.31,8.31,0,0,1-2.22.31,3.63,3.63,0,0,1-2.93-1.17,5,5,0,0,1-1-3.33V976.13h-3.09v-2.24h3.09v-4.1Z"/><path class="a80f7389-572c-4c4d-8fef-2ac4be80651b" d="M1687.53,982.21a10,10,0,0,1,1-4.48,7.3,7.3,0,0,1,2.73-3.07,7.4,7.4,0,0,1,4-1.08,7.15,7.15,0,0,1,5.6,2.4,9.22,9.22,0,0,1,2.13,6.37v.2A10.12,10.12,0,0,1,1702,987a7.21,7.21,0,0,1-2.71,3.06,7.51,7.51,0,0,1-4,1.09,7.13,7.13,0,0,1-5.58-2.39,9.19,9.19,0,0,1-2.13-6.34Zm2.91.34a7.22,7.22,0,0,0,1.3,4.52,4.43,4.43,0,0,0,7,0,8,8,0,0,0,1.3-4.84,7.24,7.24,0,0,0-1.32-4.52,4.24,4.24,0,0,0-3.52-1.73,4.16,4.16,0,0,0-3.46,1.71A7.88,7.88,0,0,0,1690.44,982.55Z"/><path class="a80f7389-572c-4c4d-8fef-2ac4be80651b" d="M1579.22,880.27h-13.58V918h-5.54V880.27h-13.55v-4.56h32.67Z"/><path class="a80f7389-572c-4c4d-8fef-2ac4be80651b" d="M1594.81,918.54a13.73,13.73,0,0,1-10.39-4.19c-2.67-2.8-4-6.53-4-11.22v-1a18.79,18.79,0,0,1,1.79-8.34,13.88,13.88,0,0,1,5-5.75,12.58,12.58,0,0,1,7-2.08q6.12,0,9.52,4t3.39,11.55v2.23h-21.27a11.16,11.16,0,0,0,2.71,7.5,8.54,8.54,0,0,0,6.61,2.86,9.36,9.36,0,0,0,4.81-1.16,12,12,0,0,0,3.46-3.08l3.27,2.56Q1602.7,918.54,1594.81,918.54Zm-.67-28.15a7.16,7.16,0,0,0-5.46,2.37,11.53,11.53,0,0,0-2.73,6.63h15.73V899a10.25,10.25,0,0,0-2.2-6.34A6.75,6.75,0,0,0,1594.14,890.39Z"/><path class="a80f7389-572c-4c4d-8fef-2ac4be80651b" d="M1623.79,898l7-11.47H1637l-10.28,15.53,10.6,15.87h-6.21l-7.26-11.75L1616.63,918h-6.24L1621,902.09l-10.27-15.53h6.21Z"/><path class="a80f7389-572c-4c4d-8fef-2ac4be80651b" d="M1650,879v7.6h5.86v4.15H1650v19.5a4.36,4.36,0,0,0,.78,2.83,3.29,3.29,0,0,0,2.67,1,13.12,13.12,0,0,0,2.55-.35V918a15.78,15.78,0,0,1-4.12.57,6.67,6.67,0,0,1-5.42-2.17,9.36,9.36,0,0,1-1.83-6.18V890.71h-5.72v-4.15h5.72V879Z"/><path class="a80f7389-572c-4c4d-8fef-2ac4be80651b" d="M1696.22,918a11.18,11.18,0,0,1-.75-3.31,12,12,0,0,1-8.94,3.89,11.11,11.11,0,0,1-7.62-2.62,8.5,8.5,0,0,1-3-6.66,8.87,8.87,0,0,1,3.73-7.62q3.72-2.71,10.49-2.71h5.22v-2.47a6,6,0,0,0-1.68-4.48,6.73,6.73,0,0,0-5-1.67,7.8,7.8,0,0,0-4.82,1.45,4.28,4.28,0,0,0-2,3.51h-5.39a7.35,7.35,0,0,1,1.67-4.54,11.39,11.39,0,0,1,4.52-3.47,15.28,15.28,0,0,1,6.29-1.28c3.61,0,6.45.91,8.5,2.72a9.8,9.8,0,0,1,3.19,7.47v14.45a17.78,17.78,0,0,0,1.1,6.88V918Zm-8.91-4.09a9.34,9.34,0,0,0,4.79-1.31,7.91,7.91,0,0,0,3.28-3.39v-6.44h-4.21q-9.86,0-9.86,5.77a4.89,4.89,0,0,0,1.68,4A6.44,6.44,0,0,0,1687.31,913.87Z"/><path class="a80f7389-572c-4c4d-8fef-2ac4be80651b" d="M1714.24,886.56l.18,4a11.44,11.44,0,0,1,9.4-4.53q9.95,0,10,11.23V918h-5.37V897.19a7.24,7.24,0,0,0-1.55-5,6.21,6.21,0,0,0-4.75-1.63,7.71,7.71,0,0,0-4.58,1.39,9.49,9.49,0,0,0-3.08,3.66V918h-5.37v-31.4Z"/><path class="a80f7389-572c-4c4d-8fef-2ac4be80651b" d="M1740.65,902q0-7.21,3.42-11.62a11.64,11.64,0,0,1,17.7-.62V873.39h5.37V918h-4.93l-.26-3.36a10.94,10.94,0,0,1-9,3.94,10.71,10.71,0,0,1-8.89-4.47q-3.43-4.46-3.44-11.66Zm5.37.61q0,5.34,2.2,8.36a7.14,7.14,0,0,0,6.1,3,7.82,7.82,0,0,0,7.45-4.59V895a7.88,7.88,0,0,0-7.4-4.44,7.17,7.17,0,0,0-6.15,3.05Q1746,896.64,1746,902.61Z"/><path class="a80f7389-572c-4c4d-8fef-2ac4be80651b" d="M1816.7,902.61q0,7.17-3.27,11.55a10.52,10.52,0,0,1-8.88,4.38,11.55,11.55,0,0,1-9-3.62V930h-5.37V886.56h4.91l.26,3.49a11,11,0,0,1,9.11-4.07,10.71,10.71,0,0,1,9,4.27q3.3,4.26,3.29,11.87Zm-5.36-.61q0-5.31-2.27-8.38a7.3,7.3,0,0,0-6.21-3.08,7.89,7.89,0,0,0-7.31,4.32v15a7.91,7.91,0,0,0,7.37,4.29,7.27,7.27,0,0,0,6.14-3.06Q1811.34,908,1811.34,902Z"/><path class="a80f7389-572c-4c4d-8fef-2ac4be80651b" d="M1842.91,918a11.43,11.43,0,0,1-.76-3.31,11.93,11.93,0,0,1-8.93,3.89,11.08,11.08,0,0,1-7.62-2.62,8.51,8.51,0,0,1-3-6.66,8.9,8.9,0,0,1,3.73-7.62q3.74-2.71,10.49-2.71h5.23v-2.47a6,6,0,0,0-1.69-4.48,6.72,6.72,0,0,0-5-1.67,7.84,7.84,0,0,0-4.82,1.45,4.29,4.29,0,0,0-1.94,3.51h-5.4a7.41,7.41,0,0,1,1.67-4.54,11.35,11.35,0,0,1,4.53-3.47,15.23,15.23,0,0,1,6.28-1.28q5.43,0,8.5,2.72a9.81,9.81,0,0,1,3.2,7.47v14.45a17.6,17.6,0,0,0,1.1,6.88V918Zm-8.91-4.09a9.36,9.36,0,0,0,4.79-1.31,7.91,7.91,0,0,0,3.28-3.39v-6.44h-4.21q-9.87,0-9.87,5.77a4.87,4.87,0,0,0,1.69,4A6.44,6.44,0,0,0,1834,913.87Z"/><path class="a80f7389-572c-4c4d-8fef-2ac4be80651b" d="M1871,891.38a16.86,16.86,0,0,0-2.64-.2q-5.28,0-7.17,4.5V918h-5.37v-31.4h5.22l.09,3.63a8.38,8.38,0,0,1,7.49-4.21,5.5,5.5,0,0,1,2.38.41Z"/><path class="a80f7389-572c-4c4d-8fef-2ac4be80651b" d="M1894.18,918a11.18,11.18,0,0,1-.75-3.31,12,12,0,0,1-8.94,3.89,11.11,11.11,0,0,1-7.62-2.62,8.5,8.5,0,0,1-3-6.66,8.87,8.87,0,0,1,3.73-7.62q3.72-2.71,10.49-2.71h5.22v-2.47a6,6,0,0,0-1.68-4.48,6.73,6.73,0,0,0-5-1.67,7.82,7.82,0,0,0-4.82,1.45,4.27,4.27,0,0,0-1.94,3.51h-5.4a7.35,7.35,0,0,1,1.67-4.54,11.39,11.39,0,0,1,4.52-3.47A15.28,15.28,0,0,1,1887,886c3.61,0,6.45.91,8.5,2.72a9.8,9.8,0,0,1,3.19,7.47v14.45a17.78,17.78,0,0,0,1.1,6.88V918Zm-8.9-4.09a9.33,9.33,0,0,0,4.78-1.31,7.91,7.91,0,0,0,3.28-3.39v-6.44h-4.21q-9.86,0-9.86,5.77a4.89,4.89,0,0,0,1.68,4A6.45,6.45,0,0,0,1885.28,913.87Z"/><path class="a80f7389-572c-4c4d-8fef-2ac4be80651b" d="M1905.85,902q0-7.34,3.39-11.68a11.7,11.7,0,0,1,18-.27l.26-3.49h4.9v30.65q0,6.09-3.61,9.6t-9.71,3.51a16.07,16.07,0,0,1-6.64-1.45,11.37,11.37,0,0,1-5-4l2.78-3.22a10.5,10.5,0,0,0,8.44,4.26,8.21,8.21,0,0,0,6.11-2.2,8.43,8.43,0,0,0,2.19-6.21v-2.7a11,11,0,0,1-8.79,3.71,10.72,10.72,0,0,1-8.92-4.44Q1905.86,909.66,1905.85,902Zm5.4.61q0,5.31,2.17,8.34a7.07,7.07,0,0,0,6.1,3,7.85,7.85,0,0,0,7.45-4.62V895a8,8,0,0,0-7.4-4.5,7.14,7.14,0,0,0-6.12,3.05Q1911.25,896.64,1911.25,902.61Z"/><path class="a80f7389-572c-4c4d-8fef-2ac4be80651b" d="M1955.64,891.38a16.67,16.67,0,0,0-2.64-.2q-5.28,0-7.16,4.5V918h-5.37v-31.4h5.22l.09,3.63a8.36,8.36,0,0,1,7.48-4.21,5.47,5.47,0,0,1,2.38.41Z"/><path class="a80f7389-572c-4c4d-8fef-2ac4be80651b" d="M1978.8,918a11.18,11.18,0,0,1-.75-3.31,12,12,0,0,1-8.94,3.89,11.08,11.08,0,0,1-7.62-2.62,8.5,8.5,0,0,1-3-6.66,8.89,8.89,0,0,1,3.72-7.62q3.73-2.71,10.5-2.71H1978v-2.47a6,6,0,0,0-1.68-4.48,6.76,6.76,0,0,0-5-1.67,7.79,7.79,0,0,0-4.81,1.45,4.28,4.28,0,0,0-2,3.51h-5.39a7.4,7.4,0,0,1,1.66-4.54,11.42,11.42,0,0,1,4.53-3.47,15.26,15.26,0,0,1,6.28-1.28q5.43,0,8.5,2.72a9.77,9.77,0,0,1,3.2,7.47v14.45a17.6,17.6,0,0,0,1.1,6.88V918Zm-8.91-4.09a9.36,9.36,0,0,0,4.79-1.31,7.91,7.91,0,0,0,3.28-3.39v-6.44h-4.21q-9.87,0-9.87,5.77a4.9,4.9,0,0,0,1.69,4A6.44,6.44,0,0,0,1969.89,913.87Z"/><path class="a80f7389-572c-4c4d-8fef-2ac4be80651b" d="M2018.26,902.61q0,7.17-3.27,11.55a10.52,10.52,0,0,1-8.88,4.38,11.54,11.54,0,0,1-9-3.62V930h-5.37V886.56h4.91l.26,3.49A11,11,0,0,1,2006,886a10.71,10.71,0,0,1,9,4.27q3.3,4.26,3.29,11.87Zm-5.36-.61q0-5.31-2.27-8.38a7.3,7.3,0,0,0-6.21-3.08,7.89,7.89,0,0,0-7.31,4.32v15a7.91,7.91,0,0,0,7.37,4.29,7.27,7.27,0,0,0,6.14-3.06Q2012.9,908,2012.9,902Z"/><path class="a80f7389-572c-4c4d-8fef-2ac4be80651b" d="M2030.45,890.37a11.43,11.43,0,0,1,9.29-4.39q9.94,0,10,11.23V918h-5.37V897.19a7.24,7.24,0,0,0-1.55-5,6.21,6.21,0,0,0-4.75-1.63,7.71,7.71,0,0,0-4.58,1.39,9.49,9.49,0,0,0-3.08,3.66V918h-5.37V873.39h5.37Z"/><rect class="e6101c73-b8d9-4785-8696-f075dadd83e4" x="676.93" y="486.33" width="128" height="128" rx="64"/><rect class="e95903fa-79ae-49b1-b530-43dc7ce9ec5b" x="840.49" y="489" width="128" height="128" rx="64"/><rect class="a80f7389-572c-4c4d-8fef-2ac4be80651b" x="1002.26" y="487.67" width="128" height="128" rx="64"/><rect class="bf754376-9697-4cd9-9adf-3dc0131567dc" x="1169.76" y="489" width="128" height="128" rx="64"/><rect class="ee8dbd34-9a5e-4a94-b728-fc869ecc91c8" x="1341.99" y="486.33" width="128" height="128" rx="64"/><path d="M676.9,648.34c-.33,0-1-.06-1.9-.06h-.82V634.6c.44,0,.92,0,1.45,0a5.56,5.56,0,0,0,1.11-.08l3.45,5.85,3.31-5.85a6.63,6.63,0,0,0,1.25.08c.62,0,1.14,0,1.58,0v13.68h-.82c-.94,0-1.57,0-1.9.06v-9.19l-3.35,6-3.36-5.52Z"/><path d="M696.73,647.64a5.59,5.59,0,0,1-2.64.79,8,8,0,0,1-2-.22,4.13,4.13,0,0,1-1.42-.65,2.91,2.91,0,0,1-1.19-2.52,2.88,2.88,0,0,1,1.45-2.46,7.61,7.61,0,0,1,4.29-1.07h.41l.28,0,.27,0a1.78,1.78,0,0,0-1.41-1.92,4.69,4.69,0,0,0-.94-.09,5.15,5.15,0,0,0-1,.09,7,7,0,0,0-.93.23,3.84,3.84,0,0,0-1.43.73l0,0-.3-2.27a8.42,8.42,0,0,1,4-.95q3.35,0,4.28,2.41a4.72,4.72,0,0,1,.3,1.73v3.71a1.64,1.64,0,0,0,.84,1.62l-1.86,1.7A2.36,2.36,0,0,1,696.73,647.64Zm-.56-4.23a2.63,2.63,0,0,0-.57,0h-.41c-1.51,0-2.47.33-2.88,1a1.22,1.22,0,0,0-.19.63,1.34,1.34,0,0,0,.12.58,1,1,0,0,0,.4.41,3.15,3.15,0,0,0,1.58.31,4,4,0,0,0,2-.5c0-.08,0-.16,0-.24Z"/><path d="M700.21,649.87c1,0,1.52-.75,1.52-2.26V637.56h2.49v9.31c0,2.88-.81,4.57-2.45,5.1a6,6,0,0,1-1.81.26l-1.07-2.7,0,0A2.31,2.31,0,0,0,700.21,649.87Zm1.14-15.29a14.8,14.8,0,0,1,1.53-2l2,1.55-.7.9-.36.5c-.11.16-.24.34-.37.54Z"/><path d="M706.37,643a6.07,6.07,0,0,1,.38-2.16,5.24,5.24,0,0,1,5.17-3.46,5.14,5.14,0,0,1,4,1.57,5.43,5.43,0,0,1,1.41,3.88,5.62,5.62,0,0,1-1.45,4,5.84,5.84,0,0,1-8.13,0A5.45,5.45,0,0,1,706.37,643Zm2.49-.06a3.81,3.81,0,0,0,.21,1.25,3,3,0,0,0,.62,1,2.89,2.89,0,0,0,2.23.94,2.45,2.45,0,0,0,2-.92,4,4,0,0,0,0-4.61,2.66,2.66,0,0,0-2.16-.94,2.6,2.6,0,0,0-2.18,1A3.55,3.55,0,0,0,708.86,642.92Z"/><path d="M721.84,647.13a9.28,9.28,0,0,0,0,1.15h-2.55V637.56h2.51v.79a2.46,2.46,0,0,1,1.83-1,4.09,4.09,0,0,1,1.51.23l-.18,2.76,0,0a1.57,1.57,0,0,0-1.49-.63,1.64,1.64,0,0,0-.88.29,2.51,2.51,0,0,0-.75.77Z"/><path d="M725.92,643a6.05,6.05,0,0,1,.41-2.23,5.37,5.37,0,0,1,1.16-1.79,5.57,5.57,0,0,1,4.18-1.63,4.53,4.53,0,0,1,3.51,1.44,4.93,4.93,0,0,1,1.3,3.51,3.43,3.43,0,0,1-.12,1.11,19.17,19.17,0,0,1-4.18.29h-3.6a2.64,2.64,0,0,0,1.24,1.7,4.67,4.67,0,0,0,2.53.61,6.19,6.19,0,0,0,2.8-.58,2.17,2.17,0,0,0,.46-.29c0,.29,0,.58-.05.88l-.11,1.6a5.81,5.81,0,0,1-2.53.74,8.44,8.44,0,0,1-1,.06,6.24,6.24,0,0,1-4.31-1.51A5,5,0,0,1,725.92,643Zm7.83-1.29a2.32,2.32,0,0,0-2.4-2.21,2.6,2.6,0,0,0-2.36,1.34,3.19,3.19,0,0,0-.38.91l.6,0h3.1l.84,0Z"/><path d="M741.09,647.13a9.28,9.28,0,0,0,0,1.15h-2.61V633h2.57Z"/><path d="M746.34,647.13a8.6,8.6,0,0,0,0,1.15h-2.61V633h2.56Z"/><path d="M748.71,643a6.05,6.05,0,0,1,.41-2.23,5.53,5.53,0,0,1,1.16-1.79,5.6,5.6,0,0,1,4.19-1.63,4.53,4.53,0,0,1,3.5,1.44,4.93,4.93,0,0,1,1.3,3.51,3.43,3.43,0,0,1-.12,1.11,19,19,0,0,1-4.17.29h-3.61a2.68,2.68,0,0,0,1.24,1.7,4.67,4.67,0,0,0,2.53.61,6.19,6.19,0,0,0,2.8-.58,1.94,1.94,0,0,0,.46-.29c0,.29,0,.58,0,.88l-.11,1.6a5.81,5.81,0,0,1-2.52.74,8.61,8.61,0,0,1-1,.06,6.26,6.26,0,0,1-4.31-1.51A5,5,0,0,1,748.71,643Zm7.84-1.29a2.32,2.32,0,0,0-2.4-2.21,2.61,2.61,0,0,0-2.37,1.34,3.5,3.5,0,0,0-.38.91l.6,0h3.1l.84,0Z"/><path d="M777.34,647.28a5.5,5.5,0,0,1-2,.93,11.31,11.31,0,0,1-3,.32,23.49,23.49,0,0,1-3.71-.31V634.7a22.42,22.42,0,0,1,3.45-.32,8.88,8.88,0,0,1,2.4.28,4.75,4.75,0,0,1,1.53.75,2.87,2.87,0,0,1,1.17,2.36,3.1,3.1,0,0,1-1.06,2.41,3.42,3.42,0,0,1,1.94,1.47,3.9,3.9,0,0,1,.63,2.16,5.35,5.35,0,0,1-.35,2A3.54,3.54,0,0,1,777.34,647.28Zm-5.91-7.48a6.58,6.58,0,0,0,1.08.07,2.87,2.87,0,0,0,1.06-.17,1.62,1.62,0,0,0,.64-.42,1.69,1.69,0,0,0,.37-1.17c0-1.05-.61-1.57-1.84-1.57a11.91,11.91,0,0,0-1.31.06ZM773,642a8.6,8.6,0,0,0-1.52.12v4a6.24,6.24,0,0,0,1.51.18,4.49,4.49,0,0,0,1.39-.19,3.1,3.1,0,0,0,1-.52,2.1,2.1,0,0,0,.83-1.72C776.17,642.63,775.1,642,773,642Z"/><path d="M783.11,647.13a8.6,8.6,0,0,0,0,1.15h-2.61V633h2.56Z"/><path d="M792.41,647.35a4.38,4.38,0,0,1-2.86,1.08,3.21,3.21,0,0,1-2.6-1.12,4.51,4.51,0,0,1-.9-3v-4.07a15.19,15.19,0,0,0-.09-2.35,3.33,3.33,0,0,0-.13-.39c.31,0,.64,0,1,0h.85l.89,0v5.94c0,1.41.38,2.22,1.15,2.45a2.59,2.59,0,0,0,.76.1,2.4,2.4,0,0,0,1.94-.88v-7.58H795V647a6.94,6.94,0,0,0,.08,1.31h-2.63Z"/><path d="M797.71,643a6.05,6.05,0,0,1,.41-2.23,5.53,5.53,0,0,1,1.16-1.79,5.6,5.6,0,0,1,4.19-1.63,4.53,4.53,0,0,1,3.5,1.44,4.94,4.94,0,0,1,1.31,3.51,3.1,3.1,0,0,1-.13,1.11,19,19,0,0,1-4.17.29h-3.61a2.68,2.68,0,0,0,1.24,1.7,4.67,4.67,0,0,0,2.53.61,6.19,6.19,0,0,0,2.8-.58,1.94,1.94,0,0,0,.46-.29c0,.29,0,.58,0,.88l-.11,1.6a5.81,5.81,0,0,1-2.52.74,8.47,8.47,0,0,1-1,.06,6.22,6.22,0,0,1-4.3-1.51A5,5,0,0,1,797.71,643Zm7.84-1.29a2.32,2.32,0,0,0-2.4-2.21,2.61,2.61,0,0,0-2.37,1.34,3.88,3.88,0,0,0-.38.91l.61,0h3.09l.84,0Z"/><path d="M680.21,669.29H677.5l-.82,4.19h-1.46l.82-4.19h-2.45v-1.42h2.71l.71-3.64h-2.65v-1.42h2.93l.84-4.26h1.46l-.84,4.26h2.71l.84-4.26h1.48l-.84,4.26H685v1.42h-2.37l-.71,3.64h2.31v1.42h-2.58l-.82,4.19h-1.47Zm-2.44-1.42h2.71l.7-3.64h-2.7Z"/><path d="M694,658.54v1.61h-.35a5,5,0,0,0-3.53,1.31,5.45,5.45,0,0,0-1.51,3.58,4,4,0,0,1,3.22-1.35,3.87,3.87,0,0,1,3.11,1.37,6,6,0,0,1-.09,7.24,4.35,4.35,0,0,1-3.37,1.38A4.26,4.26,0,0,1,688,672a6.52,6.52,0,0,1-1.33-4.24v-.73c0-2.75.58-4.85,1.76-6.3a6.44,6.44,0,0,1,5.23-2.23Zm-2.49,6.73a3,3,0,0,0-1.8.58,3.14,3.14,0,0,0-1.14,1.47V668a4.87,4.87,0,0,0,.84,3,2.49,2.49,0,0,0,2.07,1.13,2.41,2.41,0,0,0,2-1,4.55,4.55,0,0,0,0-5A2.37,2.37,0,0,0,691.49,665.27Z"/><path d="M699.2,666l.76-7.44h7.65v1.75h-6l-.45,4.07a4.81,4.81,0,0,1,2.49-.64,4.12,4.12,0,0,1,3.24,1.35,5.26,5.26,0,0,1,1.2,3.64,5.12,5.12,0,0,1-1.25,3.64,4.55,4.55,0,0,1-3.48,1.32,4.71,4.71,0,0,1-3.23-1.09,4.38,4.38,0,0,1-1.42-3h1.79a3,3,0,0,0,.91,1.93,2.81,2.81,0,0,0,2,.66,2.56,2.56,0,0,0,2.08-.91,3.78,3.78,0,0,0,.75-2.49,3.45,3.45,0,0,0-.81-2.4,2.77,2.77,0,0,0-2.17-.91,3.14,3.14,0,0,0-1.95.54l-.5.41Z"/><path d="M718.13,668.47h2.07V670h-2.07v3.47h-1.91V670h-6.8v-1.12l6.69-10.34h2Zm-6.55,0h4.64v-7.33l-.23.41Z"/><path d="M723,673.48v-9.63h-1.75v-1.47H723v-1.13a3.81,3.81,0,0,1,1-2.76,3.62,3.62,0,0,1,2.7-1,4.8,4.8,0,0,1,1.3.18l-.1,1.53a4.8,4.8,0,0,0-1-.1,1.84,1.84,0,0,0-1.42.54,2.17,2.17,0,0,0-.5,1.55v1.17h2.36v1.47h-2.36v9.63Z"/><path d="M730.33,673.48v-9.63h-1.75v-1.47h1.75v-1.13a3.81,3.81,0,0,1,.95-2.76,3.62,3.62,0,0,1,2.7-1,4.8,4.8,0,0,1,1.3.18l-.1,1.53a4.8,4.8,0,0,0-1-.1,1.84,1.84,0,0,0-1.42.54,2.17,2.17,0,0,0-.5,1.55v1.17h2.36v1.47h-2.36v9.63Z"/><path d="M737.62,673.48v-9.63h-1.75v-1.47h1.75v-1.13a3.81,3.81,0,0,1,1-2.76,3.62,3.62,0,0,1,2.7-1,4.8,4.8,0,0,1,1.3.18l-.1,1.53a4.8,4.8,0,0,0-1-.1,1.84,1.84,0,0,0-1.42.54,2.17,2.17,0,0,0-.5,1.55v1.17h2.37v1.47h-2.37v9.63Z"/><path d="M744.91,673.48v-9.63h-1.75v-1.47h1.75v-1.13a3.81,3.81,0,0,1,1-2.76,3.62,3.62,0,0,1,2.7-1,4.8,4.8,0,0,1,1.3.18l-.1,1.53a4.77,4.77,0,0,0-1-.1,1.85,1.85,0,0,0-1.43.54,2.17,2.17,0,0,0-.5,1.55v1.17h2.37v1.47h-2.37v9.63Z"/><path d="M752.2,673.48v-9.63h-1.75v-1.47h1.75v-1.13a3.77,3.77,0,0,1,1-2.76,3.58,3.58,0,0,1,2.69-1,4.8,4.8,0,0,1,1.3.18l-.1,1.53a4.77,4.77,0,0,0-1-.1,1.86,1.86,0,0,0-1.43.54,2.22,2.22,0,0,0-.5,1.55v1.17h2.37v1.47H754.1v9.63Z"/><path d="M853.29,645.24a2.18,2.18,0,0,0,.88-.13h0l-.1,2.58h-7.68V634l.61,0,.72,0,1.56,0c1.57,0,3.11,0,4.65-.08a19.06,19.06,0,0,0-.12,2.41,1.25,1.25,0,0,0,0,.24l0,0a5.85,5.85,0,0,0-1.51-.15h-3.23v2.61h2.43a8.15,8.15,0,0,0,1.35-.06l0,2.54a10.89,10.89,0,0,0-1.27-.06h-2.54v3.7Z"/><path d="M859.07,646.55c0,.59,0,1,0,1.15h-2.6V632.42h2.56Z"/><path d="M861.44,642.43a6.05,6.05,0,0,1,.41-2.23,5.53,5.53,0,0,1,1.16-1.79,5.59,5.59,0,0,1,4.18-1.63,4.53,4.53,0,0,1,3.51,1.44,4.93,4.93,0,0,1,1.3,3.51,3.43,3.43,0,0,1-.12,1.11,19.21,19.21,0,0,1-4.17.28H864.1a2.72,2.72,0,0,0,1.24,1.71,4.67,4.67,0,0,0,2.53.61,6.19,6.19,0,0,0,2.8-.58,2.32,2.32,0,0,0,.46-.29c0,.29,0,.58,0,.88l-.11,1.6a5.81,5.81,0,0,1-2.52.74,8.61,8.61,0,0,1-1,.06,6.2,6.2,0,0,1-4.31-1.52A5,5,0,0,1,861.44,642.43Zm7.84-1.3a2.31,2.31,0,0,0-2.4-2.2,2.61,2.61,0,0,0-2.37,1.34,3.5,3.5,0,0,0-.38.91l.6,0h3.1l.84,0Z"/><path d="M882.61,646.7a4.91,4.91,0,0,1-3.6,1.15,5.37,5.37,0,0,1-3.89-1.45,5.12,5.12,0,0,1-1.53-3.89,5.93,5.93,0,0,1,9-4.9l-.41,2.62h-.07a2.5,2.5,0,0,0-1-.78,5.5,5.5,0,0,0-1.77-.31,3.41,3.41,0,0,0-1.38.23,2.46,2.46,0,0,0-.86.63,3.16,3.16,0,0,0-.72,2.17c0,1.6.55,2.65,1.66,3.14a3.12,3.12,0,0,0,1.22.24,4.58,4.58,0,0,0,1.11-.11,3.72,3.72,0,0,0,.87-.31,2.5,2.5,0,0,0,1.13-1l.07,0Z"/><path d="M889.51,645.44a2.08,2.08,0,0,0,1.81-.69h.08l0,2.38a3.14,3.14,0,0,1-1.86.67,7.69,7.69,0,0,1-.92.05,4.12,4.12,0,0,1-1.19-.2,2.6,2.6,0,0,1-1.09-.67,4.14,4.14,0,0,1-.93-3v-4.66h-1.55c0-.2,0-.4,0-.61v-1.57c0-.12,0-.18,0-.18h1.55v-2.92H888V637h2.82v2.36H888v4.18c0,1.08.3,1.69.89,1.84A2.62,2.62,0,0,0,889.51,645.44Z"/><path d="M895.94,646.55a9.28,9.28,0,0,0,0,1.15h-2.56V637h2.52v.79a2.46,2.46,0,0,1,1.83-1,3.93,3.93,0,0,1,1.51.23l-.19,2.76,0,0a1.81,1.81,0,0,0-2.36-.34,2.4,2.4,0,0,0-.75.77Z"/><path d="M900.2,633.93a16.89,16.89,0,0,1,1.71-2.26l2.21,1.73c-.3.36-.57.72-.82,1.07l-.79,1.12Zm2.7,12.62a9.28,9.28,0,0,0,0,1.15h-2.61V637h2.57Z"/><path d="M914.17,646.7a4.91,4.91,0,0,1-3.6,1.15,5.37,5.37,0,0,1-3.89-1.45,5.12,5.12,0,0,1-1.53-3.89,5.94,5.94,0,0,1,9-4.9l-.41,2.62h-.08a2.5,2.5,0,0,0-1-.78,5.5,5.5,0,0,0-1.77-.31,3.44,3.44,0,0,0-1.38.23,2.46,2.46,0,0,0-.86.63,3.16,3.16,0,0,0-.72,2.17c0,1.6.55,2.65,1.66,3.14a3.12,3.12,0,0,0,1.22.24,4.58,4.58,0,0,0,1.11-.11,3.72,3.72,0,0,0,.87-.31,2.5,2.5,0,0,0,1.13-1l.07,0Z"/><path d="M932.15,646.7a5.33,5.33,0,0,1-2,.92,11.27,11.27,0,0,1-3,.33,23.49,23.49,0,0,1-3.71-.31V634.12a22.42,22.42,0,0,1,3.45-.32,8.49,8.49,0,0,1,2.4.28,4.38,4.38,0,0,1,1.53.75,2.85,2.85,0,0,1,1.17,2.36A3.1,3.1,0,0,1,931,639.6a3.42,3.42,0,0,1,1.94,1.47,3.9,3.9,0,0,1,.63,2.16,5.35,5.35,0,0,1-.35,2A3.54,3.54,0,0,1,932.15,646.7Zm-5.91-7.48a7.91,7.91,0,0,0,1.08.07,2.87,2.87,0,0,0,1.06-.17,1.63,1.63,0,0,0,.64-.43,1.69,1.69,0,0,0,.37-1.17c0-1-.61-1.56-1.84-1.56a11.91,11.91,0,0,0-1.31.06Zm1.52,2.19a9.75,9.75,0,0,0-1.52.11v4a5.79,5.79,0,0,0,1.51.19,4.49,4.49,0,0,0,1.39-.19,3.1,3.1,0,0,0,1-.52,2.1,2.1,0,0,0,.83-1.72C931,642,929.91,641.41,927.76,641.41Z"/><path d="M937.92,646.55c0,.59,0,1,0,1.15h-2.6V632.42h2.56Z"/><path d="M947.22,646.76a4.36,4.36,0,0,1-2.86,1.09,3.2,3.2,0,0,1-2.6-1.12,4.53,4.53,0,0,1-.9-3v-4.07a15.47,15.47,0,0,0-.09-2.36,3,3,0,0,0-.13-.38c.31,0,.64,0,1,0h.85l.89,0v5.94c0,1.41.38,2.22,1.15,2.45a2.59,2.59,0,0,0,.76.1,2.4,2.4,0,0,0,1.94-.88V637h2.55v9.4a7.07,7.07,0,0,0,.08,1.32h-2.63Z"/><path d="M952.52,642.43a6.05,6.05,0,0,1,.41-2.23,5.53,5.53,0,0,1,1.16-1.79,5.6,5.6,0,0,1,4.19-1.63,4.53,4.53,0,0,1,3.5,1.44,4.94,4.94,0,0,1,1.31,3.51,3.35,3.35,0,0,1-.13,1.11,19.21,19.21,0,0,1-4.17.28h-3.61a2.72,2.72,0,0,0,1.24,1.71,4.67,4.67,0,0,0,2.53.61,6.19,6.19,0,0,0,2.8-.58,2.32,2.32,0,0,0,.46-.29c0,.29,0,.58-.05.88l-.11,1.6a5.81,5.81,0,0,1-2.52.74,8.47,8.47,0,0,1-1,.06,6.18,6.18,0,0,1-4.3-1.52A5,5,0,0,1,952.52,642.43Zm7.84-1.3a2.31,2.31,0,0,0-2.4-2.2,2.61,2.61,0,0,0-2.37,1.34,3.88,3.88,0,0,0-.38.91l.61,0h3.09l.84,0Z"/><path d="M852.51,668.7H849.8l-.82,4.2h-1.46l.82-4.2h-2.45v-1.41h2.71l.71-3.64h-2.64v-1.42h2.92l.84-4.26h1.46l-.84,4.26h2.71l.84-4.26h1.48l-.84,4.26h2.09v1.42H855l-.71,3.64h2.31v1.41H854l-.82,4.2h-1.48Zm-2.44-1.41h2.71l.7-3.64h-2.7Z"/><path d="M866.84,667.88h2.08v1.55h-2.08v3.47h-1.9v-3.47h-6.8v-1.12L864.82,658h2Zm-6.55,0h4.65v-7.32l-.23.41Z"/><path d="M871.76,672.9v-9.63H870V661.8h1.76v-1.14a3.74,3.74,0,0,1,1-2.75,3.61,3.61,0,0,1,2.7-1,5.27,5.27,0,0,1,1.3.17l-.1,1.53a5.64,5.64,0,0,0-1-.09,1.84,1.84,0,0,0-1.42.54,2.18,2.18,0,0,0-.51,1.55v1.17H876v1.47h-2.37v9.63Z"/><path d="M879.05,672.9v-9.63h-1.76V661.8h1.76v-1.14a3.74,3.74,0,0,1,1-2.75,3.61,3.61,0,0,1,2.7-1,5.27,5.27,0,0,1,1.3.17l-.1,1.53a5.64,5.64,0,0,0-1-.09,1.84,1.84,0,0,0-1.42.54,2.18,2.18,0,0,0-.51,1.55v1.17h2.37v1.47h-2.37v9.63Z"/><path d="M892.48,666.33a4.47,4.47,0,0,1-1.42,1.14,3.81,3.81,0,0,1-1.81.43,4,4,0,0,1-2.25-.63,4.17,4.17,0,0,1-1.48-1.79,6.09,6.09,0,0,1-.53-2.55,6.22,6.22,0,0,1,.57-2.7,4.14,4.14,0,0,1,1.62-1.83,4.56,4.56,0,0,1,2.44-.64,4.15,4.15,0,0,1,3.49,1.66,7.22,7.22,0,0,1,1.28,4.51v.56q0,4.35-1.73,6.36a6.61,6.61,0,0,1-5.2,2.06h-.36V671.3h.4a4.52,4.52,0,0,0,5-5Zm-2.92,0a3,3,0,0,0,1.76-.58,3.49,3.49,0,0,0,1.17-1.45v-.75a5.23,5.23,0,0,0-.81-3,2.47,2.47,0,0,0-4.06-.21,3.93,3.93,0,0,0-.76,2.53,4.13,4.13,0,0,0,.73,2.52A2.35,2.35,0,0,0,889.56,666.33Z"/><path d="M898.13,672.9v-9.63h-1.75V661.8h1.75v-1.14a3.78,3.78,0,0,1,1-2.75,3.62,3.62,0,0,1,2.7-1,5.21,5.21,0,0,1,1.3.17l-.1,1.53a5.56,5.56,0,0,0-1-.09,1.84,1.84,0,0,0-1.42.54,2.17,2.17,0,0,0-.5,1.55v1.17h2.37v1.47H900v9.63Z"/><path d="M905.42,672.9v-9.63h-1.75V661.8h1.75v-1.14a3.78,3.78,0,0,1,1-2.75,3.62,3.62,0,0,1,2.7-1,5.21,5.21,0,0,1,1.3.17l-.1,1.53a5.56,5.56,0,0,0-1-.09,1.84,1.84,0,0,0-1.42.54,2.17,2.17,0,0,0-.5,1.55v1.17h2.37v1.47h-2.37v9.63Z"/><path d="M912.71,672.9v-9.63H911V661.8h1.75v-1.14a3.78,3.78,0,0,1,.95-2.75,3.62,3.62,0,0,1,2.7-1,5.21,5.21,0,0,1,1.3.17l-.1,1.53a5.53,5.53,0,0,0-1-.09,1.85,1.85,0,0,0-1.43.54,2.17,2.17,0,0,0-.5,1.55v1.17H917v1.47h-2.37v9.63Z"/><path d="M920,672.9v-9.63h-1.75V661.8H920v-1.14a3.74,3.74,0,0,1,1-2.75,3.58,3.58,0,0,1,2.69-1,5.21,5.21,0,0,1,1.3.17l-.1,1.53a5.53,5.53,0,0,0-1-.09,1.86,1.86,0,0,0-1.43.54,2.22,2.22,0,0,0-.5,1.55v1.17h2.37v1.47H921.9v9.63Z"/><path d="M1003,641.78c-.2,0-.42,0-.65,0s-.58,0-1,0v5.33h-2.72V633.37a29.17,29.17,0,0,1,3.53-.18,7.06,7.06,0,0,1,4.25,1,3.78,3.78,0,0,1,1.4,3.25,3.88,3.88,0,0,1-1.28,2.91,4.45,4.45,0,0,1-1,.67l2.09,4.41a5.2,5.2,0,0,0,.94,1.62l0,.06a13.92,13.92,0,0,0-3.13,0Zm-.68-6.17c-.35,0-.69,0-1,0v3.92a8.23,8.23,0,0,0,1.18.07,4.63,4.63,0,0,0,1.14-.12,2.44,2.44,0,0,0,.8-.36,1.92,1.92,0,0,0,.73-1.63,1.63,1.63,0,0,0-.76-1.53A4.28,4.28,0,0,0,1002.28,635.61Z"/><path d="M1017,646.15a4.38,4.38,0,0,1-2.86,1.09,3.25,3.25,0,0,1-2.61-1.12,4.55,4.55,0,0,1-.9-3v-4.08a15.29,15.29,0,0,0-.09-2.35,2.94,2.94,0,0,0-.12-.38c.31,0,.64,0,1,0h.85l.89,0v5.93c0,1.41.39,2.23,1.15,2.45a2.63,2.63,0,0,0,.76.11,2.43,2.43,0,0,0,2-.88v-7.58h2.54v9.4a7.93,7.93,0,0,0,.08,1.31H1017Z"/><path d="M1026.37,647.24a7.4,7.4,0,0,1-4.36-1.06c0-.2,0-.44.07-.7l.09-.73c.05-.49.09-.79.1-.91a.7.7,0,0,1,0-.2s.06.05.17.17a2.31,2.31,0,0,0,.58.43,5.67,5.67,0,0,0,1,.45,7.84,7.84,0,0,0,2.55.42c1.18,0,1.77-.39,1.77-1.18a.59.59,0,0,0-.34-.56,6,6,0,0,0-1.78-.47,8,8,0,0,1-1.92-.46,4.21,4.21,0,0,1-1.22-.74,2.77,2.77,0,0,1-.87-2.12,2.94,2.94,0,0,1,1.23-2.51,5.51,5.51,0,0,1,3.37-.91,5.64,5.64,0,0,1,3.64,1.21c0,.18-.1.35-.15.52-.16.45-.27.77-.35,1l-.23.6c0,.06,0,.09,0,.09a2,2,0,0,1-.16-.22,3.25,3.25,0,0,0-2-1,4.12,4.12,0,0,0-.86-.09c-1.24,0-1.87.38-1.87,1.13a.65.65,0,0,0,.39.6,6.15,6.15,0,0,0,2,.57,6.89,6.89,0,0,1,1.92.5,3.46,3.46,0,0,1,1.06.75,3,3,0,0,1,.73,2.12,2.83,2.83,0,0,1-1.15,2.35A5.33,5.33,0,0,1,1026.37,647.24Z"/><path d="M1036.89,647.24a7.42,7.42,0,0,1-4.36-1.06c0-.2,0-.44.07-.7l.09-.73c0-.49.09-.79.1-.91a.7.7,0,0,1,0-.2s.06.05.17.17a2.31,2.31,0,0,0,.58.43,5.67,5.67,0,0,0,1,.45,7.84,7.84,0,0,0,2.55.42c1.18,0,1.77-.39,1.77-1.18a.59.59,0,0,0-.34-.56,6,6,0,0,0-1.78-.47,8,8,0,0,1-1.92-.46,4.21,4.21,0,0,1-1.22-.74,2.77,2.77,0,0,1-.87-2.12,2.94,2.94,0,0,1,1.23-2.51,5.51,5.51,0,0,1,3.37-.91,5.64,5.64,0,0,1,3.64,1.21,4.44,4.44,0,0,1-.15.52c-.16.45-.27.77-.35,1l-.23.6,0,.09s-.07-.08-.17-.22a3.25,3.25,0,0,0-2-1,4.12,4.12,0,0,0-.86-.09c-1.24,0-1.87.38-1.87,1.13a.65.65,0,0,0,.39.6,6.15,6.15,0,0,0,2,.57,6.89,6.89,0,0,1,1.92.5,3.46,3.46,0,0,1,1.06.75,3,3,0,0,1,.73,2.12,2.83,2.83,0,0,1-1.15,2.35A5.33,5.33,0,0,1,1036.89,647.24Z"/><path d="M1043.48,633.31a15.79,15.79,0,0,1,1.71-2.25l2.2,1.73c-.29.36-.57.72-.82,1.07l-.79,1.11Zm2.69,12.62c0,.59,0,1,0,1.15h-2.6V636.37h2.56Z"/><path d="M1056.14,646.45a5.71,5.71,0,0,1-2.64.79,8.43,8.43,0,0,1-2-.22,4.33,4.33,0,0,1-1.42-.65,3,3,0,0,1-1.19-2.53,2.9,2.9,0,0,1,1.45-2.46,7.61,7.61,0,0,1,4.29-1.06h.69a2,2,0,0,1,.27,0,1.77,1.77,0,0,0-1.41-1.92,4.69,4.69,0,0,0-.94-.09,6.14,6.14,0,0,0-1,.08,7,7,0,0,0-.93.24,3.85,3.85,0,0,0-1.43.72l0,0-.3-2.26a8.34,8.34,0,0,1,4-1c2.23,0,3.66.81,4.28,2.41a4.77,4.77,0,0,1,.3,1.74V644a1.66,1.66,0,0,0,.84,1.62l-1.86,1.7A2.43,2.43,0,0,1,1056.14,646.45Zm-.55-4.24a3.68,3.68,0,0,0-.58-.05h-.41c-1.51,0-2.47.34-2.88,1a1.16,1.16,0,0,0-.19.62,1.34,1.34,0,0,0,.12.58,1,1,0,0,0,.4.42,3.28,3.28,0,0,0,1.58.3,4,4,0,0,0,2-.5,1.69,1.69,0,0,1,0-.23Z"/><path d="M1064,645.77a7.93,7.93,0,0,0,.08,1.31h-2.57V636.37H1064v.91a4.52,4.52,0,0,1,2.89-1.12,3.37,3.37,0,0,1,2.69,1.15,4.38,4.38,0,0,1,1,3v4.08a20.7,20.7,0,0,0,.05,2.08.94.94,0,0,0,.14.45l.14.18,0,0c-.55,0-1-.08-1.21-.08H1069l-.89,0v-5.58c0-2-.6-3-1.82-3a2.68,2.68,0,0,0-2.27,1.4Z"/><path d="M1086.62,647.12c-.22,0-.57,0-1.07,0h-1.13l-.5,0v0a.38.38,0,0,0,0-.16,1.5,1.5,0,0,0,0-.2c0-.06,0-.19-.09-.37s-.12-.43-.22-.76l-.43-1.38-3.82-10.81c.43,0,1,.05,1.62.05a5.39,5.39,0,0,0,1.27-.09l3.08,9.32,2.71-9.28c.41,0,.91.05,1.52.05a5.86,5.86,0,0,0,1.43-.09l-3.74,10.82-.36,1.2a6.39,6.39,0,0,0-.3,1.33,1.26,1.26,0,0,0,0,.38Z"/><path d="M1092.44,633.31a15.79,15.79,0,0,1,1.71-2.25l2.2,1.73c-.29.36-.56.72-.82,1.07l-.79,1.11Zm2.69,12.62c0,.59,0,1,0,1.15h-2.6V636.37h2.56Z"/><path d="M1097.25,641.78a6.07,6.07,0,0,1,.38-2.16,5.52,5.52,0,0,1,1.1-1.8,5.37,5.37,0,0,1,4.07-1.66,5.19,5.19,0,0,1,4,1.57,5.46,5.46,0,0,1,1.41,3.89,5.65,5.65,0,0,1-1.45,4,5.84,5.84,0,0,1-8.13,0A5.47,5.47,0,0,1,1097.25,641.78Zm2.49-.06A3.77,3.77,0,0,0,1100,643a3,3,0,0,0,.62,1,2.87,2.87,0,0,0,2.23.93,2.44,2.44,0,0,0,2-.91,4,4,0,0,0,0-4.62,2.92,2.92,0,0,0-4.35.06A3.62,3.62,0,0,0,1099.74,641.72Z"/><path d="M1112.68,645.93a9.17,9.17,0,0,0,0,1.15h-2.61V631.81h2.57Z"/><path d="M1115,641.81a6,6,0,0,1,.41-2.22,5.57,5.57,0,0,1,1.16-1.8,5.63,5.63,0,0,1,4.19-1.63,4.5,4.5,0,0,1,3.5,1.45,4.94,4.94,0,0,1,1.31,3.51,3,3,0,0,1-.13,1.1,19,19,0,0,1-4.17.29h-3.61a2.72,2.72,0,0,0,1.24,1.71,4.78,4.78,0,0,0,2.53.61,6.19,6.19,0,0,0,2.8-.59,2,2,0,0,0,.46-.28c0,.28,0,.58,0,.88l-.11,1.6a6,6,0,0,1-2.52.74,8.47,8.47,0,0,1-1,.06,6.23,6.23,0,0,1-4.3-1.52A5,5,0,0,1,1115,641.81Zm7.84-1.29a2.31,2.31,0,0,0-2.4-2.2,2.59,2.59,0,0,0-2.37,1.34,3.64,3.64,0,0,0-.38.9l.61,0h3.09l.84,0C1122.5,640.55,1122.7,640.53,1122.88,640.52Z"/><path d="M1132.59,644.83a2.07,2.07,0,0,0,1.81-.69h.09l0,2.38a3.27,3.27,0,0,1-1.87.67,7.69,7.69,0,0,1-.92,0,3.88,3.88,0,0,1-1.19-.21,2.65,2.65,0,0,1-1.09-.66,4.15,4.15,0,0,1-.93-3v-4.65H1127c0-.2,0-.4,0-.61v-1.58c0-.11,0-.17,0-.17h1.55v-2.92H1131v2.92h2.82v2.36H1131v4.18c0,1.07.3,1.69.89,1.84A2.67,2.67,0,0,0,1132.59,644.83Z"/><path d="M1004.63,668.09h-2.7l-.82,4.19h-1.47l.82-4.19H998v-1.42h2.72l.71-3.64h-2.65v-1.41h2.92l.84-4.27H1004l-.84,4.27h2.71l.84-4.27h1.47l-.84,4.27h2.09V663h-2.36l-.71,3.64h2.31v1.42h-2.58l-.82,4.19h-1.48Zm-2.44-1.42h2.71l.71-3.64h-2.71Z"/><path d="M1017.19,672.28h-1.9V659.64l-3.83,1.41v-1.73l5.44-2h.29Z"/><path d="M1030,665.72a4.64,4.64,0,0,1-1.42,1.14,3.81,3.81,0,0,1-1.81.43,3.94,3.94,0,0,1-2.25-.64,4.11,4.11,0,0,1-1.48-1.79,6,6,0,0,1-.52-2.54,6.22,6.22,0,0,1,.57-2.7,4.2,4.2,0,0,1,1.61-1.84,4.64,4.64,0,0,1,2.44-.63,4.15,4.15,0,0,1,3.49,1.66,7.2,7.2,0,0,1,1.28,4.51v.56q0,4.35-1.72,6.36a6.62,6.62,0,0,1-5.2,2h-.37v-1.61h.4a4.51,4.51,0,0,0,5-5Zm-2.92,0a2.92,2.92,0,0,0,1.76-.58,3.4,3.4,0,0,0,1.17-1.45v-.76a5.21,5.21,0,0,0-.81-3,2.41,2.41,0,0,0-2-1.17,2.45,2.45,0,0,0-2,1,4,4,0,0,0-.76,2.52,4.12,4.12,0,0,0,.74,2.52A2.32,2.32,0,0,0,1027.1,665.72Z"/><path d="M1043.91,665.92a8.66,8.66,0,0,1-1.14,5,4.73,4.73,0,0,1-7.1,0,8.27,8.27,0,0,1-1.19-4.73v-2.53a8.46,8.46,0,0,1,1.14-4.89,4.82,4.82,0,0,1,7.12-.06,8.19,8.19,0,0,1,1.17,4.77Zm-1.9-2.6a7,7,0,0,0-.68-3.51,2.31,2.31,0,0,0-2.14-1.1,2.28,2.28,0,0,0-2.12,1.1,6.66,6.66,0,0,0-.69,3.37v3a7.06,7.06,0,0,0,.7,3.58,2.33,2.33,0,0,0,2.13,1.15,2.29,2.29,0,0,0,2.09-1.09,6.82,6.82,0,0,0,.71-3.42Z"/><path d="M1053.61,665.72a4.76,4.76,0,0,1-1.42,1.14,3.84,3.84,0,0,1-1.81.43,3.94,3.94,0,0,1-2.25-.64,4,4,0,0,1-1.48-1.79,6,6,0,0,1-.53-2.54,6.22,6.22,0,0,1,.57-2.7,4.22,4.22,0,0,1,1.62-1.84,4.62,4.62,0,0,1,2.44-.63,4.16,4.16,0,0,1,3.49,1.66,7.19,7.19,0,0,1,1.27,4.51v.56q0,4.35-1.72,6.36a6.62,6.62,0,0,1-5.2,2h-.37v-1.61h.4a5.17,5.17,0,0,0,3.61-1.22A5.27,5.27,0,0,0,1053.61,665.72Zm-2.93,0a2.9,2.9,0,0,0,1.76-.58,3.5,3.5,0,0,0,1.18-1.45v-.76a5.21,5.21,0,0,0-.81-3,2.47,2.47,0,0,0-4.06-.21,3.92,3.92,0,0,0-.76,2.52,4.11,4.11,0,0,0,.73,2.52A2.32,2.32,0,0,0,1050.68,665.72Z"/><path d="M1060.89,663.9h1.42a3.18,3.18,0,0,0,2.12-.71,2.38,2.38,0,0,0,.76-1.86,2.31,2.31,0,0,0-2.61-2.62,2.69,2.69,0,0,0-2,.7,2.46,2.46,0,0,0-.74,1.86H1058a3.84,3.84,0,0,1,1.29-2.95,4.76,4.76,0,0,1,3.3-1.17,4.64,4.64,0,0,1,3.31,1.12,4,4,0,0,1,1.2,3.1,3.29,3.29,0,0,1-.63,1.89,3.76,3.76,0,0,1-1.72,1.36,3.67,3.67,0,0,1,1.91,1.3,3.62,3.62,0,0,1,.67,2.2,4.07,4.07,0,0,1-1.32,3.19,4.88,4.88,0,0,1-3.41,1.18,5,5,0,0,1-3.42-1.14,3.77,3.77,0,0,1-1.32-3h1.91a2.44,2.44,0,0,0,.77,1.88,2.93,2.93,0,0,0,2.06.71,2.85,2.85,0,0,0,2.1-.72,2.74,2.74,0,0,0,.73-2.06,2.53,2.53,0,0,0-.8-2,3.54,3.54,0,0,0-2.31-.72h-1.42Z"/><path d="M1072.68,663.9h1.42a3.18,3.18,0,0,0,2.12-.71,2.38,2.38,0,0,0,.77-1.86,2.32,2.32,0,0,0-2.62-2.62,2.7,2.7,0,0,0-2,.7,2.46,2.46,0,0,0-.74,1.86h-1.89a3.84,3.84,0,0,1,1.29-2.95,4.76,4.76,0,0,1,3.3-1.17,4.64,4.64,0,0,1,3.31,1.12,4,4,0,0,1,1.2,3.1,3.29,3.29,0,0,1-.63,1.89,3.76,3.76,0,0,1-1.72,1.36,3.67,3.67,0,0,1,1.91,1.3,3.62,3.62,0,0,1,.67,2.2,4.1,4.1,0,0,1-1.31,3.19,4.92,4.92,0,0,1-3.42,1.18,5,5,0,0,1-3.42-1.14,3.77,3.77,0,0,1-1.32-3h1.91a2.44,2.44,0,0,0,.77,1.88,2.93,2.93,0,0,0,2.06.71,2.85,2.85,0,0,0,2.1-.72,2.74,2.74,0,0,0,.73-2.06,2.53,2.53,0,0,0-.8-2,3.54,3.54,0,0,0-2.31-.72h-1.42Z"/><path d="M1082.84,672.28v-9.63h-1.75v-1.46h1.75v-1.14a3.81,3.81,0,0,1,1-2.76,3.62,3.62,0,0,1,2.7-1,5.21,5.21,0,0,1,1.3.17l-.1,1.53a5.53,5.53,0,0,0-1-.09,1.85,1.85,0,0,0-1.43.54,2.16,2.16,0,0,0-.5,1.55v1.17h2.37v1.46h-2.37v9.63Z"/><path d="M1090.13,672.28v-9.63h-1.75v-1.46h1.75v-1.14a3.77,3.77,0,0,1,1-2.76,3.58,3.58,0,0,1,2.69-1,5.21,5.21,0,0,1,1.3.17L1095,658a5.53,5.53,0,0,0-1-.09,1.86,1.86,0,0,0-1.43.54,2.2,2.2,0,0,0-.5,1.55v1.17h2.37v1.46H1092v9.63Z"/><path d="M1183.78,648.53a18.15,18.15,0,0,1-3.12-.26V634.55a26.16,26.16,0,0,1,3.14-.17,10.3,10.3,0,0,1,3.24.49,6.66,6.66,0,0,1,2.42,1.39,6.48,6.48,0,0,1,2,5,6.9,6.9,0,0,1-2.19,5.53A8.09,8.09,0,0,1,1183.78,648.53Zm-.46-2.5a7.56,7.56,0,0,0,1.33.12,4.31,4.31,0,0,0,1.44-.26,3.36,3.36,0,0,0,1.33-.81,4.52,4.52,0,0,0,1.21-3.41c0-2.44-.89-3.95-2.67-4.51a7,7,0,0,0-2-.27h-.6Z"/><path d="M1201.27,647.64a5.62,5.62,0,0,1-2.64.79,7.89,7.89,0,0,1-2-.22,4,4,0,0,1-1.42-.65A2.91,2.91,0,0,1,1194,645a2.88,2.88,0,0,1,1.45-2.46,7.56,7.56,0,0,1,4.29-1.07h.41l.28,0,.27,0a1.78,1.78,0,0,0-1.41-1.92,4.76,4.76,0,0,0-.94-.09,5.33,5.33,0,0,0-1,.09,7.28,7.28,0,0,0-.92.23,3.63,3.63,0,0,0-1.43.73l0,0-.31-2.27a8.49,8.49,0,0,1,4-.95c2.23,0,3.65.8,4.28,2.41a4.94,4.94,0,0,1,.29,1.73v3.71a1.63,1.63,0,0,0,.85,1.62l-1.86,1.7A2.3,2.3,0,0,1,1201.27,647.64Zm-.56-4.23a2.63,2.63,0,0,0-.57,0h-.41c-1.51,0-2.47.33-2.88,1a1.13,1.13,0,0,0-.19.63,1.34,1.34,0,0,0,.12.58,1,1,0,0,0,.39.41,3.22,3.22,0,0,0,1.59.31,4.05,4.05,0,0,0,2-.5c0-.08,0-.16,0-.24Z"/><path d="M1204.87,637.56h2.91l2.5,7.06,2.42-7.06h2.84l-4.24,10.72h-2.11Z"/><path d="M1216,651.85l.68-.55a9,9,0,0,0,2.53-3.66l.47-1.14-3.92-8.94h2.87l2.46,6.2,2.28-6.2h3a13.72,13.72,0,0,0-1.31,2.75l-1.53,3.8q-3.09,7.26-4.84,8.66Z"/><path d="M1231.12,648.43a7.46,7.46,0,0,1-4.36-1c0-.21,0-.44.06-.7l.09-.74c0-.49.09-.79.1-.91l0-.19s.07,0,.17.16a2.49,2.49,0,0,0,.58.44,5.46,5.46,0,0,0,1,.45,7.73,7.73,0,0,0,2.54.42c1.18,0,1.77-.39,1.77-1.18a.6.6,0,0,0-.33-.56,5.84,5.84,0,0,0-1.78-.47,7.89,7.89,0,0,1-1.93-.47,4,4,0,0,1-1.22-.74,2.75,2.75,0,0,1-.87-2.12,3,3,0,0,1,1.23-2.51,6.4,6.4,0,0,1,7,.31c0,.18-.1.35-.16.51-.15.45-.27.78-.35,1l-.23.61,0,.08s-.07-.07-.17-.21a3.31,3.31,0,0,0-2-1,4.82,4.82,0,0,0-.86-.08c-1.24,0-1.86.38-1.86,1.13a.63.63,0,0,0,.39.59,6.31,6.31,0,0,0,2,.58,7.31,7.31,0,0,1,1.92.49,3.32,3.32,0,0,1,1.06.76,3,3,0,0,1,.74,2.12,2.85,2.85,0,0,1-1.16,2.35A5.36,5.36,0,0,1,1231.12,648.43Z"/><path d="M1256.48,640.05a4.36,4.36,0,0,0-.19,1.67v3.18a3.06,3.06,0,0,1-1.5,2.52,6.34,6.34,0,0,1-3.79,1.11,6.41,6.41,0,0,1-6.77-6.71,7.47,7.47,0,0,1,1.82-5.13,7.12,7.12,0,0,1,5.62-2.31,6.75,6.75,0,0,1,3.79.93l-.17,3-.08,0a2.57,2.57,0,0,0-1.41-1,5.8,5.8,0,0,0-2.11-.38,4.79,4.79,0,0,0-1.93.35,3.8,3.8,0,0,0-1.4,1,5,5,0,0,0-1.21,3.5,4.29,4.29,0,0,0,1.07,3A3.58,3.58,0,0,0,1251,646a2.82,2.82,0,0,0,2.5-1,1.3,1.3,0,0,0,.2-.7v-1.7h-1.32c-.71,0-1.1.06-1.16.18h0l-.09-2.67a17.18,17.18,0,0,0,2.33.08h1.21a8.48,8.48,0,0,0,1.84-.16Z"/><path d="M1261.39,647.13a8.6,8.6,0,0,0,0,1.15h-2.56V637.56h2.51v.79a2.46,2.46,0,0,1,1.83-1,4.15,4.15,0,0,1,1.52.23l-.19,2.76,0,0a1.8,1.8,0,0,0-2.36-.34,2.54,2.54,0,0,0-.76.77Z"/><path d="M1265.47,643a6.05,6.05,0,0,1,.41-2.23A5.53,5.53,0,0,1,1267,639a5.6,5.6,0,0,1,4.19-1.63,4.53,4.53,0,0,1,3.5,1.44,4.94,4.94,0,0,1,1.31,3.51,3.1,3.1,0,0,1-.13,1.11,19.21,19.21,0,0,1-4.17.28h-3.61a2.67,2.67,0,0,0,1.24,1.71,4.69,4.69,0,0,0,2.53.61,6.19,6.19,0,0,0,2.8-.58,2.32,2.32,0,0,0,.46-.29c0,.29,0,.58-.05.88l-.11,1.6a5.81,5.81,0,0,1-2.52.74,8.47,8.47,0,0,1-1,.06,6.18,6.18,0,0,1-4.3-1.52A5,5,0,0,1,1265.47,643Zm7.84-1.29a2.32,2.32,0,0,0-2.4-2.21,2.61,2.61,0,0,0-2.37,1.34,3.88,3.88,0,0,0-.38.91l.61,0h3.09l.84,0Z"/><path d="M1277.28,651.85l.67-.55a9.05,9.05,0,0,0,2.54-3.66l.47-1.14-3.93-8.94h2.87l2.46,6.2,2.29-6.2h2.95a13.83,13.83,0,0,0-1.3,2.75l-1.54,3.8q-3.09,7.26-4.84,8.66Z"/><path d="M1186.54,669.28h-2.71l-.82,4.2h-1.46l.82-4.2h-2.45v-1.41h2.71l.71-3.64h-2.64v-1.42h2.92l.84-4.26h1.47l-.84,4.26h2.7l.84-4.26h1.48l-.84,4.26h2.09v1.42H1189l-.71,3.64h2.31v1.41H1188l-.82,4.2h-1.48Zm-2.44-1.41h2.71l.71-3.64h-2.71Z"/><path d="M1200.88,668.46H1203V670h-2.07v3.47H1199V670h-6.8v-1.12l6.69-10.34h2Zm-6.56,0H1199v-7.32l-.23.41Z"/><path d="M1209.3,672.13a2.75,2.75,0,0,0,1.78-.61,2.2,2.2,0,0,0,.84-1.54h1.79a3.44,3.44,0,0,1-.65,1.82,4.35,4.35,0,0,1-1.62,1.37,4.65,4.65,0,0,1-2.14.51,4.55,4.55,0,0,1-3.6-1.51,6,6,0,0,1-1.34-4.14v-.31a6.7,6.7,0,0,1,.6-2.89,4.44,4.44,0,0,1,1.7-2,4.83,4.83,0,0,1,2.63-.7,4.45,4.45,0,0,1,3.11,1.12,4,4,0,0,1,1.31,2.9h-1.79a2.63,2.63,0,0,0-.82-1.77,2.52,2.52,0,0,0-1.81-.69,2.64,2.64,0,0,0-2.24,1,4.87,4.87,0,0,0-.79,3v.36a4.77,4.77,0,0,0,.79,3A2.66,2.66,0,0,0,1209.3,672.13Z"/><path d="M1223.66,668.46h2.07V670h-2.07v3.47h-1.91V670H1215v-1.12l6.69-10.34h2Zm-6.55,0h4.64v-7.32l-.22.41Z"/><path d="M1232.09,672.13a2.7,2.7,0,0,0,1.77-.61,2.13,2.13,0,0,0,.84-1.54h1.8a3.55,3.55,0,0,1-.66,1.82,4.32,4.32,0,0,1-1.61,1.37,4.71,4.71,0,0,1-2.14.51,4.59,4.59,0,0,1-3.61-1.51,6,6,0,0,1-1.33-4.14v-.31a6.7,6.7,0,0,1,.59-2.89,4.52,4.52,0,0,1,1.71-2,4.81,4.81,0,0,1,2.63-.7,4.43,4.43,0,0,1,3.1,1.12,4,4,0,0,1,1.32,2.9h-1.8a2.58,2.58,0,0,0-.81-1.77,2.54,2.54,0,0,0-1.81-.69,2.64,2.64,0,0,0-2.24,1,4.86,4.86,0,0,0-.8,3v.36a4.84,4.84,0,0,0,.79,3A2.67,2.67,0,0,0,1232.09,672.13Z"/><path d="M1246.44,668.46h2.08V670h-2.08v3.47h-1.9V670h-6.8v-1.12l6.68-10.34h2Zm-6.55,0h4.65v-7.32l-.23.41Z"/><path d="M1259.87,659.61l-6.19,13.87h-2l6.17-13.37h-8.08v-1.56h10.09Z"/><path d="M1263.15,673.48v-9.63h-1.76v-1.47h1.76v-1.13a3.81,3.81,0,0,1,.95-2.76,3.62,3.62,0,0,1,2.7-1,4.8,4.8,0,0,1,1.3.18l-.1,1.52a5.64,5.64,0,0,0-1-.09,1.84,1.84,0,0,0-1.42.54,2.18,2.18,0,0,0-.51,1.55v1.17h2.37v1.47H1265v9.63Z"/><path d="M1270.44,673.48v-9.63h-1.75v-1.47h1.75v-1.13a3.81,3.81,0,0,1,1-2.76,3.62,3.62,0,0,1,2.7-1,4.8,4.8,0,0,1,1.3.18l-.1,1.52a5.56,5.56,0,0,0-1-.09,1.84,1.84,0,0,0-1.42.54,2.17,2.17,0,0,0-.5,1.55v1.17h2.36v1.47h-2.36v9.63Z"/><path d="M1322.35,633.57a23.23,23.23,0,0,1,2.92-.19,6.15,6.15,0,0,1,4.24,1.31,5,5,0,0,1,1.45,3.91,4.58,4.58,0,0,1-1.59,3.68,5.65,5.65,0,0,1-3.82,1.28,4.27,4.27,0,0,1-.59,0v3.76h-2.61Zm3.23,2.28c-.21,0-.41,0-.62,0v5.39a6.17,6.17,0,0,0,.8,0,2.77,2.77,0,0,0,1-.2,2.33,2.33,0,0,0,.86-.56,2.68,2.68,0,0,0,.73-2A2.43,2.43,0,0,0,1325.58,635.85Z"/><path d="M1335.23,646.13a9.28,9.28,0,0,0,0,1.15h-2.55V636.56h2.51v.79a2.46,2.46,0,0,1,1.83-1,4.09,4.09,0,0,1,1.51.23l-.18,2.76,0,0A1.82,1.82,0,0,0,1336,639a2.51,2.51,0,0,0-.75.77Z"/><path d="M1339.49,633.51a16.11,16.11,0,0,1,1.72-2.26l2.2,1.73c-.29.37-.57.72-.82,1.07l-.79,1.12Zm2.7,12.62a9.28,9.28,0,0,0,0,1.15h-2.6V636.56h2.56Z"/><path d="M1347.78,646a8,8,0,0,0,.08,1.31h-2.57V636.56h2.49v.91a4.49,4.49,0,0,1,2.89-1.11,3.41,3.41,0,0,1,2.69,1.14,4.39,4.39,0,0,1,1,3v4.08c0,1.16,0,1.85.05,2.08a1,1,0,0,0,.14.45l.15.19,0,0c-.55-.05-1-.07-1.21-.07h-.72l-.88,0v-5.59c0-2-.61-3-1.82-3a2.66,2.66,0,0,0-2.27,1.39Z"/><path d="M1365.73,646.28a4.88,4.88,0,0,1-3.6,1.15,5.38,5.38,0,0,1-3.88-1.44,5.16,5.16,0,0,1-1.53-3.9,5.93,5.93,0,0,1,9-4.9l-.41,2.62h-.07a2.5,2.5,0,0,0-1-.78,5.48,5.48,0,0,0-1.77-.3,3.43,3.43,0,0,0-1.38.22,2.46,2.46,0,0,0-.86.63,3.16,3.16,0,0,0-.72,2.17c0,1.6.55,2.65,1.66,3.14a3.11,3.11,0,0,0,1.21.24,4.67,4.67,0,0,0,1.12-.11,3.72,3.72,0,0,0,.87-.31,2.5,2.5,0,0,0,1.13-1l.07,0Z"/><path d="M1367.36,642a6.05,6.05,0,0,1,.41-2.23,5.53,5.53,0,0,1,1.16-1.79,5.6,5.6,0,0,1,4.19-1.63,4.53,4.53,0,0,1,3.5,1.44,4.94,4.94,0,0,1,1.31,3.51,3.1,3.1,0,0,1-.13,1.11,19.21,19.21,0,0,1-4.17.28H1370a2.67,2.67,0,0,0,1.24,1.71,4.67,4.67,0,0,0,2.53.61,6.19,6.19,0,0,0,2.8-.58,2.32,2.32,0,0,0,.46-.29c0,.29,0,.58,0,.88l-.11,1.6a5.81,5.81,0,0,1-2.52.74,8.47,8.47,0,0,1-1,.06,6.18,6.18,0,0,1-4.3-1.52A5,5,0,0,1,1367.36,642Zm7.84-1.29a2.32,2.32,0,0,0-2.4-2.21,2.61,2.61,0,0,0-2.37,1.34,3.88,3.88,0,0,0-.38.91l.61,0h3.09l.84,0Z"/><path d="M1384.91,645a2.07,2.07,0,0,0,1.81-.69h.09l0,2.38a3.2,3.2,0,0,1-1.87.67,7.69,7.69,0,0,1-.92,0,4.17,4.17,0,0,1-1.19-.2,2.67,2.67,0,0,1-1.09-.67,4.14,4.14,0,0,1-.93-3v-4.66h-1.55c0-.2,0-.4,0-.6v-1.58c0-.12,0-.18,0-.18h1.55v-2.92h2.51v2.92h2.82v2.36h-2.82v4.18c0,1.08.3,1.69.89,1.84A2.67,2.67,0,0,0,1384.91,645Z"/><path d="M1388.14,642a6.25,6.25,0,0,1,.38-2.16,5.28,5.28,0,0,1,5.18-3.46,5.15,5.15,0,0,1,4,1.57,5.45,5.45,0,0,1,1.4,3.88,5.59,5.59,0,0,1-1.45,4,5.84,5.84,0,0,1-8.13,0A5.49,5.49,0,0,1,1388.14,642Zm2.49-.07a3.59,3.59,0,0,0,.22,1.26,3,3,0,0,0,.61,1,2.91,2.91,0,0,0,2.24.94,2.46,2.46,0,0,0,2-.92,4,4,0,0,0,0-4.61,2.68,2.68,0,0,0-2.17-1,2.62,2.62,0,0,0-2.18,1A3.52,3.52,0,0,0,1390.63,641.91Z"/><path d="M1403.89,646a8,8,0,0,0,.08,1.31h-2.57V636.56h2.49v.91a4.49,4.49,0,0,1,2.89-1.11,3.41,3.41,0,0,1,2.69,1.14,4.39,4.39,0,0,1,1,3v4.08c0,1.16,0,1.85,0,2.08a1,1,0,0,0,.14.45l.15.19,0,0c-.55-.05-1-.07-1.21-.07h-.72l-.88,0v-5.59c0-2-.61-3-1.82-3a2.66,2.66,0,0,0-2.27,1.39Z"/><path d="M1421.8,645.66a6.52,6.52,0,0,1-1.47-2.15,6.8,6.8,0,0,1-.54-2.74,7.83,7.83,0,0,1,.51-2.82,7.13,7.13,0,0,1,1.43-2.35A6.87,6.87,0,0,1,1424,634a7.08,7.08,0,0,1,3-.6,6.78,6.78,0,0,1,4.77,1.79,6.65,6.65,0,0,1,2.07,5.14,7.06,7.06,0,0,1-5.26,7,8.09,8.09,0,0,1-2.09.23A6.68,6.68,0,0,1,1424,647,6.79,6.79,0,0,1,1421.8,645.66Zm.84-5a4.79,4.79,0,0,0,.32,1.76,4,4,0,0,0,4,2.58,3.76,3.76,0,0,0,2.88-1.16,4.63,4.63,0,0,0,1.11-3.27,5,5,0,0,0-1.06-3.25,3.8,3.8,0,0,0-3.11-1.39,3.7,3.7,0,0,0-3,1.41A5.18,5.18,0,0,0,1422.64,640.63Z"/><path d="M1438.59,646.13a9.28,9.28,0,0,0,0,1.15h-2.55V636.56h2.51v.79a2.46,2.46,0,0,1,1.83-1,4.09,4.09,0,0,1,1.51.23l-.18,2.76,0,0a1.82,1.82,0,0,0-2.37-.34,2.51,2.51,0,0,0-.75.77Z"/><path d="M1450.26,646.64a5.59,5.59,0,0,1-2.64.79,8,8,0,0,1-2-.22,4.13,4.13,0,0,1-1.42-.65A2.91,2.91,0,0,1,1443,644a2.88,2.88,0,0,1,1.45-2.46,7.61,7.61,0,0,1,4.29-1.07h.41l.28,0,.27,0a1.78,1.78,0,0,0-1.41-1.92,4.69,4.69,0,0,0-.94-.09,5.15,5.15,0,0,0-1,.09,7,7,0,0,0-.93.23,3.7,3.7,0,0,0-1.43.73l0,0-.3-2.27a8.42,8.42,0,0,1,4-.95q3.34,0,4.28,2.41a4.72,4.72,0,0,1,.3,1.73v3.71a1.64,1.64,0,0,0,.84,1.62l-1.86,1.7A2.36,2.36,0,0,1,1450.26,646.64Zm-.56-4.23a2.63,2.63,0,0,0-.57,0h-.41c-1.51,0-2.47.33-2.88,1a1.22,1.22,0,0,0-.19.63,1.34,1.34,0,0,0,.12.58,1,1,0,0,0,.4.41,3.15,3.15,0,0,0,1.58.31,4,4,0,0,0,2-.5c0-.08,0-.16,0-.24Z"/><path d="M1458.11,646a8,8,0,0,0,.08,1.31h-2.57V636.56h2.49v.91a4.49,4.49,0,0,1,2.89-1.11,3.41,3.41,0,0,1,2.69,1.14,4.4,4.4,0,0,1,1,3v4.08a20.57,20.57,0,0,0,0,2.08,1,1,0,0,0,.13.45l.15.19,0,0c-.55-.05-1-.07-1.21-.07h-.71l-.89,0v-5.59c0-2-.61-3-1.82-3a2.67,2.67,0,0,0-2.27,1.39Z"/><path d="M1470.51,644.43a1.53,1.53,0,0,0-.38.79.89.89,0,0,0,.09.45.83.83,0,0,0,.4.3,8.48,8.48,0,0,0,2.23.56,11,11,0,0,1,2.42.6,4.37,4.37,0,0,1,1.42.89,3.75,3.75,0,0,1,1,2.82,3.33,3.33,0,0,1-1.28,2.8,6.26,6.26,0,0,1-3.81,1,6.93,6.93,0,0,1-4.1-1.11,3.55,3.55,0,0,1-1.6-2.94,3.16,3.16,0,0,1,1.67-3.09,1.91,1.91,0,0,1-.63-.92,4,4,0,0,1-.16-1.2,2.38,2.38,0,0,1,1-1.93,3.57,3.57,0,0,1-1.16-2.72,4,4,0,0,1,1.31-3.06,5.05,5.05,0,0,1,3.59-1.29,5.42,5.42,0,0,1,2.17.43,12.8,12.8,0,0,0,2-1,5.6,5.6,0,0,0,.8-.62h.06c.06.16.14.4.22.7l.18.73a11,11,0,0,1,.3,1.26,2.81,2.81,0,0,1-1.59.69,3.93,3.93,0,0,1,.44,1.81,4.32,4.32,0,0,1-.33,1.72,4.12,4.12,0,0,1-.93,1.36,4.82,4.82,0,0,1-3.42,1.26A5.76,5.76,0,0,1,1470.51,644.43Zm2.24,8c1.69,0,2.53-.59,2.53-1.77a1.55,1.55,0,0,0-.82-1.35,8.58,8.58,0,0,0-3.17-.91l-.54-.1a2.35,2.35,0,0,0-1,.93,2.07,2.07,0,0,0-.31,1.07,1.53,1.53,0,0,0,.24.87,2.12,2.12,0,0,0,.65.65A4.42,4.42,0,0,0,1472.75,652.45Zm-2.51-12.64a2.21,2.21,0,0,0-.14.75,1.69,1.69,0,0,0,.16.73,1.82,1.82,0,0,0,.46.62,2.61,2.61,0,0,0,1.8.62A2.09,2.09,0,0,0,1474,642a2,2,0,0,0,.65-1.49,1.82,1.82,0,0,0-.58-1.4,2.33,2.33,0,0,0-1.61-.53A2.09,2.09,0,0,0,1470.24,639.81Z"/><path d="M1479.41,642a5.86,5.86,0,0,1,.41-2.23A5.37,5.37,0,0,1,1481,638a5.57,5.57,0,0,1,4.18-1.63,4.53,4.53,0,0,1,3.51,1.44,4.93,4.93,0,0,1,1.3,3.51,3.43,3.43,0,0,1-.12,1.11,19.39,19.39,0,0,1-4.18.28h-3.61a2.71,2.71,0,0,0,1.24,1.71,4.71,4.71,0,0,0,2.54.61,6.22,6.22,0,0,0,2.8-.58,2.67,2.67,0,0,0,.46-.29c0,.29,0,.58,0,.88l-.12,1.6a5.81,5.81,0,0,1-2.52.74,8.44,8.44,0,0,1-1,.06,6.2,6.2,0,0,1-4.31-1.52A5,5,0,0,1,1479.41,642Zm7.83-1.29a2.32,2.32,0,0,0-2.4-2.21,2.61,2.61,0,0,0-2.37,1.34,3.48,3.48,0,0,0-.37.91l.6,0h3.1l.84,0Z"/><path d="M1328.62,668.28h-2.7l-.82,4.2h-1.47l.82-4.2H1322v-1.41h2.72l.71-3.64h-2.65v-1.42h2.92l.84-4.26H1328l-.84,4.26h2.71l.84-4.26h1.47l-.84,4.26h2.1v1.42h-2.37l-.71,3.64h2.31v1.41h-2.58l-.82,4.2h-1.48Zm-2.43-1.41h2.7l.71-3.64h-2.71Z"/><path d="M1339.75,672.68a4.84,4.84,0,0,1-3.67-1.48,5.52,5.52,0,0,1-1.42-4v-.35a6.69,6.69,0,0,1,.63-2.95,5,5,0,0,1,1.77-2,4.39,4.39,0,0,1,2.45-.73,4.16,4.16,0,0,1,3.37,1.42,6.17,6.17,0,0,1,1.2,4.08v.79h-7.52a4,4,0,0,0,1,2.65,3,3,0,0,0,2.33,1,3.22,3.22,0,0,0,1.7-.41,4.2,4.2,0,0,0,1.23-1.08l1.15.9A4.65,4.65,0,0,1,1339.75,672.68Zm-.24-9.94a2.51,2.51,0,0,0-1.92.83,4.12,4.12,0,0,0-1,2.35h5.56v-.15a3.56,3.56,0,0,0-.78-2.24A2.37,2.37,0,0,0,1339.51,662.74Z"/><path d="M1353.12,672.48a4,4,0,0,1-.27-1.17,4.24,4.24,0,0,1-3.15,1.37,4,4,0,0,1-2.7-.92,3,3,0,0,1-1-2.36,3.14,3.14,0,0,1,1.32-2.69,6.21,6.21,0,0,1,3.71-1h1.84v-.87a2.14,2.14,0,0,0-.59-1.58,2.36,2.36,0,0,0-1.75-.59,2.8,2.8,0,0,0-1.71.51,1.51,1.51,0,0,0-.68,1.24h-1.91a2.67,2.67,0,0,1,.59-1.61,4.07,4.07,0,0,1,1.6-1.22,5.37,5.37,0,0,1,2.22-.45,4.36,4.36,0,0,1,3,1,3.45,3.45,0,0,1,1.13,2.64v5.1a6.23,6.23,0,0,0,.39,2.43v.17ZM1350,671a3.28,3.28,0,0,0,1.69-.46,2.79,2.79,0,0,0,1.16-1.2V667.1h-1.48c-2.33,0-3.49.67-3.49,2a1.72,1.72,0,0,0,.6,1.39A2.28,2.28,0,0,0,1350,671Z"/><path d="M1367.14,658.61,1361,672.48h-2l6.16-13.37h-8.08v-1.56h10.09Z"/><path d="M1372.05,664.09h1.42a3.13,3.13,0,0,0,2.12-.71,2.35,2.35,0,0,0,.77-1.85,2.32,2.32,0,0,0-2.62-2.63,2.75,2.75,0,0,0-2,.7,2.47,2.47,0,0,0-.74,1.87h-1.89a3.78,3.78,0,0,1,1.3-3,5.31,5.31,0,0,1,6.6-.06,4,4,0,0,1,1.2,3.11,3.24,3.24,0,0,1-.63,1.88,3.81,3.81,0,0,1-1.71,1.37,3.68,3.68,0,0,1,1.9,1.29,3.64,3.64,0,0,1,.67,2.2,4.08,4.08,0,0,1-1.31,3.19,4.92,4.92,0,0,1-3.42,1.18,5,5,0,0,1-3.42-1.14,3.76,3.76,0,0,1-1.32-3h1.91a2.45,2.45,0,0,0,.77,1.89,2.92,2.92,0,0,0,2.06.7,2.84,2.84,0,0,0,2.1-.71,2.76,2.76,0,0,0,.73-2.06,2.48,2.48,0,0,0-.8-2,3.43,3.43,0,0,0-2.31-.72h-1.42Z"/><path d="M1387.32,672.48h-1.91V659.84l-3.82,1.4v-1.72l5.43-2h.3Z"/><path d="M1402.51,658.61l-6.18,13.87h-2l6.16-13.37h-8.08v-1.56h10.09Z"/><path d="M1405.8,672.48v-9.63H1404v-1.47h1.76v-1.13a3.76,3.76,0,0,1,1-2.76,3.59,3.59,0,0,1,2.7-1,4.85,4.85,0,0,1,1.3.18l-.1,1.52a5.72,5.72,0,0,0-1-.09,1.86,1.86,0,0,0-1.43.54,2.22,2.22,0,0,0-.5,1.55v1.17h2.37v1.47h-2.37v9.63Z"/><path d="M1413.09,672.48v-9.63h-1.76v-1.47h1.76v-1.13a3.76,3.76,0,0,1,1-2.76,3.59,3.59,0,0,1,2.7-1,4.85,4.85,0,0,1,1.3.18l-.1,1.52a5.72,5.72,0,0,0-1-.09,1.86,1.86,0,0,0-1.43.54,2.22,2.22,0,0,0-.5,1.55v1.17h2.37v1.47H1415v9.63Z"/><path class="e6101c73-b8d9-4785-8696-f075dadd83e4" d="M1023.48,416.29a14.48,14.48,0,0,1,6.46,1.32v6.2l0,0q-1.14-1.74-4.78-2.31a17,17,0,0,0-2.72-.18,8.61,8.61,0,0,0-3.22.62,6.6,6.6,0,0,0-2.6,1.75,9.16,9.16,0,0,0-2,6.3q0,4.77,2.49,7.1a7.64,7.64,0,0,0,5.47,1.94,10.81,10.81,0,0,0,6.25-1.64,5.71,5.71,0,0,0,1.48-1.46l.06,0v5.68c-2.07,1.72-4.85,2.57-8.35,2.57q-6.19,0-9.69-3.93-3.37-3.75-3.37-9.93,0-6.56,3.69-10.32T1023.48,416.29Z"/><path class="e6101c73-b8d9-4785-8696-f075dadd83e4" d="M1033.43,433.28a12,12,0,0,1,.76-4.27,10.38,10.38,0,0,1,10.22-6.84,10.18,10.18,0,0,1,7.83,3.1A10.78,10.78,0,0,1,1055,433a11.14,11.14,0,0,1-2.86,7.83,11.57,11.57,0,0,1-16.08.06A10.85,10.85,0,0,1,1033.43,433.28Zm4.92-.13a7.43,7.43,0,0,0,.43,2.48,5.77,5.77,0,0,0,1.22,2.05,5.68,5.68,0,0,0,4.41,1.84,4.87,4.87,0,0,0,4-1.8,7,7,0,0,0,1.42-4.54,6.94,6.94,0,0,0-1.46-4.59,5.29,5.29,0,0,0-4.28-1.86,5.17,5.17,0,0,0-4.32,2A7,7,0,0,0,1038.35,433.15Z"/><path class="e6101c73-b8d9-4785-8696-f075dadd83e4" d="M1063.94,441.49a18.07,18.07,0,0,0,.08,2.27h-5.15V413.55h5.07Z"/><path class="e6101c73-b8d9-4785-8696-f075dadd83e4" d="M1068.09,433.28a12,12,0,0,1,.76-4.27,10.38,10.38,0,0,1,10.23-6.84,10.18,10.18,0,0,1,7.82,3.1,10.78,10.78,0,0,1,2.78,7.68,11.1,11.1,0,0,1-2.86,7.83,11.56,11.56,0,0,1-16.07.06A10.85,10.85,0,0,1,1068.09,433.28Zm4.93-.13a7.43,7.43,0,0,0,.42,2.48,5.77,5.77,0,0,0,1.22,2.05,5.69,5.69,0,0,0,4.42,1.84,4.85,4.85,0,0,0,4-1.8,8,8,0,0,0,0-9.13,5.29,5.29,0,0,0-4.28-1.86,5.16,5.16,0,0,0-4.31,2A7,7,0,0,0,1073,433.15Z"/><path class="e6101c73-b8d9-4785-8696-f075dadd83e4" d="M1097.86,441.49a20.37,20.37,0,0,0,.08,2.27h-5V422.57h5v1.56a4.88,4.88,0,0,1,3.62-2,7.85,7.85,0,0,1,3,.46l-.36,5.46-.08.06q-.72-1.26-2.94-1.26a3.14,3.14,0,0,0-1.74.58,5.07,5.07,0,0,0-1.49,1.53Z"/><path class="e6101c73-b8d9-4785-8696-f075dadd83e4" d="M1114.08,444.06c-3.81,0-6.68-.69-8.62-2.09,0-.4.07-.86.13-1.37l.18-1.46c.1-1,.17-1.56.2-1.8a2.77,2.77,0,0,1,.06-.38s.12.08.33.32a4.47,4.47,0,0,0,1.15.86,10.6,10.6,0,0,0,2,.9,15.41,15.41,0,0,0,5,.83q3.51,0,3.51-2.34a1.19,1.19,0,0,0-.67-1.11,11.29,11.29,0,0,0-3.51-.92,15.89,15.89,0,0,1-3.8-.92,8.36,8.36,0,0,1-2.42-1.46,5.47,5.47,0,0,1-1.72-4.2,5.86,5.86,0,0,1,2.43-5,11,11,0,0,1,6.67-1.78,11.18,11.18,0,0,1,7.2,2.39c-.1.35-.2.69-.31,1q-.47,1.34-.69,1.92l-.46,1.19c0,.12,0,.17-.06.17s-.14-.14-.33-.43a6.52,6.52,0,0,0-4-1.94,8.67,8.67,0,0,0-1.7-.17c-2.46,0-3.69.75-3.69,2.23a1.26,1.26,0,0,0,.77,1.18,12.24,12.24,0,0,0,3.94,1.13,14.1,14.1,0,0,1,3.8,1,6.59,6.59,0,0,1,2.09,1.49,5.94,5.94,0,0,1,1.46,4.19,5.61,5.61,0,0,1-2.29,4.65A10.58,10.58,0,0,1,1114.08,444.06Z"/><path class="e6101c73-b8d9-4785-8696-f075dadd83e4" d="M1009.07,779.59c-.45-.05-1.61-.08-3.48-.08h-.45V763.94h-2.78a4.33,4.33,0,0,0-1.47.13,2.76,2.76,0,0,0-.35.22h0v-3.61l0,0a11.64,11.64,0,0,0,2.5.15h8.83a4.78,4.78,0,0,0,1.47-.12,3.56,3.56,0,0,0,.35-.23l0,0v3.6l0,0a11.76,11.76,0,0,0-2.51-.15h-2.11Z"/><path class="e6101c73-b8d9-4785-8696-f075dadd83e4" d="M1015.05,784.41l.93-.75a12.44,12.44,0,0,0,3.48-5l.65-1.57-5.39-12.27h3.94l3.38,8.5,3.14-8.5h4a18.4,18.4,0,0,0-1.79,3.77l-2.11,5.22q-4.23,10-6.64,11.89Z"/><path class="e6101c73-b8d9-4785-8696-f075dadd83e4" d="M1034.5,779.21v4.14a13.33,13.33,0,0,0,0,1.58h-3.5V764.8h3.45v.91a5.67,5.67,0,0,1,3.26-1.19,8.24,8.24,0,0,1,2.78.43,5.73,5.73,0,0,1,2.12,1.35,7.62,7.62,0,0,1,2,5.66,8.22,8.22,0,0,1-1.15,4.35,7.1,7.1,0,0,1-2.68,2.59,6.56,6.56,0,0,1-3.3.86A7.62,7.62,0,0,1,1034.5,779.21Zm0-3.54a4.14,4.14,0,0,0,2.77.9,3.44,3.44,0,0,0,3.6-2.69,6.61,6.61,0,0,0,.29-2,5.81,5.81,0,0,0-.2-1.67,3.8,3.8,0,0,0-.52-1.09,3.44,3.44,0,0,0-.71-.76,4,4,0,0,0-.8-.48,3.51,3.51,0,0,0-1.48-.33,3.88,3.88,0,0,0-1.57.36,4,4,0,0,0-1.38.94Z"/><path class="e6101c73-b8d9-4785-8696-f075dadd83e4" d="M1046.56,772.23a8.43,8.43,0,0,1,.53-3,7.2,7.2,0,0,1,7.1-4.75,7.09,7.09,0,0,1,5.44,2.15,7.51,7.51,0,0,1,1.92,5.34,7.73,7.73,0,0,1-2,5.43,8,8,0,0,1-11.16,0A7.53,7.53,0,0,1,1046.56,772.23Zm3.42-.08a5,5,0,0,0,.3,1.71,4.07,4.07,0,0,0,.84,1.43,4,4,0,0,0,3.07,1.28,3.39,3.39,0,0,0,2.78-1.26,5.53,5.53,0,0,0,0-6.33,3.7,3.7,0,0,0-3-1.3,3.6,3.6,0,0,0-3,1.38A4.89,4.89,0,0,0,1050,772.15Z"/><path class="e6101c73-b8d9-4785-8696-f075dadd83e4" d="M1068.35,775.6a2.12,2.12,0,0,0-.52,1.09,1.33,1.33,0,0,0,.13.62,1.22,1.22,0,0,0,.55.41,12.28,12.28,0,0,0,3,.77,15.18,15.18,0,0,1,3.33.82,6,6,0,0,1,1.95,1.21,5.18,5.18,0,0,1,1.4,3.88,4.58,4.58,0,0,1-1.76,3.85,8.6,8.6,0,0,1-5.23,1.34,9.56,9.56,0,0,1-5.63-1.52,4.86,4.86,0,0,1-2.19-4,4.31,4.31,0,0,1,2.29-4.24,2.58,2.58,0,0,1-.86-1.26,5.54,5.54,0,0,1-.22-1.65,3.27,3.27,0,0,1,1.36-2.65,4.94,4.94,0,0,1-1.59-3.74,5.52,5.52,0,0,1,1.8-4.2,7,7,0,0,1,4.93-1.77,7.49,7.49,0,0,1,3,.59,17.14,17.14,0,0,0,2.69-1.36,7.61,7.61,0,0,0,1.09-.85h.09c.08.23.18.55.29,1l.26,1c.22.84.36,1.41.41,1.72a3.89,3.89,0,0,1-2.19,1,5.23,5.23,0,0,1,.61,2.48,6,6,0,0,1-.45,2.37,5.58,5.58,0,0,1-1.28,1.86,6.58,6.58,0,0,1-4.71,1.73A8.08,8.08,0,0,1,1068.35,775.6Zm3.09,11c2.31,0,3.46-.81,3.46-2.43a2.11,2.11,0,0,0-1.12-1.85,11.84,11.84,0,0,0-4.36-1.26l-.73-.12a3.21,3.21,0,0,0-1.36,1.26,2.82,2.82,0,0,0-.43,1.47,2.17,2.17,0,0,0,.33,1.21,2.81,2.81,0,0,0,.9.88A5.93,5.93,0,0,0,1071.44,786.61ZM1068,769.26a2.86,2.86,0,0,0-.2,1,2.31,2.31,0,0,0,.22,1,2.61,2.61,0,0,0,.64.86,3.56,3.56,0,0,0,2.46.84,2.88,2.88,0,0,0,2-.77,2.73,2.73,0,0,0,.89-2,2.5,2.5,0,0,0-.8-1.92,3.17,3.17,0,0,0-2.21-.73A2.86,2.86,0,0,0,1068,769.26Z"/><path class="e6101c73-b8d9-4785-8696-f075dadd83e4" d="M1084.6,777.93a12.56,12.56,0,0,0,.06,1.58h-3.51V764.8h3.45v1.08a3.39,3.39,0,0,1,2.51-1.36,5.37,5.37,0,0,1,2.08.32l-.25,3.79-.06,0a2.47,2.47,0,0,0-3.24-.47,3.51,3.51,0,0,0-1,1.06Z"/><path class="e6101c73-b8d9-4785-8696-f075dadd83e4" d="M1100.62,778.64a7.75,7.75,0,0,1-3.62,1.08,11.12,11.12,0,0,1-2.77-.3,5.62,5.62,0,0,1-2-.9,4.14,4.14,0,0,1,.37-6.84,10.44,10.44,0,0,1,5.88-1.46h.57l.38,0,.38,0c-.08-1.5-.72-2.38-1.94-2.63a6,6,0,0,0-1.29-.13,7.42,7.42,0,0,0-1.34.12,10.24,10.24,0,0,0-1.27.31,5.11,5.11,0,0,0-2,1l0,0-.43-3.12a11.57,11.57,0,0,1,5.45-1.3q4.59,0,5.87,3.3a6.64,6.64,0,0,1,.41,2.38v5.1a2.28,2.28,0,0,0,1.16,2.23l-2.55,2.33A3.31,3.31,0,0,1,1100.62,778.64Zm-.76-5.82a4.94,4.94,0,0,0-.79-.07h-.56q-3.1,0-4,1.38a1.68,1.68,0,0,0-.25.86,1.84,1.84,0,0,0,.16.8,1.34,1.34,0,0,0,.54.57,4.5,4.5,0,0,0,2.18.42,5.53,5.53,0,0,0,2.7-.69,3.25,3.25,0,0,1,0-.33Z"/><path class="e6101c73-b8d9-4785-8696-f075dadd83e4" d="M1111.36,779.21v4.14a12.56,12.56,0,0,0,.06,1.58h-3.51V764.8h3.45v.91a5.73,5.73,0,0,1,3.27-1.19,8.14,8.14,0,0,1,2.77.43,5.69,5.69,0,0,1,2.13,1.35,7.61,7.61,0,0,1,2,5.66,8.31,8.31,0,0,1-1.14,4.35,7.05,7.05,0,0,1-2.69,2.59,6.49,6.49,0,0,1-3.29.86A7.71,7.71,0,0,1,1111.36,779.21Zm0-3.54a4.18,4.18,0,0,0,2.78.9,3.44,3.44,0,0,0,3.6-2.69,6.61,6.61,0,0,0,.28-2,5.85,5.85,0,0,0-.19-1.67,4.41,4.41,0,0,0-.52-1.09,3.7,3.7,0,0,0-.71-.76,4,4,0,0,0-.8-.48,3.51,3.51,0,0,0-1.48-.33,3.92,3.92,0,0,0-1.58.36,4.22,4.22,0,0,0-1.38.94Z"/><path class="e6101c73-b8d9-4785-8696-f075dadd83e4" d="M1128.31,777.93a12.56,12.56,0,0,0,.06,1.58h-3.51V759.38h3.45v6.51a6.18,6.18,0,0,1,3.75-1.37,4.92,4.92,0,0,1,3.8,1.56,5.94,5.94,0,0,1,1.41,4.14v5.6c0,1.59,0,2.54.07,2.86a1.27,1.27,0,0,0,.19.62l.2.25,0,.06c-.75-.07-1.31-.1-1.66-.1h-1c-.31,0-.71,0-1.22,0V771.4a4.12,4.12,0,0,0-.86-2.87,2.28,2.28,0,0,0-1.76-.71,3.52,3.52,0,0,0-2.89,1.9Z"/><path class="e6101c73-b8d9-4785-8696-f075dadd83e4" d="M1139.94,784.41l.93-.75a12.44,12.44,0,0,0,3.48-5l.65-1.57-5.39-12.27h3.94l3.38,8.5,3.14-8.5h4a18.4,18.4,0,0,0-1.79,3.77l-2.11,5.22q-4.24,10-6.65,11.89Z"/></svg>