<svg id="b05e703b-adce-4885-84dc-6ff6cc9fb0bc" data-name="Layer 1" xmlns="http://www.w3.org/2000/svg" xmlns:xlink="http://www.w3.org/1999/xlink" viewBox="0 0 1080 1080"><defs><style>.a9fe19fe-bbc3-45df-b6d9-4333d9c65c1b{fill:#a3c0f2;stroke:#231f20;stroke-miterlimit:10;}.adfc7cc5-559d-4a33-8818-3ced4bd2be90{fill:#fff9ff;}.abcf64db-8e16-46bf-9d31-d45e459925a0{fill:#4ff9ff;}.adb7ca8c-8e11-46a1-adfc-0a6b3105f370{fill:url(#a2fe13ac-06a5-4b41-ba85-0c95c6da2f39);}</style><linearGradient id="a2fe13ac-06a5-4b41-ba85-0c95c6da2f39" x1="191.51" y1="500.32" x2="284.64" y2="584.17" gradientUnits="userSpaceOnUse"><stop offset="0" stop-color="#4ff9ff"/><stop offset="1" stop-color="#654fff"/></linearGradient></defs><title>Artboard 1</title><rect class="a9fe19fe-bbc3-45df-b6d9-4333d9c65c1b" x="10.01" y="-9.75" width="1106.25" height="1100"/><path class="adfc7cc5-559d-4a33-8818-3ced4bd2be90" d="M689.81,493.29l-13.07,13.07a4,4,0,0,1-5.62,0l-.4-.39a4,4,0,0,1,0-5.63l7-7a4,4,0,0,0,0-5.62l-7-7.05a4,4,0,0,1,0-5.62l.4-.4a4,4,0,0,1,5.62,0l13.07,13.07A4,4,0,0,1,689.81,493.29Z"/><path class="abcf64db-8e16-46bf-9d31-d45e459925a0" d="M391.19,544.19a76.83,76.83,0,0,0-7.9-.32H364v37H346.52V495.63c1.15.09,2.47.15,4,.19l4.72.13c3.23.09,6.58.13,10.07.13q15.67,0,29.94-.51a128,128,0,0,0-.7,15,7.07,7.07,0,0,0,.13,1.53l-.13.19a36.61,36.61,0,0,0-9.43-.95H364v17.52h18.61a50.41,50.41,0,0,0,8.41-.38Z"/><path class="abcf64db-8e16-46bf-9d31-d45e459925a0" d="M405.21,547.88a37.9,37.9,0,0,1,2.39-13.41,33,33,0,0,1,6.85-11.18Q424.2,513,439.74,513t24.6,9.75q8.73,9.3,8.73,24.15t-9,24.6q-9.49,10.32-25.16,10.32-16.19,0-25.36-10.13Q405.21,562.41,405.21,547.88Zm15.48-.38a23,23,0,0,0,1.34,7.77,18.49,18.49,0,0,0,3.82,6.44,17.94,17.94,0,0,0,13.89,5.8q8,0,12.56-5.67,4.45-5.49,4.46-14.28t-4.59-14.4q-4.91-5.86-13.45-5.86t-13.57,6.25A22,22,0,0,0,420.69,547.5Z"/><path class="abcf64db-8e16-46bf-9d31-d45e459925a0" d="M501.36,573.69a60.82,60.82,0,0,0,.25,7.13H485.75V514.24h15.61v4.9q5.42-6.18,11.37-6.18a24.43,24.43,0,0,1,9.4,1.47L521,531.57l-.25.19q-2.24-3.94-9.24-4a10,10,0,0,0-5.45,1.82,15.71,15.71,0,0,0-4.68,4.81Z"/><path class="adfc7cc5-559d-4a33-8818-3ced4bd2be90" d="M562.08,581.21q-3.06-.39-15.74-.39h-2V510.35H531.69q-5.61,0-6.63.57a15.07,15.07,0,0,0-1.59,1l-.19-.06V495.57l.19-.19q2.1.69,11.34.7h40q5.61,0,6.63-.57a15.07,15.07,0,0,0,1.59-1l.19.06v16.31l-.19.19q-2.1-.69-11.34-.7h-9.56Z"/><path class="adfc7cc5-559d-4a33-8818-3ced4bd2be90" d="M612.55,573.69a60.82,60.82,0,0,0,.25,7.13H596.94V489.71h15.61v29.5q8.22-6.24,17-6.25,10.69,0,17.2,7.08t6.37,18.73v25.36q0,10.77.32,12.93a6.24,6.24,0,0,0,.86,2.81c.36.42.67.81.93,1.15l-.13.25q-5.16-.45-7.52-.45H643c-1.41,0-3.25.07-5.55.2v-36.9q0-8.79-3.88-13a10.31,10.31,0,0,0-8-3.18q-7.46,0-13.06,8.6Z"/><path class="adfc7cc5-559d-4a33-8818-3ced4bd2be90" d="M686,573.69a60.82,60.82,0,0,0,.25,7.13H670.09V514.24H686Z"/><path class="adfc7cc5-559d-4a33-8818-3ced4bd2be90" d="M720.74,572.67a46.09,46.09,0,0,0,.51,8.15h-16V514.24h15.48v5.67q8.41-6.95,18-6.95,10.45,0,16.7,7.11t6.24,18.7v25.36q0,10.77.32,12.93a6.24,6.24,0,0,0,.86,2.81c.36.42.67.81.92,1.15l-.13.25q-5.16-.45-7.51-.45h-4.46c-1.36,0-3.19.07-5.48.2V546.29q0-18.67-11.35-18.67-8.4,0-14.08,8.66Z"/><path class="adfc7cc5-559d-4a33-8818-3ced4bd2be90" d="M796.82,572.41a59.18,59.18,0,0,0,.45,8.41H781.21V489.71h15.61v55.81l29.12-31.28h18.93l-25.11,26.44,14.34,19.56q4.65,7.39,7,10.84l4.2,5.92a49.67,49.67,0,0,0,3.19,3.82H838.43a41.88,41.88,0,0,0-9.62,1l-19.88-29.06L796.82,565.6Z"/><path class="adb7ca8c-8e11-46a1-adfc-0a6b3105f370" d="M310.84,555,250.7,615.17a20.2,20.2,0,0,1-28.56,0h0a20.19,20.19,0,0,1,0-28.55L253.71,555a20.19,20.19,0,0,0,0-28.56L222.14,494.9a20.19,20.19,0,0,1,0-28.55h0a20.19,20.19,0,0,1,28.56,0l60.14,60.13A20.19,20.19,0,0,1,310.84,555Z"/></svg>