<svg id="a8075fa3-0cc1-4041-b97d-6fdab35dfd4d" data-name="Layer 1" xmlns="http://www.w3.org/2000/svg" xmlns:xlink="http://www.w3.org/1999/xlink" viewBox="0 0 2160 1080"><defs><style>.e02575a7-cde8-4c36-a03a-d552c21e8c9b{fill:#f18b93;}.b3bb428f-6fdf-405f-b705-a8489b59477b{fill:#fff9ff;}.bcbf3bc2-c7d7-4ebe-a0ed-868f80e4d0e3{fill:#4ff9ff;}.a21ad641-36bc-4c12-abdc-aee1cd94cae7{fill:url(#e36c9f14-bdd0-4121-b859-ac16026a3289);}</style><linearGradient id="e36c9f14-bdd0-4121-b859-ac16026a3289" x1="563.86" y1="478.77" x2="704.88" y2="605.75" gradientUnits="userSpaceOnUse"><stop offset="0" stop-color="#4ff9ff"/><stop offset="1" stop-color="#654fff"/></linearGradient></defs><title>Artboard 1 copy</title><rect class="e02575a7-cde8-4c36-a03a-d552c21e8c9b" x="-14.5" y="-9.75" width="2204.52" height="1100"/><path class="b3bb428f-6fdf-405f-b705-a8489b59477b" d="M1318.42,468.14l-19.79,19.78a6,6,0,0,1-8.52,0l-.59-.59a6,6,0,0,1,0-8.52l10.67-10.67a6,6,0,0,0,0-8.52L1289.52,449a6,6,0,0,1,0-8.52l.59-.6a6,6,0,0,1,8.52,0l19.79,19.79A6,6,0,0,1,1318.42,468.14Z"/><path class="bcbf3bc2-c7d7-4ebe-a0ed-868f80e4d0e3" d="M866.23,545.2q-4.63-.48-12-.48H825v56H798.59v-129c1.73.13,3.73.22,6,.29l7.14.19q7.34.19,15.25.19,23.73,0,45.34-.77a193.16,193.16,0,0,0-1.06,22.68,10.1,10.1,0,0,0,.2,2.31l-.2.29A55.15,55.15,0,0,0,857,495.41H825V522H853.2q10.62,0,12.74-.58Z"/><path class="bcbf3bc2-c7d7-4ebe-a0ed-868f80e4d0e3" d="M887.45,550.8a57.63,57.63,0,0,1,3.62-20.31,50.32,50.32,0,0,1,10.37-16.94q14.77-15.63,38.31-15.63T977,512.69q13.23,14.09,13.22,36.56t-13.6,37.25q-14.39,15.63-38.11,15.63-24.51,0-38.41-15.34Q887.46,572.8,887.45,550.8Zm23.45-.58a34.85,34.85,0,0,0,2,11.77,27.86,27.86,0,0,0,5.79,9.75q8,8.78,21,8.78,12.06,0,19-8.59,6.75-8.29,6.75-21.61,0-13.52-6.94-21.81-7.44-8.88-20.36-8.88-13.12,0-20.56,9.46Q910.9,537.78,910.9,550.22Z"/><path class="bcbf3bc2-c7d7-4ebe-a0ed-868f80e4d0e3" d="M1033.05,589.88a90.67,90.67,0,0,0,.39,10.8h-24V499.85h23.64v7.43q8.21-9.36,17.23-9.36t14.23,2.22l-1.74,26-.38.29q-3.37-6-14-6a15,15,0,0,0-8.25,2.75,24.13,24.13,0,0,0-7.1,7.29Z"/><path class="b3bb428f-6fdf-405f-b705-a8489b59477b" d="M1125,601.26q-4.63-.57-23.83-.58h-3.09V494H1079q-8.49,0-10,.86a20.16,20.16,0,0,0-2.41,1.55l-.29-.1v-24.7l.29-.29q3.18,1.06,17.17,1.06h60.5q8.49,0,10-.87a19.3,19.3,0,0,0,2.42-1.54l.29.1v24.7l-.29.29q-3.2-1.06-17.18-1.06H1125Z"/><path class="b3bb428f-6fdf-405f-b705-a8489b59477b" d="M1201.43,589.88a93.84,93.84,0,0,0,.38,10.8h-24v-138h23.64v44.68q12.43-9.47,25.66-9.46,16.22,0,26.05,10.71,9.66,10.71,9.65,28.37v38.4q0,16.3.49,19.59c.32,2.19.75,3.6,1.3,4.25s1,1.22,1.4,1.73l-.2.39q-7.82-.68-11.38-.68h-6.85q-3.18,0-8.4.29V545.11q0-13.32-5.88-19.69-4.44-4.81-12.06-4.82-11.3,0-19.78,13Z"/><path class="b3bb428f-6fdf-405f-b705-a8489b59477b" d="M1312.68,589.88a93.84,93.84,0,0,0,.38,10.8h-24.5V499.85h24.12Z"/><path class="b3bb428f-6fdf-405f-b705-a8489b59477b" d="M1365.26,588.33a69.21,69.21,0,0,0,.78,12.35h-24.22V499.85h23.44v8.59q12.75-10.51,27.21-10.52,15.83,0,25.28,10.76t9.46,28.32v38.4q0,16.3.48,19.59c.32,2.19.76,3.6,1.3,4.25s1,1.22,1.4,1.73l-.19.39q-7.82-.68-11.38-.68h-6.76c-2.06,0-4.82.1-8.3.29V548.39q0-28.27-17.17-28.28-12.73,0-21.33,13.13Z"/><path class="b3bb428f-6fdf-405f-b705-a8489b59477b" d="M1480.47,588a90.42,90.42,0,0,0,.68,12.73h-24.32v-138h23.64v84.53l44.1-47.38h28.65l-38,40,21.71,29.63q7,11.19,10.61,16.4l6.37,9q2.89,3.76,4.82,5.79h-15.24a63.38,63.38,0,0,0-14.57,1.45l-30.11-44-18.33,19.49Z"/><path class="a21ad641-36bc-4c12-abdc-aee1cd94cae7" d="M744.56,561.62l-91.08,91.07a30.58,30.58,0,0,1-43.24,0h0a30.58,30.58,0,0,1,0-43.24l47.82-47.82a30.59,30.59,0,0,0,0-43.24l-47.81-47.81a30.58,30.58,0,0,1,0-43.24h0a30.58,30.58,0,0,1,43.24,0l91.08,91.06A30.59,30.59,0,0,1,744.56,561.62Z"/></svg>