<svg id="e64910be-beb7-46d7-b228-b79d606ddfd8" data-name="Layer 1" xmlns="http://www.w3.org/2000/svg" viewBox="0 0 1080 1080"><defs><style>.a01f0488-e849-4cca-922a-f7e9cfdbc86a{fill:#530aff;}.f0fbc347-d75f-43fc-a2cc-d8f25a2b15c7{fill:#fff;}.b0d425aa-3d58-4c4a-a5c1-eea0c5c50453{opacity:0.17;}.eb12f042-731a-4d48-96c3-e063087e64b5{opacity:0.5;}.ac0a5693-2855-46ed-80f0-044a344906e9{opacity:0.15;}</style></defs><title>Artboard 1 copy 3</title><rect class="a01f0488-e849-4cca-922a-f7e9cfdbc86a" x="-13.12" y="-10" width="1106.25" height="1100"/><path class="f0fbc347-d75f-43fc-a2cc-d8f25a2b15c7" d="M267.17,733.68a34.62,34.62,0,0,0-7.05-10.88,33.86,33.86,0,0,0-10.4-7.4,30.95,30.95,0,0,0-25.15,0,34,34,0,0,0-10.5,7.4,34.55,34.55,0,0,0-7.15,10.88,33.59,33.59,0,0,0-2.58,13.12A34.63,34.63,0,0,0,206.87,760a34.59,34.59,0,0,0,7,11,33.68,33.68,0,0,0,10.4,7.45,31.51,31.51,0,0,0,25.48,0,33.24,33.24,0,0,0,10.4-7.34,34,34,0,0,0,7-10.93,30.5,30.5,0,0,0,1.18-3.45,35.87,35.87,0,0,0,1.35-10A34.11,34.11,0,0,0,267.17,733.68ZM255.06,758.3a23.07,23.07,0,0,1-7.49,8.45,18.45,18.45,0,0,1-10.5,3.14,18.73,18.73,0,0,1-10.5-3.14,22.77,22.77,0,0,1-7.58-8.4,23.07,23.07,0,0,1-1.44-3.26,24.61,24.61,0,0,1-1.38-8.29A23.37,23.37,0,0,1,219,735.49a22.85,22.85,0,0,1,7.58-8.35,19.12,19.12,0,0,1,21,0,22.74,22.74,0,0,1,7.54,8.26,23.57,23.57,0,0,1,2.81,11.45,24.38,24.38,0,0,1-1.88,9.54C255.71,757,255.4,757.65,255.06,758.3Z"/><path class="f0fbc347-d75f-43fc-a2cc-d8f25a2b15c7" d="M306.92,732.68v28.44a8.45,8.45,0,0,1-1.52,5.24,9.15,9.15,0,0,1-3.82,3,11.54,11.54,0,0,1-4.49.95,12,12,0,0,1-7.3-2.14c-1.94-1.43-2.9-3.77-2.9-7V732.68H275.43v28.44q0,10.49,5.92,15.83a15.73,15.73,0,0,0,6.15,3.2,28,28,0,0,0,7.83,1.1,21.76,21.76,0,0,0,7.25-1.14,7.27,7.27,0,0,0,4.34-3.45v3.73h11.45V732.68Z"/><path class="f0fbc347-d75f-43fc-a2cc-d8f25a2b15c7" d="M348.19,732.48a11.74,11.74,0,0,0-8.92,3.73v-3.53H327.92v47.71h11.35V749.66a4.5,4.5,0,0,1,2.11-3.91,12.19,12.19,0,0,1,5.67-2.1,15.38,15.38,0,0,1,7.11.76l5.53-9.82A40.84,40.84,0,0,0,348.19,732.48Z"/><path class="f0fbc347-d75f-43fc-a2cc-d8f25a2b15c7" d="M404.83,743.6a20,20,0,0,0-8.16-8.54,24.52,24.52,0,0,0-12-2.86q-10.41,0-16.75,6.44t-6.35,19c0,.77,0,1.53.08,2.27a24.92,24.92,0,0,0,2.83,10.27,21,21,0,0,0,8.11,8.4,25.52,25.52,0,0,0,24.05,0,21.28,21.28,0,0,0,8.16-8.4,24.12,24.12,0,0,0,2.73-8.7,31.82,31.82,0,0,0,.23-3.84Q407.79,749.28,404.83,743.6ZM395.43,764a11.72,11.72,0,0,1-4.1,4.81,11.38,11.38,0,0,1-6.63,1.87,11.52,11.52,0,0,1-6.54-1.82,11.7,11.7,0,0,1-4.15-4.77,13.62,13.62,0,0,1-1.2-3.74,14.43,14.43,0,0,1-.24-2.65,16.4,16.4,0,0,1,3.21-10.41,10.66,10.66,0,0,1,8.92-4.1,10.5,10.5,0,0,1,9,4.25,17,17,0,0,1,3.1,10.26,14.76,14.76,0,0,1-1.39,6.3Z"/><path class="f0fbc347-d75f-43fc-a2cc-d8f25a2b15c7" d="M456.08,743.75a20.14,20.14,0,0,0-7-8.55,19.68,19.68,0,0,0-11.4-3.19,33.42,33.42,0,0,0-5.06.47,10.91,10.91,0,0,0-4.77,1.82V713.59H416.38v66.8h11.45v-3.82a11.41,11.41,0,0,0,5,3,23.29,23.29,0,0,0,7,1.15,15.2,15.2,0,0,0,6.49-1.2,17.14,17.14,0,0,0,6.88-5.58,25.39,25.39,0,0,0,3.95-8.45c.17-.62.33-1.26.46-1.9a37.91,37.91,0,0,0,.83-7.93A29.1,29.1,0,0,0,456.08,743.75Zm-11.83,21.7a9.94,9.94,0,0,1-7,4.11q-4.34.53-9.4-2.53V745.08a17.54,17.54,0,0,1,9.3-1.33,11.61,11.61,0,0,1,7.07,3.67q2.71,3,2.71,8.25a18.68,18.68,0,0,1-1.28,7.33A10.79,10.79,0,0,1,444.25,765.45Z"/><path class="f0fbc347-d75f-43fc-a2cc-d8f25a2b15c7" d="M507.42,743.6a20.07,20.07,0,0,0-8.16-8.54,24.54,24.54,0,0,0-12-2.86q-10.39,0-16.74,6.44t-6.35,19a30.55,30.55,0,0,0,.64,6.34,23.4,23.4,0,0,0,2.27,6.2,21,21,0,0,0,8.11,8.4,25.52,25.52,0,0,0,24.05,0,21.34,21.34,0,0,0,8.16-8.4,21.88,21.88,0,0,0,1.35-3,27.33,27.33,0,0,0,1.6-9.59Q510.37,749.28,507.42,743.6Zm-13.51,25.19a11.38,11.38,0,0,1-6.63,1.87,11.52,11.52,0,0,1-6.54-1.82,11.67,11.67,0,0,1-3.76-4l-.39-.75a14.52,14.52,0,0,1-1.43-6.39,16.46,16.46,0,0,1,3.2-10.41,10.67,10.67,0,0,1,8.92-4.1q5.91,0,9,4.25a16.9,16.9,0,0,1,3.1,10.26A14.71,14.71,0,0,1,498,764a11.79,11.79,0,0,1-4.11,4.81Z"/><path class="f0fbc347-d75f-43fc-a2cc-d8f25a2b15c7" d="M539.24,732.48a11.73,11.73,0,0,0-8.92,3.73v-3.53H519v47.71h11.36V749.66a4.47,4.47,0,0,1,2.1-3.91,12.18,12.18,0,0,1,5.68-2.1,15.38,15.38,0,0,1,7.11.76l5.53-9.82A40.84,40.84,0,0,0,539.24,732.48Z"/><path class="f0fbc347-d75f-43fc-a2cc-d8f25a2b15c7" d="M595.87,743.6a20,20,0,0,0-8.15-8.54,24.54,24.54,0,0,0-12-2.86q-10.4,0-16.75,6.44t-6.34,19A26.53,26.53,0,0,0,555,769c.19.41.39.83.61,1.22a21,21,0,0,0,8.11,8.4,25.52,25.52,0,0,0,24.05,0,21.25,21.25,0,0,0,8.15-8.4,22.44,22.44,0,0,0,1.49-3.31,27.45,27.45,0,0,0,1.48-9.23Q598.84,749.28,595.87,743.6Zm-13.5,25.19a12.66,12.66,0,0,1-13.16.05,2.83,2.83,0,0,1-.28-.2,11.63,11.63,0,0,1-3.88-4.57,14.52,14.52,0,0,1-1.43-6.39,16.46,16.46,0,0,1,3.2-10.41,10.68,10.68,0,0,1,8.92-4.1q5.93,0,9,4.25a17,17,0,0,1,3.1,10.26,14.71,14.71,0,0,1-1.38,6.3,11.59,11.59,0,0,1-3,3.92A10.06,10.06,0,0,1,582.37,768.79Z"/><path class="f0fbc347-d75f-43fc-a2cc-d8f25a2b15c7" d="M638.18,763a10.74,10.74,0,0,0-1.75-4.31,13.75,13.75,0,0,0-5-4.34,27.06,27.06,0,0,0-4.82-2.05q-2.52-.81-4.67-1.58a12.22,12.22,0,0,1-3.49-1.81,3.37,3.37,0,0,1-1.34-2.77,3.27,3.27,0,0,1,1.63-3.1,7.63,7.63,0,0,1,3.82-.9,14.47,14.47,0,0,1,4.34.71,9.78,9.78,0,0,1,3.77,2.15L638,738.5a17.53,17.53,0,0,0-6.39-4.53,22.27,22.27,0,0,0-9.07-1.77,19.52,19.52,0,0,0-9.35,2.15,15.22,15.22,0,0,0-6.06,5.58,11.16,11.16,0,0,0-1.53,7.39,12.71,12.71,0,0,0,4.25,7.49,17.59,17.59,0,0,0,5.25,3.34,51.54,51.54,0,0,0,5.77,2.06A26.43,26.43,0,0,1,625.6,762a4.3,4.3,0,0,1,2.12,2.06,3,3,0,0,1,.22.66,7.53,7.53,0,0,1,0,2.43,4,4,0,0,1-1.34,2.53,5,5,0,0,1-2.14,1.1,10.9,10.9,0,0,1-2.82.34q-5.34,0-10.4-4.39l-6.68,7.15a23.92,23.92,0,0,0,8.06,5.4,24.27,24.27,0,0,0,9,1.76,19.74,19.74,0,0,0,8.35-1.76,15.17,15.17,0,0,0,6.16-5.11,14,14,0,0,0,2.34-8.21A16.48,16.48,0,0,0,638.18,763Z"/><path class="f0fbc347-d75f-43fc-a2cc-d8f25a2b15c7" d="M726.93,755.17a14.72,14.72,0,0,0-1.94-4.89,17.63,17.63,0,0,0-7.16-6.2,61.82,61.82,0,0,0-11.35-4.15c-2.42-.77-4.53-1.46-6.35-2.1a11.06,11.06,0,0,1-4.25-2.48,5.53,5.53,0,0,1-1.43-4.3,5.44,5.44,0,0,1,1.72-4,9.47,9.47,0,0,1,4.06-2.1,18.19,18.19,0,0,1,5.1-.52,23.58,23.58,0,0,1,6.68,1.15,34.4,34.4,0,0,1,6,2.57l8.11-8.4a39.22,39.22,0,0,0-11-5.2A38.67,38.67,0,0,0,704.57,713a27.84,27.84,0,0,0-10.26,1.81,18.39,18.39,0,0,0-7.64,5.49,17.58,17.58,0,0,0-3.67,9.21c-.51,4.7.2,8.46,2.1,11.26a19.81,19.81,0,0,0,8.83,6.77,107.38,107.38,0,0,0,14.46,4.87,12.7,12.7,0,0,1,5.43,3.1,4.42,4.42,0,0,1,.47.5,6.76,6.76,0,0,1,1.73,4.61,7.92,7.92,0,0,1-3.1,6.24,11.31,11.31,0,0,1-7.59,2.63,18.62,18.62,0,0,1-7.58-1.81,22,22,0,0,1-6.92-4.77l-8.49,8.21a30.79,30.79,0,0,0,6.44,5.19,34.24,34.24,0,0,0,8.11,3.68,29.2,29.2,0,0,0,8.63,1.33,22.39,22.39,0,0,0,11.07-2.76,21.78,21.78,0,0,0,7.92-7.44,19.26,19.26,0,0,0,3-10.5A24.86,24.86,0,0,0,726.93,755.17Z"/><path class="f0fbc347-d75f-43fc-a2cc-d8f25a2b15c7" d="M779.65,752.32a25,25,0,0,0-2.56-7.62,23.88,23.88,0,0,0-7.82-8.78,21,21,0,0,0-10.59-3.58,19.32,19.32,0,0,0-11.17,2.91v-2.57H736.06v66.8h11.45V778.77a10.27,10.27,0,0,0,3.19,1.38,23.38,23.38,0,0,0,4.07.71c1.39.13,2.57.2,3.52.2a20.41,20.41,0,0,0,11-3.3,23.21,23.21,0,0,0,7.82-8.53,24.37,24.37,0,0,0,2.91-11.84A32,32,0,0,0,779.65,752.32Zm-14.11,13.81a11.9,11.9,0,0,1-7.72,3.86,19,19,0,0,1-10.31-2V746a16.19,16.19,0,0,1,10-2.68,11.51,11.51,0,0,1,7.87,4.11,12.39,12.39,0,0,1,2.62,5.38,19.5,19.5,0,0,1,.49,4.54A12.58,12.58,0,0,1,765.54,766.13Z"/><path class="f0fbc347-d75f-43fc-a2cc-d8f25a2b15c7" d="M832.3,751.76c0-.49-.12-1-.2-1.44a25,25,0,0,0-1.67-6.1q-5.14-11.93-20.6-12.12a24.37,24.37,0,0,0-12.27,2.77,19.77,19.77,0,0,0-8,8.11,24.34,24.34,0,0,0-2.65,9,32.28,32.28,0,0,0-.16,3.3q0,12.42,6.06,19.18T811,781.25a32.46,32.46,0,0,0,10.64-1.86,34.18,34.18,0,0,0,10.64-6.25l-6.3-8.68a23.46,23.46,0,0,1-8,4.53,21.82,21.82,0,0,1-8.63,1.14,12.58,12.58,0,0,1-7.06-2.62,9,9,0,0,1-3.25-6.59h33.4A58.25,58.25,0,0,0,832.3,751.76ZM799,752.9a9.57,9.57,0,0,1,.11-1.41,10.22,10.22,0,0,1,2.9-5.55q3-3.15,8.82-3.15c3.82,0,6.73,1,8.74,3.1a10.33,10.33,0,0,1,2.73,4.76,8.89,8.89,0,0,1,.27,2.25Z"/><path class="f0fbc347-d75f-43fc-a2cc-d8f25a2b15c7" d="M841.31,713.59v66.8h11.45v-66.8Z"/><path class="f0fbc347-d75f-43fc-a2cc-d8f25a2b15c7" d="M864.21,713.59v66.8h11.45v-66.8Z"/><g class="b0d425aa-3d58-4c4a-a5c1-eea0c5c50453"><path d="M268.35,756.76a30.5,30.5,0,0,1-1.18,3.45,34,34,0,0,1-7,10.93,33.24,33.24,0,0,1-10.4,7.34,31.51,31.51,0,0,1-25.48,0,33.68,33.68,0,0,1-10.4-7.45,34.59,34.59,0,0,1-7-11,36.1,36.1,0,0,1-1.52-4.69c4.07-.23,8.17-.28,12.2-.24a23.07,23.07,0,0,0,1.44,3.26,22.77,22.77,0,0,0,7.58,8.4,18.73,18.73,0,0,0,10.5,3.14,18.45,18.45,0,0,0,10.5-3.14,23.07,23.07,0,0,0,7.49-8.45c.34-.65.65-1.3.93-2Z"/></g><g class="b0d425aa-3d58-4c4a-a5c1-eea0c5c50453"><path d="M318.37,758.47v21.92H306.92v-3.73a7.27,7.27,0,0,1-4.34,3.45,21.76,21.76,0,0,1-7.25,1.14,28,28,0,0,1-7.83-1.1,15.73,15.73,0,0,1-6.15-3.2q-5.93-5.34-5.92-15.83V757l11.46.39v3.73c0,3.24,1,5.58,2.9,7a12,12,0,0,0,7.3,2.14,11.54,11.54,0,0,0,4.49-.95,9.15,9.15,0,0,0,3.82-3,8.45,8.45,0,0,0,1.52-5.24v-3Z"/></g><g class="b0d425aa-3d58-4c4a-a5c1-eea0c5c50453"><path d="M327.92,758.8l11.35.39v21.2H327.92Z"/></g><g class="b0d425aa-3d58-4c4a-a5c1-eea0c5c50453"><path d="M407.56,761.52a24.12,24.12,0,0,1-2.73,8.7,21.28,21.28,0,0,1-8.16,8.4,25.52,25.52,0,0,1-24.05,0,21,21,0,0,1-8.11-8.4A24.92,24.92,0,0,1,361.68,760l11.13.38a13.62,13.62,0,0,0,1.2,3.74,11.7,11.7,0,0,0,4.15,4.77,11.52,11.52,0,0,0,6.54,1.82,11.38,11.38,0,0,0,6.63-1.87,11.72,11.72,0,0,0,4.1-4.81,14.72,14.72,0,0,0,1-2.84l5.73.19Z"/></g><g class="b0d425aa-3d58-4c4a-a5c1-eea0c5c50453"><path d="M457.63,763.6c-.13.64-.29,1.28-.46,1.9a25.39,25.39,0,0,1-3.95,8.45,17.14,17.14,0,0,1-6.88,5.58,15.2,15.2,0,0,1-6.49,1.2,23.29,23.29,0,0,1-7-1.15,11.41,11.41,0,0,1-5-3v3.82H416.38V761.82l11.45.42V767q5.06,3.06,9.4,2.53a9.94,9.94,0,0,0,7-4.11,10.79,10.79,0,0,0,1.38-2.45Z"/></g><g class="b0d425aa-3d58-4c4a-a5c1-eea0c5c50453"><path d="M508.77,767.27a21.88,21.88,0,0,1-1.35,3,21.34,21.34,0,0,1-8.16,8.4,25.52,25.52,0,0,1-24.05,0,21,21,0,0,1-8.11-8.4,23.4,23.4,0,0,1-2.27-6.2q5.61.35,11.21.73l.94.07a11.67,11.67,0,0,0,3.76,4,11.52,11.52,0,0,0,6.54,1.82,11.38,11.38,0,0,0,6.63-1.87,11.8,11.8,0,0,0,2.66-2.46Q502.67,766.81,508.77,767.27Z"/></g><g class="b0d425aa-3d58-4c4a-a5c1-eea0c5c50453"><path d="M519,768c3.78.24,7.57.45,11.36.61v11.81H519Z"/></g><g class="b0d425aa-3d58-4c4a-a5c1-eea0c5c50453"><path d="M597.36,766.91a22.44,22.44,0,0,1-1.49,3.31,21.25,21.25,0,0,1-8.15,8.4,25.52,25.52,0,0,1-24.05,0,21,21,0,0,1-8.11-8.4c-.22-.39-.42-.81-.61-1.22q7-.07,14-.36a2.83,2.83,0,0,0,.28.2,12.66,12.66,0,0,0,13.16-.05,10.06,10.06,0,0,0,1.15-.89Q590.43,767.47,597.36,766.91Z"/></g><g class="b0d425aa-3d58-4c4a-a5c1-eea0c5c50453"><path d="M638.18,763a16.48,16.48,0,0,1,.26,3,14,14,0,0,1-2.34,8.21,15.17,15.17,0,0,1-6.16,5.11,19.74,19.74,0,0,1-8.35,1.76,24.27,24.27,0,0,1-9-1.76,23.92,23.92,0,0,1-8.06-5.4l6.68-7.15q5.06,4.38,10.4,4.39a10.9,10.9,0,0,0,2.82-.34,5,5,0,0,0,2.14-1.1,4,4,0,0,0,1.34-2.53,7.53,7.53,0,0,0,0-2.43,3,3,0,0,0-.22-.66Z"/></g><g class="b0d425aa-3d58-4c4a-a5c1-eea0c5c50453"><path d="M726.93,755.17a24.86,24.86,0,0,1,.54,5.47,19.26,19.26,0,0,1-3,10.5,21.78,21.78,0,0,1-7.92,7.44,22.39,22.39,0,0,1-11.07,2.76,29.2,29.2,0,0,1-8.63-1.33,34.24,34.24,0,0,1-8.11-3.68,30.79,30.79,0,0,1-6.44-5.19l8.49-8.21a22,22,0,0,0,6.92,4.77,18.62,18.62,0,0,0,7.58,1.81,11.31,11.31,0,0,0,7.59-2.63,7.92,7.92,0,0,0,3.1-6.24,6.76,6.76,0,0,0-1.73-4.61C718.51,755.72,722.71,755.44,726.93,755.17Z"/></g><g class="b0d425aa-3d58-4c4a-a5c1-eea0c5c50453"><path d="M780.05,757.39a24.37,24.37,0,0,1-2.91,11.84,23.21,23.21,0,0,1-7.82,8.53,20.41,20.41,0,0,1-11,3.3c-.95,0-2.13-.07-3.52-.2a23.38,23.38,0,0,1-4.07-.71,10.27,10.27,0,0,1-3.19-1.38v20.71H736.06V754.6q5.72-.36,11.45-.68V768a19,19,0,0,0,10.31,2,11.9,11.9,0,0,0,7.72-3.86,12.58,12.58,0,0,0,3-8.74,19.5,19.5,0,0,0-.49-4.54l11.63-.53A32,32,0,0,1,780.05,757.39Z"/></g><g class="b0d425aa-3d58-4c4a-a5c1-eea0c5c50453"><path d="M832.44,760.92H799a9,9,0,0,0,3.25,6.59,12.58,12.58,0,0,0,7.06,2.62A21.82,21.82,0,0,0,818,769a23.46,23.46,0,0,0,8-4.53l6.3,8.68a34.18,34.18,0,0,1-10.64,6.25A32.46,32.46,0,0,1,811,781.25q-12.12,0-18.18-6.78t-6.06-19.18a32.28,32.28,0,0,1,.16-3.3l12.26-.5a9.57,9.57,0,0,0-.11,1.41h23.57a8.89,8.89,0,0,0-.27-2.25l9.76-.33c.08.47.15.95.2,1.44A58.25,58.25,0,0,1,832.44,760.92Z"/></g><g class="b0d425aa-3d58-4c4a-a5c1-eea0c5c50453"><path d="M841.31,750l11.45-.36v30.74H841.31Z"/></g><g class="b0d425aa-3d58-4c4a-a5c1-eea0c5c50453"><path d="M875.66,749v31.43H864.21V749.31Z"/></g><path class="f0fbc347-d75f-43fc-a2cc-d8f25a2b15c7" d="M542.07,661.83l.2,0c-3.5.26-7,.43-10.59.49h0c-1.17,0-2.34,0-3.52,0h-.37c-2.14,0-4.27,0-6.39-.12a183.37,183.37,0,0,1-176.8-183.44c0-94.21,71-171.85,162.39-182.34,4.53-.53,9.12-.88,13.73-1.06,2.48-.1,5-.15,7.44-.15q7.15,0,14.16.53-6.84.52-13.53,1.54c-2.85.43-5.69.93-8.49,1.49a183.59,183.59,0,0,0,10.93,361.83Q536.58,661.41,542.07,661.83Z"/><path class="eb12f042-731a-4d48-96c3-e063087e64b5" d="M711.31,478.82a183.38,183.38,0,0,1-169.24,183c-3.43.27-6.9.43-10.39.51h0c-1.17,0-2.34,0-3.52,0h-.37c-2.16,0-4.33,0-6.48-.12A183.64,183.64,0,0,1,350.73,527.55c.37.9.74,1.8,1.12,2.68A183.61,183.61,0,0,0,697.7,409.36,183,183,0,0,1,711.31,478.82Z"/><path class="f0fbc347-d75f-43fc-a2cc-d8f25a2b15c7" d="M727.33,480.34A183.57,183.57,0,0,1,560.05,663.18q-8.06.72-16.28.72a184.65,184.65,0,0,1-23.53-1.5c.34,0,.68-.08,1-.14h.09c3.31-.44,6.59-1,9.83-1.6a183.59,183.59,0,0,0,75.33-327.42,47.06,47.06,0,0,1-70.79-21.43A18.35,18.35,0,0,0,521.47,306a19.34,19.34,0,0,1-.8-2.65,18.32,18.32,0,0,1-.42-4.51c0-.18,0-.37,0-.55h0c0-.53.08-1,.16-1.57s.14-.86.23-1.29a18.45,18.45,0,0,1,8.93-12.05,18.32,18.32,0,0,0,14.67,3.14,47,47,0,0,1,66.34,22.82A183.65,183.65,0,0,1,727.33,480.34Z"/><path class="ac0a5693-2855-46ed-80f0-044a344906e9" d="M696.51,483.22c0-96.92-73.85-176.6-168.34-185.83-2.56-.25-5.15-.44-7.74-.58a14.16,14.16,0,0,0-.15,1.46h0l0,.55a18.32,18.32,0,0,0,.42,4.51,19.34,19.34,0,0,0,.8,2.65,18.35,18.35,0,0,1,14.25,5.82,47.05,47.05,0,0,0,43.83,29.92,45.66,45.66,0,0,0,5-.27,46.73,46.73,0,0,0,21.39-8.16l.23.17.35-.23a183.59,183.59,0,0,1-75.33,327.42c-3.24.62-6.52,1.16-9.83,1.6h-.09c-.34.06-.68.1-1,.14a184.65,184.65,0,0,0,23.53,1.5q8,0,15.76-.68a184.28,184.28,0,0,0,34.56-13.36A186.5,186.5,0,0,0,696.51,483.22Z"/></svg>