<svg id="ab62a804-2ac3-4398-bc27-81c4437f07b2" data-name="Layer 1" xmlns="http://www.w3.org/2000/svg" viewBox="0 0 2160 1080"><defs><style>.ef8a900c-a758-43c8-ac67-777ac9dee0e0{fill:#30343f;}.b1ffe808-0ef8-4609-800c-c4c0786d8b3f{fill:#530aff;}.a44d21c0-27fa-49ab-9b07-c0756fbae0ac{fill:#1e2749;}.aa58f114-c3b6-45cf-94f4-b285e893956d{fill:#e4d9ff;}.a2d67cf5-5b02-4b94-8608-e33fdcea08c7{fill:#fafaff;}.b6eea606-7c66-4618-9d59-830dbde3a5d5{fill:#fff;}.b6e8ac60-494c-4551-992a-47915f596023{opacity:0.17;}.f785593a-52f4-417e-ba3d-fc904b812e5a{opacity:0.5;}.ad677138-c0d1-4865-bd65-0f2ef76849e1{opacity:0.15;}</style></defs><title>Artboard 1 copy 2</title><rect class="ef8a900c-a758-43c8-ac67-777ac9dee0e0" x="-44.72" y="296.03" width="2204.52" height="794.75"/><rect class="b1ffe808-0ef8-4609-800c-c4c0786d8b3f" x="-9.58" y="-6.56" width="2181.33" height="387.56" rx="42.67"/><rect class="b1ffe808-0ef8-4609-800c-c4c0786d8b3f" x="754.15" y="486.33" width="128" height="128" rx="64"/><rect class="a44d21c0-27fa-49ab-9b07-c0756fbae0ac" x="917.71" y="489" width="128" height="128" rx="64"/><rect class="aa58f114-c3b6-45cf-94f4-b285e893956d" x="1088.98" y="489" width="128" height="128" rx="64"/><rect class="a2d67cf5-5b02-4b94-8608-e33fdcea08c7" x="1261.21" y="486.33" width="128" height="128" rx="64"/><path class="aa58f114-c3b6-45cf-94f4-b285e893956d" d="M1045.16,415.79a11.9,11.9,0,0,1,5.3,1.08V422l0,0c-.62-.95-1.93-1.58-3.92-1.89a13.69,13.69,0,0,0-2.23-.15,7.32,7.32,0,0,0-2.64.5,5.47,5.47,0,0,0-2.12,1.44,7.5,7.5,0,0,0-1.61,5.17q0,3.9,2,5.81a6.28,6.28,0,0,0,4.48,1.59,9,9,0,0,0,5.12-1.34,4.6,4.6,0,0,0,1.21-1.2l0,0v4.65a10.38,10.38,0,0,1-6.84,2.11,10.07,10.07,0,0,1-7.94-3.22,11.72,11.72,0,0,1-2.76-8.14q0-5.36,3-8.45T1045.16,415.79Z"/><path class="aa58f114-c3b6-45cf-94f4-b285e893956d" d="M1053.32,429.71a9.8,9.8,0,0,1,.62-3.49,8.59,8.59,0,0,1,1.78-2.92,8.7,8.7,0,0,1,6.6-2.69,8.37,8.37,0,0,1,6.41,2.54,8.87,8.87,0,0,1,2.27,6.3,9.11,9.11,0,0,1-2.34,6.41,9.47,9.47,0,0,1-13.17.05A8.9,8.9,0,0,1,1053.32,429.71Zm4-.1a6.06,6.06,0,0,0,.35,2,4.71,4.71,0,0,0,4.62,3.19,4,4,0,0,0,3.27-1.48,6.52,6.52,0,0,0,0-7.47,4.35,4.35,0,0,0-3.51-1.53,4.26,4.26,0,0,0-3.54,1.63A5.76,5.76,0,0,0,1057.35,429.61Z"/><path class="aa58f114-c3b6-45cf-94f4-b285e893956d" d="M1078.31,436.44a14.37,14.37,0,0,0,.07,1.86h-4.22V413.55h4.15Z"/><path class="aa58f114-c3b6-45cf-94f4-b285e893956d" d="M1081.71,429.71a9.81,9.81,0,0,1,.63-3.49,8.48,8.48,0,0,1,8.37-5.61,8.38,8.38,0,0,1,6.42,2.54,8.87,8.87,0,0,1,2.27,6.3,9.11,9.11,0,0,1-2.34,6.41,9.47,9.47,0,0,1-13.17.05A8.9,8.9,0,0,1,1081.71,429.71Zm4-.1a5.82,5.82,0,0,0,.35,2,4.85,4.85,0,0,0,1,1.68,4.7,4.7,0,0,0,3.62,1.51,4,4,0,0,0,3.28-1.48,5.73,5.73,0,0,0,1.16-3.72,5.63,5.63,0,0,0-1.2-3.75,4.32,4.32,0,0,0-3.5-1.53,4.23,4.23,0,0,0-3.54,1.63A5.76,5.76,0,0,0,1085.75,429.61Z"/><path class="aa58f114-c3b6-45cf-94f4-b285e893956d" d="M1106.1,436.44a14.37,14.37,0,0,0,.07,1.86H1102V420.94h4.07v1.28a4,4,0,0,1,3-1.61,6.52,6.52,0,0,1,2.45.38l-.3,4.47-.07.05a2.52,2.52,0,0,0-2.41-1,2.66,2.66,0,0,0-1.42.47,4.32,4.32,0,0,0-1.22,1.26Z"/><path class="aa58f114-c3b6-45cf-94f4-b285e893956d" d="M1119.39,438.55c-3.12,0-5.48-.57-7.06-1.71,0-.34.06-.71.1-1.13l.15-1.2c.09-.78.14-1.27.17-1.47a1.43,1.43,0,0,1,0-.31s.1.07.26.26a4,4,0,0,0,1,.71,8.29,8.29,0,0,0,1.61.73,12.67,12.67,0,0,0,4.12.68c1.91,0,2.87-.64,2.87-1.91a1,1,0,0,0-.55-.91,9.05,9.05,0,0,0-2.88-.76,12.88,12.88,0,0,1-3.11-.75,6.73,6.73,0,0,1-2-1.2,4.47,4.47,0,0,1-1.41-3.44,4.79,4.79,0,0,1,2-4.07,10.34,10.34,0,0,1,11.36.5c-.08.29-.16.57-.25.83-.25.73-.44,1.26-.56,1.58l-.38,1c0,.09,0,.13,0,.13s-.11-.11-.27-.35a5.3,5.3,0,0,0-3.25-1.59,7.22,7.22,0,0,0-1.4-.13c-2,0-3,.6-3,1.82a1.06,1.06,0,0,0,.63,1,10.07,10.07,0,0,0,3.23.93,11.29,11.29,0,0,1,3.11.8,5.51,5.51,0,0,1,1.71,1.22,4.87,4.87,0,0,1,1.2,3.44,4.59,4.59,0,0,1-1.88,3.8A8.61,8.61,0,0,1,1119.39,438.55Z"/><path class="aa58f114-c3b6-45cf-94f4-b285e893956d" d="M1009.07,779.59c-.45-.05-1.61-.08-3.48-.08h-.45V763.94h-2.78a4.33,4.33,0,0,0-1.47.13,2.76,2.76,0,0,0-.35.22h0v-3.61l0,0a11.64,11.64,0,0,0,2.5.15h8.83a4.78,4.78,0,0,0,1.47-.12,3.56,3.56,0,0,0,.35-.23l0,0v3.6l0,0a11.76,11.76,0,0,0-2.51-.15h-2.11Z"/><path class="aa58f114-c3b6-45cf-94f4-b285e893956d" d="M1015.05,784.41l.93-.75a12.44,12.44,0,0,0,3.48-5l.65-1.57-5.39-12.27h3.94l3.38,8.5,3.14-8.5h4a18.4,18.4,0,0,0-1.79,3.77l-2.11,5.22q-4.23,10-6.64,11.89Z"/><path class="aa58f114-c3b6-45cf-94f4-b285e893956d" d="M1034.5,779.21v4.14a13.33,13.33,0,0,0,0,1.58h-3.5V764.8h3.45v.91a5.67,5.67,0,0,1,3.26-1.19,8.24,8.24,0,0,1,2.78.43,5.73,5.73,0,0,1,2.12,1.35,7.62,7.62,0,0,1,2,5.66,8.22,8.22,0,0,1-1.15,4.35,7.1,7.1,0,0,1-2.68,2.59,6.56,6.56,0,0,1-3.3.86A7.62,7.62,0,0,1,1034.5,779.21Zm0-3.54a4.14,4.14,0,0,0,2.77.9,3.44,3.44,0,0,0,3.6-2.69,6.61,6.61,0,0,0,.29-2,5.81,5.81,0,0,0-.2-1.67,3.8,3.8,0,0,0-.52-1.09,3.44,3.44,0,0,0-.71-.76,4,4,0,0,0-.8-.48,3.51,3.51,0,0,0-1.48-.33,3.88,3.88,0,0,0-1.57.36,4,4,0,0,0-1.38.94Z"/><path class="aa58f114-c3b6-45cf-94f4-b285e893956d" d="M1046.56,772.23a8.43,8.43,0,0,1,.53-3,7.2,7.2,0,0,1,7.1-4.75,7.09,7.09,0,0,1,5.44,2.15,7.51,7.51,0,0,1,1.92,5.34,7.73,7.73,0,0,1-2,5.43,8,8,0,0,1-11.16,0A7.53,7.53,0,0,1,1046.56,772.23Zm3.42-.08a5,5,0,0,0,.3,1.71,4.07,4.07,0,0,0,.84,1.43,4,4,0,0,0,3.07,1.28,3.39,3.39,0,0,0,2.78-1.26,5.53,5.53,0,0,0,0-6.33,3.7,3.7,0,0,0-3-1.3,3.6,3.6,0,0,0-3,1.38A4.89,4.89,0,0,0,1050,772.15Z"/><path class="aa58f114-c3b6-45cf-94f4-b285e893956d" d="M1068.35,775.6a2.12,2.12,0,0,0-.52,1.09,1.33,1.33,0,0,0,.13.62,1.22,1.22,0,0,0,.55.41,12.28,12.28,0,0,0,3,.77,15.18,15.18,0,0,1,3.33.82,6,6,0,0,1,1.95,1.21,5.18,5.18,0,0,1,1.4,3.88,4.58,4.58,0,0,1-1.76,3.85,8.6,8.6,0,0,1-5.23,1.34,9.56,9.56,0,0,1-5.63-1.52,4.86,4.86,0,0,1-2.19-4,4.31,4.31,0,0,1,2.29-4.24,2.58,2.58,0,0,1-.86-1.26,5.54,5.54,0,0,1-.22-1.65,3.27,3.27,0,0,1,1.36-2.65,4.94,4.94,0,0,1-1.59-3.74,5.52,5.52,0,0,1,1.8-4.2,7,7,0,0,1,4.93-1.77,7.49,7.49,0,0,1,3,.59,17.14,17.14,0,0,0,2.69-1.36,7.61,7.61,0,0,0,1.09-.85h.09c.08.23.18.55.29,1l.26,1c.22.84.36,1.41.41,1.72a3.89,3.89,0,0,1-2.19,1,5.23,5.23,0,0,1,.61,2.48,6,6,0,0,1-.45,2.37,5.58,5.58,0,0,1-1.28,1.86,6.58,6.58,0,0,1-4.71,1.73A8.08,8.08,0,0,1,1068.35,775.6Zm3.09,11c2.31,0,3.46-.81,3.46-2.43a2.11,2.11,0,0,0-1.12-1.85,11.84,11.84,0,0,0-4.36-1.26l-.73-.12a3.21,3.21,0,0,0-1.36,1.26,2.82,2.82,0,0,0-.43,1.47,2.17,2.17,0,0,0,.33,1.21,2.81,2.81,0,0,0,.9.88A5.93,5.93,0,0,0,1071.44,786.61ZM1068,769.26a2.86,2.86,0,0,0-.2,1,2.31,2.31,0,0,0,.22,1,2.61,2.61,0,0,0,.64.86,3.56,3.56,0,0,0,2.46.84,2.88,2.88,0,0,0,2-.77,2.73,2.73,0,0,0,.89-2,2.5,2.5,0,0,0-.8-1.92,3.17,3.17,0,0,0-2.21-.73A2.86,2.86,0,0,0,1068,769.26Z"/><path class="aa58f114-c3b6-45cf-94f4-b285e893956d" d="M1084.6,777.93a12.56,12.56,0,0,0,.06,1.58h-3.51V764.8h3.45v1.08a3.39,3.39,0,0,1,2.51-1.36,5.37,5.37,0,0,1,2.08.32l-.25,3.79-.06,0a2.47,2.47,0,0,0-3.24-.47,3.51,3.51,0,0,0-1,1.06Z"/><path class="aa58f114-c3b6-45cf-94f4-b285e893956d" d="M1100.62,778.64a7.75,7.75,0,0,1-3.62,1.08,11.12,11.12,0,0,1-2.77-.3,5.62,5.62,0,0,1-2-.9,4.14,4.14,0,0,1,.37-6.84,10.44,10.44,0,0,1,5.88-1.46h.57l.38,0,.38,0c-.08-1.5-.72-2.38-1.94-2.63a6,6,0,0,0-1.29-.13,7.42,7.42,0,0,0-1.34.12,10.24,10.24,0,0,0-1.27.31,5.11,5.11,0,0,0-2,1l0,0-.43-3.12a11.57,11.57,0,0,1,5.45-1.3q4.59,0,5.87,3.3a6.64,6.64,0,0,1,.41,2.38v5.1a2.28,2.28,0,0,0,1.16,2.23l-2.55,2.33A3.31,3.31,0,0,1,1100.62,778.64Zm-.76-5.82a4.94,4.94,0,0,0-.79-.07h-.56q-3.1,0-4,1.38a1.68,1.68,0,0,0-.25.86,1.84,1.84,0,0,0,.16.8,1.34,1.34,0,0,0,.54.57,4.5,4.5,0,0,0,2.18.42,5.53,5.53,0,0,0,2.7-.69,3.25,3.25,0,0,1,0-.33Z"/><path class="aa58f114-c3b6-45cf-94f4-b285e893956d" d="M1111.36,779.21v4.14a12.56,12.56,0,0,0,.06,1.58h-3.51V764.8h3.45v.91a5.73,5.73,0,0,1,3.27-1.19,8.14,8.14,0,0,1,2.77.43,5.69,5.69,0,0,1,2.13,1.35,7.61,7.61,0,0,1,2,5.66,8.31,8.31,0,0,1-1.14,4.35,7.05,7.05,0,0,1-2.69,2.59,6.49,6.49,0,0,1-3.29.86A7.71,7.71,0,0,1,1111.36,779.21Zm0-3.54a4.18,4.18,0,0,0,2.78.9,3.44,3.44,0,0,0,3.6-2.69,6.61,6.61,0,0,0,.28-2,5.85,5.85,0,0,0-.19-1.67,4.41,4.41,0,0,0-.52-1.09,3.7,3.7,0,0,0-.71-.76,4,4,0,0,0-.8-.48,3.51,3.51,0,0,0-1.48-.33,3.92,3.92,0,0,0-1.58.36,4.22,4.22,0,0,0-1.38.94Z"/><path class="aa58f114-c3b6-45cf-94f4-b285e893956d" d="M1128.31,777.93a12.56,12.56,0,0,0,.06,1.58h-3.51V759.38h3.45v6.51a6.18,6.18,0,0,1,3.75-1.37,4.92,4.92,0,0,1,3.8,1.56,5.94,5.94,0,0,1,1.41,4.14v5.6c0,1.59,0,2.54.07,2.86a1.27,1.27,0,0,0,.19.62l.2.25,0,.06c-.75-.07-1.31-.1-1.66-.1h-1c-.31,0-.71,0-1.22,0V771.4a4.12,4.12,0,0,0-.86-2.87,2.28,2.28,0,0,0-1.76-.71,3.52,3.52,0,0,0-2.89,1.9Z"/><path class="aa58f114-c3b6-45cf-94f4-b285e893956d" d="M1139.94,784.41l.93-.75a12.44,12.44,0,0,0,3.48-5l.65-1.57-5.39-12.27h3.94l3.38,8.5,3.14-8.5h4a18.4,18.4,0,0,0-1.79,3.77l-2.11,5.22q-4.24,10-6.65,11.89Z"/><path class="b6eea606-7c66-4618-9d59-830dbde3a5d5" d="M982.6,177.13a22.46,22.46,0,0,0-4.56-7,22,22,0,0,0-6.74-4.79,20.12,20.12,0,0,0-16.28,0,22,22,0,0,0-6.79,4.79,22.51,22.51,0,0,0-4.64,7,21.84,21.84,0,0,0-1.67,8.5,22.92,22.92,0,0,0,.66,5.52,22,22,0,0,0,1,3,22.58,22.58,0,0,0,4.54,7.1,21.7,21.7,0,0,0,6.73,4.82,20.38,20.38,0,0,0,16.5,0,21.58,21.58,0,0,0,6.74-4.75,22.12,22.12,0,0,0,4.53-7.08,19.58,19.58,0,0,0,.77-2.23,23.58,23.58,0,0,0,.87-6.45A22,22,0,0,0,982.6,177.13Zm-7.84,15.94a14.88,14.88,0,0,1-4.85,5.47,11.89,11.89,0,0,1-6.8,2,12.06,12.06,0,0,1-6.79-2,14.71,14.71,0,0,1-4.91-5.43,14.1,14.1,0,0,1-.93-2.11,15.85,15.85,0,0,1-.9-5.37,15.06,15.06,0,0,1,1.83-7.32,14.8,14.8,0,0,1,4.91-5.41,12.36,12.36,0,0,1,13.56,0,14.77,14.77,0,0,1,4.88,5.34,15.3,15.3,0,0,1,1.82,7.42,15.81,15.81,0,0,1-1.22,6.18Q975.09,192.46,974.76,193.07Z"/><path class="b6eea606-7c66-4618-9d59-830dbde3a5d5" d="M1008.34,176.49V194.9a5.47,5.47,0,0,1-1,3.4,5.93,5.93,0,0,1-2.47,1.91,7.53,7.53,0,0,1-2.9.62,7.73,7.73,0,0,1-4.73-1.39c-1.26-.93-1.88-2.44-1.88-4.54V176.49H988V194.9q0,6.79,3.83,10.25a10.19,10.19,0,0,0,4,2.07,18.09,18.09,0,0,0,5.06.71,14,14,0,0,0,4.7-.74,4.71,4.71,0,0,0,2.81-2.22v2.41h7.41V176.49Z"/><path class="b6eea606-7c66-4618-9d59-830dbde3a5d5" d="M1035.06,176.36a7.59,7.59,0,0,0-5.78,2.41v-2.28h-7.35v30.89h7.35v-19.9a2.92,2.92,0,0,1,1.37-2.53,7.89,7.89,0,0,1,3.67-1.36,10,10,0,0,1,4.6.49l3.58-6.36A26.38,26.38,0,0,0,1035.06,176.36Z"/><path class="b6eea606-7c66-4618-9d59-830dbde3a5d5" d="M1071.73,183.56a13,13,0,0,0-5.28-5.53,15.9,15.9,0,0,0-7.76-1.85,14.55,14.55,0,0,0-10.84,4.17q-4.11,4.17-4.11,12.32c0,.5,0,1,0,1.48a16.06,16.06,0,0,0,1.84,6.65,13.46,13.46,0,0,0,5.25,5.43,16.51,16.51,0,0,0,15.57,0,13.79,13.79,0,0,0,5.28-5.43,15.67,15.67,0,0,0,1.77-5.64,22.21,22.21,0,0,0,.15-2.49A19.65,19.65,0,0,0,1071.73,183.56Zm-6.09,13.19a7.58,7.58,0,0,1-2.66,3.12,7.42,7.42,0,0,1-4.29,1.21,7.5,7.5,0,0,1-4.23-1.18,7.67,7.67,0,0,1-2.69-3.09,9.26,9.26,0,0,1-.78-2.42,9.74,9.74,0,0,1-.15-1.72,10.64,10.64,0,0,1,2.08-6.73,6.89,6.89,0,0,1,5.77-2.66,6.78,6.78,0,0,1,5.84,2.75,10.94,10.94,0,0,1,2,6.64,9.22,9.22,0,0,1-.26,2.24A9.33,9.33,0,0,1,1065.64,196.75Z"/><path class="b6eea606-7c66-4618-9d59-830dbde3a5d5" d="M1104.91,183.65a13.14,13.14,0,0,0-4.55-5.53,12.66,12.66,0,0,0-7.38-2.07,21.88,21.88,0,0,0-3.27.31,7,7,0,0,0-3.09,1.18V164.13h-7.41v43.25h7.41V204.9a7.31,7.31,0,0,0,3.24,1.95,15.37,15.37,0,0,0,4.54.75,9.94,9.94,0,0,0,4.2-.78,11.1,11.1,0,0,0,4.46-3.61,16.7,16.7,0,0,0,2.56-5.47c.11-.41.21-.82.29-1.23a24.3,24.3,0,0,0,.54-5.14A18.9,18.9,0,0,0,1104.91,183.65Zm-7.66,14.06a6.48,6.48,0,0,1-4.55,2.66,9.6,9.6,0,0,1-6.08-1.64V184.52a11.39,11.39,0,0,1,6-.87,7.48,7.48,0,0,1,4.57,2.38,7.65,7.65,0,0,1,1.76,5.34,12.25,12.25,0,0,1-.82,4.75A7.9,7.9,0,0,1,1097.25,197.71Z"/><path class="b6eea606-7c66-4618-9d59-830dbde3a5d5" d="M1138.15,183.56a13,13,0,0,0-5.29-5.53,15.86,15.86,0,0,0-7.75-1.85,14.53,14.53,0,0,0-10.84,4.17q-4.11,4.17-4.11,12.32a19.21,19.21,0,0,0,.42,4.11,15.16,15.16,0,0,0,1.46,4,13.59,13.59,0,0,0,5.25,5.43,15.36,15.36,0,0,0,7.82,2,15.17,15.17,0,0,0,7.75-2,13.75,13.75,0,0,0,5.29-5.43,15.19,15.19,0,0,0,.87-1.92,17.74,17.74,0,0,0,1-6.21A19.66,19.66,0,0,0,1138.15,183.56Zm-8.75,16.31a8.19,8.19,0,0,1-8.52,0,7.58,7.58,0,0,1-2.44-2.6c-.09-.16-.17-.32-.25-.49a9.34,9.34,0,0,1-.93-4.14,10.63,10.63,0,0,1,2.07-6.73,6.92,6.92,0,0,1,5.78-2.66A6.8,6.8,0,0,1,1131,186a10.94,10.94,0,0,1,2,6.64,9.46,9.46,0,0,1-.9,4.08,7.15,7.15,0,0,1-.94,1.52A7.51,7.51,0,0,1,1129.4,199.87Z"/><path class="b6eea606-7c66-4618-9d59-830dbde3a5d5" d="M1158.75,176.36a7.59,7.59,0,0,0-5.78,2.41v-2.28h-7.35v30.89H1153v-19.9a2.91,2.91,0,0,1,1.36-2.53,8,8,0,0,1,3.68-1.36,10,10,0,0,1,4.6.49l3.58-6.36A26.45,26.45,0,0,0,1158.75,176.36Z"/><path class="b6eea606-7c66-4618-9d59-830dbde3a5d5" d="M1195.42,183.56a13,13,0,0,0-5.28-5.53,15.9,15.9,0,0,0-7.76-1.85,14.53,14.53,0,0,0-10.84,4.17q-4.11,4.17-4.11,12.32a17.26,17.26,0,0,0,1.49,7.33c.12.27.26.54.4.8a13.46,13.46,0,0,0,5.25,5.43,16.51,16.51,0,0,0,15.57,0,13.79,13.79,0,0,0,5.28-5.43,16,16,0,0,0,1-2.15,17.78,17.78,0,0,0,1-6A19.65,19.65,0,0,0,1195.42,183.56Zm-8.75,16.31a7.42,7.42,0,0,1-4.29,1.21,7.5,7.5,0,0,1-4.23-1.18l-.18-.13a7.52,7.52,0,0,1-2.51-3,9.34,9.34,0,0,1-.93-4.14,10.64,10.64,0,0,1,2.08-6.73,6.89,6.89,0,0,1,5.77-2.66,6.78,6.78,0,0,1,5.84,2.75,10.94,10.94,0,0,1,2,6.64,9.46,9.46,0,0,1-.9,4.08,7.5,7.5,0,0,1-1.91,2.54A7.13,7.13,0,0,1,1186.67,199.87Z"/><path class="b6eea606-7c66-4618-9d59-830dbde3a5d5" d="M1222.8,196.11a6.83,6.83,0,0,0-1.12-2.79,9.08,9.08,0,0,0-3.21-2.81,19.23,19.23,0,0,0-3.13-1.33c-1.09-.35-2.1-.69-3-1a8.08,8.08,0,0,1-2.26-1.17,2.16,2.16,0,0,1-.87-1.79,2.12,2.12,0,0,1,1.06-2,5,5,0,0,1,2.47-.59,9.24,9.24,0,0,1,2.81.47,6.29,6.29,0,0,1,2.44,1.39l4.69-4.2a11.33,11.33,0,0,0-4.13-2.94,14.5,14.5,0,0,0-5.87-1.14,12.61,12.61,0,0,0-6.06,1.39,9.83,9.83,0,0,0-3.92,3.61,7.2,7.2,0,0,0-1,4.79,8.21,8.21,0,0,0,2.75,4.85,11.45,11.45,0,0,0,3.4,2.16,32.38,32.38,0,0,0,3.74,1.33,17.94,17.94,0,0,1,3.09,1.17,2.77,2.77,0,0,1,1.36,1.34,1.9,1.9,0,0,1,.15.42,5.17,5.17,0,0,1,0,1.58,2.66,2.66,0,0,1-.87,1.64,3.22,3.22,0,0,1-1.39.71,6.93,6.93,0,0,1-1.82.22,10.19,10.19,0,0,1-6.73-2.85l-4.33,4.64a15.52,15.52,0,0,0,11,4.63,12.72,12.72,0,0,0,5.4-1.14,9.79,9.79,0,0,0,4-3.31,9,9,0,0,0,1.51-5.31A9.94,9.94,0,0,0,1222.8,196.11Z"/><path class="b6eea606-7c66-4618-9d59-830dbde3a5d5" d="M1280.27,191.05a9.61,9.61,0,0,0-1.26-3.17,11.43,11.43,0,0,0-4.63-4,39.82,39.82,0,0,0-7.35-2.69c-1.57-.49-2.94-.94-4.11-1.36a7,7,0,0,1-2.75-1.61,3.56,3.56,0,0,1-.93-2.78,3.5,3.5,0,0,1,1.11-2.56,6.06,6.06,0,0,1,2.63-1.36,11.94,11.94,0,0,1,3.3-.34,15.08,15.08,0,0,1,4.33.75,22.42,22.42,0,0,1,3.89,1.66l5.25-5.44a25.44,25.44,0,0,0-7.1-3.36,25.08,25.08,0,0,0-6.86-1,18.08,18.08,0,0,0-6.64,1.17,11.89,11.89,0,0,0-5,3.55,11.44,11.44,0,0,0-2.37,6c-.33,3,.12,5.48,1.36,7.29a12.8,12.8,0,0,0,5.71,4.38,67.39,67.39,0,0,0,9.36,3.15,8.28,8.28,0,0,1,3.52,2c.11.1.21.21.31.32a4.45,4.45,0,0,1,1.11,3,5.15,5.15,0,0,1-2,4,7.33,7.33,0,0,1-4.92,1.7,12.13,12.13,0,0,1-4.91-1.17,14.21,14.21,0,0,1-4.48-3.09l-5.5,5.32a20.85,20.85,0,0,0,4.17,3.36,22.55,22.55,0,0,0,5.26,2.38,18.75,18.75,0,0,0,5.59.86,14.49,14.49,0,0,0,7.16-1.78,14.07,14.07,0,0,0,5.13-4.82,12.45,12.45,0,0,0,1.92-6.8A16.65,16.65,0,0,0,1280.27,191.05Z"/><path class="b6eea606-7c66-4618-9d59-830dbde3a5d5" d="M1314.4,189.2a16.19,16.19,0,0,0-1.65-4.93,15.55,15.55,0,0,0-5.07-5.69,13.56,13.56,0,0,0-6.86-2.31,12.51,12.51,0,0,0-7.23,1.88v-1.66h-7.41v43.25h7.41V206.33a6.52,6.52,0,0,0,2.07.89,14.18,14.18,0,0,0,2.63.46c.9.09,1.66.13,2.28.13a13.21,13.21,0,0,0,7.14-2.13,15,15,0,0,0,5.06-5.53,15.72,15.72,0,0,0,1.89-7.66A20.59,20.59,0,0,0,1314.4,189.2Zm-9.13,8.94a7.7,7.7,0,0,1-5,2.5,12.2,12.2,0,0,1-6.67-1.3v-14.2a10.52,10.52,0,0,1,6.49-1.74,7.47,7.47,0,0,1,5.09,2.66,8,8,0,0,1,1.7,3.49,12.8,12.8,0,0,1,.32,2.94A8.18,8.18,0,0,1,1305.27,198.14Z"/><path class="b6eea606-7c66-4618-9d59-830dbde3a5d5" d="M1348.49,188.84c0-.32-.08-.63-.13-.93a16.87,16.87,0,0,0-1.08-3.95q-3.33-7.72-13.34-7.85a15.88,15.88,0,0,0-8,1.8,12.75,12.75,0,0,0-5.19,5.25,15.6,15.6,0,0,0-1.71,5.83,21.13,21.13,0,0,0-.11,2.14c0,5.36,1.31,9.49,3.93,12.42s6.53,4.38,11.77,4.38a21.14,21.14,0,0,0,6.89-1.2,21.85,21.85,0,0,0,6.88-4l-4.07-5.62a15.41,15.41,0,0,1-5.16,2.94,14.28,14.28,0,0,1-5.59.74,8.23,8.23,0,0,1-4.57-1.7,5.86,5.86,0,0,1-2.11-4.27h21.63A38.25,38.25,0,0,0,1348.49,188.84Zm-21.54.74a6.84,6.84,0,0,1,.07-.91,6.65,6.65,0,0,1,1.88-3.59,9,9,0,0,1,11.37,0,6.69,6.69,0,0,1,1.77,3.08,5.9,5.9,0,0,1,.18,1.46Z"/><path class="b6eea606-7c66-4618-9d59-830dbde3a5d5" d="M1354.32,164.13v43.25h7.42V164.13Z"/><path class="b6eea606-7c66-4618-9d59-830dbde3a5d5" d="M1369.15,164.13v43.25h7.41V164.13Z"/><g class="b6e8ac60-494c-4551-992a-47915f596023"><path d="M983.37,192.08a19.58,19.58,0,0,1-.77,2.23,22.12,22.12,0,0,1-4.53,7.08,21.58,21.58,0,0,1-6.74,4.75,20.38,20.38,0,0,1-16.5,0,21.7,21.7,0,0,1-6.73-4.82,22.58,22.58,0,0,1-4.54-7.1,22,22,0,0,1-1-3c2.64-.14,5.28-.18,7.9-.15a14.1,14.1,0,0,0,.93,2.11,14.71,14.71,0,0,0,4.91,5.43,12.06,12.06,0,0,0,6.79,2,11.89,11.89,0,0,0,6.8-2,14.88,14.88,0,0,0,4.85-5.47q.33-.62.6-1.26Q979.37,191.93,983.37,192.08Z"/></g><g class="b6e8ac60-494c-4551-992a-47915f596023"><path d="M1015.75,193.19v14.19h-7.41V205a4.71,4.71,0,0,1-2.81,2.22,14,14,0,0,1-4.7.74,18.09,18.09,0,0,1-5.06-.71,10.19,10.19,0,0,1-4-2.07Q988,201.7,988,194.9v-2.66l7.42.25v2.41c0,2.1.62,3.61,1.88,4.54a7.73,7.73,0,0,0,4.73,1.39,7.53,7.53,0,0,0,2.9-.62,5.93,5.93,0,0,0,2.47-1.91,5.47,5.47,0,0,0,1-3.4v-2Z"/></g><g class="b6e8ac60-494c-4551-992a-47915f596023"><path d="M1021.93,193.4l7.35.25v13.73h-7.35Z"/></g><g class="b6e8ac60-494c-4551-992a-47915f596023"><path d="M1073.5,195.16a15.67,15.67,0,0,1-1.77,5.64,13.79,13.79,0,0,1-5.28,5.43,16.51,16.51,0,0,1-15.57,0,13.46,13.46,0,0,1-5.25-5.43,16.06,16.06,0,0,1-1.84-6.65l7.2.24a9.26,9.26,0,0,0,.78,2.42,7.67,7.67,0,0,0,2.69,3.09,7.5,7.5,0,0,0,4.23,1.18,7.42,7.42,0,0,0,4.29-1.21,7.58,7.58,0,0,0,2.66-3.12,9.33,9.33,0,0,0,.64-1.84l3.71.13Z"/></g><g class="b6e8ac60-494c-4551-992a-47915f596023"><path d="M1105.91,196.51c-.08.41-.18.82-.29,1.23a16.7,16.7,0,0,1-2.56,5.47,11.1,11.1,0,0,1-4.46,3.61,9.94,9.94,0,0,1-4.2.78,15.37,15.37,0,0,1-4.54-.75,7.31,7.31,0,0,1-3.24-1.95v2.48h-7.41v-12l7.41.27v3.1a9.6,9.6,0,0,0,6.08,1.64,6.48,6.48,0,0,0,4.55-2.66,7.9,7.9,0,0,0,.9-1.59Z"/></g><g class="b6e8ac60-494c-4551-992a-47915f596023"><path d="M1139,198.88a15.19,15.19,0,0,1-.87,1.92,13.75,13.75,0,0,1-5.29,5.43,15.17,15.17,0,0,1-7.75,2,15.36,15.36,0,0,1-7.82-2,13.59,13.59,0,0,1-5.25-5.43,15.16,15.16,0,0,1-1.46-4c2.42.15,4.84.3,7.26.47l.6.05a7.58,7.58,0,0,0,2.44,2.6,7.64,7.64,0,0,0,10.24-1.63C1133.76,198.48,1136.39,198.69,1139,198.88Z"/></g><g class="b6e8ac60-494c-4551-992a-47915f596023"><path d="M1145.62,199.34c2.45.15,4.9.29,7.35.39v7.65h-7.35Z"/></g><g class="b6e8ac60-494c-4551-992a-47915f596023"><path d="M1196.38,198.65a16,16,0,0,1-1,2.15,13.79,13.79,0,0,1-5.28,5.43,16.51,16.51,0,0,1-15.57,0,13.46,13.46,0,0,1-5.25-5.43c-.14-.26-.28-.53-.4-.8q4.53,0,9-.23l.18.13a7.5,7.5,0,0,0,4.23,1.18,7.42,7.42,0,0,0,4.29-1.21,7.13,7.13,0,0,0,.75-.58C1190.4,199.11,1193.39,198.89,1196.38,198.65Z"/></g><g class="b6e8ac60-494c-4551-992a-47915f596023"><path d="M1222.8,196.11a9.94,9.94,0,0,1,.17,1.94,9,9,0,0,1-1.51,5.31,9.79,9.79,0,0,1-4,3.31,12.72,12.72,0,0,1-5.4,1.14,15.52,15.52,0,0,1-11-4.63l4.33-4.64a10.19,10.19,0,0,0,6.73,2.85,6.93,6.93,0,0,0,1.82-.22,3.22,3.22,0,0,0,1.39-.71,2.66,2.66,0,0,0,.87-1.64,5.17,5.17,0,0,0,0-1.58,1.9,1.9,0,0,0-.15-.42Z"/></g><g class="b6e8ac60-494c-4551-992a-47915f596023"><path d="M1280.27,191.05a16.65,16.65,0,0,1,.35,3.54,12.45,12.45,0,0,1-1.92,6.8,14.07,14.07,0,0,1-5.13,4.82,14.49,14.49,0,0,1-7.16,1.78,18.75,18.75,0,0,1-5.59-.86,22.55,22.55,0,0,1-5.26-2.38,20.85,20.85,0,0,1-4.17-3.36l5.5-5.32a14.21,14.21,0,0,0,4.48,3.09,12.13,12.13,0,0,0,4.91,1.17,7.33,7.33,0,0,0,4.92-1.7,5.15,5.15,0,0,0,2-4,4.45,4.45,0,0,0-1.11-3Z"/></g><g class="b6e8ac60-494c-4551-992a-47915f596023"><path d="M1314.66,192.49a15.72,15.72,0,0,1-1.89,7.66,15,15,0,0,1-5.06,5.53,13.21,13.21,0,0,1-7.14,2.13c-.62,0-1.38,0-2.28-.13a14.18,14.18,0,0,1-2.63-.46,6.52,6.52,0,0,1-2.07-.89v13.41h-7.41V190.68l7.41-.44v9.1a12.2,12.2,0,0,0,6.67,1.3,7.7,7.7,0,0,0,5-2.5,8.18,8.18,0,0,0,1.92-5.65,12.8,12.8,0,0,0-.32-2.94l7.53-.35A20.59,20.59,0,0,1,1314.66,192.49Z"/></g><g class="b6e8ac60-494c-4551-992a-47915f596023"><path d="M1348.58,194.77H1327a5.86,5.86,0,0,0,2.11,4.27,8.23,8.23,0,0,0,4.57,1.7,14.28,14.28,0,0,0,5.59-.74,15.41,15.41,0,0,0,5.16-2.94l4.07,5.62a21.85,21.85,0,0,1-6.88,4,21.14,21.14,0,0,1-6.89,1.2q-7.86,0-11.77-4.38c-2.62-2.93-3.93-7.06-3.93-12.42a21.13,21.13,0,0,1,.11-2.14l7.93-.32a6.84,6.84,0,0,0-.07.91h15.27a5.9,5.9,0,0,0-.18-1.46c2.11-.07,4.21-.15,6.32-.21.05.3.09.61.13.93A38.25,38.25,0,0,1,1348.58,194.77Z"/></g><g class="b6e8ac60-494c-4551-992a-47915f596023"><path d="M1354.32,187.71l7.42-.23v19.9h-7.42Z"/></g><g class="b6e8ac60-494c-4551-992a-47915f596023"><path d="M1376.56,187v20.35h-7.41V187.26Z"/></g><path class="b6eea606-7c66-4618-9d59-830dbde3a5d5" d="M852.18,257h.07c-1.22.09-2.45.15-3.69.17h0l-1.22,0h-.13c-.74,0-1.48,0-2.22-.05a63.88,63.88,0,0,1-5-127.29c1.58-.19,3.18-.31,4.78-.37.86,0,1.72-.06,2.59-.06,1.66,0,3.3.07,4.93.19-1.59.12-3.16.3-4.71.53-1,.15-2,.33-3,.52a63.9,63.9,0,0,0,3.81,125.93C849.64,256.73,850.91,256.87,852.18,257Z"/><path class="f785593a-52f4-417e-ba3d-fc904b812e5a" d="M911.08,193.27a63.84,63.84,0,0,1-58.9,63.7c-1.2.09-2.4.15-3.62.17h0l-1.22,0h-.13c-.75,0-1.5,0-2.25,0a63.92,63.92,0,0,1-59.35-46.89l.39.94A63.9,63.9,0,0,0,906.34,169.1,63.73,63.73,0,0,1,911.08,193.27Z"/><path class="b6eea606-7c66-4618-9d59-830dbde3a5d5" d="M916.65,193.8a63.9,63.9,0,0,1-58.21,63.64q-2.81.24-5.67.24a63.3,63.3,0,0,1-8.19-.52l.36,0h0c1.15-.15,2.29-.34,3.42-.55A63.89,63.89,0,0,0,874.6,142.61,16.38,16.38,0,0,1,850,135.15a6.43,6.43,0,0,0-5-2,6.57,6.57,0,0,1-.28-.92,7,7,0,0,1-.15-1.57,1.21,1.21,0,0,0,0-.19h0a4.69,4.69,0,0,1,.06-.54c0-.16.05-.31.08-.45a6.44,6.44,0,0,1,3.11-4.2,6.37,6.37,0,0,0,5.1,1.1A16.36,16.36,0,0,1,876,134.29,63.9,63.9,0,0,1,916.65,193.8Z"/><path class="ad677138-c0d1-4865-bd65-0f2ef76849e1" d="M905.93,194.8a65,65,0,0,0-58.59-64.67c-.89-.08-1.79-.15-2.69-.2a4.43,4.43,0,0,0-.06.51h0a1.21,1.21,0,0,1,0,.19,7,7,0,0,0,.15,1.57,6.57,6.57,0,0,0,.28.92,6.43,6.43,0,0,1,5,2,16.37,16.37,0,0,0,15.25,10.41,16.61,16.61,0,0,0,1.74-.09,16.19,16.19,0,0,0,7.44-2.84l.08.06.12-.08a63.89,63.89,0,0,1-26.21,114c-1.13.21-2.27.4-3.42.55h0l-.36,0a63.3,63.3,0,0,0,8.19.52c1.85,0,3.68-.07,5.49-.23a63.94,63.94,0,0,0,12-4.65,64.9,64.9,0,0,0,35.65-58Z"/><path class="a2d67cf5-5b02-4b94-8608-e33fdcea08c7" d="M1289,646.71a6.91,6.91,0,0,1-2.8-.58,7.16,7.16,0,0,1-2.28-1.61,7.47,7.47,0,0,1-1.55-2.38,7.59,7.59,0,0,1-.56-2.89,7.77,7.77,0,0,1,2.08-5.32,7.23,7.23,0,0,1,2.29-1.67,6.53,6.53,0,0,1,2.82-.61,6.88,6.88,0,0,1,3.44.9,8,8,0,0,1,2.77,2.73l-2.22,1.45a5.36,5.36,0,0,0-1.83-1.84,4.43,4.43,0,0,0-2.16-.58,4.06,4.06,0,0,0-2.3.68,4.83,4.83,0,0,0-1.62,1.79,5.16,5.16,0,0,0-.6,2.47,4.53,4.53,0,0,0,.36,1.78,5.22,5.22,0,0,0,1,1.55,4.86,4.86,0,0,0,1.43,1.08,3.9,3.9,0,0,0,1.75.4,5.38,5.38,0,0,0,2.15-.36,3.12,3.12,0,0,0,1.37-1.22v-1h-2.37V639h5v4.12a5.82,5.82,0,0,1-2.43,2.7A7.66,7.66,0,0,1,1289,646.71Z"/><path class="a2d67cf5-5b02-4b94-8608-e33fdcea08c7" d="M1306.26,646.52h-2.52v-6a2,2,0,0,0-.56-1.56,2.25,2.25,0,0,0-1.52-.48,1.89,1.89,0,0,0-1.42.56,1.65,1.65,0,0,0-.53,1.16v6.37h-2.52v-14.7h2.52v4.76a2.56,2.56,0,0,1,1.2-.55,5.45,5.45,0,0,1,1.46-.08,4.2,4.2,0,0,1,2.9,1.46,4.72,4.72,0,0,1,1,3.06Z"/><path class="a2d67cf5-5b02-4b94-8608-e33fdcea08c7" d="M1313,646.79a5.25,5.25,0,0,1-2.66-.66,4.6,4.6,0,0,1-1.78-1.85,6.71,6.71,0,0,1,.75-6.95,4.93,4.93,0,0,1,3.69-1.42,5.36,5.36,0,0,1,2.63.63,4.37,4.37,0,0,1,1.8,1.88,6.71,6.71,0,0,1,.65,3.1,5.69,5.69,0,0,1-.65,2.76,4.64,4.64,0,0,1-1.8,1.85A5.16,5.16,0,0,1,1313,646.79Zm0-2.42a2.49,2.49,0,0,0,2.36-1.47,3.24,3.24,0,0,0,.31-1.38,3.7,3.7,0,0,0-.69-2.26,2.29,2.29,0,0,0-2-.93,2.33,2.33,0,0,0-2,.9,3.6,3.6,0,0,0-.71,2.29,3.24,3.24,0,0,0,.32,1.41,2.64,2.64,0,0,0,.91,1.05A2.58,2.58,0,0,0,1313,644.37Z"/><path class="a2d67cf5-5b02-4b94-8608-e33fdcea08c7" d="M1319.36,645.09l1.47-1.58a3.46,3.46,0,0,0,2.29,1,3,3,0,0,0,.62-.07,1,1,0,0,0,.47-.25.89.89,0,0,0,.3-.55,2.41,2.41,0,0,0,0-.54.92.92,0,0,0-.52-.6,6.83,6.83,0,0,0-1-.4,8.81,8.81,0,0,1-1.27-.45,3.82,3.82,0,0,1-1.15-.73,2.81,2.81,0,0,1-.94-1.65,2.46,2.46,0,0,1,.34-1.63,3.38,3.38,0,0,1,1.33-1.23,4.35,4.35,0,0,1,2.06-.47,4.84,4.84,0,0,1,2,.39,3.85,3.85,0,0,1,1.41,1l-1.6,1.43a2.22,2.22,0,0,0-.82-.48,3.3,3.3,0,0,0-1-.15,1.74,1.74,0,0,0-.84.19.73.73,0,0,0-.36.69.74.74,0,0,0,.3.61,2.69,2.69,0,0,0,.76.39c.32.12.66.23,1,.35a6.25,6.25,0,0,1,1.06.45,3,3,0,0,1,1.09,1,2.67,2.67,0,0,1,.45,1.61,3.08,3.08,0,0,1-.52,1.8,3.21,3.21,0,0,1-1.35,1.12,4.34,4.34,0,0,1-1.84.39,5.24,5.24,0,0,1-2-.39A5,5,0,0,1,1319.36,645.09Z"/><path class="a2d67cf5-5b02-4b94-8608-e33fdcea08c7" d="M1330,641.75v-3.4h-1.53V636H1330v-4.2h2.48V636h1.64v2.33h-1.64v3.4a5.68,5.68,0,0,0,.14,1.43,1,1,0,0,0,1,.86l.66,0h.36v2.5h-.32a10.1,10.1,0,0,1-2-.17,2.65,2.65,0,0,1-1.34-.66,2.91,2.91,0,0,1-.77-1.45A10.76,10.76,0,0,1,1330,641.75Z"/><path class="a2d67cf5-5b02-4b94-8608-e33fdcea08c7" d="M1365.43,631.82l-4.55,14.7h-2.75l-3.24-8.72-3.19,8.72H1349l-4.62-14.7h2.83l3.26,11,3.19-8.63h2.58l3.2,8.63,3.21-11Z"/><path class="a2d67cf5-5b02-4b94-8608-e33fdcea08c7" d="M1375.81,646.52h-2.52v-6a2,2,0,0,0-.56-1.56,2.25,2.25,0,0,0-1.52-.48,1.89,1.89,0,0,0-1.42.56,1.65,1.65,0,0,0-.53,1.16v6.37h-2.52v-14.7h2.52v4.76a2.56,2.56,0,0,1,1.2-.55,5.45,5.45,0,0,1,1.46-.08,4.2,4.2,0,0,1,2.9,1.46,4.72,4.72,0,0,1,1,3.06Z"/><path class="a2d67cf5-5b02-4b94-8608-e33fdcea08c7" d="M1379.23,634.78a1.49,1.49,0,0,1-1.09-.44,1.52,1.52,0,0,1-.44-1.1,1.5,1.5,0,0,1,1.53-1.51,1.46,1.46,0,0,1,1.07.44,1.44,1.44,0,0,1,.44,1.07,1.5,1.5,0,0,1-1.51,1.54Zm1.16,11.74h-2.31V636h2.31Z"/><path class="a2d67cf5-5b02-4b94-8608-e33fdcea08c7" d="M1384.17,641.75v-3.4h-1.54V636h1.54v-4.2h2.47V636h1.64v2.33h-1.64v3.4a5.18,5.18,0,0,0,.15,1.43,1.18,1.18,0,0,0,.41.66,1.19,1.19,0,0,0,.59.2l.66,0h.36v2.5h-.32a10,10,0,0,1-2-.17,2.69,2.69,0,0,1-1.35-.66,2.9,2.9,0,0,1-.76-1.45A10.76,10.76,0,0,1,1384.17,641.75Z"/><path class="a2d67cf5-5b02-4b94-8608-e33fdcea08c7" d="M1400.55,642.23h-7.36a2,2,0,0,0,.72,1.45,2.76,2.76,0,0,0,1.55.58,4.87,4.87,0,0,0,1.9-.25,5.22,5.22,0,0,0,1.76-1l1.38,1.91a7.73,7.73,0,0,1-2.34,1.38,7.21,7.21,0,0,1-2.34.41,5.07,5.07,0,0,1-4-1.5,6.1,6.1,0,0,1-1.33-4.22,5.59,5.59,0,0,1,.62-2.71,4.31,4.31,0,0,1,1.76-1.78,5.39,5.39,0,0,1,2.7-.61q3.4,0,4.53,2.67a5.69,5.69,0,0,1,.41,1.66A11.94,11.94,0,0,1,1400.55,642.23Zm-4.75-4a2.52,2.52,0,0,0-1.94.7,2.18,2.18,0,0,0-.67,1.53h5.19a2.18,2.18,0,0,0-.66-1.55A2.57,2.57,0,0,0,1395.8,638.24Z"/><path class="a2d67cf5-5b02-4b94-8608-e33fdcea08c7" d="M1403.88,640.19a1.47,1.47,0,0,1-1-.4,1.2,1.2,0,0,1-.39-1,1.34,1.34,0,0,1,.41-.95,1.39,1.39,0,0,1,1-.39,1.18,1.18,0,0,1,.95.37,1.49,1.49,0,0,1,.4,1,1.32,1.32,0,0,1-.38,1A1.22,1.22,0,0,1,1403.88,640.19Zm0,6.56a1.48,1.48,0,0,1-1-.41,1.2,1.2,0,0,1-.39-1,1.3,1.3,0,0,1,.41-.94,1.36,1.36,0,0,1,1-.4,1.18,1.18,0,0,1,.95.37,1.49,1.49,0,0,1,.4,1,1.31,1.31,0,0,1-.38,1A1.27,1.27,0,0,1,1403.88,646.75Z"/><path class="a2d67cf5-5b02-4b94-8608-e33fdcea08c7" d="M1296.53,660.73l0,2.54h-3.23l-.59,2.21h2.71V668H1292l-1,3.69h-2.75l1-3.69-2.31,0-1,3.71h-2.62l1-3.71h-2.48v-2.52H1285l.61-2.21H1283v-2.56l3.32,0,1-3.63h2.61l-1,3.63h2.38l1-3.63h2.63l-1,3.65Zm-5.92,2.52h-2.37l-.59,2.23H1290Z"/><path class="a2d67cf5-5b02-4b94-8608-e33fdcea08c7" d="M1304.62,659.39a5.31,5.31,0,0,0-1.41.15,1.12,1.12,0,0,0-.74.54,2.69,2.69,0,0,0-.25,1.18h1.56v2.2h-1.56v8.3h-2.47v-8.3h-1.54v-2.2h1.56a4.51,4.51,0,0,1,1.15-3.3,4.69,4.69,0,0,1,3.7-1.05Z"/><path class="a2d67cf5-5b02-4b94-8608-e33fdcea08c7" d="M1308.48,671.82a3.49,3.49,0,0,1-2.41-.91,3.53,3.53,0,0,1-.28-4.14,3.91,3.91,0,0,1,1.45-1.21,5.91,5.91,0,0,1,2-.54,7.42,7.42,0,0,1,2.24.14v-.65a1,1,0,0,0-.55-1,2.62,2.62,0,0,0-1.33-.28,5.21,5.21,0,0,0-1.58.31,3.16,3.16,0,0,0-1.27.81l-1.41-1.54a6,6,0,0,1,1.89-1.21,6.81,6.81,0,0,1,2.26-.51,6,6,0,0,1,2.21.28,3.74,3.74,0,0,1,1.71,1.09,2.54,2.54,0,0,1,.59,1.55c0,.65.06,1.35.06,2.12v5.55h-2.56v-1a3.65,3.65,0,0,1-1.45.85A4.83,4.83,0,0,1,1308.48,671.82Zm2.94-3.06V667a6.29,6.29,0,0,0-3,.27,1.45,1.45,0,0,0-.85,1.37.93.93,0,0,0,.41.85,1.81,1.81,0,0,0,1,.25,4,4,0,0,0,1.28-.25A3.62,3.62,0,0,0,1311.42,668.76Z"/><path class="a2d67cf5-5b02-4b94-8608-e33fdcea08c7" d="M1322.36,659.39a5.28,5.28,0,0,0-1.4.15,1.16,1.16,0,0,0-.75.54,2.57,2.57,0,0,0-.24,1.18h1.55v2.2H1320v8.3h-2.48v-8.3H1316v-2.2h1.55a4.51,4.51,0,0,1,1.16-3.3,4.68,4.68,0,0,1,3.69-1.05Z"/><path class="a2d67cf5-5b02-4b94-8608-e33fdcea08c7" d="M1326.23,671.82a3.52,3.52,0,0,1-2.42-.91,3.17,3.17,0,0,1-.82-2.3,3.11,3.11,0,0,1,.55-1.84,3.83,3.83,0,0,1,1.45-1.21,5.85,5.85,0,0,1,2-.54,7.38,7.38,0,0,1,2.24.14v-.65a1,1,0,0,0-.54-1,2.66,2.66,0,0,0-1.34-.28,5.15,5.15,0,0,0-1.57.31,3.09,3.09,0,0,0-1.27.81l-1.41-1.54a5.78,5.78,0,0,1,1.89-1.21,6.81,6.81,0,0,1,2.26-.51,6,6,0,0,1,2.2.28,3.74,3.74,0,0,1,1.71,1.09,2.49,2.49,0,0,1,.59,1.55c0,.65.06,1.35.06,2.12v5.55h-2.56v-1a3.59,3.59,0,0,1-1.45.85A4.77,4.77,0,0,1,1326.23,671.82Zm2.94-3.06V667a6.32,6.32,0,0,0-3,.27,1.47,1.47,0,0,0-.85,1.37,1,1,0,0,0,.41.85,1.85,1.85,0,0,0,1,.25,4,4,0,0,0,1.28-.25A3.78,3.78,0,0,0,1329.17,668.76Z"/><path class="a2d67cf5-5b02-4b94-8608-e33fdcea08c7" d="M1340.11,659.39a5.31,5.31,0,0,0-1.41.15,1.12,1.12,0,0,0-.74.54,2.69,2.69,0,0,0-.25,1.18h1.56v2.2h-1.56v8.3h-2.47v-8.3h-1.54v-2.2h1.56a4.51,4.51,0,0,1,1.15-3.3,4.69,4.69,0,0,1,3.7-1.05Z"/><path class="a2d67cf5-5b02-4b94-8608-e33fdcea08c7" d="M1347.14,659.39a5.28,5.28,0,0,0-1.4.15,1.16,1.16,0,0,0-.75.54,2.57,2.57,0,0,0-.24,1.18h1.55v2.2h-1.55v8.3h-2.48v-8.3h-1.53v-2.2h1.55a4.51,4.51,0,0,1,1.16-3.3,4.68,4.68,0,0,1,3.69-1.05Z"/><path class="a2d67cf5-5b02-4b94-8608-e33fdcea08c7" d="M1354.18,659.39a5.31,5.31,0,0,0-1.41.15,1.12,1.12,0,0,0-.74.54,2.69,2.69,0,0,0-.25,1.18h1.56v2.2h-1.56v8.3h-2.47v-8.3h-1.54v-2.2h1.56a4.51,4.51,0,0,1,1.15-3.3,4.69,4.69,0,0,1,3.7-1.05Z"/><path class="a2d67cf5-5b02-4b94-8608-e33fdcea08c7" d="M1361.21,659.39a5.28,5.28,0,0,0-1.4.15,1.16,1.16,0,0,0-.75.54,2.57,2.57,0,0,0-.24,1.18h1.55v2.2h-1.55v8.3h-2.48v-8.3h-1.53v-2.2h1.55a4.51,4.51,0,0,1,1.16-3.3,4.68,4.68,0,0,1,3.69-1.05Z"/><path class="a2d67cf5-5b02-4b94-8608-e33fdcea08c7" d="M1111,649.06h-6.91v-14.7h2.53v12.22H1111Z"/><path class="a2d67cf5-5b02-4b94-8608-e33fdcea08c7" d="M1115.94,649.16a3.57,3.57,0,0,1-2.42-.91,3.17,3.17,0,0,1-.82-2.3,3.11,3.11,0,0,1,.55-1.84,3.83,3.83,0,0,1,1.45-1.21,5.85,5.85,0,0,1,2-.54,7.38,7.38,0,0,1,2.24.14v-.65a1,1,0,0,0-.54-1,2.66,2.66,0,0,0-1.34-.28,5.15,5.15,0,0,0-1.57.31,3.09,3.09,0,0,0-1.27.81l-1.41-1.54a5.78,5.78,0,0,1,1.89-1.21,6.81,6.81,0,0,1,2.26-.51,6,6,0,0,1,2.2.28,3.74,3.74,0,0,1,1.71,1.09,2.49,2.49,0,0,1,.59,1.55c0,.65.06,1.35.06,2.12v5.55H1119v-1a3.59,3.59,0,0,1-1.45.85A4.77,4.77,0,0,1,1115.94,649.16Zm2.94-3.06v-1.81a6.32,6.32,0,0,0-3,.27,1.47,1.47,0,0,0-.85,1.37,1,1,0,0,0,.41.85,1.85,1.85,0,0,0,1,.25,4,4,0,0,0,1.28-.25A3.78,3.78,0,0,0,1118.88,646.1Z"/><path class="a2d67cf5-5b02-4b94-8608-e33fdcea08c7" d="M1132.78,638.56l-3.76,10.5h-2.67l-3.78-10.5h2.63l2.48,7.68,2.47-7.68Z"/><path class="a2d67cf5-5b02-4b94-8608-e33fdcea08c7" d="M1136.64,649.16a3.54,3.54,0,0,1-2.41-.91,3.13,3.13,0,0,1-.82-2.3,3,3,0,0,1,.55-1.84,3.8,3.8,0,0,1,1.44-1.21,6,6,0,0,1,2-.54,7.4,7.4,0,0,1,2.24.14v-.65a1,1,0,0,0-.55-1,2.62,2.62,0,0,0-1.33-.28,5.21,5.21,0,0,0-1.58.31,3.16,3.16,0,0,0-1.27.81l-1.4-1.54a5.84,5.84,0,0,1,1.88-1.21,6.87,6.87,0,0,1,2.26-.51,6,6,0,0,1,2.21.28,3.74,3.74,0,0,1,1.71,1.09,2.54,2.54,0,0,1,.59,1.55c0,.65.06,1.35.06,2.12v5.55h-2.56v-1a3.65,3.65,0,0,1-1.45.85A4.83,4.83,0,0,1,1136.64,649.16Zm2.94-3.06v-1.81a6.29,6.29,0,0,0-3,.27,1.45,1.45,0,0,0-.85,1.37,1,1,0,0,0,.41.85,1.81,1.81,0,0,0,1,.25,4,4,0,0,0,1.28-.25A3.62,3.62,0,0,0,1139.58,646.1Z"/><path class="a2d67cf5-5b02-4b94-8608-e33fdcea08c7" d="M1153.78,649.06h-2.52v-6.14a2.12,2.12,0,0,0-.33-1.29,1.53,1.53,0,0,0-.79-.57,3,3,0,0,0-.92-.15,3.77,3.77,0,0,0-1,.15,2.08,2.08,0,0,0-1,.57,1.79,1.79,0,0,0-.42,1.29v6.14h-2.52v-10.5h2.52v.75a1.94,1.94,0,0,1,1.11-.68,5.87,5.87,0,0,1,1.45-.2,4.51,4.51,0,0,1,2.32.57,3.87,3.87,0,0,1,1.51,1.57,4.91,4.91,0,0,1,.54,2.35Z"/><path class="a2d67cf5-5b02-4b94-8608-e33fdcea08c7" d="M1158.13,648.87a3.81,3.81,0,0,1-1.52-1.23,5.69,5.69,0,0,1-.87-1.86,8.21,8.21,0,0,1-.28-2.16A6.4,6.4,0,0,1,1156,641a4.46,4.46,0,0,1,1.55-1.88,4.29,4.29,0,0,1,2.51-.7,7,7,0,0,1,1.12.1,2.46,2.46,0,0,1,1,.4v-4.55h2.52v14.7h-2.52v-.84a2.36,2.36,0,0,1-1.09.66,5.29,5.29,0,0,1-1.55.25A3.44,3.44,0,0,1,1158.13,648.87Zm4.07-2.75v-4.83a3.8,3.8,0,0,0-2-.3,2.58,2.58,0,0,0-1.55.81,2.61,2.61,0,0,0-.6,1.82,3.54,3.54,0,0,0,.59,2.15,2.16,2.16,0,0,0,1.54.9A3.28,3.28,0,0,0,1162.2,646.12Z"/><path class="a2d67cf5-5b02-4b94-8608-e33fdcea08c7" d="M1176.67,644.77h-7.35a2,2,0,0,0,.71,1.45,2.76,2.76,0,0,0,1.56.58,4.89,4.89,0,0,0,1.9-.25,5.18,5.18,0,0,0,1.75-1l1.39,1.91a7.73,7.73,0,0,1-2.34,1.38,7.32,7.32,0,0,1-2.35.41,5.09,5.09,0,0,1-4-1.5,6.1,6.1,0,0,1-1.33-4.22,5.7,5.7,0,0,1,.62-2.71A4.31,4.31,0,0,1,1169,639a5.44,5.44,0,0,1,2.7-.61q3.4,0,4.54,2.67a6,6,0,0,1,.41,1.66A13.18,13.18,0,0,1,1176.67,644.77Zm-4.75-4a2.53,2.53,0,0,0-1.94.7,2.17,2.17,0,0,0-.66,1.53h5.19a2.15,2.15,0,0,0-.67-1.55A2.57,2.57,0,0,0,1171.92,640.78Z"/><path class="a2d67cf5-5b02-4b94-8608-e33fdcea08c7" d="M1178.62,649.06v-10.5h2.5v.77a2.59,2.59,0,0,1,2-.82,8.92,8.92,0,0,1,2.53.47l-1.21,2.16a3.43,3.43,0,0,0-1.57-.17,2.66,2.66,0,0,0-1.25.46,1,1,0,0,0-.46.86v6.77Z"/><path class="a2d67cf5-5b02-4b94-8608-e33fdcea08c7" d="M1195.27,649.06v-14.7h5.59a3.59,3.59,0,0,1,2,.57,3.94,3.94,0,0,1,1.33,1.53,4.57,4.57,0,0,1,.47,2,4.94,4.94,0,0,1-.21,1.39,4.46,4.46,0,0,1-.63,1.32,4.09,4.09,0,0,1,1.12,1.47,4.63,4.63,0,0,1,.39,1.89,4.55,4.55,0,0,1-.3,1.62,5,5,0,0,1-.84,1.44,4.35,4.35,0,0,1-1.24,1,3.05,3.05,0,0,1-1.5.39Zm2.59-8.61h2.94a.92.92,0,0,0,.67-.3,2.24,2.24,0,0,0,.47-.73,2.42,2.42,0,0,0,.18-.91,1.75,1.75,0,0,0-.34-1.07,1.09,1.09,0,0,0-.92-.46h-3Zm0,6h3.61a.9.9,0,0,0,.63-.28,2.12,2.12,0,0,0,.48-.71,2,2,0,0,0,.19-.86,1.82,1.82,0,0,0-.35-1.14,1,1,0,0,0-.89-.47h-3.67Z"/><path class="a2d67cf5-5b02-4b94-8608-e33fdcea08c7" d="M1209.76,649.06h-2.52v-14.7h2.52Z"/><path class="a2d67cf5-5b02-4b94-8608-e33fdcea08c7" d="M1221.1,649.06h-2.52v-.82a1.59,1.59,0,0,1-.95.75,4.67,4.67,0,0,1-1.6.26,6.17,6.17,0,0,1-1.72-.25,3.46,3.46,0,0,1-1.35-.7,4.46,4.46,0,0,1-1.31-3.49v-6.25h2.52v6.25a1.82,1.82,0,0,0,.64,1.55,2.69,2.69,0,0,0,1.61.47,2.59,2.59,0,0,0,1-.21,2.12,2.12,0,0,0,.84-.65,1.88,1.88,0,0,0,.33-1.16v-6.25h2.52Z"/><path class="a2d67cf5-5b02-4b94-8608-e33fdcea08c7" d="M1233.05,644.77h-7.35a2,2,0,0,0,.72,1.45,2.73,2.73,0,0,0,1.55.58,4.87,4.87,0,0,0,1.9-.25,5.08,5.08,0,0,0,1.75-1l1.39,1.91a7.73,7.73,0,0,1-2.34,1.38,7.21,7.21,0,0,1-2.34.41,5.07,5.07,0,0,1-4-1.5,6.11,6.11,0,0,1-1.34-4.22,5.7,5.7,0,0,1,.62-2.71,4.34,4.34,0,0,1,1.77-1.78,5.39,5.39,0,0,1,2.7-.61c2.26,0,3.78.92,4.53,2.67a5.69,5.69,0,0,1,.41,1.66A12,12,0,0,1,1233.05,644.77Zm-4.74-4a2.56,2.56,0,0,0-2,.7,2.17,2.17,0,0,0-.66,1.53h5.19a2.18,2.18,0,0,0-.66-1.55A2.57,2.57,0,0,0,1228.31,640.78Z"/><path class="a2d67cf5-5b02-4b94-8608-e33fdcea08c7" d="M1118.58,663.27l0,2.54h-3.23l-.59,2.21h2.71v2.52h-3.38l-1,3.69h-2.75l1-3.69-2.31,0-1,3.71h-2.62l1-3.71h-2.48V668h3.18l.61-2.21H1105v-2.56l3.32,0,1-3.63H1112l-1,3.63h2.37l1-3.63H1117l-1,3.65Zm-5.92,2.52h-2.37l-.59,2.23H1112Z"/><path class="a2d67cf5-5b02-4b94-8608-e33fdcea08c7" d="M1130.32,670H1123a2,2,0,0,0,.72,1.45,2.73,2.73,0,0,0,1.55.58,4.87,4.87,0,0,0,1.9-.25,5.08,5.08,0,0,0,1.75-1l1.39,1.91a7.73,7.73,0,0,1-2.34,1.38,7.21,7.21,0,0,1-2.34.41,5.07,5.07,0,0,1-4-1.5,6.11,6.11,0,0,1-1.34-4.22,5.7,5.7,0,0,1,.62-2.71,4.34,4.34,0,0,1,1.77-1.78,5.39,5.39,0,0,1,2.7-.61c2.26,0,3.78.92,4.53,2.67a5.69,5.69,0,0,1,.41,1.66A13.18,13.18,0,0,1,1130.32,670Zm-4.74-4a2.54,2.54,0,0,0-1.95.7,2.17,2.17,0,0,0-.66,1.53h5.19a2.18,2.18,0,0,0-.66-1.55A2.57,2.57,0,0,0,1125.58,666Z"/><path class="a2d67cf5-5b02-4b94-8608-e33fdcea08c7" d="M1142.75,670.54h-2v3.72h-2.52v-3.72h-6.14V668.4l5.36-8.84h3.3v8.52h2Zm-4.55-2.46v-5.37l-3.28,5.37Z"/><path class="a2d67cf5-5b02-4b94-8608-e33fdcea08c7" d="M1147.1,674.07a3.71,3.71,0,0,1-1.51-1.23,5.69,5.69,0,0,1-.87-1.86,8.21,8.21,0,0,1-.29-2.16,6.4,6.4,0,0,1,.53-2.63,4.44,4.44,0,0,1,1.54-1.88,4.31,4.31,0,0,1,2.51-.7,7.12,7.12,0,0,1,1.13.1,2.52,2.52,0,0,1,1,.4v-4.55h2.51v14.7h-2.51v-.84a2.39,2.39,0,0,1-1.1.66,5.23,5.23,0,0,1-1.54.25A3.46,3.46,0,0,1,1147.1,674.07Zm4.08-2.75v-4.83a3.81,3.81,0,0,0-2-.3,2.57,2.57,0,0,0-1.56.81,2.61,2.61,0,0,0-.59,1.82,3.54,3.54,0,0,0,.58,2.15,2.18,2.18,0,0,0,1.55.9A3.31,3.31,0,0,0,1151.18,671.32Z"/><path class="a2d67cf5-5b02-4b94-8608-e33fdcea08c7" d="M1160.56,659.39a4.67,4.67,0,0,1,2.49.69,5.2,5.2,0,0,1,1.79,1.85,5,5,0,0,1,.66,2.54,9.62,9.62,0,0,1-.54,3.31,11.61,11.61,0,0,1-1.5,2.82,18.09,18.09,0,0,1-1.53,1.83q-.87.9-1.83,1.83h-3.26c.48-.51,1-1,1.58-1.59s1.12-1.12,1.63-1.7a11.34,11.34,0,0,0,1.27-1.75,4.11,4.11,0,0,1-2.14.06,4.52,4.52,0,0,1-1.84-.93,4.89,4.89,0,0,1-1.28-1.69,5.2,5.2,0,0,1,.21-4.77,5.12,5.12,0,0,1,1.81-1.83A4.78,4.78,0,0,1,1160.56,659.39Zm0,2.64a2.27,2.27,0,0,0-1.68.71,2.37,2.37,0,0,0-.69,1.73,2.52,2.52,0,0,0,.32,1.27,2.42,2.42,0,0,0,.87.87,2.35,2.35,0,0,0,1.18.32,2.31,2.31,0,0,0,1.2-.33,2.45,2.45,0,0,0,.87-.88,2.41,2.41,0,0,0,.33-1.25,2.34,2.34,0,0,0-.33-1.21,2.56,2.56,0,0,0-.87-.89A2.32,2.32,0,0,0,1160.54,662Z"/><path class="a2d67cf5-5b02-4b94-8608-e33fdcea08c7" d="M1173.58,661.93a5.31,5.31,0,0,0-1.41.15,1.14,1.14,0,0,0-.74.54,2.57,2.57,0,0,0-.24,1.18h1.55V666h-1.55v8.3h-2.48V666h-1.53v-2.2h1.55a4.51,4.51,0,0,1,1.16-3.3,4.67,4.67,0,0,1,3.69-1Z"/><path class="a2d67cf5-5b02-4b94-8608-e33fdcea08c7" d="M1180.62,661.93a5.31,5.31,0,0,0-1.41.15,1.16,1.16,0,0,0-.75.54,2.86,2.86,0,0,0-.24,1.18h1.56V666h-1.56v8.3h-2.48V666h-1.53v-2.2h1.56a4.51,4.51,0,0,1,1.15-3.3,4.69,4.69,0,0,1,3.7-1Z"/><path class="a2d67cf5-5b02-4b94-8608-e33fdcea08c7" d="M1187.65,661.93a5.31,5.31,0,0,0-1.41.15,1.17,1.17,0,0,0-.74.54,2.57,2.57,0,0,0-.24,1.18h1.55V666h-1.55v8.3h-2.48V666h-1.53v-2.2h1.55a4.51,4.51,0,0,1,1.16-3.3,4.68,4.68,0,0,1,3.69-1Z"/><path class="a2d67cf5-5b02-4b94-8608-e33fdcea08c7" d="M1194.69,661.93a5.31,5.31,0,0,0-1.41.15,1.16,1.16,0,0,0-.75.54,2.86,2.86,0,0,0-.24,1.18h1.56V666h-1.56v8.3h-2.48V666h-1.53v-2.2h1.56a4.51,4.51,0,0,1,1.15-3.3,4.69,4.69,0,0,1,3.7-1Z"/><path class="a2d67cf5-5b02-4b94-8608-e33fdcea08c7" d="M1196.91,667.79a1.48,1.48,0,0,1-1-.41,1.2,1.2,0,0,1-.39-1,1.3,1.3,0,0,1,.41-.94,1.4,1.4,0,0,1,1-.4,1.16,1.16,0,0,1,.95.38,1.44,1.44,0,0,1,.4,1,1.31,1.31,0,0,1-.38,1A1.27,1.27,0,0,1,1196.91,667.79Zm-1.32,5.73a1.3,1.3,0,0,1,.41-.94,1.37,1.37,0,0,1,1-.4,1.18,1.18,0,0,1,1,.38,1.3,1.3,0,0,1,.39,1,3.9,3.9,0,0,1-.19,1.09c-.12.44-.28.88-.45,1.33s-.35.86-.52,1.24l-.94-.4a4.91,4.91,0,0,0,.36-.95c.08-.33.14-.67.19-1a1.1,1.1,0,0,1-.84-.38A1.26,1.26,0,0,1,1195.59,673.52Z"/><path class="a2d67cf5-5b02-4b94-8608-e33fdcea08c7" d="M934.25,648.6a6.33,6.33,0,0,1-1.9-.3,7.23,7.23,0,0,1-1.79-.81,6.76,6.76,0,0,1-1.41-1.14l1.87-1.81a4.59,4.59,0,0,0,1.52,1.05,4,4,0,0,0,1.67.4,2.5,2.5,0,0,0,1.67-.58,1.75,1.75,0,0,0,.68-1.37,1.54,1.54,0,0,0-.48-1.13,3,3,0,0,0-1.2-.68,22.16,22.16,0,0,1-3.18-1.07,4.31,4.31,0,0,1-1.94-1.49,3.63,3.63,0,0,1-.47-2.48,3.83,3.83,0,0,1,.81-2,4,4,0,0,1,1.68-1.21,6.06,6.06,0,0,1,2.26-.4,8.19,8.19,0,0,1,2.33.35,8.51,8.51,0,0,1,2.41,1.14L937,636.9a7.84,7.84,0,0,0-1.32-.57,5.27,5.27,0,0,0-1.47-.25,3.81,3.81,0,0,0-1.13.12,2,2,0,0,0-.89.46,1.18,1.18,0,0,0-.38.87,1.2,1.2,0,0,0,.32.94,2.32,2.32,0,0,0,.93.55l1.4.46a13.47,13.47,0,0,1,2.5.92,3.82,3.82,0,0,1,1.57,1.36,4.14,4.14,0,0,1,.55,2.28,4.28,4.28,0,0,1-.65,2.31,4.85,4.85,0,0,1-4.18,2.25Z"/><path class="a2d67cf5-5b02-4b94-8608-e33fdcea08c7" d="M943.49,652.59H941v-14.7h2.52v.56a4.29,4.29,0,0,1,2.46-.64,4.61,4.61,0,0,1,2.33.79,5.37,5.37,0,0,1,1.72,1.93,5.86,5.86,0,0,1,.65,2.79,5.34,5.34,0,0,1-.64,2.61,5.19,5.19,0,0,1-1.72,1.88,4.44,4.44,0,0,1-2.43.72c-.21,0-.47,0-.77,0a5.29,5.29,0,0,1-.9-.16,2.27,2.27,0,0,1-.7-.3Zm0-6.93a4.3,4.3,0,0,0,2.27.44,2.67,2.67,0,0,0,1.7-.85,2.82,2.82,0,0,0,.65-1.93,3.27,3.27,0,0,0-.68-2.18,2.56,2.56,0,0,0-1.74-.9,3.51,3.51,0,0,0-2.2.59Z"/><path class="a2d67cf5-5b02-4b94-8608-e33fdcea08c7" d="M955.35,648.49a3.56,3.56,0,0,1-2.41-.91,3.13,3.13,0,0,1-.82-2.3,3,3,0,0,1,.55-1.84,3.76,3.76,0,0,1,1.45-1.21,5.85,5.85,0,0,1,2-.54,7.4,7.4,0,0,1,2.24.14v-.65a1,1,0,0,0-.55-1,2.62,2.62,0,0,0-1.33-.28,5.21,5.21,0,0,0-1.58.31,3.16,3.16,0,0,0-1.27.81l-1.4-1.54a5.78,5.78,0,0,1,1.89-1.21,6.75,6.75,0,0,1,2.25-.51,6.19,6.19,0,0,1,2.21.27,3.84,3.84,0,0,1,1.71,1.1,2.49,2.49,0,0,1,.59,1.55c0,.65.06,1.35.06,2.12v5.55h-2.56v-1a3.65,3.65,0,0,1-1.45.85A5.11,5.11,0,0,1,955.35,648.49Zm2.94-3.07v-1.8a6.29,6.29,0,0,0-3,.27,1.45,1.45,0,0,0-.85,1.37,1,1,0,0,0,.41.85,1.83,1.83,0,0,0,1,.25,4,4,0,0,0,1.28-.25A3.47,3.47,0,0,0,958.29,645.42Z"/><path class="a2d67cf5-5b02-4b94-8608-e33fdcea08c7" d="M971.76,646.94a5.73,5.73,0,0,1-2.27,1.38,5.19,5.19,0,0,1-2.4.19,4.94,4.94,0,0,1-3.68-2.71,5.7,5.7,0,0,1-.58-2.66,6,6,0,0,1,.57-2.72,4.62,4.62,0,0,1,1.53-1.81,4.82,4.82,0,0,1,2.14-.81,5.5,5.5,0,0,1,2.42.26,6.6,6.6,0,0,1,2.33,1.42l-1.68,1.79a2.57,2.57,0,0,0-3-.84,2.62,2.62,0,0,0-1.27,1,3,3,0,0,0-.49,1.72,3.16,3.16,0,0,0,.49,1.8,2.61,2.61,0,0,0,2.85,1.08,3,3,0,0,0,1.53-.93Z"/><path class="a2d67cf5-5b02-4b94-8608-e33fdcea08c7" d="M983.14,644.1h-7.35a2,2,0,0,0,.71,1.45,2.76,2.76,0,0,0,1.56.58,4.89,4.89,0,0,0,1.9-.25,5.18,5.18,0,0,0,1.75-1l1.39,1.91a7.42,7.42,0,0,1-2.35,1.37,7,7,0,0,1-2.34.41,5.07,5.07,0,0,1-4-1.49,6.1,6.1,0,0,1-1.33-4.22,5.7,5.7,0,0,1,.62-2.71,4.31,4.31,0,0,1,1.76-1.78,5.41,5.41,0,0,1,2.7-.61q3.4,0,4.54,2.67a6,6,0,0,1,.41,1.66A13.18,13.18,0,0,1,983.14,644.1Zm-4.75-4a2.57,2.57,0,0,0-1.94.69,2.21,2.21,0,0,0-.66,1.54H981a2.19,2.19,0,0,0-.67-1.55A2.57,2.57,0,0,0,978.39,640.11Z"/><path class="a2d67cf5-5b02-4b94-8608-e33fdcea08c7" d="M1000,648.62a6.47,6.47,0,0,1-2.79-.6,8,8,0,0,1-2.27-1.59,7.44,7.44,0,0,1-1.55-2.36,7.69,7.69,0,0,1-.57-3,7.6,7.6,0,0,1,.58-3,8.09,8.09,0,0,1,1.54-2.4,7.42,7.42,0,0,1,2.26-1.6,6.69,6.69,0,0,1,2.8-.58,6.77,6.77,0,0,1,3.05.72,8.26,8.26,0,0,1,2.68,2.24l-2,1.68a5.72,5.72,0,0,0-1.79-1.55,4.18,4.18,0,0,0-1.91-.47,4.11,4.11,0,0,0-1.75.38,4.8,4.8,0,0,0-1.46,1,4.74,4.74,0,0,0-1,1.54,5.3,5.3,0,0,0-.36,2,5.11,5.11,0,0,0,.36,2,5,5,0,0,0,1,1.54,4.53,4.53,0,0,0,1.45,1.05,4,4,0,0,0,1.76.38,4.18,4.18,0,0,0,1.91-.47,5.81,5.81,0,0,0,1.79-1.54l2,1.68a8.35,8.35,0,0,1-2.68,2.23A6.78,6.78,0,0,1,1000,648.62Z"/><path class="a2d67cf5-5b02-4b94-8608-e33fdcea08c7" d="M1010.48,648.49a3.57,3.57,0,0,1-2.42-.91,3.17,3.17,0,0,1-.82-2.3,3.11,3.11,0,0,1,.55-1.84,3.83,3.83,0,0,1,1.45-1.21,5.85,5.85,0,0,1,2-.54,7.33,7.33,0,0,1,2.23.14v-.65a1,1,0,0,0-.54-1,2.66,2.66,0,0,0-1.34-.28,5.15,5.15,0,0,0-1.57.31,3.09,3.09,0,0,0-1.27.81l-1.41-1.54a5.78,5.78,0,0,1,1.89-1.21,6.81,6.81,0,0,1,2.26-.51,6.16,6.16,0,0,1,2.2.27,3.73,3.73,0,0,1,1.71,1.1,2.49,2.49,0,0,1,.59,1.55c0,.65.06,1.35.06,2.12v5.55h-2.56v-1a3.52,3.52,0,0,1-1.45.85A5,5,0,0,1,1010.48,648.49Zm2.94-3.07v-1.8a6.32,6.32,0,0,0-3,.27,1.47,1.47,0,0,0-.85,1.37,1,1,0,0,0,.41.85,1.85,1.85,0,0,0,1,.25,4,4,0,0,0,1.28-.25A3.62,3.62,0,0,0,1013.42,645.42Z"/><path class="a2d67cf5-5b02-4b94-8608-e33fdcea08c7" d="M1020.62,648.2a3.78,3.78,0,0,1-1.51-1.23,5.69,5.69,0,0,1-.87-1.86A8.21,8.21,0,0,1,1018,643a6.4,6.4,0,0,1,.53-2.63,4.44,4.44,0,0,1,1.54-1.88,4.31,4.31,0,0,1,2.51-.7,7.12,7.12,0,0,1,1.13.1,2.52,2.52,0,0,1,1,.4v-4.55h2.52v14.7h-2.52v-.84a2.39,2.39,0,0,1-1.1.66,5.23,5.23,0,0,1-1.54.25A3.46,3.46,0,0,1,1020.62,648.2Zm4.08-2.75v-4.83a3.81,3.81,0,0,0-2.05-.3,2.57,2.57,0,0,0-1.56.81,2.61,2.61,0,0,0-.59,1.82,3.54,3.54,0,0,0,.58,2.15,2.2,2.2,0,0,0,1.55.9A3.31,3.31,0,0,0,1024.7,645.45Z"/><path class="a2d67cf5-5b02-4b94-8608-e33fdcea08c7" d="M1039.16,644.1h-7.35a2,2,0,0,0,.72,1.45,2.76,2.76,0,0,0,1.55.58,4.87,4.87,0,0,0,1.9-.25,5.22,5.22,0,0,0,1.76-1l1.38,1.91a7.49,7.49,0,0,1-2.34,1.37,7,7,0,0,1-2.34.41,5.07,5.07,0,0,1-4-1.49,6.11,6.11,0,0,1-1.34-4.22,5.59,5.59,0,0,1,.63-2.71,4.31,4.31,0,0,1,1.76-1.78,5.39,5.39,0,0,1,2.7-.61q3.4,0,4.53,2.67a5.69,5.69,0,0,1,.41,1.66A11,11,0,0,1,1039.16,644.1Zm-4.74-4a2.55,2.55,0,0,0-1.94.69,2.18,2.18,0,0,0-.67,1.54H1037a2.18,2.18,0,0,0-.66-1.55A2.57,2.57,0,0,0,1034.42,640.11Z"/><path class="a2d67cf5-5b02-4b94-8608-e33fdcea08c7" d="M1042.23,643.62v-3.4h-1.53v-2.33h1.53v-4.2h2.48v4.2h1.64v2.33h-1.64v3.4a5.68,5.68,0,0,0,.14,1.43,1.23,1.23,0,0,0,.41.66,1.26,1.26,0,0,0,.59.2l.66,0h.36v2.5h-.31a10.21,10.21,0,0,1-2-.17,2.69,2.69,0,0,1-1.34-.66,2.91,2.91,0,0,1-.77-1.45A10.76,10.76,0,0,1,1042.23,643.62Z"/><path class="a2d67cf5-5b02-4b94-8608-e33fdcea08c7" d="M951.8,662.6l0,2.54h-3.23l-.59,2.21h2.71v2.52h-3.38l-1,3.69h-2.75l1-3.69-2.31,0-1,3.71h-2.62l1-3.71h-2.47v-2.52h3.17l.61-2.21h-2.65v-2.56l3.32,0,1-3.63h2.61l-1,3.63h2.38l1-3.63h2.63l-1,3.65Zm-5.92,2.52h-2.37l-.59,2.23h2.33Z"/><path class="a2d67cf5-5b02-4b94-8608-e33fdcea08c7" d="M953.78,673.59v-1.5a3.94,3.94,0,0,1,.44-1.89,4.62,4.62,0,0,1,1.19-1.39,14.72,14.72,0,0,1,1.6-1.13l2.08-1.21a5.67,5.67,0,0,0,1.76-1.58,1.88,1.88,0,0,0,.34-1.13,2.38,2.38,0,0,0-.35-1.17,2.64,2.64,0,0,0-.87-.92,2.11,2.11,0,0,0-1.24-.37,3,3,0,0,0-1.81.52,2,2,0,0,0-.64,1.67h-2.59a4.26,4.26,0,0,1,1.41-3.56,5.66,5.66,0,0,1,3.72-1.09,4.67,4.67,0,0,1,2.55.75,5.05,5.05,0,0,1,1.69,1.89,5.27,5.27,0,0,1,.61,2.49,3.53,3.53,0,0,1-.63,2.23,7.1,7.1,0,0,1-1.82,1.75c-.76.52-1.61,1.07-2.55,1.62a15.57,15.57,0,0,0-1.32.84c-.37.27-.56.51-.59.72h6.76v2.46Z"/><path class="a2d67cf5-5b02-4b94-8608-e33fdcea08c7" d="M973.12,658.89l0,1.89-3.76,12.81h-2.58l3.57-12.1H965.2v-2.6Z"/><path class="a2d67cf5-5b02-4b94-8608-e33fdcea08c7" d="M979.78,673.73a4.67,4.67,0,0,1-3.15-1.08,6.13,6.13,0,0,1-1.83-2.8l2.48-.76a3.38,3.38,0,0,0,1,1.47,2.28,2.28,0,0,0,1.46.53,2.21,2.21,0,0,0,1.57-.57,1.72,1.72,0,0,0,.61-1.3,2.92,2.92,0,0,0-.2-1,2,2,0,0,0-.67-.88,2.12,2.12,0,0,0-1.31-.36H978v-1.85h1.95a1.51,1.51,0,0,0,1.67-1.15,3.33,3.33,0,0,0,.14-.88,1.45,1.45,0,0,0-.54-1.17,1.92,1.92,0,0,0-1.27-.45,2,2,0,0,0-1.39.46,2.63,2.63,0,0,0-.75,1.43l-2.56-.51a5.57,5.57,0,0,1,1.7-3,4.47,4.47,0,0,1,3-1,4.37,4.37,0,0,1,2.2.57,4.51,4.51,0,0,1,1.6,1.53,4,4,0,0,1,.61,2.17,3.23,3.23,0,0,1-.42,1.62A4.75,4.75,0,0,1,982.8,666a7.48,7.48,0,0,1,1.21,1.4,3.19,3.19,0,0,1,.53,1.79,4.1,4.1,0,0,1-.65,2.28,4.86,4.86,0,0,1-4.11,2.23Z"/><path class="a2d67cf5-5b02-4b94-8608-e33fdcea08c7" d="M996.91,669.87h-2v3.72h-2.52v-3.72h-6.13v-2.14l5.36-8.84h3.29v8.52h2Zm-4.56-2.46V662l-3.27,5.37Z"/><path class="a2d67cf5-5b02-4b94-8608-e33fdcea08c7" d="M1003.53,673.75a4.67,4.67,0,0,1-2.49-.69,5.12,5.12,0,0,1-1.79-1.85,5,5,0,0,1-.66-2.54,9.62,9.62,0,0,1,.54-3.31,11.3,11.3,0,0,1,1.5-2.82,19.27,19.27,0,0,1,1.53-1.83c.58-.6,1.18-1.21,1.83-1.82h3.25c-.47.5-1,1-1.57,1.58s-1.12,1.12-1.63,1.7a10.94,10.94,0,0,0-1.27,1.76,4.22,4.22,0,0,1,2.14-.07,4.42,4.42,0,0,1,1.84.94,4.76,4.76,0,0,1,1.28,1.68,5.13,5.13,0,0,1-2,6.6A4.72,4.72,0,0,1,1003.53,673.75Zm0-2.64a2.27,2.27,0,0,0,1.68-.71,2.35,2.35,0,0,0,.69-1.73,2.55,2.55,0,0,0-.32-1.27,2.37,2.37,0,0,0-.88-.87,2.29,2.29,0,0,0-1.17-.32,2.26,2.26,0,0,0-1.2.33,2.53,2.53,0,0,0-.87.88,2.41,2.41,0,0,0-.33,1.25,2.32,2.32,0,0,0,.33,1.21,2.56,2.56,0,0,0,.87.89A2.18,2.18,0,0,0,1003.55,671.11Z"/><path class="a2d67cf5-5b02-4b94-8608-e33fdcea08c7" d="M1015.16,658.72a4.67,4.67,0,0,1,2.49.69,5.17,5.17,0,0,1,2.45,4.39,9.62,9.62,0,0,1-.54,3.31,11.8,11.8,0,0,1-1.5,2.82,17,17,0,0,1-1.54,1.83c-.57.6-1.18,1.21-1.82,1.83h-3.26c.48-.51,1-1,1.58-1.59s1.11-1.12,1.63-1.7a11.34,11.34,0,0,0,1.27-1.75,4.15,4.15,0,0,1-2.15.06,4.44,4.44,0,0,1-1.83-.94,4.76,4.76,0,0,1-1.28-1.68,5.2,5.2,0,0,1,.21-4.77,5.12,5.12,0,0,1,1.81-1.83A4.76,4.76,0,0,1,1015.16,658.72Zm0,2.64a2.27,2.27,0,0,0-1.68.71,2.37,2.37,0,0,0-.69,1.73,2.39,2.39,0,0,0,1.19,2.14,2.35,2.35,0,0,0,1.18.32,2.31,2.31,0,0,0,1.2-.33,2.53,2.53,0,0,0,.87-.88,2.5,2.5,0,0,0,.32-1.25,2.43,2.43,0,0,0-.32-1.21,2.56,2.56,0,0,0-.87-.89A2.32,2.32,0,0,0,1015.14,661.36Z"/><path class="a2d67cf5-5b02-4b94-8608-e33fdcea08c7" d="M1028.18,661.26a5.31,5.31,0,0,0-1.41.15,1.12,1.12,0,0,0-.74.54,2.57,2.57,0,0,0-.24,1.18h1.55v2.2h-1.55v8.3h-2.48v-8.3h-1.54v-2.2h1.56a4.51,4.51,0,0,1,1.15-3.3,4.71,4.71,0,0,1,3.7-1.05Z"/><path class="a2d67cf5-5b02-4b94-8608-e33fdcea08c7" d="M1035.22,661.26a5.31,5.31,0,0,0-1.41.15,1.16,1.16,0,0,0-.75.54,2.86,2.86,0,0,0-.24,1.18h1.56v2.2h-1.56v8.3h-2.48v-8.3h-1.53v-2.2h1.55a4.51,4.51,0,0,1,1.16-3.3,4.69,4.69,0,0,1,3.7-1.05Z"/><path class="a2d67cf5-5b02-4b94-8608-e33fdcea08c7" d="M755.82,647.61v-14.7h4.08l3.46,9.29,3.47-9.29h4.07v14.7h-2.52V636l-3.82,9.51h-2.37L758.34,636v11.61Z"/><path class="a2d67cf5-5b02-4b94-8608-e33fdcea08c7" d="M782.85,643.33H775.5a2,2,0,0,0,.71,1.45,2.84,2.84,0,0,0,1.56.58,4.72,4.72,0,0,0,1.9-.26,5.15,5.15,0,0,0,1.75-1l1.39,1.91a7.49,7.49,0,0,1-2.34,1.37,7,7,0,0,1-2.35.41,5.08,5.08,0,0,1-4-1.49,6.15,6.15,0,0,1-1.33-4.22,5.68,5.68,0,0,1,.62-2.71,4.31,4.31,0,0,1,1.76-1.78,5.33,5.33,0,0,1,2.7-.61c2.27,0,3.78.91,4.54,2.66a5.86,5.86,0,0,1,.41,1.66A13.34,13.34,0,0,1,782.85,643.33Zm-4.75-4a2.57,2.57,0,0,0-1.94.69,2.19,2.19,0,0,0-.66,1.54h5.19A2.18,2.18,0,0,0,780,640,2.61,2.61,0,0,0,778.1,639.34Z"/><path class="a2d67cf5-5b02-4b94-8608-e33fdcea08c7" d="M787.26,647.42a3.69,3.69,0,0,1-1.51-1.22,5.69,5.69,0,0,1-.87-1.86,8.23,8.23,0,0,1-.29-2.17,6.35,6.35,0,0,1,.53-2.62,4.44,4.44,0,0,1,1.54-1.88,4.31,4.31,0,0,1,2.51-.7,6.91,6.91,0,0,1,1.12.1,2.29,2.29,0,0,1,1,.4v-4.56h2.52v14.7h-2.52v-.84a2.31,2.31,0,0,1-1.09.66,4.93,4.93,0,0,1-1.54.26A3.46,3.46,0,0,1,787.26,647.42Zm4.07-2.75v-4.83a3.85,3.85,0,0,0-2-.29,2.43,2.43,0,0,0-2.16,2.62,3.55,3.55,0,0,0,.59,2.16,2.21,2.21,0,0,0,1.55.9A3.22,3.22,0,0,0,791.33,644.67Z"/><path class="a2d67cf5-5b02-4b94-8608-e33fdcea08c7" d="M797.49,635.87a1.53,1.53,0,0,1-1.1-2.6,1.52,1.52,0,0,1,1.1-.44,1.48,1.48,0,0,1,1.07.44,1.55,1.55,0,0,1,0,2.16A1.44,1.44,0,0,1,797.49,635.87Zm1.15,11.74h-2.31v-10.5h2.31Z"/><path class="a2d67cf5-5b02-4b94-8608-e33fdcea08c7" d="M809.92,647.61H807.4v-.82a1.61,1.61,0,0,1-1,.76,4.65,4.65,0,0,1-1.59.25,6.23,6.23,0,0,1-1.73-.24,3.46,3.46,0,0,1-1.35-.7,4.47,4.47,0,0,1-1.3-3.49v-6.26H803v6.26a1.79,1.79,0,0,0,.64,1.55,2.67,2.67,0,0,0,1.61.47,2.51,2.51,0,0,0,1-.21,2,2,0,0,0,.84-.65,1.84,1.84,0,0,0,.34-1.16v-6.26h2.52Z"/><path class="a2d67cf5-5b02-4b94-8608-e33fdcea08c7" d="M828.1,647.61h-2.52v-6a1.94,1.94,0,0,0-.53-1.57,2.18,2.18,0,0,0-1.44-.45A2.87,2.87,0,0,0,822,640a1.74,1.74,0,0,0-.68,1.57v6h-2.44v-6a1.81,1.81,0,0,0-.59-1.56,2.37,2.37,0,0,0-1.42-.44,3.31,3.31,0,0,0-1.13.19,1.94,1.94,0,0,0-.87.62,1.91,1.91,0,0,0-.33,1.19v6H812v-10.5h2.52v.8a2.73,2.73,0,0,1,1.16-.7A4.65,4.65,0,0,1,817,637a4.92,4.92,0,0,1,1.83.34,3.29,3.29,0,0,1,1.4,1,3.33,3.33,0,0,1,1.55-1,6.08,6.08,0,0,1,2-.34,4.17,4.17,0,0,1,2.16.58,4.23,4.23,0,0,1,1.58,1.59,4.64,4.64,0,0,1,.6,2.39Z"/><path class="a2d67cf5-5b02-4b94-8608-e33fdcea08c7" d="M842.87,647.82a6.26,6.26,0,0,1-1.9-.29,7.85,7.85,0,0,1-1.79-.81,6.82,6.82,0,0,1-1.42-1.14l1.87-1.81a5,5,0,0,0,1.52,1.05,4.1,4.1,0,0,0,1.67.4,2.46,2.46,0,0,0,1.67-.58,1.73,1.73,0,0,0,.69-1.37,1.55,1.55,0,0,0-.49-1.13,2.86,2.86,0,0,0-1.19-.68,24.15,24.15,0,0,1-3.19-1.07,4.44,4.44,0,0,1-1.94-1.49,3.63,3.63,0,0,1-.46-2.48,3.9,3.9,0,0,1,.81-2,4,4,0,0,1,1.68-1.2,6.06,6.06,0,0,1,2.26-.4,8.58,8.58,0,0,1,2.33.34,9,9,0,0,1,2.41,1.15l-1.78,1.85a6.92,6.92,0,0,0-1.33-.57,5.15,5.15,0,0,0-1.47-.25,3.78,3.78,0,0,0-1.12.11,2.1,2.1,0,0,0-.89.46,1.18,1.18,0,0,0-.38.88,1.23,1.23,0,0,0,.31.94,2.44,2.44,0,0,0,.94.55l1.4.46a14.26,14.26,0,0,1,2.5.91,4,4,0,0,1,1.57,1.37,4.66,4.66,0,0,1-.11,4.59,4.7,4.7,0,0,1-1.74,1.63A4.87,4.87,0,0,1,842.87,647.82Z"/><path class="a2d67cf5-5b02-4b94-8608-e33fdcea08c7" d="M852.11,647.61h-2.52v-14.7h2.52Z"/><path class="a2d67cf5-5b02-4b94-8608-e33fdcea08c7" d="M857.23,647.72a3.5,3.5,0,0,1-2.41-.92,3.52,3.52,0,0,1-.28-4.13,3.82,3.82,0,0,1,1.45-1.21,5.85,5.85,0,0,1,2-.55,7,7,0,0,1,2.23.15v-.65a1,1,0,0,0-.54-1,2.77,2.77,0,0,0-1.34-.27,5.15,5.15,0,0,0-1.57.31,3.08,3.08,0,0,0-1.27.8l-1.41-1.53a5.8,5.8,0,0,1,1.89-1.22,7.05,7.05,0,0,1,2.26-.5,6.14,6.14,0,0,1,2.2.27,3.8,3.8,0,0,1,1.71,1.09,2.51,2.51,0,0,1,.59,1.56c0,.64.07,1.35.07,2.12v5.54h-2.57v-1a3.67,3.67,0,0,1-1.44.85A5.15,5.15,0,0,1,857.23,647.72Zm2.94-3.07v-1.8a6.13,6.13,0,0,0-3,.27,1.44,1.44,0,0,0-.86,1.36,1,1,0,0,0,.41.86,1.94,1.94,0,0,0,1,.25,4,4,0,0,0,1.28-.25A3.69,3.69,0,0,0,860.17,644.65Z"/><path class="a2d67cf5-5b02-4b94-8608-e33fdcea08c7" d="M866.24,642.85v-3.41h-1.53v-2.33h1.53v-4.2h2.48v4.2h1.64v2.33h-1.64v3.41a5.54,5.54,0,0,0,.14,1.42,1.23,1.23,0,0,0,.41.67,1.34,1.34,0,0,0,.59.2l.66,0h.36v2.5h-.31a10.14,10.14,0,0,1-2-.17,2.65,2.65,0,0,1-1.34-.66,3,3,0,0,1-.77-1.45A10.76,10.76,0,0,1,866.24,642.85Z"/><path class="a2d67cf5-5b02-4b94-8608-e33fdcea08c7" d="M882.62,643.33h-7.35a2,2,0,0,0,.71,1.45,2.84,2.84,0,0,0,1.56.58,4.72,4.72,0,0,0,1.9-.26,5.15,5.15,0,0,0,1.75-1l1.39,1.91a7.49,7.49,0,0,1-2.34,1.37,7.05,7.05,0,0,1-2.35.41,5.08,5.08,0,0,1-4-1.49,6.1,6.1,0,0,1-1.33-4.22,5.68,5.68,0,0,1,.62-2.71,4.31,4.31,0,0,1,1.76-1.78,5.33,5.33,0,0,1,2.7-.61c2.27,0,3.78.91,4.54,2.66a6.21,6.21,0,0,1,.41,1.66A13.34,13.34,0,0,1,882.62,643.33Zm-4.75-4a2.57,2.57,0,0,0-1.94.69,2.19,2.19,0,0,0-.66,1.54h5.19a2.15,2.15,0,0,0-.67-1.55A2.57,2.57,0,0,0,877.87,639.34Z"/><path class="a2d67cf5-5b02-4b94-8608-e33fdcea08c7" d="M755.59,672.42v-14.7h5.59a3.47,3.47,0,0,1,2,.58,3.87,3.87,0,0,1,1.34,1.52,4.62,4.62,0,0,1,.47,2.06,4.82,4.82,0,0,1-.21,1.38,4.64,4.64,0,0,1-.63,1.33,3.87,3.87,0,0,1,1.11,1.47,4.45,4.45,0,0,1,.4,1.89,4.54,4.54,0,0,1-.3,1.61,5.14,5.14,0,0,1-.84,1.44,4.35,4.35,0,0,1-1.24,1,3.05,3.05,0,0,1-1.5.39Zm2.58-8.61h3a1,1,0,0,0,.67-.29,2.29,2.29,0,0,0,.47-.74,2.33,2.33,0,0,0,.18-.9,1.73,1.73,0,0,0-.34-1.07,1.06,1.06,0,0,0-.92-.46h-3Zm0,6h3.62a.92.92,0,0,0,.63-.29,2.41,2.41,0,0,0,.48-.7,2,2,0,0,0,.19-.86,1.91,1.91,0,0,0-.35-1.15,1.07,1.07,0,0,0-.89-.47h-3.68Z"/><path class="a2d67cf5-5b02-4b94-8608-e33fdcea08c7" d="M770.08,672.42h-2.52v-14.7h2.52Z"/><path class="a2d67cf5-5b02-4b94-8608-e33fdcea08c7" d="M781.42,672.42H778.9v-.82a1.62,1.62,0,0,1-.95.76,4.67,4.67,0,0,1-1.6.25,6.11,6.11,0,0,1-1.72-.24,3.51,3.51,0,0,1-1.36-.71,4.47,4.47,0,0,1-1.3-3.48v-6.26h2.52v6.26a1.77,1.77,0,0,0,.64,1.54,2.76,2.76,0,0,0,2.6.26,2,2,0,0,0,.84-.65,1.87,1.87,0,0,0,.33-1.15v-6.26h2.52Z"/><path class="a2d67cf5-5b02-4b94-8608-e33fdcea08c7" d="M793.37,668.14H786a2,2,0,0,0,.71,1.45,2.83,2.83,0,0,0,1.56.57,4.71,4.71,0,0,0,1.9-.25,5.18,5.18,0,0,0,1.75-1l1.39,1.91A7.34,7.34,0,0,1,791,672.2a7.26,7.26,0,0,1-2.34.41,5.09,5.09,0,0,1-4-1.49,6.12,6.12,0,0,1-1.34-4.22,5.68,5.68,0,0,1,.62-2.71,4.3,4.3,0,0,1,1.77-1.79,5.37,5.37,0,0,1,2.69-.61q3.4,0,4.54,2.67a5.86,5.86,0,0,1,.41,1.66A13.29,13.29,0,0,1,793.37,668.14Zm-4.75-4a2.57,2.57,0,0,0-1.94.69,2.17,2.17,0,0,0-.66,1.53h5.19a2.15,2.15,0,0,0-.66-1.54A2.55,2.55,0,0,0,788.62,664.15Z"/><path class="a2d67cf5-5b02-4b94-8608-e33fdcea08c7" d="M813.54,661.83l0,2.54h-3.24l-.58,2.21h2.7v2.52H809l-1,3.69h-2.75l1-3.69-2.31,0-1,3.71h-2.63l1-3.71h-2.48v-2.52H802l.61-2.21H800v-2.56l3.32,0,1-3.63h2.6l-1,3.63h2.37l1-3.63h2.62l-1,3.65Zm-5.92,2.52h-2.38l-.58,2.23H807Z"/><path class="a2d67cf5-5b02-4b94-8608-e33fdcea08c7" d="M820.09,672.92a5.05,5.05,0,0,1-2.49-.62,4.78,4.78,0,0,1-1.74-1.66,4.31,4.31,0,0,1-.64-2.32,3.44,3.44,0,0,1,.55-1.91,6.22,6.22,0,0,1,1.32-1.47,6.12,6.12,0,0,1-.92-1.25,3,3,0,0,1-.38-1.5,4,4,0,0,1,.57-2.12,4.32,4.32,0,0,1,1.56-1.5,4.2,4.2,0,0,1,2.17-.56,4.34,4.34,0,0,1,2.22.57,4.21,4.21,0,0,1,1.54,1.51,4,4,0,0,1,.57,2.1,3.15,3.15,0,0,1-.38,1.5,5.22,5.22,0,0,1-.93,1.25,5.19,5.19,0,0,1,1.33,1.47,3.58,3.58,0,0,1,.52,1.91,4.29,4.29,0,0,1-.67,2.4,4.59,4.59,0,0,1-1.77,1.62A5.13,5.13,0,0,1,820.09,672.92Zm0-2.44a2.33,2.33,0,0,0,1.68-.59,2,2,0,0,0,.63-1.57,1.84,1.84,0,0,0-.63-1.48,2.49,2.49,0,0,0-1.68-.54,2.45,2.45,0,0,0-1.67.54,1.87,1.87,0,0,0-.62,1.48,2.06,2.06,0,0,0,.62,1.57A2.29,2.29,0,0,0,820.09,670.48Zm0-6.61a1.84,1.84,0,0,0,1.28-.44,1.84,1.84,0,0,0,0-2.48,1.8,1.8,0,0,0-1.28-.44,1.77,1.77,0,0,0-1.27.44,1.87,1.87,0,0,0,0,2.48A1.82,1.82,0,0,0,820.09,663.87Z"/><path class="a2d67cf5-5b02-4b94-8608-e33fdcea08c7" d="M829.88,672.92a3.52,3.52,0,0,1-2.42-.92,3.13,3.13,0,0,1-.82-2.29,3,3,0,0,1,.55-1.84,3.67,3.67,0,0,1,1.45-1.21,5.86,5.86,0,0,1,2-.55,7.41,7.41,0,0,1,2.24.15v-.65a1,1,0,0,0-.55-1,2.73,2.73,0,0,0-1.33-.27,5.27,5.27,0,0,0-1.58.31,3.21,3.21,0,0,0-1.27.8l-1.4-1.53a5.8,5.8,0,0,1,1.89-1.22,7,7,0,0,1,2.26-.5,6.16,6.16,0,0,1,2.2.27,3.91,3.91,0,0,1,1.71,1.09,2.51,2.51,0,0,1,.59,1.56c0,.64.06,1.35.06,2.12v5.54H832.9v-1a3.7,3.7,0,0,1-1.45.85A5.09,5.09,0,0,1,829.88,672.92Zm2.94-3.07v-1.8a6.2,6.2,0,0,0-3,.27,1.44,1.44,0,0,0-.85,1.36,1,1,0,0,0,.41.86,1.92,1.92,0,0,0,1,.25,4,4,0,0,0,1.28-.25A3.81,3.81,0,0,0,832.82,669.85Z"/><path class="a2d67cf5-5b02-4b94-8608-e33fdcea08c7" d="M848,669.1h-2v3.71h-2.52V669.1h-6.13V667l5.36-8.84H846v8.53h2Zm-4.56-2.46v-5.38l-3.27,5.38Z"/><path class="a2d67cf5-5b02-4b94-8608-e33fdcea08c7" d="M856.13,660.49a5.84,5.84,0,0,0-1.41.14,1.17,1.17,0,0,0-.75.55,2.86,2.86,0,0,0-.24,1.18h1.56v2.2h-1.56v8.3h-2.48v-8.3h-1.53v-2.2h1.55a4.5,4.5,0,0,1,1.16-3.3,4.62,4.62,0,0,1,3.7-1Z"/><path class="a2d67cf5-5b02-4b94-8608-e33fdcea08c7" d="M863.16,660.49a5.84,5.84,0,0,0-1.41.14,1.15,1.15,0,0,0-.74.55,2.57,2.57,0,0,0-.24,1.18h1.55v2.2h-1.55v8.3h-2.48v-8.3h-1.53v-2.2h1.55a4.5,4.5,0,0,1,1.16-3.3,4.6,4.6,0,0,1,3.69-1Z"/><path class="a2d67cf5-5b02-4b94-8608-e33fdcea08c7" d="M870.2,660.49a5.84,5.84,0,0,0-1.41.14,1.17,1.17,0,0,0-.75.55,2.86,2.86,0,0,0-.24,1.18h1.56v2.2H867.8v8.3h-2.48v-8.3h-1.53v-2.2h1.56a4.49,4.49,0,0,1,1.15-3.3,4.62,4.62,0,0,1,3.7-1Z"/><path class="a2d67cf5-5b02-4b94-8608-e33fdcea08c7" d="M877.23,660.49a5.84,5.84,0,0,0-1.41.14,1.18,1.18,0,0,0-.74.55,2.57,2.57,0,0,0-.24,1.18h1.55v2.2h-1.55v8.3h-2.48v-8.3h-1.53v-2.2h1.55a4.5,4.5,0,0,1,1.16-3.3,4.61,4.61,0,0,1,3.69-1Z"/><path class="a2d67cf5-5b02-4b94-8608-e33fdcea08c7" d="M884.27,660.49a5.84,5.84,0,0,0-1.41.14,1.17,1.17,0,0,0-.75.55,2.86,2.86,0,0,0-.24,1.18h1.56v2.2h-1.56v8.3H879.4v-8.3h-1.54v-2.2h1.56a4.49,4.49,0,0,1,1.15-3.3,4.62,4.62,0,0,1,3.7-1Z"/><path class="a2d67cf5-5b02-4b94-8608-e33fdcea08c7" d="M743.3,970.47l42.82-138.55h29.93l43,138.55H833.69L823.78,937H778.59l-9.91,33.5Zm57.88-108.82-16.25,54.71h32.51Z"/><path class="a2d67cf5-5b02-4b94-8608-e33fdcea08c7" d="M893.55,971.66q-15.07-.79-22.8-8.62T863,941.33A29.06,29.06,0,0,1,868.17,924a35.61,35.61,0,0,1,13.68-11.4,54.39,54.39,0,0,1,18.94-5.15,67.19,67.19,0,0,1,21.1,1.39v-6.15c0-4.23-1.72-7.26-5.15-9.12A24.85,24.85,0,0,0,904.15,891a47.84,47.84,0,0,0-14.87,2.88,29.66,29.66,0,0,0-12,7.63L864,887a54.46,54.46,0,0,1,17.83-11.5,66,66,0,0,1,21.31-4.75A57,57,0,0,1,924,873.35a36,36,0,0,1,16.15,10.3q4.95,5.55,5.55,14.67t.59,20v52.33H922.09v-9.12a34.49,34.49,0,0,1-13.67,8A47.15,47.15,0,0,1,893.55,971.66Zm27.74-28.94v-17q-20.61-1.59-28.63,2.57t-8,12.89c0,3.69,1.29,6.37,3.86,8a17.11,17.11,0,0,0,9.71,2.38,36.68,36.68,0,0,0,12.1-2.38A34.36,34.36,0,0,0,921.29,942.72Z"/><path class="a2d67cf5-5b02-4b94-8608-e33fdcea08c7" d="M1033.16,971.22h-12.75L1002,948.69l-2-2.6v25.13H989.35V908.3H1000v25.31l20.19-25.4h13.11l-23.7,31.42Z"/><path class="a2d67cf5-5b02-4b94-8608-e33fdcea08c7" d="M1077.32,971.22h-10.78v-3.5a6.83,6.83,0,0,1-4.08,3.23,20.08,20.08,0,0,1-6.82,1.08,26.07,26.07,0,0,1-7.36-1,15,15,0,0,1-5.79-3q-5.57-5-5.57-14.9V926.34h10.78v26.75q0,4.57,2.74,6.6a11.27,11.27,0,0,0,6.86,2,10.9,10.9,0,0,0,4.22-.9,8.72,8.72,0,0,0,3.59-2.78,7.92,7.92,0,0,0,1.43-4.94V926.34h10.78Z"/><path class="a2d67cf5-5b02-4b94-8608-e33fdcea08c7" d="M1097.06,971.22h-10.77V908.39h10.77Z"/><path class="a2d67cf5-5b02-4b94-8608-e33fdcea08c7" d="M1112.59,921.05a6.44,6.44,0,0,1-6.55-6.56,6.25,6.25,0,0,1,1.88-4.57,6.33,6.33,0,0,1,4.67-1.89,6.44,6.44,0,0,1,6.46,6.46,6.31,6.31,0,0,1-1.88,4.67A6.23,6.23,0,0,1,1112.59,921.05Zm4.94,50.17h-9.88V926.34h9.88Z"/><path class="a2d67cf5-5b02-4b94-8608-e33fdcea08c7" d="M1196.78,971.22H1186V945.37q0-4.75-2.29-6.68a9.19,9.19,0,0,0-6.15-1.94,12.17,12.17,0,0,0-6.87,1.94q-2.91,1.92-2.91,6.68v25.85h-10.41V945.37q0-4.75-2.56-6.64a9.89,9.89,0,0,0-6.06-1.88,14,14,0,0,0-4.8.81,7.9,7.9,0,0,0-3.73,2.64,8,8,0,0,0-1.43,5.07v25.85H1128V926.34h10.77v3.41a11.81,11.81,0,0,1,5-3,19.36,19.36,0,0,1,5.61-.86,21.19,21.19,0,0,1,7.85,1.48,13.73,13.73,0,0,1,6,4.45,14.05,14.05,0,0,1,6.64-4.45,25.83,25.83,0,0,1,8.35-1.48,18.07,18.07,0,0,1,9.25,2.47,18.76,18.76,0,0,1,6.77,6.82,19.72,19.72,0,0,1,2.56,10.19Z"/><path class="a2d67cf5-5b02-4b94-8608-e33fdcea08c7" d="M1239,971.22l.09-62.83h23.43a14.1,14.1,0,0,1,8.62,2.74,18.23,18.23,0,0,1,5.69,7.09,21.75,21.75,0,0,1,2,9.29,19.15,19.15,0,0,1-1.3,6.91,22.69,22.69,0,0,1-3.54,6.19,17.8,17.8,0,0,1-5.25,4.45,13.25,13.25,0,0,1-6.51,1.66h-12.48v24.5Zm10.77-35.09h12a5.52,5.52,0,0,0,4.53-2.65,9.87,9.87,0,0,0,1.94-6,9.23,9.23,0,0,0-2-6.1q-2-2.43-4.18-2.43h-12.3Z"/><path class="a2d67cf5-5b02-4b94-8608-e33fdcea08c7" d="M1295.33,971.67q-6.82-.36-10.32-3.9t-3.5-9.83a13.13,13.13,0,0,1,2.33-7.85,16.18,16.18,0,0,1,6.19-5.17,24.9,24.9,0,0,1,8.58-2.33,30.42,30.42,0,0,1,9.56.63v-2.78a4.33,4.33,0,0,0-2.34-4.13,11.19,11.19,0,0,0-5.7-1.17,21.4,21.4,0,0,0-6.73,1.3,13.41,13.41,0,0,0-5.43,3.46l-6-6.56a24.58,24.58,0,0,1,8.07-5.2,29.84,29.84,0,0,1,9.65-2.16,26,26,0,0,1,9.43,1.17,16.28,16.28,0,0,1,7.31,4.67,10.6,10.6,0,0,1,2.51,6.64c.18,2.76.28,5.78.28,9.07v23.69h-11v-4.13a15.58,15.58,0,0,1-6.19,3.64A21.37,21.37,0,0,1,1295.33,971.67Zm12.56-13.1v-7.72q-9.33-.72-13,1.16a6.19,6.19,0,0,0-3.64,5.84,4,4,0,0,0,1.75,3.63,7.74,7.74,0,0,0,4.4,1.08,16.8,16.8,0,0,0,5.48-1.08A15.5,15.5,0,0,0,1307.89,958.57Z"/><path class="a2d67cf5-5b02-4b94-8608-e33fdcea08c7" d="M1328.18,971.22V926.34h10.68v3.33a11,11,0,0,1,8.4-3.51,38.18,38.18,0,0,1,10.81,2l-5.2,9.24a14.51,14.51,0,0,0-6.69-.71,11.39,11.39,0,0,0-5.34,2,4.24,4.24,0,0,0-2,3.68v28.9Z"/><path class="a2d67cf5-5b02-4b94-8608-e33fdcea08c7" d="M1365.25,971.22V908.39H1376v30l11-12.21h14.09l-16.78,18.94,18.58,26.12H1390.2L1376,952.46v18.76Z"/></svg>