<svg id="b8c546fc-0cfd-4a1a-bec3-a6bc2b7fbc7d" data-name="Layer 1" xmlns="http://www.w3.org/2000/svg" viewBox="0 0 2160 1080"><defs><style>.e87ff468-3bbf-4fc2-b6bf-241ba1dd5cd8{fill:#384bb7;stroke:#231f20;stroke-miterlimit:10;}.e694d80b-b658-45f2-8557-4126cbf8e28c{fill:#fff;}.f5f16e7e-1ad8-4460-a803-760477829661{opacity:0.17;}.ac340240-fbce-40a9-9af6-f2d481852b91{opacity:0.5;}.bdb3c3c2-5578-4546-adeb-3f15abf3e0d4{opacity:0.15;}</style></defs><title>Artboard 1 copy</title><rect class="e87ff468-3bbf-4fc2-b6bf-241ba1dd5cd8" x="-14.5" y="-9.75" width="2204.52" height="1100"/><path class="e694d80b-b658-45f2-8557-4126cbf8e28c" d="M874.45,510.79a47.22,47.22,0,0,0-9.64-14.86,46.18,46.18,0,0,0-14.22-10.11,42.36,42.36,0,0,0-34.36,0,46.57,46.57,0,0,0-14.34,10.11,47.27,47.27,0,0,0-9.78,14.86,46,46,0,0,0-3.53,17.93,48.2,48.2,0,0,0,1.4,11.65,46.45,46.45,0,0,0,2.06,6.41,47.35,47.35,0,0,0,9.59,15A45.65,45.65,0,0,0,815.84,572a42.89,42.89,0,0,0,34.81.06,45.43,45.43,0,0,0,14.22-10A46.39,46.39,0,0,0,874.45,547a45.85,45.85,0,0,0,1.61-4.71,49.48,49.48,0,0,0,1.84-13.61A46.81,46.81,0,0,0,874.45,510.79Zm-16.56,33.64A31.41,31.41,0,0,1,847.66,556a25.14,25.14,0,0,1-14.35,4.3A25.45,25.45,0,0,1,819,556a32.34,32.34,0,0,1-12.33-15.92,33.9,33.9,0,0,1-1.89-11.34,31.9,31.9,0,0,1,3.86-15.45A31.13,31.13,0,0,1,819,501.86a26.14,26.14,0,0,1,28.62-.07,31.1,31.1,0,0,1,10.3,11.28,32.22,32.22,0,0,1,3.85,15.65,33.3,33.3,0,0,1-2.57,13C858.78,542.67,858.36,543.56,857.89,544.43Z"/><path class="e694d80b-b658-45f2-8557-4126cbf8e28c" d="M928.76,509.43v38.86a11.6,11.6,0,0,1-2.08,7.17,12.53,12.53,0,0,1-5.22,4,15.86,15.86,0,0,1-6.13,1.3,16.42,16.42,0,0,1-10-2.93q-4-2.94-4-9.58V509.43H885.73v38.86q0,14.34,8.09,21.64a21.57,21.57,0,0,0,8.4,4.36,38.15,38.15,0,0,0,10.7,1.5,29.4,29.4,0,0,0,9.91-1.56c2.91-1,4.89-2.6,5.93-4.7v5.09h15.65V509.43Z"/><path class="e694d80b-b658-45f2-8557-4126cbf8e28c" d="M985.15,509.16A16,16,0,0,0,973,514.25v-4.82H957.45v65.19H973v-42a6.14,6.14,0,0,1,2.88-5.34,16.73,16.73,0,0,1,7.75-2.87,21,21,0,0,1,9.71,1l7.57-13.42A55.68,55.68,0,0,0,985.15,509.16Z"/><path class="e694d80b-b658-45f2-8557-4126cbf8e28c" d="M1062.54,524.35a27.38,27.38,0,0,0-11.14-11.66,33.36,33.36,0,0,0-16.37-3.91q-14.21,0-22.88,8.8t-8.68,26c0,1.06,0,2.1.11,3.12a34.09,34.09,0,0,0,3.87,14,28.71,28.71,0,0,0,11.09,11.48,34.89,34.89,0,0,0,32.86,0,29.16,29.16,0,0,0,11.14-11.48,32.7,32.7,0,0,0,3.73-11.89,42.59,42.59,0,0,0,.32-5.26Q1066.59,532.12,1062.54,524.35ZM1049.7,552.2a16.1,16.1,0,0,1-5.61,6.58,15.66,15.66,0,0,1-9.06,2.54,15.83,15.83,0,0,1-8.93-2.47,16.22,16.22,0,0,1-5.68-6.52,19.14,19.14,0,0,1-1.64-5.12,20.6,20.6,0,0,1-.31-3.63c0-5.72,1.46-10.47,4.37-14.21s7-5.6,12.19-5.6c5.4,0,9.49,1.94,12.33,5.8a23.21,23.21,0,0,1,4.24,14,20.15,20.15,0,0,1-.55,4.74A19.62,19.62,0,0,1,1049.7,552.2Z"/><path class="e694d80b-b658-45f2-8557-4126cbf8e28c" d="M1132.57,524.55a27.49,27.49,0,0,0-9.59-11.67q-6.33-4.36-15.58-4.37a45,45,0,0,0-6.91.65,15,15,0,0,0-6.52,2.48v-28.3h-15.65v91.28H1094V569.4a15.5,15.5,0,0,0,6.84,4.11,31.69,31.69,0,0,0,9.59,1.57,20.91,20.91,0,0,0,8.87-1.63,23.33,23.33,0,0,0,9.39-7.63,34.56,34.56,0,0,0,5.4-11.54c.24-.86.45-1.73.62-2.6a51.17,51.17,0,0,0,1.15-10.83A39.77,39.77,0,0,0,1132.57,524.55Zm-16.17,29.66a13.55,13.55,0,0,1-9.59,5.61c-4,.48-8.24-.67-12.84-3.45v-30a24,24,0,0,1,12.71-1.83,15.83,15.83,0,0,1,9.65,5c2.48,2.73,3.72,6.5,3.72,11.28a25.81,25.81,0,0,1-1.75,10A15.34,15.34,0,0,1,1116.4,554.21Z"/><path class="e694d80b-b658-45f2-8557-4126cbf8e28c" d="M1202.72,524.35a27.4,27.4,0,0,0-11.15-11.66,33.39,33.39,0,0,0-16.37-3.91q-14.21,0-22.88,8.8t-8.67,26a41.38,41.38,0,0,0,.88,8.68,32.05,32.05,0,0,0,3.09,8.47,28.77,28.77,0,0,0,11.09,11.48,34.89,34.89,0,0,0,32.86,0,29.18,29.18,0,0,0,11.15-11.48,30.85,30.85,0,0,0,1.85-4,37.36,37.36,0,0,0,2.19-13.11Q1206.76,532.12,1202.72,524.35Zm-18.45,34.43a17.42,17.42,0,0,1-18,.07,15.92,15.92,0,0,1-5.13-5.51c-.19-.32-.37-.67-.54-1a19.88,19.88,0,0,1-1.95-8.75c0-5.72,1.45-10.47,4.36-14.21s7-5.6,12.19-5.6q8.08,0,12.33,5.8a23.14,23.14,0,0,1,4.23,14,20.23,20.23,0,0,1-1.88,8.62,16.43,16.43,0,0,1-5.61,6.58Z"/><path class="e694d80b-b658-45f2-8557-4126cbf8e28c" d="M1246.2,509.16a16,16,0,0,0-12.19,5.09v-4.82h-15.52v65.19H1234v-42a6.15,6.15,0,0,1,2.87-5.34,16.82,16.82,0,0,1,7.76-2.87,21,21,0,0,1,9.72,1l7.55-13.42A55.62,55.62,0,0,0,1246.2,509.16Z"/><path class="e694d80b-b658-45f2-8557-4126cbf8e28c" d="M1323.59,524.35a27.38,27.38,0,0,0-11.14-11.66,33.42,33.42,0,0,0-16.37-3.91q-14.2,0-22.89,8.8t-8.67,26a36.34,36.34,0,0,0,3.15,15.48c.26.57.54,1.13.83,1.67a28.68,28.68,0,0,0,11.08,11.48,34.91,34.91,0,0,0,32.87,0,29.16,29.16,0,0,0,11.14-11.48,29.74,29.74,0,0,0,2-4.53,37.49,37.49,0,0,0,2-12.62Q1327.64,532.12,1323.59,524.35Zm-18.45,34.43a17.4,17.4,0,0,1-18,.07l-.39-.28a15.94,15.94,0,0,1-5.29-6.24,19.89,19.89,0,0,1-2-8.75c0-5.72,1.47-10.47,4.38-14.21s7-5.6,12.19-5.6q8.09,0,12.32,5.8a23.15,23.15,0,0,1,4.24,14,20.09,20.09,0,0,1-1.89,8.62,15.85,15.85,0,0,1-4,5.36A16.9,16.9,0,0,1,1305.14,558.78Z"/><path class="e694d80b-b658-45f2-8557-4126cbf8e28c" d="M1381.39,550.84A14.61,14.61,0,0,0,1379,545a19,19,0,0,0-6.78-5.94,38.45,38.45,0,0,0-6.59-2.79c-2.3-.74-4.43-1.47-6.39-2.16a16.93,16.93,0,0,1-4.76-2.48,4.58,4.58,0,0,1-1.82-3.78,4.47,4.47,0,0,1,2.22-4.24,10.43,10.43,0,0,1,5.21-1.23,19.33,19.33,0,0,1,5.94,1,13.51,13.51,0,0,1,5.15,2.93l9.9-8.87a24,24,0,0,0-8.73-6.19,30.4,30.4,0,0,0-12.39-2.41,26.78,26.78,0,0,0-12.78,2.93,20.65,20.65,0,0,0-8.27,7.63,15.25,15.25,0,0,0-2.1,10.1q.73,5.41,5.81,10.23a24.3,24.3,0,0,0,7.17,4.57,70.79,70.79,0,0,0,7.89,2.8,37.38,37.38,0,0,1,6.52,2.48,5.91,5.91,0,0,1,2.89,2.82,4.44,4.44,0,0,1,.3.89,10.22,10.22,0,0,1,0,3.33,5.56,5.56,0,0,1-1.82,3.46,7,7,0,0,1-2.94,1.5,14.92,14.92,0,0,1-3.84.46q-7.3,0-14.21-6l-9.13,9.78a32.55,32.55,0,0,0,11,7.37,33.12,33.12,0,0,0,12.26,2.41,27,27,0,0,0,11.41-2.41,20.6,20.6,0,0,0,8.41-7,19,19,0,0,0,3.19-11.21A22,22,0,0,0,1381.39,550.84Z"/><path class="e694d80b-b658-45f2-8557-4126cbf8e28c" d="M1502.66,540.17a19.81,19.81,0,0,0-2.65-6.69,24.09,24.09,0,0,0-9.77-8.47,84.69,84.69,0,0,0-15.52-5.67c-3.31-1.05-6.19-2-8.67-2.87a15.09,15.09,0,0,1-5.81-3.4,8.44,8.44,0,0,1,.39-11.28,12.82,12.82,0,0,1,5.55-2.86,24.94,24.94,0,0,1,7-.72,32.45,32.45,0,0,1,9.13,1.57,46.87,46.87,0,0,1,8.21,3.52l11.09-11.48a53.37,53.37,0,0,0-15-7.1,52.69,52.69,0,0,0-14.47-2.16,38.06,38.06,0,0,0-14,2.48,25,25,0,0,0-10.44,7.5,24,24,0,0,0-5,12.58q-1,9.64,2.87,15.39t12.06,9.26a144.94,144.94,0,0,0,19.76,6.64,17.47,17.47,0,0,1,7.42,4.24c.23.22.45.45.65.68a9.28,9.28,0,0,1,2.36,6.3,10.88,10.88,0,0,1-4.24,8.54,15.46,15.46,0,0,1-10.37,3.58,25.5,25.5,0,0,1-10.36-2.47,30.24,30.24,0,0,1-9.46-6.51L1441.73,562a42.76,42.76,0,0,0,8.8,7.1,47.71,47.71,0,0,0,11.08,5,40.15,40.15,0,0,0,11.81,1.81,30.54,30.54,0,0,0,15.12-3.77A29.79,29.79,0,0,0,1499.36,562a26.31,26.31,0,0,0,4-14.35A33.55,33.55,0,0,0,1502.66,540.17Z"/><path class="e694d80b-b658-45f2-8557-4126cbf8e28c" d="M1574.7,536.27a34.18,34.18,0,0,0-3.49-10.41,32.72,32.72,0,0,0-10.7-12A28.75,28.75,0,0,0,1546,509a26.44,26.44,0,0,0-15.26,4v-3.52h-15.64v91.28h15.64v-28.3a14,14,0,0,0,4.37,1.88,31.41,31.41,0,0,0,5.55,1c1.91.18,3.52.27,4.82.27a27.83,27.83,0,0,0,15.06-4.51,31.62,31.62,0,0,0,10.69-11.66,33.17,33.17,0,0,0,4-16.17A43,43,0,0,0,1574.7,536.27Zm-19.27,18.86a16.33,16.33,0,0,1-10.56,5.28q-6.52.78-14.09-2.74v-30q7.17-4.3,13.69-3.65a15.72,15.72,0,0,1,10.76,5.61,16.87,16.87,0,0,1,3.58,7.36,26.54,26.54,0,0,1,.67,6.2C1559.48,548.15,1558.12,552.13,1555.43,555.13Z"/><path class="e694d80b-b658-45f2-8557-4126cbf8e28c" d="M1646.64,535.51c-.07-.68-.15-1.34-.26-2a35.33,35.33,0,0,0-2.29-8.33q-7-16.29-28.16-16.56a33.31,33.31,0,0,0-16.76,3.78,27,27,0,0,0-11,11.08,33.16,33.16,0,0,0-3.63,12.32c-.14,1.45-.21,2.95-.21,4.51q0,16.95,8.27,26.21t24.85,9.25a44.38,44.38,0,0,0,14.53-2.53,46.58,46.58,0,0,0,14.54-8.55l-8.6-11.86a31.94,31.94,0,0,1-10.89,6.19,29.47,29.47,0,0,1-11.8,1.56,17.24,17.24,0,0,1-9.65-3.58,12.35,12.35,0,0,1-4.43-9h45.63A77.44,77.44,0,0,0,1646.64,535.51Zm-45.44,1.56a12.26,12.26,0,0,1,.15-1.93,13.93,13.93,0,0,1,4-7.59q4.1-4.31,12.06-4.3t11.93,4.23A14.1,14.1,0,0,1,1633,534a12.22,12.22,0,0,1,.38,3.09Z"/><path class="e694d80b-b658-45f2-8557-4126cbf8e28c" d="M1659,483.34v91.28h15.65V483.34Z"/><path class="e694d80b-b658-45f2-8557-4126cbf8e28c" d="M1690.25,483.34v91.28h15.65V483.34Z"/><g class="f5f16e7e-1ad8-4460-a803-760477829661"><path d="M876.06,542.33a45.85,45.85,0,0,1-1.61,4.71A46.39,46.39,0,0,1,864.87,562a45.43,45.43,0,0,1-14.22,10,42.89,42.89,0,0,1-34.81-.06,45.65,45.65,0,0,1-14.21-10.17,47.35,47.35,0,0,1-9.59-15,46.45,46.45,0,0,1-2.06-6.41c5.56-.3,11.15-.37,16.66-.31A32.34,32.34,0,0,0,819,556a25.45,25.45,0,0,0,14.34,4.3,25.14,25.14,0,0,0,14.35-4.3,31.41,31.41,0,0,0,10.23-11.55c.47-.87.89-1.76,1.28-2.67Z"/></g><g class="f5f16e7e-1ad8-4460-a803-760477829661"><path d="M944.41,544.67v30H928.76v-5.09c-1,2.1-3,3.66-5.93,4.7a29.4,29.4,0,0,1-9.91,1.56,38.15,38.15,0,0,1-10.7-1.5,21.57,21.57,0,0,1-8.4-4.36q-8.1-7.3-8.09-21.64v-5.62l15.65.53v5.09q0,6.65,4,9.58a16.42,16.42,0,0,0,10,2.93,15.86,15.86,0,0,0,6.13-1.3,12.53,12.53,0,0,0,5.22-4,11.6,11.6,0,0,0,2.08-7.17v-4.15Z"/></g><g class="f5f16e7e-1ad8-4460-a803-760477829661"><path d="M957.45,545.12l15.51.53v29H957.45Z"/></g><g class="f5f16e7e-1ad8-4460-a803-760477829661"><path d="M1066.27,548.84a32.7,32.7,0,0,1-3.73,11.89,29.16,29.16,0,0,1-11.14,11.48,34.89,34.89,0,0,1-32.86,0,28.71,28.71,0,0,1-11.09-11.48,34.09,34.09,0,0,1-3.87-14c5.07.16,10.14.34,15.2.51a19.14,19.14,0,0,0,1.64,5.12,16.22,16.22,0,0,0,5.68,6.52,15.83,15.83,0,0,0,8.93,2.47,15.66,15.66,0,0,0,9.06-2.54,16.1,16.1,0,0,0,5.61-6.58,19.62,19.62,0,0,0,1.35-3.88l7.83.26Z"/></g><g class="f5f16e7e-1ad8-4460-a803-760477829661"><path d="M1134.68,551.68c-.17.87-.38,1.74-.62,2.6a34.56,34.56,0,0,1-5.4,11.54,23.33,23.33,0,0,1-9.39,7.63,20.91,20.91,0,0,1-8.87,1.63,31.69,31.69,0,0,1-9.59-1.57,15.5,15.5,0,0,1-6.84-4.11v5.22h-15.65V549.25l15.65.58v6.54c4.6,2.78,8.89,3.93,12.84,3.45a13.55,13.55,0,0,0,9.59-5.61,15.34,15.34,0,0,0,1.9-3.35Q1126.49,551.25,1134.68,551.68Z"/></g><g class="f5f16e7e-1ad8-4460-a803-760477829661"><path d="M1204.57,556.69a30.85,30.85,0,0,1-1.85,4,29.18,29.18,0,0,1-11.15,11.48,34.89,34.89,0,0,1-32.86,0,28.77,28.77,0,0,1-11.09-11.48,32.05,32.05,0,0,1-3.09-8.47c5.11.3,10.21.64,15.32,1l1.29.09a15.43,15.43,0,0,0,14.06,8,15.72,15.72,0,0,0,9.07-2.54,16.18,16.18,0,0,0,3.62-3.37C1193.45,555.84,1199,556.29,1204.57,556.69Z"/></g><g class="f5f16e7e-1ad8-4460-a803-760477829661"><path d="M1218.49,557.65q7.76.5,15.52.84v16.13h-15.52Z"/></g><g class="f5f16e7e-1ad8-4460-a803-760477829661"><path d="M1325.61,556.2a29.74,29.74,0,0,1-2,4.53,29.16,29.16,0,0,1-11.14,11.48,34.91,34.91,0,0,1-32.87,0,28.68,28.68,0,0,1-11.08-11.48c-.29-.54-.57-1.1-.83-1.67q9.55-.1,19.09-.49l.39.28a17.4,17.4,0,0,0,18-.07,16.9,16.9,0,0,0,1.57-1.22Q1316.16,557,1325.61,556.2Z"/></g><g class="f5f16e7e-1ad8-4460-a803-760477829661"><path d="M1381.39,550.84a22,22,0,0,1,.35,4.09,19,19,0,0,1-3.19,11.21,20.6,20.6,0,0,1-8.41,7,27,27,0,0,1-11.41,2.41,33.12,33.12,0,0,1-12.26-2.41,32.55,32.55,0,0,1-11-7.37l9.13-9.78q6.9,6,14.21,6a14.92,14.92,0,0,0,3.84-.46,7,7,0,0,0,2.94-1.5,5.56,5.56,0,0,0,1.82-3.46,10.22,10.22,0,0,0,0-3.33,4.44,4.44,0,0,0-.3-.89Z"/></g><g class="f5f16e7e-1ad8-4460-a803-760477829661"><path d="M1502.66,540.17a33.55,33.55,0,0,1,.74,7.46,26.31,26.31,0,0,1-4,14.35,29.79,29.79,0,0,1-10.82,10.17,30.54,30.54,0,0,1-15.12,3.77,40.15,40.15,0,0,1-11.81-1.81,47.71,47.71,0,0,1-11.08-5,42.76,42.76,0,0,1-8.8-7.1l11.6-11.21a30.24,30.24,0,0,0,9.46,6.51,25.5,25.5,0,0,0,10.36,2.47,15.46,15.46,0,0,0,10.37-3.58,10.88,10.88,0,0,0,4.24-8.54,9.28,9.28,0,0,0-2.36-6.3Q1494,540.71,1502.66,540.17Z"/></g><g class="f5f16e7e-1ad8-4460-a803-760477829661"><path d="M1575.25,543.2a33.17,33.17,0,0,1-4,16.17A31.62,31.62,0,0,1,1560.58,571a27.83,27.83,0,0,1-15.06,4.51c-1.3,0-2.91-.09-4.82-.27a31.41,31.41,0,0,1-5.55-1,14,14,0,0,1-4.37-1.88v28.3h-15.64V539.38q7.81-.48,15.64-.92v19.21q7.58,3.52,14.09,2.74a16.33,16.33,0,0,0,10.56-5.28c2.69-3,4-7,4-11.93a26.54,26.54,0,0,0-.67-6.2c5.3-.26,10.58-.5,15.89-.73A43,43,0,0,1,1575.25,543.2Z"/></g><g class="f5f16e7e-1ad8-4460-a803-760477829661"><path d="M1646.83,548H1601.2a12.35,12.35,0,0,0,4.43,9,17.24,17.24,0,0,0,9.65,3.58,29.47,29.47,0,0,0,11.8-1.56,31.94,31.94,0,0,0,10.89-6.19l8.6,11.86a46.58,46.58,0,0,1-14.54,8.55,44.38,44.38,0,0,1-14.53,2.53q-16.57,0-24.85-9.25t-8.27-26.21c0-1.56.07-3.06.21-4.51l16.76-.68a12.26,12.26,0,0,0-.15,1.93h32.21A12.22,12.22,0,0,0,1633,534l13.35-.45c.11.64.19,1.3.26,2A77.44,77.44,0,0,1,1646.83,548Z"/></g><g class="f5f16e7e-1ad8-4460-a803-760477829661"><path d="M1659,533.11l15.65-.49v42H1659Z"/></g><g class="f5f16e7e-1ad8-4460-a803-760477829661"><path d="M1705.9,531.68v42.94h-15.65V532.16Z"/></g><path class="e694d80b-b658-45f2-8557-4126cbf8e28c" d="M599.18,679.28h.15c-2.57.19-5.17.32-7.78.36h0q-1.28,0-2.58,0h-.27c-1.57,0-3.14,0-4.7-.09a134.83,134.83,0,0,1-10.58-268.66c3.33-.39,6.7-.65,10.09-.78,1.81-.08,3.63-.11,5.46-.11q5.25,0,10.4.39c-3.35.25-6.66.63-9.94,1.12-2.09.32-4.18.69-6.24,1.1a134.85,134.85,0,0,0,8,265.77C593.83,678.78,596.5,679.07,599.18,679.28Z"/><path class="ac340240-fbce-40a9-9af6-f2d481852b91" d="M723.49,544.86A134.7,134.7,0,0,1,599.18,679.28c-2.52.19-5.07.32-7.63.37h0q-1.28,0-2.58,0h-.27c-1.59,0-3.18,0-4.76-.08a134.91,134.91,0,0,1-125.26-99c.27.66.55,1.32.83,2a134.87,134.87,0,0,0,254-88.79A134.49,134.49,0,0,1,723.49,544.86Z"/><path class="e694d80b-b658-45f2-8557-4126cbf8e28c" d="M735.25,546a134.83,134.83,0,0,1-122.86,134.3q-5.91.53-12,.53a136.92,136.92,0,0,1-17.28-1.1l.75-.1H584c2.43-.32,4.84-.72,7.23-1.17a134.85,134.85,0,0,0,55.32-240.49,34.57,34.57,0,0,1-52-15.74,13.48,13.48,0,0,0-10.47-4.28,14,14,0,0,1-.58-1.94,13.49,13.49,0,0,1-.32-3.32l0-.4h0a10.74,10.74,0,0,1,.12-1.14c0-.32.1-.64.17-1A13.52,13.52,0,0,1,590,401.3a13.54,13.54,0,0,0,10.78,2.31,34.52,34.52,0,0,1,48.72,16.76A134.86,134.86,0,0,1,735.25,546Z"/><path class="bdb3c3c2-5578-4546-adeb-3f15abf3e0d4" d="M712.62,548.09A137.16,137.16,0,0,0,589,411.6c-1.88-.19-3.78-.33-5.68-.43,0,.35-.09.71-.11,1.07h0l0,.4a13.49,13.49,0,0,0,.32,3.32,14,14,0,0,0,.58,1.94,13.48,13.48,0,0,1,10.47,4.28,34.57,34.57,0,0,0,32.19,22c1.24,0,2.46-.07,3.67-.19a34.41,34.41,0,0,0,15.71-6l.17.13.25-.17a134.85,134.85,0,0,1-55.32,240.49c-2.39.45-4.8.85-7.23,1.17h-.06l-.75.1a136.92,136.92,0,0,0,17.28,1.1q5.85,0,11.58-.5a135.57,135.57,0,0,0,25.38-9.82,137,137,0,0,0,75.23-122.39Z"/></svg>