<svg xmlns="http://www.w3.org/2000/svg" xmlns:xlink="http://www.w3.org/1999/xlink" viewBox="0 0 3240 3240"><defs><style>.a,.m{fill:none;}.b{isolation:isolate;}.c,.k{fill:#ffca4f;}.c{stroke:#231f20;}.c,.m{stroke-miterlimit:10;}.d{fill:#a3c0f2;}.e{clip-path:url(#a);}.f{opacity:0.36;}.f,.j,.l,.n,.o{mix-blend-mode:multiply;}.g{fill:#fff;}.h{fill:#384bb7;}.i,.n{fill:#f18b93;}.j,.n,.p{opacity:0.26;}.m{stroke:#384bb7;stroke-linecap:round;stroke-width:15px;}.o{opacity:0.3;}.p{mix-blend-mode:overlay;}.q{fill:#6f9ceb;}.r{fill:#e84855;}.s{fill:#eca400;}</style><clipPath id="a"><rect class="a" x="16.8" y="18.6" width="3243.57" height="3243.57"/></clipPath></defs><title>roxanne</title><g class="b"><rect class="c" x="-6727.71" y="3233.58" width="9969.7" height="3259.91"/><rect class="d" x="-6831.02" y="-297.22" width="10376.17" height="3562.21"/><g class="e"><g class="f"><path class="d" d="M3545.15,953.53V3265H-167.24q-20-42.12-40.17-84.16C-499.89,2571-822.32,1975.44-1171.69,1399.9l49,325.36c-79.61-173.63-91.26-373.82-29.94-514.38s193.72-217.14,340.19-196.76c151.26,21,303.58,135.83,438.51,264.34,198,188.6,374.63,413.1,569.17,608S612.76,2251.1,835.43,2288c159.44,26.43,307.11-17.59,436.32-90,356.86-200.07,582.35-602.91,854.42-932.89S2769,662.86,3212.84,790.56C3325.24,822.9,3437.51,880.13,3545.15,953.53Z"/></g><path class="g" d="M4739.93,802.32C4161.81,931.64,4142,839.47,3561.76,958.76s-563.36,201.56-1143.63,320.85-597.19,37-1177.46,156.29S677.31,1637.47,97,1756.75s-594.5,46.94-1176.75,156.15c-10.09,1.9-35.46,39.69-37.53,29.63s80.21-27,78.15-37-84.35,6.87-86.42-3.19,80.22-27,78.15-37-64.46-50.4-54.44-52.64c578.12-129.32,597.9-37.16,1178.17-156.44S639.73,1454.65,1220,1335.37s597.19-37,1177.46-156.3,563.36-201.56,1143.63-320.85,594.5-46.93,1176.75-156.15c10.08-1.89,35.46-39.68,37.53-29.63s-80.22,27-78.15,37,84.35-6.86,86.41,3.19-80,32.67-76.67,42.36C4697.55,785.48,4750,800.08,4739.93,802.32Z"/><path class="g" d="M4791.6,1053.66c-578.12,129.32-597.9,37.16-1178.17,156.44S3050.07,1411.67,2469.8,1531s-597.19,37-1177.46,156.29S729,1888.81,148.71,2008.09-445.79,2055-1028,2164.25c-10.09,1.89-35.46,39.68-37.53,29.63s80.21-27,78.15-37-84.35,6.86-86.42-3.2,80.22-27,78.15-37-64.46-50.4-54.44-52.64C-472,1934.68-452.24,2026.84,128,1907.56S691.39,1706,1271.67,1586.71s597.18-37,1177.46-156.29,563.36-201.57,1143.63-320.85,594.49-46.94,1176.75-156.16c10.08-1.89,35.46-39.68,37.53-29.63s-80.22,27-78.15,37,84.34-6.86,86.41,3.2-80.05,32.66-76.68,42.35C4749.22,1036.82,4801.62,1051.42,4791.6,1053.66Z"/><path class="g" d="M4843.27,1305c-578.12,129.32-597.9,37.16-1178.17,156.45S3101.74,1663,2521.47,1782.3s-597.19,37-1177.46,156.29S780.65,2140.15,200.37,2259.44s-594.49,46.93-1176.74,156.15c-10.09,1.89-35.47,39.68-37.53,29.63s80.21-27,78.14-37-84.34,6.86-86.41-3.19,80.21-27,78.15-37-64.46-50.39-54.45-52.64C-420.35,2186-400.57,2278.19,179.7,2158.9s563.36-201.56,1143.63-320.85,597.19-37,1177.46-156.29,563.36-201.57,1143.64-320.85,594.49-46.94,1176.74-156.15c10.09-1.89,35.47-39.69,37.53-29.63s-80.21,27-78.14,37,84.34-6.87,86.41,3.19-80.05,32.66-76.68,42.36C4800.89,1288.17,4853.28,1302.76,4843.27,1305Z"/><path class="g" d="M4894.93,1556.34c-578.12,129.32-597.89,37.16-1178.17,156.45s-563.35,201.56-1143.63,320.85-597.18,37-1177.46,156.29S832.31,2391.49,252,2510.78s-594.49,46.93-1176.75,156.15c-10.08,1.89-35.46,39.69-37.53,29.63s80.22-27,78.15-37-84.34,6.86-86.41-3.19,80.21-27,78.14-37-64.46-50.4-54.44-52.64c578.12-129.32,597.9-37.16,1178.17-156.45S794.73,2208.68,1375,2089.39s597.19-37,1177.46-156.29,563.36-201.56,1143.63-320.85,594.5-46.93,1176.75-156.15c10.09-1.89,35.46-39.68,37.53-29.63s-80.21,27-78.15,37,84.35-6.86,86.42,3.19-80.05,32.66-76.68,42.36C4852.55,1539.51,4905,1554.1,4894.93,1556.34Z"/><path class="g" d="M4946.6,1807.69c-578.12,129.32-597.9,37.15-1178.17,156.44S3205.07,2165.7,2624.8,2285s-597.19,37-1177.46,156.29S884,2642.84,303.71,2762.12-290.78,2809.06-873,2918.27c-10.08,1.9-35.46,39.69-37.53,29.63s80.22-27,78.15-37-84.35,6.86-86.41-3.2,80.21-27,78.14-37-64.46-50.4-54.44-52.64C-317,2688.71-297.23,2780.87,283,2661.59S846.4,2460,1426.67,2340.74s597.19-37,1177.46-156.3,563.36-201.56,1143.63-320.85,594.5-46.93,1176.75-156.15c10.09-1.89,35.46-39.68,37.53-29.63s-80.21,27-78.15,37,84.35-6.86,86.42,3.19-80.05,32.67-76.68,42.36C4904.22,1790.85,4956.62,1805.45,4946.6,1807.69Z"/><path class="h" d="M2708.44,1864.17c-4.57,44.24-14.27,84.16-28.26,119.84-64.91,165.92-222.28,241.58-387.58,245.35-188.73,4.29-387.86-85.14-471.73-241-29.38-54.55-53.76-131-74-220.39-5.35,88.82-16.65,166-36.09,223.27-117.39,346-766.13,494.28-895.88,24.71a638,638,0,0,1-14.94-68.23A589.58,589.58,0,0,1,792.7,1830c13.46-344.67,329.9-565.87,365-595.62a15.07,15.07,0,0,0,3.12-3l.72-6.8q.72-6.78,1.47-13.48,3-26.76,6.33-52.15.84-6.35,1.7-12.61t1.74-12.44q1.32-9.27,2.69-18.35,3.66-24.21,7.64-47.1,1.36-7.87,2.78-15.59t2.85-15.28q2.16-11.36,4.41-22.37c.5-2.44,1-4.88,1.51-7.3l1.11-5.26q1.11-5.25,2.24-10.42c.75-3.44,1.51-6.87,2.28-10.26,13.77-61.11,29.48-113.92,46.57-159.51q1.42-3.79,2.86-7.53l.06-.15,1.38-3.57c1-2.46,1.93-4.91,2.9-7.33s1.94-4.82,2.92-7.2l1.47-3.55c1-2.36,2-4.69,3-7s2-4.6,3-6.88q2.24-5.1,4.51-10.07c1.51-3.32,3-6.58,4.56-9.8s3.06-6.39,4.61-9.52,3.09-6.2,4.65-9.24l1.56-3q2.36-4.5,4.71-8.88c.59-1.09,1.18-2.18,1.78-3.27q2.27-4.14,4.56-8.15c1.6-2.8,3.19-5.55,4.8-8.26q1.6-2.71,3.22-5.37t3.23-5.25c1.08-1.73,2.17-3.44,3.25-5.13.54-.85,1.09-1.69,1.63-2.53,1.09-1.68,2.18-3.33,3.27-5,.55-.82,1.09-1.64,1.64-2.45,1.1-1.62,2.19-3.22,3.29-4.8q4.13-5.94,8.28-11.55,1.66-2.24,3.33-4.43,2.51-3.29,5-6.45c2.23-2.82,4.48-5.57,6.72-8.25q10.11-12.06,20.36-22.35l1.71-1.71c1.13-1.12,2.27-2.24,3.4-3.34l1.72-1.64q2.57-2.43,5.13-4.77,3.43-3.12,6.87-6.05,1.71-1.47,3.42-2.89h0q2.58-2.13,5.14-4.18c.58-.45,1.15-.91,1.73-1.35q3.43-2.67,6.86-5.18h0q5.14-3.76,10.29-7.16h0l3.42-2.23h0a239.62,239.62,0,0,1,37.4-19.56h0q6.72-2.79,13.36-5.05h0l3.32-1.11a222.44,222.44,0,0,1,69-10.85c1.18,0,2.35,0,3.52,0s2.28,0,3.41.08h.3c1.08,0,2.15.07,3.22.12h0c1.08,0,2.16.1,3.23.17,1.41.08,2.82.18,4.21.28q3,.24,6,.54c1.14.12,2.27.24,3.39.38l2.66.32,2.56.34c.71.09,1.42.2,2.12.3,3.85.57,7.6,1.22,11.22,1.92l2.81.57,2.87.61q2.85.62,5.59,1.29c1.47.36,2.91.73,4.33,1.1q3.28.86,6.39,1.76c1.61.46,3.19.93,4.72,1.42s3.08,1,4.56,1.46l.11,0c1.74.58,3.43,1.17,5.06,1.74s3.07,1.11,4.52,1.67l2.9,1.12q2.58,1,4.89,2l1.51.64,1.45.63c1.42.62,2.75,1.22,4,1.79l1,.45,1.81.86.84.41.8.39.76.38c1,.51,1.91,1,2.68,1.37l.95.51c1.58.84,2.4,1.33,2.4,1.33s.25,1.54.74,4.45l1.25-.95,1.5-1.11.84-.61,1.51-1.08,1.71-1.19,1.61-1.1,1.73-1.16,1.85-1.21c.64-.42,1.29-.84,2-1.26l2.39-1.49c2-1.23,4.16-2.52,6.45-3.83a250.73,250.73,0,0,1,44-19.86l.36-.12q2.46-.84,5-1.63c.93-.3,1.87-.59,2.81-.87,2.64-.81,5.35-1.58,8.1-2.3,1.17-.31,2.35-.61,3.55-.9,1-.24,1.92-.48,2.9-.7l.18,0c.95-.23,1.91-.45,2.87-.66l.22,0c1-.22,1.91-.42,2.88-.62l.34-.07,2.46-.49,1.65-.31c.65-.13,1.3-.25,2-.36,1.06-.19,2.13-.38,3.21-.55l.09,0q3.07-.49,6.23-.92c1-.14,2.11-.28,3.17-.4s2.12-.25,3.19-.36l1.07-.11c1-.1,1.89-.19,2.84-.27,1.14-.1,2.28-.2,3.43-.28,1.37-.1,2.76-.19,4.15-.26,7-.38,14.25-.44,21.66-.11h0c1.31.05,2.62.12,3.94.21h0q3,.18,6,.46,6,.54,12.23,1.44,3,.42,6,1a241.28,241.28,0,0,1,63.54,20.67c1.64.8,3.29,1.61,5,2.45l1.71.88q2.41,1.25,4.84,2.55l.28.15q2.43,1.32,4.86,2.7c1.13.64,2.25,1.29,3.37,2s2.25,1.33,3.38,2,2.25,1.37,3.38,2.07l3.37,2.12q5.1,3.27,10.24,6.84,2.56,1.77,5.13,3.64l3.45,2.53q2.58,1.91,5.16,3.91h0c1.14.89,2.29,1.78,3.44,2.69s2.32,1.85,3.48,2.79q2.6,2.1,5.19,4.3h0q2.61,2.19,5.22,4.47a468.85,468.85,0,0,1,51.21,52.85c1.07,1.29,2.14,2.58,3.21,3.89q2,2.4,3.92,4.84c1.05,1.31,2.1,2.62,3.15,3.95q4.54,5.77,9.1,11.85c1.18,1.58,2.37,3.17,3.55,4.78s2.37,3.23,3.55,4.87q6.22,8.64,12.47,17.87,2.67,3.94,5.33,8t5.34,8.22c1.18,1.86,2.37,3.73,3.56,5.63q2.66,4.23,5.32,8.58l1.79,2.94q1.77,2.93,3.54,5.89v0q1.77,3,3.54,6v0c1.18,2,2.36,4.05,3.54,6.1v0q7,12.14,13.94,25.1,10.44,19.46,20.81,40.79l2.3,4.77h0q7,14.61,14,30.12h0q2.61,5.82,5.22,11.76,6.08,13.89,12.13,28.5l3.44,8.39c21.81,53.62,43.18,114.45,63.81,183.38q7.74,25.86,15.32,53.23c6.71,9.15,353.79,159.53,450.17,481.16C2708.32,1699.08,2717.4,1777.4,2708.44,1864.17Z"/><g class="f"><path class="h" d="M1368.11,1117.88c-48.82,28.9-57.27,96.14-50.39,152.46s23.34,114.86,4.39,168.34c-21.11,59.57-81.14,96.49-140.93,117s-123.75,29.57-180.3,57.8c-87.63,43.74-148.54,130.22-178.91,223.34-34.73,106.44-27.84,236.56,53.22,313.8,61.93,59,152.64,74.93,238,81.17,186.22,13.63,383.67-9.17,536.81-116,24.83-17.32,48.72-37.23,64.23-63.24,18-30.22,23.34-66.16,27.31-101.13,39.47-347.5-18.69-705.57-166.11-1022.71-22.58-48.58-60.47-103.87-113.67-97.66-27.57,3.22-50.1,23-68.81,43.54-69,75.62-112.46,174.17-121.73,276.12"/></g><g class="f"><path class="h" d="M2708.45,1864.17c-4.57,44.24-14.27,84.15-28.27,119.83-45.81,45.57-109.17,74.3-171,96.7-175.56,63.54-371.79,95.09-548.16,33.73-28.58-9.94-57-22.64-79-43.49-25.55-24.19-40.38-57.37-53.66-90-132.13-323.82-173.13-684.25-117.12-1029.47,8.59-52.86,30.06-116.34,83-124.78,27.4-4.38,54.46,8.59,78,23.26,86.9,54.1,155.42,137.2,191.93,232.84l-102.16-5.31c54.8,14.58,81.15,77,89.8,133.12s8.65,116.89,41.37,163.23c36.45,51.62,104.23,70.9,167.35,74.42s127.12-5.06,189.21,6.8c96.2,18.38,178.25,85.11,232.72,166.54,1.61,2.41,3.18,4.82,4.76,7.26C2708.32,1699.08,2717.41,1777.39,2708.45,1864.17Z"/></g><path class="i" d="M2785,2844.2c-263.09,142.91-614.4-548-699.83-728.77-12.07-25.53-18.83-40.88-19.29-42.25,0,0,126-11.12,229.82-7.41,85.57,144.83,257.44,394.17,320.54,455,17.18,16.57,26.3,19.15,23.41,1.84-78.26-469.57-244.4-1071.45-277.22-1046.21-40.51,31.16-272.23-18.88-345.07-35.61-13.81-3.18-21.91-5.16-21.91-5.16l22.6-4.19,14.65-2.71,4-.75,10.6-2,315.07-58.35a168.59,168.59,0,0,1,186.77,102c101.71,249,314,806.4,320.89,1134.92C2872.46,2721.54,2848.86,2809.49,2785,2844.2Z"/><path class="i" d="M1434.71,1322.46a54.51,54.51,0,0,1-18,7.45,55.38,55.38,0,0,1-8.25,1.17c-33.94,2.24-58.17-25.69-61.9-62.31s14.44-68,48.38-70.29a57.88,57.88,0,0,1,17.5,1.5c24.22,5.84,43.72,26.9,48.89,54q.6,3.19.95,6.5C1465,1286.57,1453.72,1310.24,1434.71,1322.46Z"/><path class="i" d="M2115.12,1950.05s-1395-87.89-889.71-175.75c52.83-9.17,99.29-21,140.13-34.81,229.94-77.79,282.14-218.57,290.92-305.93,4.57-45.6-2.66-76.65-2.66-76.65s87.86-494.28,120.82-33q3.26,45.42,9.86,87a927.45,927.45,0,0,0,27.86,123C1903.17,1836.49,2115.12,1950.05,2115.12,1950.05Z"/><g class="j"><path class="i" d="M2785,2844.2c-263.09,142.91-614.4-548-699.83-728.77.19-.36.39-.72.59-1.07,10.28-18,29.89-31.71,50.52-30.16,32.59,2.44,50.81,37.75,62.76,68.16l-13.59-3.3a3391,3391,0,0,0,292.34,427c45.19,56.25,94.93,113.08,161.94,139.81s155.75,12.82,192.52-49.26c9.14-15.43,14.65-32.9,24.78-47.72a67.2,67.2,0,0,1,13-14.24C2872.46,2721.54,2848.86,2809.49,2785,2844.2Z"/></g><g class="j"><path class="i" d="M1846.23,1492.9c-11.24,13.72-22.52,27.47-33.89,41.09-40.31,48.29-82.08,95.33-129.9,136-58.23,49.55-126.48,89.68-201.17,105.13l30.12-5.72c-14,34.08-59.23,48.66-93.18,34.45-26.59-11.12-45.19-36.33-52.67-64.41,229.94-77.79,282.14-218.57,290.92-305.93,40.84-15.42,84.77-24.25,128-22.58a244.8,244.8,0,0,1,57.4,8.86c5.65,1.61,11.36,3.49,15.91,7.2C1877.12,1442.76,1862.05,1473.63,1846.23,1492.9Z"/></g><path class="i" d="M1810.64,1593.47a264.7,264.7,0,0,1-28.34,6.76l-27.63,5a265.93,265.93,0,0,1-28.71,3.62c-1.88.14-3.76.25-5.64.34-1.56.08-3.13.14-4.68.19-128.75,4.15-244.55-86.48-268.24-217l-12.69-69.9L1412.49,1200l-32-176.43a264.25,264.25,0,0,1,212.88-307.27l27.62-5c117.26-21.27,230.47,38.33,282.28,139.08a.25.25,0,0,0,0,.07,264.24,264.24,0,0,1,25,73.73l35.17,193.78,20.85,114.89,10.91,60.14C2019.48,1426.92,1938.22,1555.6,1810.64,1593.47Z"/><path class="i" d="M2016.62,1235.55a55.92,55.92,0,0,1-21,.55,50.84,50.84,0,0,1-11.31-3.29c-21-8.81-35-31.21-37.81-58.4-2.32-22.76,3.83-43.51,17-56.49a48.15,48.15,0,0,1,31.43-13.8c21.87-1.45,42,9.48,54.49,27.23a.05.05,0,0,0,0,.05,72.73,72.73,0,0,1,11.86,28.17q.61,3.2.95,6.5C2065.61,1199.64,2046.05,1229.14,2016.62,1235.55Z"/><path class="k" d="M2587.43,3268.13,1544,3277.71l-153.87,1.41s-22-164.76-98.86-549.21c-351.49-197.71-186.73-604.12-186.73-604.12q-18.64,3.93-35.45,6.38c-135.93,20.06-185.05-26.78-205.23-49.65-6.09-6.93-9.54-11.65-11.95-11.65-33.88-216.81,103.59-320.78,213.92-368.63a273.16,273.16,0,0,1,210.49-2.68c98.33,39.48,266.18,101.72,410.38,129.66q20.27,3.93,39.31,7.21c193.88,33.57,297,20.59,400,25.74,210.71-16.21,242,164.89,244,261,.69,34.15-2.33,57.56-2.33,57.56s-41.26,18.54-140.05,22.66-129.06-39.13-134.55-44.63c221,374.15-33,472.32-33,472.32L2294,2913.57Z"/><g class="j"><path class="k" d="M2093.15,2158.74c221,374.15-33,472.32-33,472.32L2294,2913.57c-20.79,5.25-45.52-.73-66-9.86-98.09-43.79-163.32-140.9-198.39-242.44-5.41-15.66-10.29-32.2-7.82-48.58,2.84-18.86,15-34.82,26.76-49.79,47.57-60.25,99.75-127.45,94.1-204-2.28-30.94-14.09-60.28-25.76-89q-31.3-77.11-62.6-154.24c-5.69-14-11.42-29.71-6-43.85,9-23.58,40.89-26.4,66-23.9a720.32,720.32,0,0,1,255.75,75.29c.69,34.15-2.33,57.56-2.33,57.56s-41.26,18.54-140.05,22.66S2098.64,2164.24,2093.15,2158.74Z"/></g><g class="l"><path class="k" d="M2055.43,2626.63q-3.29,2.82-6.66,5.53l-1.65,1.31c-.14.1-1.57,1.21-.83.65-1.24.94-2.48,1.88-3.73,2.8q-6.86,5-14.06,9.57a242.5,242.5,0,0,1-29.91,16c-1.2.54-2.41,1.07-3.62,1.59l-1.07.46-.31.13-2.15.88q-3.89,1.57-7.81,3-8.09,3-16.36,5.41a267.39,267.39,0,0,1-33.2,7.51c-1.39.22-2.77.43-4.16.63l-1.85.26c-1,.14-.27,0-.06,0l-1.39.18q-4.29.54-8.6,1-8.49.8-17,1.08a273.35,273.35,0,0,1-34.1-1q-4.31-.39-8.59-.93l-2.09-.26c-1-.13-.26,0-.06,0l-.92-.13-4.62-.69q-8.41-1.32-16.73-3.19a260.12,260.12,0,0,1-32.6-9.57c-2.7-1-5.37-2-8-3.1l-1.72-.71-.69-.29-.69-.29c-1.28-.55-2.56-1.11-3.83-1.68q-7.86-3.53-15.44-7.59a232.41,232.41,0,0,1-28.71-18.19c-1.13-.83-2.25-1.68-3.36-2.53.68.52-.61-.48-.84-.66l-1.83-1.46c-2.1-1.69-5-2.06-7.07,0-1.75,1.75-2.12,5.37,0,7.07a245.28,245.28,0,0,0,61.09,35.79,267,267,0,0,0,67.67,17.44,274.81,274.81,0,0,0,69.25-.13,269.23,269.23,0,0,0,67.89-17.68,247.67,247.67,0,0,0,61.06-35.75q3.29-2.64,6.48-5.39c2-1.77,1.81-5.26,0-7.07a5.1,5.1,0,0,0-7.07,0Z"/></g><g class="j"><path class="k" d="M1544,3277.71l-153.87,1.41s-22-164.76-98.86-549.21c-351.49-197.71-186.73-604.12-186.73-604.12q-18.64,3.93-35.45,6.38,4.47-13.12,9.63-26.09c5.12-12.84,15.72-28,28.93-23.92a297.33,297.33,0,0,1,5.59,106.39l-7.61-12.81a524.09,524.09,0,0,0,53.2,285.64c24.51,48.62,57.9,94.49,104.34,122.92,70,42.87,157.73,40.09,239.74,35.94-8.29,173.36-7.77,348.39,25,518.83C1536.73,3184.73,1547.74,3232.11,1544,3277.71Z"/></g><g class="j"><path class="i" d="M2022.45,1231.18a55.37,55.37,0,0,1-8.1,1.94,54.35,54.35,0,0,1-19.43-.35l.66,3.33a50.84,50.84,0,0,1-11.31-3.29l10.91,60.14c24.3,134-57,262.65-184.54,300.52a25.84,25.84,0,0,1-3.56-13.46c.48-15.08,10.55-27.86,19.27-40.18,70.15-99.08,74.08-231.35,50.92-350.51S1807,956.69,1783.45,837.6c-2.72-13.8-3.87-31,7.65-39,6.88-4.81,16-4.43,24.38-3.46a264.15,264.15,0,0,1,56.23,12.91,263.52,263.52,0,0,1,31.54,42.29.25.25,0,0,0,0,.07,263.78,263.78,0,0,1,32.45,84.39l34.93,175.88a57.68,57.68,0,0,1,15.73-7.81c26.06-8.33,49.56,4.64,62.94,28.48a.05.05,0,0,0,0,.05,87.89,87.89,0,0,1,7.82,19.11C2067.15,1186,2054.85,1220.82,2022.45,1231.18Z"/></g><path class="i" d="M2541.54,2471.05s-51.44,5.63-119.89,6.4c-78.54.89-179.48-4.61-250.79-32.34-174.93-68-822.57,573.82-1259.19,693.27-132.19,36.17-174.56-100.8-175.53-288.18q-.07-11.92.1-24.12,0-4.57.14-9.2c5.87-306.16,109-721.3,115.57-754.25l54.38,36.59a188.67,188.67,0,0,0,125,31.12l73.29-12.79-70,678.27s766.88-370.54,1021.58-460.65C2363.62,2226.4,2541.54,2471.05,2541.54,2471.05Z"/><path class="h" d="M2222.5,1152.22c-.09,9.49-53.35,33.37-128,38.86-119.77,8.84-294.53-29.62-392.58-250.84-17.36-39.21-32.13-75-44.64-107.85v0q-1.76-4.64-3.46-9.18c-6,35.5-13.66,74.58-23.39,117.7-10.59,46.93-25.54,87.37-43.68,122.12,0,0,0,0,0,.06-92.31,177-266.26,207.45-360.8,202.63-28.68-1.45-50-6.15-59.59-11-3.26-1.65-5.14-3.31-5.47-4.88q-1.62-7.79-3.12-15.48a15.07,15.07,0,0,0,3.12-3l.72-6.8q.72-6.78,1.47-13.48,3-26.76,6.33-52.15.84-6.35,1.7-12.61t1.74-12.44q1.32-9.27,2.69-18.35,3.66-24.21,7.64-47.1,1.36-7.87,2.78-15.59t2.85-15.28q2.18-11.36,4.41-22.37c.5-2.44,1-4.88,1.51-7.3l1.11-5.26q1.11-5.25,2.24-10.42c.75-3.44,1.51-6.87,2.28-10.26,13.77-61.11,29.48-113.92,46.57-159.51q1.42-3.79,2.86-7.53l.06-.15,1.38-3.57c1-2.46,1.93-4.91,2.9-7.33s1.94-4.82,2.92-7.2l1.47-3.55c1-2.36,2-4.69,3-7s2-4.6,3-6.88q2.24-5.1,4.51-10.07t4.56-9.8q2.29-4.83,4.61-9.52t4.65-9.24l1.56-3q2.34-4.5,4.71-8.88c.59-1.09,1.18-2.18,1.78-3.27q2.27-4.14,4.56-8.15,2.38-4.2,4.8-8.26,1.6-2.71,3.22-5.37t3.23-5.25c1.08-1.73,2.17-3.44,3.25-5.13.54-.85,1.09-1.69,1.63-2.53,1.09-1.68,2.18-3.33,3.27-5,.55-.82,1.09-1.64,1.64-2.45,1.1-1.62,2.19-3.22,3.29-4.8q4.13-5.94,8.28-11.55,1.66-2.24,3.33-4.43,2.51-3.29,5-6.45,3.35-4.23,6.72-8.25,10.11-12.06,20.36-22.35l1.71-1.71c1.13-1.12,2.27-2.24,3.4-3.34l1.72-1.64q2.57-2.44,5.13-4.77,3.43-3.12,6.87-6.05,1.71-1.47,3.42-2.89h0q2.57-2.14,5.14-4.18c.58-.45,1.15-.91,1.73-1.35q3.42-2.69,6.86-5.18h0q5.14-3.76,10.29-7.16h0l3.42-2.23h0a239.62,239.62,0,0,1,37.4-19.56h0q6.72-2.79,13.36-5.05h0l3.32-1.11a222.44,222.44,0,0,1,69-10.85c1.18,0,2.35,0,3.52,0s2.28,0,3.41.08h.3c1.08,0,2.15.07,3.22.12h0c1.08,0,2.16.1,3.23.17,1.41.08,2.82.18,4.21.28q3,.24,6,.54c1.14.12,2.27.24,3.39.38l2.66.32,2.56.34c.71.09,1.42.2,2.12.3,3.85.57,7.6,1.22,11.22,1.92l2.81.57,2.87.61c1.9.42,3.77.85,5.59,1.29,1.47.36,2.91.73,4.33,1.1q3.28.86,6.39,1.76,2.42.71,4.72,1.42t4.56,1.46l.11,0c1.74.58,3.43,1.17,5.06,1.74s3.07,1.12,4.52,1.67l2.9,1.12q2.58,1,4.89,2l1.51.64,1.45.63c1.42.62,2.75,1.22,4,1.79l1,.45,1.81.86.84.41.8.39.76.38c1,.51,1.91,1,2.68,1.37l.95.51c1.58.84,2.4,1.33,2.4,1.33s.25,1.54.74,4.45l1.25-.95,1.5-1.11.84-.61,1.51-1.08,1.71-1.19,1.61-1.1,1.73-1.16,1.85-1.21,2-1.26,2.39-1.49c2-1.23,4.16-2.52,6.45-3.83,3.84-2.19,8.06-4.47,12.66-6.76a251.1,251.1,0,0,1,36.65-14.85c.93-.3,1.87-.59,2.81-.87q4-1.2,8.1-2.3c1.17-.31,2.35-.61,3.55-.9,1-.24,1.92-.48,2.9-.7l.18,0c.95-.23,1.91-.45,2.87-.66l.22,0c1-.22,1.91-.42,2.88-.62l.34-.07,2.46-.49,1.65-.31c.65-.13,1.3-.25,2-.36,1.06-.19,2.13-.38,3.21-.55q3.12-.51,6.32-.94c1-.14,2.11-.28,3.17-.4s2.12-.25,3.19-.36l1.07-.11c1-.1,1.89-.19,2.84-.27,1.14-.1,2.28-.2,3.43-.28,1.37-.1,2.76-.19,4.15-.26,7-.38,14.24-.43,21.66-.11h0l3.94.21h0q3,.19,6,.46,6,.54,12.23,1.44,3,.44,6,1a241.28,241.28,0,0,1,63.54,20.67c1.64.8,3.29,1.61,5,2.45l1.71.88q2.41,1.25,4.84,2.55l.28.15q2.43,1.32,4.86,2.7c1.13.64,2.25,1.29,3.37,2s2.25,1.33,3.38,2,2.25,1.37,3.38,2.07l3.37,2.12q5.1,3.27,10.24,6.84,2.56,1.79,5.13,3.64l3.45,2.53q2.58,1.92,5.16,3.91h0c1.14.89,2.29,1.78,3.44,2.69s2.32,1.85,3.48,2.79q2.6,2.11,5.19,4.3h0q2.61,2.19,5.22,4.47a468.85,468.85,0,0,1,51.21,52.85c1.07,1.29,2.14,2.58,3.21,3.89q2,2.4,3.92,4.84c1.05,1.31,2.1,2.62,3.15,3.95q4.54,5.77,9.1,11.85c1.18,1.57,2.36,3.17,3.55,4.78s2.37,3.23,3.55,4.87q6.22,8.64,12.47,17.87,2.65,3.94,5.33,8t5.34,8.22c1.18,1.86,2.37,3.73,3.56,5.63q2.66,4.23,5.32,8.58l1.79,2.94q1.77,2.93,3.54,5.89v0q1.77,3,3.54,6v0c1.18,2,2.36,4.05,3.54,6.1v0q7,12.14,13.94,25.1,10.44,19.46,20.81,40.79l2.3,4.77h0q7,14.61,14,30.12h0q2.61,5.82,5.22,11.76,6.08,13.89,12.13,28.5l3.44,8.39c21.81,53.62,43.18,114.45,63.81,183.38Q2222.81,1122.5,2222.5,1152.22Z"/><path class="m" d="M1637.55,1005.13c9.1,23.8,77,432.56,77,432.56l53-25"/><path class="m" d="M1763.28,1170.45s70.21,66.21,164.88-26.1"/><path class="m" d="M1733.17,1473.57s54.34,45.32,101.85-34.26"/><path class="m" d="M1471.06,1224.34s70.21,66.22,164.88-26.09"/><ellipse class="n" cx="1861.62" cy="1289.28" rx="71.05" ry="37.07" transform="translate(-140.92 232.06) rotate(-6.87)"/><ellipse class="n" cx="1559.46" cy="1338.15" rx="71.05" ry="37.07" transform="translate(-148.94 196.25) rotate(-6.87)"/><g class="o"><path class="i" d="M2219.61,1475.1a186.29,186.29,0,0,1,52.9-26.38,190.85,190.85,0,0,1,58-8.76,182.53,182.53,0,0,1,33.07,3.19,2.55,2.55,0,0,0,3.07-1.74,2.53,2.53,0,0,0-1.74-3.08,190.41,190.41,0,0,0-60.4-1.73,196.6,196.6,0,0,0-58.25,17,184.83,184.83,0,0,0-29.22,17.16,2.58,2.58,0,0,0-.9,3.42,2.52,2.52,0,0,0,3.42.9Z"/></g><g class="o"><path class="i" d="M2380.22,1508.71q28.14-11.4,55.73-24.09,27.4-12.61,54.18-26.51,15.12-7.86,30-16.11c2.81-1.55.29-5.87-2.53-4.31q-26.28,14.54-53.23,27.83t-54.48,25.31q-15.43,6.75-31.05,13.06a2.59,2.59,0,0,0-1.75,3.08,2.52,2.52,0,0,0,3.08,1.74Z"/></g><g class="o"><path class="i" d="M2635.77,2528.76a523.65,523.65,0,0,1,48,64.47,533,533,0,0,1,37.56,70.79q9,20.57,16.16,41.85c1,3,5.86,1.73,4.82-1.33A532.58,532.58,0,0,0,2667.82,2561q-13.49-18.45-28.51-35.73a2.53,2.53,0,0,0-3.54,0,2.55,2.55,0,0,0,0,3.54Z"/></g><g class="o"><path class="i" d="M904.24,2946.09q12.66-19.07,26.37-37.4t28.3-35.72q14.7-17.53,30.36-34.24t32-32.37q16.55-15.81,33.94-30.69,2.19-1.87,4.39-3.72a2.54,2.54,0,0,0,0-3.54,2.56,2.56,0,0,0-3.54,0q-17.58,14.84-34.32,30.61t-32.41,32.31q-15.82,16.68-30.72,34.22t-28.77,35.85q-13.89,18.32-26.76,37.39c-1.08,1.59-2.14,3.18-3.2,4.77-1.79,2.69,2.54,5.2,4.32,2.53Z"/></g><g class="o"><path class="i" d="M2281.42,2325.15a508.37,508.37,0,0,1,69.72,31.94,514,514,0,0,1,64.36,42.1q17.09,13.09,33,27.64c2.38,2.16,5.92-1.36,3.54-3.54a516.82,516.82,0,0,0-128.79-86q-19.86-9.3-40.48-16.92a2.52,2.52,0,0,0-3.08,1.75,2.56,2.56,0,0,0,1.75,3.07Z"/></g><g class="o"><path class="i" d="M2273.07,2369.39a302,302,0,0,1,57.67,22.08,302.78,302.78,0,0,1,78.17,56.54c2.27,2.28,5.81-1.25,3.53-3.53A309.57,309.57,0,0,0,2308,2375.76a303.31,303.31,0,0,0-33.59-11.19c-3.11-.84-4.44,4-1.33,4.82Z"/></g><g class="o"><path class="i" d="M2251.74,2414q25.76,10.81,50.43,24t47.94,28.6c3.41,2.26,6.86,4,8.91,7.53a10.6,10.6,0,0,1,.9,1.89c.11.34.2.68.28,1s.05.2,0,.08c0,.19,0,.39,0,.59s0,.3,0,.46c0,.36.16-.52,0,.08,0,0-.11.38,0,.09s-.1.19-.15.25c.38-.5-.43.35,0,0-.24.21-.2.11,0,.05-.25.08-.49.16-.74.22-3.14.72-1.81,5.54,1.33,4.82,3.62-.84,5-4.13,4.43-7.56a16.15,16.15,0,0,0-5-8.54,41.06,41.06,0,0,0-5.39-3.87q-3.08-2.05-6.17-4.06-6.2-4-12.48-7.9-25.35-15.6-52.17-28.64-15.22-7.41-30.86-13.95a2.51,2.51,0,0,0-3.08,1.74,2.58,2.58,0,0,0,1.75,3.08Z"/></g><g class="o"><path class="i" d="M2093.94,1464.19q26.31-12,53.68-21.45t55.34-16.26q28.15-6.87,56.86-11.09c19-2.79,38.1-4.66,57.25-5.66s38.64-1.09,57.94-.26q3.57.15,7.14.35c3.21.17,3.2-4.83,0-5q-29.07-1.59-58.2-.41t-58.12,5.13q-28.85,3.89-57.25,10.47t-56,15.78q-27.79,9.27-54.63,21.16-3.27,1.44-6.52,2.93a2.52,2.52,0,0,0-.9,3.42,2.56,2.56,0,0,0,3.43.89Z"/></g><g class="l"><path class="k" d="M2001,1872.69q13.86,26.46,25.94,53.79c1,2.35,2.06,4.7,3.08,7.06.46,1,.91,2.11,1.36,3.17l.73,1.71c.1.24.2.49.31.73l.22.52q2.88,6.86,5.65,13.75,5.54,13.8,10.61,27.77,10.23,28.2,18.57,57t14.66,57.89q6.35,29.19,10.74,58.74c.36,2.45.72,4.91,1.06,7.36.36,2.6,3.81,4.25,6.15,3.49,2.85-.92,3.88-3.36,3.49-6.15q-4.16-29.7-10.3-59.09t-14.26-58.26q-8.12-28.87-18.14-57.17-10.15-28.63-22.22-56.54-11.88-27.54-25.59-54.25-1.71-3.3-3.43-6.59a5,5,0,0,0-6.84-1.8,5.12,5.12,0,0,0-1.79,6.84Z"/></g><g class="l"><path class="k" d="M1108.86,2115.86a625,625,0,0,0,44.52-76.31,652,652,0,0,0,66.2-257,626.41,626.41,0,0,0-2.09-88.35q-.51-5.46-1.13-10.91c-.3-2.68-2.08-5-5-5-2.47,0-5.3,2.3-5,5a630,630,0,0,1-4.89,174.93,649.7,649.7,0,0,1-20.41,85.27,634,634,0,0,1-31.71,81.48,625.75,625.75,0,0,1-43,76.74q-3,4.59-6.1,9.11c-1.53,2.23-.42,5.54,1.79,6.84a5.1,5.1,0,0,0,6.84-1.79Z"/></g><circle class="h" cx="375.94" cy="1610.48" r="62.55"/><rect class="h" x="382.89" y="1260.64" width="37.07" height="333.62"/><circle class="g" cx="1241.11" cy="426.34" r="62.55"/><rect class="g" x="1297.63" y="90.66" width="37.07" height="333.62" transform="translate(122.34 -353.55) rotate(16.04)"/><circle class="i" cx="2701.86" cy="1299.95" r="25.98"/><rect class="i" x="2747.24" y="1175.22" width="15.4" height="138.57" transform="translate(1249.46 -1376.94) rotate(35.82)"/><circle class="h" cx="647.21" cy="2117.4" r="20.87"/><rect class="h" x="621.63" y="2003.2" width="12.37" height="111.33" transform="translate(-845.98 490.11) rotate(-26.25)"/><circle class="h" cx="736.87" cy="2072.72" r="20.87"/><rect class="h" x="711.29" y="1958.52" width="12.37" height="111.33" transform="translate(-816.97 525.17) rotate(-26.25)"/><rect class="h" x="644.2" y="1935.77" width="12.37" height="111.33" transform="translate(2148.68 527.21) rotate(63.75)"/><rect class="h" x="654.68" y="1957.01" width="12.37" height="111.33" transform="translate(2173.57 529.66) rotate(63.75)"/><circle class="k" cx="2830.05" cy="1758.93" r="23.85"/><rect class="k" x="2800.83" y="1628.44" width="14.13" height="127.2" transform="translate(-458.82 1416.64) rotate(-26.25)"/><circle class="k" cx="2932.5" cy="1707.88" r="23.85"/><rect class="k" x="2903.27" y="1577.39" width="14.13" height="127.2" transform="translate(-425.67 1456.69) rotate(-26.25)"/><rect class="k" x="2826.62" y="1551.4" width="14.13" height="127.2" transform="translate(3028.58 -1640.77) rotate(63.75)"/><rect class="k" x="2838.59" y="1575.67" width="14.13" height="127.2" transform="translate(3057.03 -1637.97) rotate(63.75)"/><circle class="i" cx="536.43" cy="2791.64" r="20.07"/><rect class="i" x="511.84" y="2681.83" width="11.89" height="107.05" transform="translate(-1156.59 511.23) rotate(-26.25)"/><circle class="i" cx="622.64" cy="2748.68" r="20.07"/><rect class="i" x="598.05" y="2638.87" width="11.89" height="107.05" transform="translate(-1128.69 544.93) rotate(-26.25)"/><rect class="i" x="533.54" y="2617" width="11.89" height="107.05" transform="translate(2695.87 1005.36) rotate(63.75)"/><rect class="i" x="543.62" y="2637.42" width="11.89" height="107.05" transform="translate(2719.81 1007.72) rotate(63.75)"/><circle class="k" cx="648.14" cy="2493.99" r="17.96"/><rect class="k" x="650.14" y="2393.57" width="10.64" height="95.77"/><path class="k" d="M685.92,2423.45l-28.3-3.47,2.87-26.34,11,12.27c4.48,5,16.66,6.37,22.54,9.61l17.66,30.57Z"/><circle class="h" cx="2582.04" cy="1090.49" r="21.34"/><rect class="h" x="2584.42" y="971.16" width="12.64" height="113.8"/><path class="h" d="M2626.93,1006.67l-33.63-4.13,3.41-31.3,13,14.59c5.33,6,19.79,7.57,26.79,11.42l21,36.32Z"/><circle class="i" cx="2829.99" cy="423.08" r="56.66"/><rect class="i" x="2928.94" y="151.09" width="33.57" height="302.17" transform="translate(734.04 -1666.85) rotate(35.82)"/><circle class="k" cx="2424.8" cy="899.96" r="52.01"/><rect class="k" x="2361.07" y="615.41" width="30.82" height="277.39" transform="translate(-88.42 1129.05) rotate(-26.25)"/><circle class="k" cx="2648.21" cy="788.64" r="52.01"/><rect class="k" x="2584.48" y="504.08" width="30.82" height="277.39" transform="translate(-16.13 1216.39) rotate(-26.25)"/><rect class="k" x="2417.32" y="447.39" width="30.82" height="277.39" transform="translate(1882.22 -1854.94) rotate(63.75)"/><rect class="k" x="2443.43" y="500.33" width="30.82" height="277.39" transform="translate(1944.26 -1848.83) rotate(63.75)"/><circle class="i" cx="779.46" cy="1244.49" r="52.01"/><rect class="i" x="715.73" y="959.93" width="30.82" height="277.39" transform="translate(-410.56 436.76) rotate(-26.25)"/><circle class="i" cx="1002.87" cy="1133.17" r="52.01"/><rect class="i" x="939.14" y="848.61" width="30.82" height="277.39" transform="translate(-338.27 524.1) rotate(-26.25)"/><rect class="i" x="771.97" y="791.92" width="30.82" height="277.39" transform="translate(1273.7 -187.2) rotate(63.75)"/><rect class="i" x="798.08" y="844.86" width="30.82" height="277.39" transform="translate(1335.73 -181.1) rotate(63.75)"/><circle class="h" cx="2120" cy="411.6" r="46.53"/><rect class="h" x="2125.17" y="151.37" width="27.57" height="248.16"/><path class="h" d="M2217.89,228.8l-73.34-9,7.43-68.25,28.42,31.81c11.61,13,43.15,16.5,58.41,24.9l45.77,79.21Z"/><circle class="h" cx="2965.38" cy="2827.32" r="21.34"/><rect class="h" x="2967.75" y="2707.99" width="12.64" height="113.8"/><path class="h" d="M3010.26,2743.49l-33.63-4.12,3.41-31.3,13,14.59c5.33,6,19.79,7.56,26.79,11.42l21,36.32Z"/><circle class="k" cx="454.79" cy="700.58" r="78.7"/><rect class="k" x="461.23" y="260.14" width="46.64" height="419.73" transform="translate(-4.67 4.87) rotate(-0.57)"/><path class="k" d="M617.25,389.77l-124.19-14,11.42-115.56,48.6,53.31c19.85,21.78,73.26,27.18,99.21,41.14L731,487.87Z"/><g class="j"><path class="i" d="M749.41,2822.78c-3.89,8-7.79,16-11.63,24q-1.12-10.32-1.54-20.69c-.13-3.12-.21-6.25-.24-9.37l.38.17Z"/></g><g class="j"><path class="i" d="M2421.65,2477.45c-78.54.89-179.48-4.61-250.79-32.34-174.93-68-822.57,573.82-1259.19,693.27-132.19,36.17-174.56-100.8-175.53-288.18.54-1.14,1.09-2.28,1.64-3.43a318.32,318.32,0,0,0,58.58,152.31c21.62,29.72,49.64,56.33,84.45,68.12,39.6,13.42,83.55,6.15,122.6-8.81,84-32.19,150.5-96.86,217.58-156.78a2779.54,2779.54,0,0,1,492.49-351.47c104.91-58.77,215.17-111.23,333.24-134s245.54-13.77,350.54,44.83A171.85,171.85,0,0,1,2421.65,2477.45Z"/></g><g class="j"><path class="i" d="M2688.07,2532.7c-7.73,22.27-42.13,22.57-59,6.13a65.07,65.07,0,0,1-12.85-18.08c17.18,16.57,26.3,19.15,23.41,1.84-78.26-469.57-244.4-1071.45-277.22-1046.21-40.51,31.16-272.23-18.88-345.07-35.61a20.86,20.86,0,0,1,.44-8.52c.07-.28.16-.56.25-.83,4-11.87,23.58-15.73,29.29-5.42a11.61,11.61,0,0,1,.87,2l-11.47,0H2031c.55.26,1.11.52,1.67.76C2098.6,1459,2174.78,1456.1,2247,1448c54.24-6.09,116.51-12.33,156.27,25.06,21.2,19.94,31.34,48.66,40.56,76.27a6814.59,6814.59,0,0,1,244.09,957.28C2689.45,2515.27,2691,2524.39,2688.07,2532.7Z"/></g><g class="p"><path class="g" d="M1726.05,1836.43a962.46,962.46,0,0,1-446.58-59.4c-47.65-18.46-96.74-41.19-147.47-35.08-65,7.83-114.25,60.32-157.17,109.74-54.42,62.67-110.69,130.83-121.21,213.16l9.18,10.45a40.81,40.81,0,0,1,1.1,7.22c-6.09-6.93-9.54-11.65-11.95-11.65-33.88-216.81,103.59-320.78,213.92-368.63a273.16,273.16,0,0,1,210.49-2.68c98.33,39.48,266.18,101.72,410.38,129.66Q1707,1833.15,1726.05,1836.43Z"/></g><g class="p"><path class="g" d="M1597.67,556.39c-8.51,30.15-31.52,55.53-57.41,74-29.89,21.28-64.16,35.48-95.56,54.47-80,48.4-139.92,129-163.1,219.67-16.67,65.1-15,134-33.5,198.61-16.11,56.2-46,105.4-81.76,151.58-46,59.53-101.63,114.07-149.54,172.23a997.09,997.09,0,0,0-212.52,466.46l6.24-24.52a121.92,121.92,0,0,1-10.58,78.86A589.58,589.58,0,0,1,792.7,1830c13.46-344.67,329.9-565.87,365-595.62a15.07,15.07,0,0,0,3.12-3l.72-6.8q.72-6.78,1.47-13.48,3-26.76,6.33-52.15.84-6.35,1.7-12.61t1.74-12.44q1.32-9.27,2.69-18.35,3.66-24.21,7.64-47.1,1.36-7.87,2.78-15.59t2.85-15.28q2.16-11.36,4.41-22.37c.5-2.44,1-4.88,1.51-7.3l1.11-5.26q1.11-5.25,2.24-10.42c.75-3.44,1.51-6.87,2.28-10.26,13.77-61.11,29.48-113.92,46.57-159.51q1.42-3.79,2.86-7.53l.06-.15c13.15-30.06,26.61-60,41-89.34q2.27-4.14,4.56-8.15,2.38-4.2,4.8-8.26,1.6-2.71,3.22-5.37t3.23-5.25c1.08-1.73,2.17-3.44,3.25-5.13.54-.85,1.09-1.69,1.63-2.53,1.09-1.68,2.18-3.33,3.27-5,.55-.82,1.09-1.64,1.64-2.45,1.1-1.62,2.19-3.22,3.29-4.8q4.13-5.94,8.28-11.55,1.66-2.24,3.33-4.43,2.51-3.29,5-6.45,3.35-4.23,6.72-8.25,10.11-12.06,20.36-22.35l1.71-1.71c1.13-1.12,2.27-2.24,3.4-3.34l1.72-1.64q2.57-2.44,5.13-4.77,3.43-3.12,6.87-6.05,1.71-1.47,3.42-2.89h0q2.57-2.14,5.14-4.18c.58-.45,1.15-.91,1.73-1.35q3.42-2.69,6.86-5.18h0q5.14-3.76,10.29-7.16h0l3.42-2.23h0a239.62,239.62,0,0,1,37.4-19.56h0q6.72-2.79,13.36-5.05h0l3.32-1.11a222.44,222.44,0,0,1,69-10.85c1.18,0,2.35,0,3.52,0s2.28,0,3.41.08h.3c1.08,0,2.15.07,3.22.12h0c1.08,0,2.16.1,3.23.17,1.41.08,2.82.18,4.21.28q3,.24,6,.54c1.14.12,2.27.24,3.39.38l2.66.32,2.56.34c.71.09,1.42.2,2.12.3,3.85.57,7.6,1.22,11.22,1.92l2.81.57,2.87.61q2.85.62,5.59,1.29C1594.81,555.65,1596.25,556,1597.67,556.39Z"/></g></g><circle class="q" cx="181.62" cy="3060.16" r="11.04"/><circle class="r" cx="216.59" cy="3087.01" r="13.64"/><circle class="s" cx="172.79" cy="3005.1" r="9.33"/><path class="g" d="M209.8,3153.71H186.91V3020.19H209.8v5.15a38.42,38.42,0,0,1,22.32-5.82,41.91,41.91,0,0,1,21.17,7.15,47.64,47.64,0,0,1,15.64,17.55,53,53,0,0,1,5.92,25.37,48.6,48.6,0,0,1-5.82,23.65,46.48,46.48,0,0,1-15.64,17.08,40.78,40.78,0,0,1-22,6.58c-1.91,0-4.27-.13-7.06-.39a47.56,47.56,0,0,1-8.11-1.43,20.38,20.38,0,0,1-6.39-2.76Zm0-62.95q11.05,5.16,20.6,4a23.78,23.78,0,0,0,15.45-7.73q5.91-6.57,5.92-17.45,0-12.59-6.2-19.84a23,23,0,0,0-15.74-8.2q-9.54-1-20,5.34Z"/><path class="g" d="M113.57,3111.12V2984.29h22.12v60.51l22.49-24.64h28.94l-15.38,17.07a35.09,35.09,0,0,0-2.41,44.21l21.48,29.68h-26l-29.13-37.87v37.87Z"/><path class="g" d="M327.11,3080.57h-6.9a.78.78,0,0,1-.59-.27l-12.43-15.23h0a.76.76,0,0,0-1.36.46v14.29a.76.76,0,0,1-.76.75h-5.83a.76.76,0,0,1-.76-.75V3038a.76.76,0,0,1,.76-.76h5.83a.76.76,0,0,1,.76.76v14.49a.76.76,0,0,0,1.35.47l12.32-15.49a.75.75,0,0,1,.59-.29h7.13a.76.76,0,0,1,.61,1.21l-15.05,20a.77.77,0,0,0,0,.91l14.94,20.08A.75.75,0,0,1,327.11,3080.57Z"/><path class="g" d="M340.72,3080.88c-3.13-.16-5.49-1.06-7.1-2.68a9.2,9.2,0,0,1-2.41-6.77,9.06,9.06,0,0,1,1.61-5.4,11.08,11.08,0,0,1,4.26-3.55,16.93,16.93,0,0,1,5.9-1.61,20.94,20.94,0,0,1,6.57.44v-1.92a3,3,0,0,0-1.6-2.84,7.72,7.72,0,0,0-3.93-.8,14.94,14.94,0,0,0-4.63.89,9.2,9.2,0,0,0-3.73,2.38l-4.14-4.51a17.1,17.1,0,0,1,5.56-3.58,20.58,20.58,0,0,1,6.64-1.48,17.83,17.83,0,0,1,6.48.8,11.15,11.15,0,0,1,5,3.21A7.36,7.36,0,0,1,357,3058q.19,2.85.19,6.24v16.3h-7.54v-2.84a10.55,10.55,0,0,1-4.26,2.5A14.4,14.4,0,0,1,340.72,3080.88Zm8.65-9v-5.32c-4.29-.32-7.26-.06-8.93.81a4.25,4.25,0,0,0-2.5,4,2.73,2.73,0,0,0,1.21,2.5,5.28,5.28,0,0,0,3,.74,11.36,11.36,0,0,0,3.77-.74A10.75,10.75,0,0,0,349.37,3071.87Z"/><path class="g" d="M363.32,3080.57V3049.7h7.35V3052a7.58,7.58,0,0,1,5.78-2.41,26.51,26.51,0,0,1,7.44,1.36l-3.58,6.36a10,10,0,0,0-4.61-.49,7.83,7.83,0,0,0-3.67,1.36,2.91,2.91,0,0,0-1.36,2.53v19.88Z"/><path class="g" d="M392.1,3046.05a4.42,4.42,0,0,1-4.51-4.51,4.29,4.29,0,0,1,1.3-3.15,4.36,4.36,0,0,1,3.21-1.29,4.42,4.42,0,0,1,4.45,4.44,4.4,4.4,0,0,1-1.3,3.22A4.29,4.29,0,0,1,392.1,3046.05Zm3.4,34.52h-6.8V3049.7h6.8Z"/><path class="g" d="M430.51,3080.57H423.1v-18a6.26,6.26,0,0,0-1-3.8,4.64,4.64,0,0,0-2.34-1.7,9.31,9.31,0,0,0-2.69-.43,11.82,11.82,0,0,0-2.87.43,6.19,6.19,0,0,0-2.87,1.7,5.22,5.22,0,0,0-1.24,3.8v18h-7.41V3049.7h7.41v2.22a5.68,5.68,0,0,1,3.28-2,16.7,16.7,0,0,1,4.26-.58,13.36,13.36,0,0,1,6.82,1.66,11.47,11.47,0,0,1,4.45,4.63,14.57,14.57,0,0,1,1.57,6.92Z"/><path class="g" d="M459.53,3080.57l.07-43.23h16.11a9.63,9.63,0,0,1,5.93,1.89,12.4,12.4,0,0,1,3.92,4.88,14.93,14.93,0,0,1,1.39,6.39,13.36,13.36,0,0,1-.89,4.75,15.48,15.48,0,0,1-2.44,4.26,12.1,12.1,0,0,1-3.61,3.06,9.13,9.13,0,0,1-4.48,1.14H467v16.86Zm7.42-24.14h8.27a3.84,3.84,0,0,0,3.12-1.82,6.87,6.87,0,0,0,1.33-4.11,6.37,6.37,0,0,0-1.39-4.2,3.87,3.87,0,0,0-2.87-1.67H467Z"/><path class="g" d="M503.75,3081.38a15.3,15.3,0,0,1-7.81-2,13.72,13.72,0,0,1-5.25-5.43,16.82,16.82,0,0,1-1.88-8.12q0-8.16,4.1-12.32a14.53,14.53,0,0,1,10.84-4.17,15.75,15.75,0,0,1,7.75,1.85,12.85,12.85,0,0,1,5.28,5.53,19.5,19.5,0,0,1,1.92,9.11,16.6,16.6,0,0,1-1.92,8.12,13.79,13.79,0,0,1-5.28,5.43A15.17,15.17,0,0,1,503.75,3081.38Zm0-7.11a7.42,7.42,0,0,0,4.29-1.2,7.58,7.58,0,0,0,2.66-3.12,9.41,9.41,0,0,0,.89-4.07,10.92,10.92,0,0,0-2-6.64,6.8,6.8,0,0,0-5.84-2.75,6.89,6.89,0,0,0-5.77,2.65,10.64,10.64,0,0,0-2.07,6.74,9.3,9.3,0,0,0,.93,4.13,7.33,7.33,0,0,0,6.91,4.26Z"/><path class="g" d="M531.66,3080.57h-7.41v-43.23h7.41Z"/><path class="g" d="M546.73,3080.88c-3.13-.16-5.49-1.06-7.1-2.68a9.2,9.2,0,0,1-2.41-6.77,9.06,9.06,0,0,1,1.61-5.4,11.08,11.08,0,0,1,4.26-3.55,16.93,16.93,0,0,1,5.9-1.61,20.94,20.94,0,0,1,6.57.44v-1.92a3,3,0,0,0-1.6-2.84,7.71,7.71,0,0,0-3.92-.8,15,15,0,0,0-4.64.89,9.2,9.2,0,0,0-3.73,2.38l-4.14-4.51a17.1,17.1,0,0,1,5.56-3.58,20.58,20.58,0,0,1,6.64-1.48,17.83,17.83,0,0,1,6.48.8,11.15,11.15,0,0,1,5,3.21A7.36,7.36,0,0,1,563,3058q.19,2.85.19,6.24v16.3h-7.54v-2.84a10.55,10.55,0,0,1-4.26,2.5A14.4,14.4,0,0,1,546.73,3080.88Zm8.65-9v-5.32c-4.28-.32-7.26-.06-8.93.81a4.25,4.25,0,0,0-2.5,4,2.73,2.73,0,0,0,1.21,2.5,5.28,5.28,0,0,0,3,.74,11.36,11.36,0,0,0,3.77-.74A10.75,10.75,0,0,0,555.38,3071.87Z"/><path class="g" d="M597.12,3080.57h-7.41v-18a6.33,6.33,0,0,0-1-3.8,4.67,4.67,0,0,0-2.35-1.7,9.31,9.31,0,0,0-2.69-.43,11.82,11.82,0,0,0-2.87.43,6.19,6.19,0,0,0-2.87,1.7,5.27,5.27,0,0,0-1.24,3.8v18h-7.41V3049.7h7.41v2.22a5.71,5.71,0,0,1,3.28-2,16.7,16.7,0,0,1,4.26-.58,13.36,13.36,0,0,1,6.82,1.66,11.47,11.47,0,0,1,4.45,4.63,14.57,14.57,0,0,1,1.57,6.92Z"/><path class="g" d="M628.31,3076.31a16.78,16.78,0,0,1-6.67,4.08,15.32,15.32,0,0,1-7,.55,14.59,14.59,0,0,1-10.84-8,17.14,17.14,0,0,1-1.7-7.85,17.83,17.83,0,0,1,1.67-8,13.44,13.44,0,0,1,4.51-5.31,14,14,0,0,1,6.3-2.38,16.08,16.08,0,0,1,7.1.77,18.7,18.7,0,0,1,6.85,4.17l-4.94,5.25a7.62,7.62,0,0,0-8.86-2.47,7.89,7.89,0,0,0-3.7,2.93,8.53,8.53,0,0,0-1.45,5,9.12,9.12,0,0,0,1.45,5.32,7.68,7.68,0,0,0,3.67,2.93,7.94,7.94,0,0,0,4.69.25,9.13,9.13,0,0,0,4.51-2.75Z"/><path class="g" d="M647.14,3081.38a15.32,15.32,0,0,1-7.81-2,13.72,13.72,0,0,1-5.25-5.43,16.93,16.93,0,0,1-1.88-8.12q0-8.16,4.11-12.32a14.51,14.51,0,0,1,10.83-4.17,15.72,15.72,0,0,1,7.75,1.85,12.85,12.85,0,0,1,5.28,5.53,19.5,19.5,0,0,1,1.92,9.11,16.6,16.6,0,0,1-1.92,8.12,13.79,13.79,0,0,1-5.28,5.43A15.15,15.15,0,0,1,647.14,3081.38Zm0-7.11a7.47,7.47,0,0,0,4.3-1.2,7.64,7.64,0,0,0,2.65-3.12,9.42,9.42,0,0,0,.9-4.07,10.92,10.92,0,0,0-2-6.64,6.78,6.78,0,0,0-5.84-2.75,6.89,6.89,0,0,0-5.77,2.65,10.64,10.64,0,0,0-2.07,6.74,9.3,9.3,0,0,0,.93,4.13,7.64,7.64,0,0,0,2.68,3.09A7.5,7.5,0,0,0,647.14,3074.27Z"/><circle class="i" cx="2533.2" cy="3060.56" r="21.86"/><rect class="i" x="2571.38" y="2955.6" width="12.96" height="116.61" transform="translate(2251.51 -938.63) rotate(35.82)"/><circle class="k" cx="2813.42" cy="3151.45" r="23.85"/><rect class="k" x="2784.19" y="3020.96" width="14.13" height="127.2" transform="translate(-1076.53 1552.94) rotate(-26.25)"/><circle class="k" cx="2915.86" cy="3100.4" r="23.85"/><rect class="k" x="2886.64" y="2969.92" width="14.13" height="127.2" transform="translate(-1043.38 1592.99) rotate(-26.25)"/><rect class="k" x="2809.98" y="2943.92" width="14.13" height="127.2" transform="translate(4268.17 -849.32) rotate(63.75)"/><rect class="k" x="2821.96" y="2968.19" width="14.13" height="127.2" transform="translate(4296.62 -846.52) rotate(63.75)"/></g></svg>