<svg id="ba9ce7a7-13a3-4f25-a96b-a9cc2c775455" data-name="Layer 1" xmlns="http://www.w3.org/2000/svg" xmlns:xlink="http://www.w3.org/1999/xlink" viewBox="0 0 2160 1080"><defs><style>.ab1e606b-4bce-4a84-8f22-e5987e4fca7e{fill:none;}.bdad070f-d50b-4027-b726-3247099dbc28{fill:#384bb7;}.b0bf04bb-bf2c-43af-8394-c264f467324b,.b7f047c5-3b47-46ae-8bb3-32260502e73e{fill:#fff;}.b7f047c5-3b47-46ae-8bb3-32260502e73e{stroke:#fff;stroke-miterlimit:10;stroke-width:2px;}.a57f0113-0f74-4ad1-a3d8-82966dd0bcb2{clip-path:url(#b5a42e67-6ac7-484f-b357-c8261478e742);}.ea10ed91-2a34-4e37-bf62-12110dbf29bd{clip-path:url(#ab1415ea-eb82-4e51-9bcc-75ec3867618c);}</style><clipPath id="b5a42e67-6ac7-484f-b357-c8261478e742"><rect class="ab1e606b-4bce-4a84-8f22-e5987e4fca7e" x="581.79" y="408.3" width="214.09" height="263.39"/></clipPath><clipPath id="ab1415ea-eb82-4e51-9bcc-75ec3867618c"><rect class="ab1e606b-4bce-4a84-8f22-e5987e4fca7e" x="-45.67" y="1344.56" width="2389.33" height="1141.33"/></clipPath></defs><title>Artboard 1 copy</title><rect class="bdad070f-d50b-4027-b726-3247099dbc28" x="-35" y="-35" width="2389.33" height="1141.33"/><path class="b7f047c5-3b47-46ae-8bb3-32260502e73e" d="M829.68,472.31h-9.59v33.35h-3.86v-79.1h14.23a17.07,17.07,0,0,1,6.58,1.28,16.34,16.34,0,0,1,5.36,3.57,17.43,17.43,0,0,1,3.61,5.33,16.12,16.12,0,0,1,1.34,6.55v12.28a15.68,15.68,0,0,1-1.05,5.74,17.38,17.38,0,0,1-2.93,4.91,16.83,16.83,0,0,1-9.71,5.74l14.28,33.7h-4.1Zm-9.59-3.86H830.5a12.67,12.67,0,0,0,5-1,12.86,12.86,0,0,0,4.09-2.75,13.61,13.61,0,0,0,2.81-4.09,12.17,12.17,0,0,0,1-5V443.29a11.88,11.88,0,0,0-1-4.92,13.6,13.6,0,0,0-6.9-6.9,12.2,12.2,0,0,0-5-1.05H820.09Z"/><path class="b7f047c5-3b47-46ae-8bb3-32260502e73e" d="M901.76,426.56v62.6a16.55,16.55,0,0,1-1.34,6.61,17.24,17.24,0,0,1-3.63,5.38,17.49,17.49,0,0,1-5.33,3.63,16.09,16.09,0,0,1-6.55,1.34,16.55,16.55,0,0,1-6.61-1.34,17,17,0,0,1-9-9,16.39,16.39,0,0,1-1.35-6.61v-62.6h3.87v62.6a12.57,12.57,0,0,0,1.05,5.09,13.25,13.25,0,0,0,7,7,12.57,12.57,0,0,0,5.09,1.05,12.16,12.16,0,0,0,5-1.05,13.4,13.4,0,0,0,6.91-7,12.57,12.57,0,0,0,1-5.09v-62.6Z"/><path class="b7f047c5-3b47-46ae-8bb3-32260502e73e" d="M952.43,430.42h-15.8v75.24h-3.86V430.42H917v-3.86h35.46Z"/><path class="b7f047c5-3b47-46ae-8bb3-32260502e73e" d="M1003,505.66l-5.5-24.81H974.78l-5.5,24.81h-4l17.55-79.1h6.55l17.55,79.1ZM975.59,477h21.07l-10.53-47.27Z"/><path class="b0bf04bb-bf2c-43af-8394-c264f467324b" d="M835.33,548.83h24.45l2,16.74H835.33v30.07H814V516.19h51.6l2,16.73H835.33Z"/><path class="b0bf04bb-bf2c-43af-8394-c264f467324b" d="M891,595.64V516.07h33.46q14.28,0,23.52,6.79t9.24,20.36a25.64,25.64,0,0,1-2.86,12.34,24.32,24.32,0,0,1-7.9,8.72L964,595.64H939.35l-12.87-25H912.32v25Zm44.23-52.42c0-3.44-1-6-3-7.79s-4.82-2.63-8.48-2.63H912.32v21.06H924a11.29,11.29,0,0,0,8.08-3A10.09,10.09,0,0,0,935.26,543.22Z"/><path class="b0bf04bb-bf2c-43af-8394-c264f467324b" d="M1042.55,578.9l2,16.74H986.27V516.07h56.28l2,16.73h-37v14.51H1032l2,16.73h-26.44V578.9Z"/><path class="b0bf04bb-bf2c-43af-8394-c264f467324b" d="M1102.93,514.55a46.8,46.8,0,0,1,12.46,1.75,37.51,37.51,0,0,1,10.94,4.8L1120,535.49a89,89,0,0,0-9.54-2.8,35.37,35.37,0,0,0-7.32-.71,16,16,0,0,0-9.18,3,22.23,22.23,0,0,0-7.14,8.55,27.64,27.64,0,0,0-2.75,12.52,26.72,26.72,0,0,0,2.81,12.52,20.67,20.67,0,0,0,7.43,8.25,18,18,0,0,0,9.65,2.86,29,29,0,0,0,15.1-4.33l8.07,15.92a41,41,0,0,1-11.06,4.27,53.69,53.69,0,0,1-12.69,1.58q-12.64,0-22-5.21a35.48,35.48,0,0,1-14.33-14.45,44.2,44.2,0,0,1-5-21.3,43.6,43.6,0,0,1,5.27-21.53,38,38,0,0,1,14.57-14.8A41.5,41.5,0,0,1,1102.93,514.55Z"/><path class="b0bf04bb-bf2c-43af-8394-c264f467324b" d="M1148.21,516.07h21.3v48.09q0,7.26,4,11.29a15.44,15.44,0,0,0,20.83,0q4-4,4-11.29V516.07h21.29v49.14q0,10.18-4.44,17.38a28.3,28.3,0,0,1-12.53,10.94,48.72,48.72,0,0,1-37.44,0,28.28,28.28,0,0,1-12.52-10.94q-4.44-7.2-4.45-17.38Z"/><path class="b0bf04bb-bf2c-43af-8394-c264f467324b" d="M1305.12,578.9l2,16.74h-58.27V516.07h56.28l2,16.73h-37v14.51h24.45l2,16.73h-26.44V578.9Z"/><path class="b0bf04bb-bf2c-43af-8394-c264f467324b" d="M1351.81,553.75v41.89h-21.29V516.07h19.77L1381,559.25V516.07h21.29v79.57h-19.89Z"/><path class="b0bf04bb-bf2c-43af-8394-c264f467324b" d="M1424.47,516.07h68.11l2,16.73h-25.39v62.84h-21.29V532.8h-23.41Z"/><path class="b0bf04bb-bf2c-43af-8394-c264f467324b" d="M1573.08,578.9l2,16.74H1516.8V516.07h56.28l2,16.73h-37v14.51h24.46l2,16.73h-26.45V578.9Z"/><path class="b7f047c5-3b47-46ae-8bb3-32260502e73e" d="M1468.15,654.31a2.66,2.66,0,0,1-.77,1.92,2.6,2.6,0,0,1-3.77,0,2.67,2.67,0,0,1-.78-1.92,2.62,2.62,0,0,1,.78-1.85,2.6,2.6,0,0,1,3.77,0A2.61,2.61,0,0,1,1468.15,654.31Z"/><path class="b7f047c5-3b47-46ae-8bb3-32260502e73e" d="M1491.44,654.53a7.74,7.74,0,0,0,3.18-.66,8.8,8.8,0,0,0,2.58-1.78,8.61,8.61,0,0,0,1.78-2.62,8,8,0,0,0,.66-3.22h2.44a10.35,10.35,0,0,1-.85,4.18,11,11,0,0,1-2.29,3.4,10.89,10.89,0,0,1-3.36,2.29,10.06,10.06,0,0,1-4.14.85,10.35,10.35,0,0,1-4.18-.85,10.7,10.7,0,0,1-5.69-5.69,10.35,10.35,0,0,1-.85-4.18V617.06a10.35,10.35,0,0,1,.85-4.18,10.83,10.83,0,0,1,2.29-3.4,11,11,0,0,1,3.4-2.29,10.35,10.35,0,0,1,4.18-.85,10.55,10.55,0,0,1,4.14.82,11,11,0,0,1,3.36,2.26,10.73,10.73,0,0,1,2.29,3.39,10.27,10.27,0,0,1,.85,4.17h-2.44a7.66,7.66,0,0,0-.66-3.17,8.65,8.65,0,0,0-4.36-4.37,7.74,7.74,0,0,0-3.18-.66,8,8,0,0,0-3.22.66,8.61,8.61,0,0,0-2.62,1.78,8.85,8.85,0,0,0-1.78,2.59,7.74,7.74,0,0,0-.66,3.18v29.25a8,8,0,0,0,.66,3.22,8.66,8.66,0,0,0,1.78,2.63,8.41,8.41,0,0,0,2.62,1.77A7.81,7.81,0,0,0,1491.44,654.53Z"/><path class="b7f047c5-3b47-46ae-8bb3-32260502e73e" d="M1525.36,657a10.27,10.27,0,0,1-4.17-.85,10.72,10.72,0,0,1-3.4-2.29,11,11,0,0,1-2.3-3.4,10.51,10.51,0,0,1-.84-4.18V617.06a10.51,10.51,0,0,1,.84-4.18,11,11,0,0,1,2.3-3.4,10.89,10.89,0,0,1,3.4-2.29,10.27,10.27,0,0,1,4.17-.85,10.06,10.06,0,0,1,4.14.85,11.23,11.23,0,0,1,3.37,2.29,11,11,0,0,1,2.29,3.4,10.52,10.52,0,0,1,.85,4.18v29.19a10.52,10.52,0,0,1-.85,4.18,10.79,10.79,0,0,1-5.66,5.69A10.06,10.06,0,0,1,1525.36,657Zm0-48.19a8,8,0,0,0-3.21.66,8.44,8.44,0,0,0-4.4,4.37,7.75,7.75,0,0,0-.67,3.18v29.25a8,8,0,0,0,.67,3.22,8.26,8.26,0,0,0,4.4,4.4,7.79,7.79,0,0,0,3.21.67,7.56,7.56,0,0,0,3.18-.67,8.37,8.37,0,0,0,4.36-4.4,7.81,7.81,0,0,0,.67-3.22V617a7.59,7.59,0,0,0-.67-3.18,8.55,8.55,0,0,0-4.36-4.37A7.71,7.71,0,0,0,1525.36,608.78Z"/><path class="b7f047c5-3b47-46ae-8bb3-32260502e73e" d="M1578.21,606.63v50h-2.44v-43l-12.34,33.93L1551,613.58v43h-2.44v-50h2.52l12.34,33.71,12.27-33.71Z"/><path class="b0bf04bb-bf2c-43af-8394-c264f467324b" d="M698.71,555.45c.6.29-3-20.68-3-23.14a91.26,91.26,0,0,1,2.58-21.45c6.09-25.05,22.2-46.38,45.37-60.05a106.63,106.63,0,0,1,51.45-14.74c.45.62.9,1.37,1.36,2.15.11-3.28,0-6.52.13-9.77-.1-.94-.21-1.88-.26-2.8-.14,0-.29-.1-.42-.16l-1.55-.46c-1.59-.27-3.19-.5-4.8-.67a119.56,119.56,0,0,0-52.8,16.17c-26.09,15.4-44.23,39.42-51.08,67.64a101.8,101.8,0,0,0-2.91,24.14c0,50.82,36.93,94.21,89.81,105.51a122.86,122.86,0,0,0,24.73,2.7V628.38c-5.15,0-28.1-3.94-28.11-3.94C733.7,614.66,707.28,588.23,698.71,555.45Z"/><path class="b0bf04bb-bf2c-43af-8394-c264f467324b" d="M781.32,523.51l-6.39,3.92a1.73,1.73,0,0,0-.61,1.25l-.15,3.89a4.33,4.33,0,0,0,.28,1.43c.65,1.77,1.54,6.82-6.7,11.86-10.26,6.28-18.45-9.16-20.12-12.6a2.06,2.06,0,0,0-1-.93l-12.56-5a2.09,2.09,0,0,0-1.47-.1l-3.84,2.34c-.35.22-.81.52-1.19.38L720,527.35a1.74,1.74,0,0,0-1.31.19l-5.11,3.13c-.36.21-.73,1-.51,1.39l.76,1.24c.21.35.27.31-.08.52L710,536.17a2.34,2.34,0,0,1-1.29.45l-7.95-.86a2.4,2.4,0,0,0-1.34.36L693,540a.55.55,0,0,0-.09.91l11.33,10.65c.29.28.4.92,0,1.13l-2.56,1.57c-.35.21-.46.23-.05.32L708.3,556a5.74,5.74,0,0,1,1.3.39l14,7.14a.82.82,0,0,0,1-.3l1-1.55a.79.79,0,0,0-.2-1.06l-20.91-15.16c-.33-.24-.45-.84-.1-1l1.28-.79a1.91,1.91,0,0,1,1.45.15l23,10.44a5.91,5.91,0,0,1,1.25.86l6.85,6.22a2.37,2.37,0,0,0,1.29.55l16.67.86a2,2,0,0,0,1.29-.47l10-9.29a2.2,2.2,0,0,1,1.29-.52l7.41-.15a1,1,0,0,0,.93-.74l.71-2.55a2,2,0,0,1,.87-1l3.84-2.35a.48.48,0,0,0,0-.85l-1.57-1a1.11,1.11,0,0,1-.46-1.12l3.22-12.81a3,3,0,0,0,0-1.42l-1.42-4.5a.66.66,0,0,0-.93-.43Zm0,0"/><path class="b0bf04bb-bf2c-43af-8394-c264f467324b" d="M796.2,433.57,792,439.39l-19.77,22.89c-6.24,32.77-16.64-4.68-6.24,32.77,10.15,36.53,9.91,7.75,30.17,10.66Z"/><path class="b0bf04bb-bf2c-43af-8394-c264f467324b" d="M796.22,508.26l1,117.63a5.86,5.86,0,0,1-9.28,4.83c-13.9-10.11-36.31-31.49-16.79-53.92,11.81-13.57,14.76-17.19,14.35-17-2.9,1.57-6.39,0-6.28-3.25l.39-11.76a5.6,5.6,0,0,1,.17-1.21c.86-3.45,5.38-20.73,10-22.8,2.93-1.3-.31-4.5-3.66-7a5.87,5.87,0,0,1-.95-8.5l.66-.78a5.88,5.88,0,0,1,8.44-.52h0A5.86,5.86,0,0,1,796.22,508.26Z"/><path class="b0bf04bb-bf2c-43af-8394-c264f467324b" d="M729.31,484.05l8.4,4.23c6.25,3.15,16,2.84,21.54-.68l38.31-24.31a10.74,10.74,0,0,0,1.87-1.44,16,16,0,0,0,2.62-3.34,4.48,4.48,0,0,0,.56-2.72l-1.21-14.74c-.54-6.56-14.12-10.18-23.83-6.33l-33,13.08A10.93,10.93,0,0,0,739,452L725.16,475.4C723.34,478.48,725,481.86,729.31,484.05Z"/><rect class="b0bf04bb-bf2c-43af-8394-c264f467324b" x="791.72" y="424.36" width="12.07" height="216"/><path class="b0bf04bb-bf2c-43af-8394-c264f467324b" d="M641,584.33l-11.24,3a168,168,0,0,0,6.4,19.19l10.79-4.33a154.5,154.5,0,0,1-6-17.86Zm0,0"/><path class="b0bf04bb-bf2c-43af-8394-c264f467324b" d="M655,619.22l-10.19,5.59a171,171,0,0,0,10.79,17.12l9.45-6.77a159.22,159.22,0,0,1-10-15.94Zm0,0"/><g class="a57f0113-0f74-4ad1-a3d8-82966dd0bcb2"><path class="b0bf04bb-bf2c-43af-8394-c264f467324b" d="M682.93,671.7l7.55-8.84a158,158,0,0,1-13.56-13.08l-8.56,7.85a168.32,168.32,0,0,0,14.57,14.07Zm0,0"/><path class="b0bf04bb-bf2c-43af-8394-c264f467324b" d="M678.24,420.82l7.87,8.56a155.77,155.77,0,0,1,14.62-11.89L694,408a168.82,168.82,0,0,0-15.71,12.78Zm0,0"/></g><path class="b0bf04bb-bf2c-43af-8394-c264f467324b" d="M661.69,458a153.34,153.34,0,0,1,11.34-15l-8.84-7.55A166.44,166.44,0,0,0,652,451.56Zm0,0"/><path class="b0bf04bb-bf2c-43af-8394-c264f467324b" d="M641.85,469.09a167.87,167.87,0,0,0-7.93,18.62l11,3.9a153.85,153.85,0,0,1,7.38-17.33Zm0,0"/><path class="b0bf04bb-bf2c-43af-8394-c264f467324b" d="M649.69,574.22v-7.9l-10-6.59.09-12.68,27.53,8H668a6.32,6.32,0,0,0,6.31-6.31V537.28L640.57,519.1l.46-14a13,13,0,0,0-12.71-13.19,12.39,12.39,0,0,0-9.08,3.95,13.47,13.47,0,0,0-3.63,9.38h0l.46,14L582.6,537.28v11.47A6.33,6.33,0,0,0,588.9,555h.65l27.3-7.92.12,12.73-9.79,6.47v7.9a5.87,5.87,0,0,0,5.88,5.87h30.75a5.88,5.88,0,0,0,5.88-5.87ZM616.76,571h0l9.4-6.21L625.9,535l-34.16,9.91v-2.15l33.67-18.15-.66-19.53a4.24,4.24,0,0,1,1.14-2.95,3.32,3.32,0,0,1,2.43-1.08,3.78,3.78,0,0,1,3.57,3.88l-.65,19.56,33.89,18.28v2.14l-34.4-10-.2,29.73L640.1,571Zm0,0"/><g class="ea10ed91-2a34-4e37-bf62-12110dbf29bd"><image width="1080" height="1080" transform="translate(742.4 1069.43) rotate(-16.63) scale(0.3)" xlink:href="../../../Box/rf/Promos%20FB/EScondido/Instagram%202021-21.png"/><image width="1080" height="1080" transform="translate(1769.18 756.36) rotate(-16.63) scale(0.3)" xlink:href="../../../Box/rf/Promos%20FB/Bacalar%20week/bacalar-15.jpg"/><image width="1080" height="1080" transform="translate(1429.53 858.62) rotate(-16.63) scale(0.3)" xlink:href="../../../Box/rf/Promos%20FB/Tulum%20week/Instagram%202021-01.png"/><image width="2251" height="2251" transform="translate(1872.33 1101.23) rotate(-16.63) scale(0.14)" xlink:href="../../../Box/rf/Promos%20FB/ti%20puertov_Mesa%20de%20trabajo%201%20copy%207.jpg"/><image width="1081" height="1081" transform="translate(1086 961.04) rotate(-16.63) scale(0.3)" xlink:href="../../../Box/rf/Promos%20FB/chiapaas_Mesa%20de%20trabajo%201%20copy%206.png"/><image width="1081" height="1081" transform="translate(393.86 1168.42) rotate(-16.63) scale(0.3)" xlink:href="../../../Box/rf/Promos%20FB/Playacar_Mesa%20de%20trabajo%201%20copy%206.png"/></g></svg>