<svg id="e76478ba-4c7a-46b7-8f7d-546b2c5632bd" data-name="Layer 1" xmlns="http://www.w3.org/2000/svg" xmlns:xlink="http://www.w3.org/1999/xlink" viewBox="0 0 1080 1080"><defs><style>.bb733f5d-8ed5-4c72-b4e0-f7507cc2e26d{fill:none;}.ee405faa-4865-4b05-ad12-371bc0533b36{fill:#ffca4f;}.a03c3316-a81f-44a2-bc12-eb43e5ed55d2,.eeeb123a-8472-447f-8740-b97ceb96e39f{fill:#fff;}.eeeb123a-8472-447f-8740-b97ceb96e39f{stroke:#fff;stroke-miterlimit:10;stroke-width:2px;}.ae281f14-90f3-429b-8587-645b22a91357{clip-path:url(#b9423e92-c6b9-4fdb-9ea4-19faad9c3c2f);}</style><clipPath id="b9423e92-c6b9-4fdb-9ea4-19faad9c3c2f"><rect class="bb733f5d-8ed5-4c72-b4e0-f7507cc2e26d" x="139.19" y="434.05" width="172.23" height="211.9"/></clipPath></defs><title>ruta</title><rect class="ee405faa-4865-4b05-ad12-371bc0533b36" x="-35" y="-35" width="1152" height="1141.33"/><path class="eeeb123a-8472-447f-8740-b97ceb96e39f" d="M338.62,485.54H330.9v26.83h-3.1V448.74h11.45a13.59,13.59,0,0,1,5.29,1,13.07,13.07,0,0,1,4.31,2.87,14.11,14.11,0,0,1,2.91,4.28,13,13,0,0,1,1.08,5.28v9.88a12.42,12.42,0,0,1-.85,4.61,13.93,13.93,0,0,1-2.35,4,13.7,13.7,0,0,1-3.49,3,13.33,13.33,0,0,1-4.33,1.65l11.49,27.11H350Zm-7.72-3.1h8.38a10.31,10.31,0,0,0,4.05-.8,10.65,10.65,0,0,0,3.3-2.22,10.93,10.93,0,0,0,2.25-3.29,9.67,9.67,0,0,0,.85-4.05V462.2a9.5,9.5,0,0,0-.85-4,10.93,10.93,0,0,0-2.25-3.29,11.13,11.13,0,0,0-3.3-2.26,9.67,9.67,0,0,0-4.05-.85H330.9Z"/><path class="eeeb123a-8472-447f-8740-b97ceb96e39f" d="M396.61,448.74V499.1a13.28,13.28,0,0,1-1.08,5.32,13.75,13.75,0,0,1-7.2,7.24,13,13,0,0,1-5.28,1.09,13.21,13.21,0,0,1-5.31-1.09,13.53,13.53,0,0,1-7.25-7.24,13.12,13.12,0,0,1-1.09-5.32V448.74h3.11V499.1a10,10,0,0,0,.85,4.09,10.71,10.71,0,0,0,2.26,3.34,10.54,10.54,0,0,0,3.34,2.26,10,10,0,0,0,4.09.85,9.64,9.64,0,0,0,4.05-.85,10.76,10.76,0,0,0,5.56-5.6,10.11,10.11,0,0,0,.84-4.09V448.74Z"/><path class="eeeb123a-8472-447f-8740-b97ceb96e39f" d="M437.37,451.84H424.66v60.53h-3.11V451.84h-12.7v-3.1h28.52Z"/><path class="eeeb123a-8472-447f-8740-b97ceb96e39f" d="M478,512.37l-4.42-20H455.35l-4.43,20h-3.2l14.12-63.63h5.27l14.13,63.63Zm-22-23.06H473l-8.47-38Z"/><path class="a03c3316-a81f-44a2-bc12-eb43e5ed55d2" d="M343.16,547.1h19.68l1.6,13.47H343.16v24.19H326V520.84h41.51l1.61,13.46h-26Z"/><path class="a03c3316-a81f-44a2-bc12-eb43e5ed55d2" d="M388,584.76v-64h26.92q11.49,0,18.93,5.46t7.43,16.38a20.74,20.74,0,0,1-2.3,9.93,19.54,19.54,0,0,1-6.36,7l14.12,25.23H426.85L416.5,564.61H405.1v20.15Zm35.58-42.17q0-4.14-2.4-6.26c-1.6-1.42-3.87-2.12-6.82-2.12H405.1v16.94h9.42a9.07,9.07,0,0,0,6.49-2.4A8.07,8.07,0,0,0,423.55,542.59Z"/><path class="a03c3316-a81f-44a2-bc12-eb43e5ed55d2" d="M509.88,571.3l1.6,13.46H464.6v-64h45.28l1.6,13.46H481.73v11.67H501.4l1.6,13.46H481.73v12Z"/><path class="a03c3316-a81f-44a2-bc12-eb43e5ed55d2" d="M558.45,519.52a37.34,37.34,0,0,1,10,1.42,29.87,29.87,0,0,1,8.8,3.86l-5.08,11.57a70.25,70.25,0,0,0-7.67-2.25,28.34,28.34,0,0,0-5.88-.57,12.77,12.77,0,0,0-7.39,2.45,17.84,17.84,0,0,0-5.75,6.87,22.29,22.29,0,0,0-2.21,10.07A21.39,21.39,0,0,0,545.55,563a16.68,16.68,0,0,0,6,6.64A14.52,14.52,0,0,0,559.3,572a23.3,23.3,0,0,0,12.14-3.49l6.49,12.81a32.78,32.78,0,0,1-8.89,3.43A43,43,0,0,1,558.83,586a35.75,35.75,0,0,1-17.7-4.19,28.48,28.48,0,0,1-11.53-11.62,35.58,35.58,0,0,1-4-17.13,35.07,35.07,0,0,1,4.23-17.32,30.5,30.5,0,0,1,11.72-11.91A33.36,33.36,0,0,1,558.45,519.52Z"/><path class="a03c3316-a81f-44a2-bc12-eb43e5ed55d2" d="M594.88,520.75H612v38.69q0,5.84,3.2,9.08a12.43,12.43,0,0,0,16.76,0q3.19-3.24,3.2-9.08V520.75H652.3v39.53a26,26,0,0,1-3.58,14,22.71,22.71,0,0,1-10.07,8.8,39.06,39.06,0,0,1-30.12,0,22.71,22.71,0,0,1-10.07-8.8,26,26,0,0,1-3.58-14Z"/><path class="a03c3316-a81f-44a2-bc12-eb43e5ed55d2" d="M721.11,571.3l1.6,13.46H675.83v-64h45.28l1.6,13.46H693v11.67h19.68l1.6,13.46H693v12Z"/><path class="a03c3316-a81f-44a2-bc12-eb43e5ed55d2" d="M758.67,551.06v33.7H741.54v-64h15.91l24.66,34.73V520.75h17.13v64h-16Z"/><path class="a03c3316-a81f-44a2-bc12-eb43e5ed55d2" d="M817.13,520.75h54.78l1.6,13.46H853.09v50.55H836V534.21H817.13Z"/><path class="a03c3316-a81f-44a2-bc12-eb43e5ed55d2" d="M936.68,571.3l1.6,13.46H891.4v-64h45.28l1.6,13.46H908.53v11.67H928.2l1.61,13.46H908.53v12Z"/><path class="eeeb123a-8472-447f-8740-b97ceb96e39f" d="M852.27,632a2.16,2.16,0,0,1-.63,1.55,2,2,0,0,1-1.51.65,2,2,0,0,1-1.52-.65A2.15,2.15,0,0,1,848,632a2.1,2.1,0,0,1,.62-1.49,2,2,0,0,1,1.52-.65,2,2,0,0,1,1.51.65A2.11,2.11,0,0,1,852.27,632Z"/><path class="eeeb123a-8472-447f-8740-b97ceb96e39f" d="M871,632.14a6.08,6.08,0,0,0,2.55-.54,6.78,6.78,0,0,0,3.51-3.53,6.36,6.36,0,0,0,.54-2.59h2a8.44,8.44,0,0,1-.68,3.36,8.67,8.67,0,0,1-1.85,2.73,8.77,8.77,0,0,1-2.7,1.85,8.23,8.23,0,0,1-3.33.68,8.44,8.44,0,0,1-3.36-.68,8.83,8.83,0,0,1-2.74-1.85,8.64,8.64,0,0,1-1.84-2.73,8.28,8.28,0,0,1-.69-3.36V602a8.28,8.28,0,0,1,.69-3.36,8.64,8.64,0,0,1,1.84-2.73,8.83,8.83,0,0,1,2.74-1.85,8.69,8.69,0,0,1,6.69,0,8.68,8.68,0,0,1,2.7,1.82,8.5,8.5,0,0,1,2.53,6.08h-2a6.08,6.08,0,0,0-.54-2.55,6.83,6.83,0,0,0-3.51-3.51,6.08,6.08,0,0,0-2.55-.54,6.29,6.29,0,0,0-2.59.54,6.62,6.62,0,0,0-2.11,1.43,6.89,6.89,0,0,0-1.43,2.08,6.31,6.31,0,0,0-.53,2.56v23.53a6.49,6.49,0,0,0,.53,2.59,6.78,6.78,0,0,0,1.43,2.11,6.62,6.62,0,0,0,2.11,1.43A6.29,6.29,0,0,0,871,632.14Z"/><path class="eeeb123a-8472-447f-8740-b97ceb96e39f" d="M898.29,634.1a8.44,8.44,0,0,1-3.36-.68,8.65,8.65,0,0,1-4.58-4.58,8.44,8.44,0,0,1-.68-3.36V602a8.44,8.44,0,0,1,.68-3.36,8.65,8.65,0,0,1,4.58-4.58,8.44,8.44,0,0,1,3.36-.68,8.23,8.23,0,0,1,3.33.68,8.93,8.93,0,0,1,2.71,1.85,8.81,8.81,0,0,1,1.84,2.73,8.44,8.44,0,0,1,.68,3.36v23.49a8.44,8.44,0,0,1-.68,3.36,8.81,8.81,0,0,1-1.84,2.73,8.93,8.93,0,0,1-2.71,1.85A8.23,8.23,0,0,1,898.29,634.1Zm0-38.77a6.36,6.36,0,0,0-2.59.54,6.73,6.73,0,0,0-2.11,1.43,7.07,7.07,0,0,0-1.43,2.08,6.31,6.31,0,0,0-.53,2.56v23.53a6.49,6.49,0,0,0,.53,2.59,7,7,0,0,0,1.43,2.11,6.73,6.73,0,0,0,2.11,1.43,6.36,6.36,0,0,0,2.59.54,6.16,6.16,0,0,0,2.56-.54,6.83,6.83,0,0,0,2.08-1.43,7,7,0,0,0,1.43-2.11,6.49,6.49,0,0,0,.53-2.59V601.94a6.31,6.31,0,0,0-.53-2.56,7.07,7.07,0,0,0-1.43-2.08,6.83,6.83,0,0,0-2.08-1.43A6.16,6.16,0,0,0,898.29,595.33Z"/><path class="eeeb123a-8472-447f-8740-b97ceb96e39f" d="M940.81,593.61V633.8h-2V599.2l-9.93,27.29-10-27.29v34.6h-2V593.61h2l9.93,27.11,9.88-27.11Z"/><path class="a03c3316-a81f-44a2-bc12-eb43e5ed55d2" d="M233.26,552.43c.48.24-2.4-16.63-2.4-18.61a73.22,73.22,0,0,1,2.08-17.26c4.89-20.15,17.85-37.32,36.49-48.32a85.93,85.93,0,0,1,41.4-11.85c.35.5.72,1.1,1.09,1.73.09-2.64,0-5.25.1-7.86-.08-.76-.16-1.52-.21-2.25l-.33-.13-1.25-.38c-1.28-.21-2.57-.4-3.87-.53a96.09,96.09,0,0,0-42.47,13c-21,12.39-35.58,31.71-41.09,54.41a82,82,0,0,0-2.35,19.43c0,40.88,29.72,75.78,72.25,84.87a99.06,99.06,0,0,0,19.9,2.18V611.1c-4.14,0-22.61-3.17-22.61-3.17C261.41,600.06,240.15,578.8,233.26,552.43Z"/><path class="a03c3316-a81f-44a2-bc12-eb43e5ed55d2" d="M299.72,526.74l-5.15,3.15a1.42,1.42,0,0,0-.49,1L294,534a3.23,3.23,0,0,0,.23,1.15c.52,1.43,1.24,5.49-5.39,9.55-8.26,5-14.85-7.37-16.19-10.14a1.67,1.67,0,0,0-.8-.75l-10.1-4a1.7,1.7,0,0,0-1.19-.09l-3.09,1.89c-.28.18-.65.42-1,.31l-6.05-2.09a1.46,1.46,0,0,0-1.06.15l-4.11,2.52c-.29.18-.58.84-.41,1.12l.61,1c.17.28.22.25-.06.42l-3.09,1.89a1.87,1.87,0,0,1-1,.36l-6.39-.69a1.94,1.94,0,0,0-1.09.29L228.64,540a.44.44,0,0,0-.07.73l9.11,8.56c.24.23.32.74,0,.92l-2.05,1.25c-.28.18-.37.19,0,.26L241,552.9a4.7,4.7,0,0,1,1.05.31L253.29,559a.66.66,0,0,0,.85-.24l.8-1.25a.64.64,0,0,0-.15-.85L238,544.42c-.26-.19-.36-.68-.08-.85l1-.63a1.55,1.55,0,0,1,1.17.11l18.5,8.41a4.84,4.84,0,0,1,1,.68l5.51,5a2,2,0,0,0,1,.45l13.41.69a1.68,1.68,0,0,0,1-.38l8-7.48a1.91,1.91,0,0,1,1.05-.42l6-.12a.82.82,0,0,0,.74-.59l.58-2.06a1.68,1.68,0,0,1,.69-.83l3.09-1.89a.38.38,0,0,0,0-.68l-1.26-.79a.9.9,0,0,1-.37-.9l2.59-10.31a2.44,2.44,0,0,0,0-1.14l-1.14-3.62a.52.52,0,0,0-.74-.34Zm0,0"/><path class="a03c3316-a81f-44a2-bc12-eb43e5ed55d2" d="M311.68,454.38l-3.34,4.68-15.91,18.42c-5,26.36-13.39-3.77-5,26.36,8.17,29.39,8,6.23,24.27,8.57Z"/><path class="a03c3316-a81f-44a2-bc12-eb43e5ed55d2" d="M311.7,514.46l.82,94.63a4.71,4.71,0,0,1-7.47,3.89c-11.17-8.13-29.21-25.33-13.5-43.38,9.5-10.91,11.88-13.82,11.55-13.64-2.34,1.25-5.15,0-5.06-2.62l.32-9.46a4.53,4.53,0,0,1,.13-1c.69-2.78,4.33-16.68,8.07-18.34,2.35-1.05-.24-3.63-2.94-5.66a4.73,4.73,0,0,1-.77-6.84l.53-.63a4.71,4.71,0,0,1,6.79-.41h0A4.67,4.67,0,0,1,311.7,514.46Z"/><path class="a03c3316-a81f-44a2-bc12-eb43e5ed55d2" d="M257.87,495l6.76,3.4c5,2.53,12.87,2.28,17.33-.55l30.82-19.55a9.11,9.11,0,0,0,1.51-1.16,12.87,12.87,0,0,0,2.1-2.68,3.67,3.67,0,0,0,.45-2.19l-1-11.86c-.43-5.28-11.36-8.19-19.17-5.1l-26.58,10.52a8.77,8.77,0,0,0-4.43,3.35L254.53,488C253.07,490.51,254.37,493.23,257.87,495Z"/><rect class="a03c3316-a81f-44a2-bc12-eb43e5ed55d2" x="308.08" y="446.97" width="9.71" height="173.77"/><path class="a03c3316-a81f-44a2-bc12-eb43e5ed55d2" d="M186.82,575.66l-9,2.42a135.68,135.68,0,0,0,5.15,15.44L191.6,590a127.35,127.35,0,0,1-4.78-14.37Zm0,0"/><path class="a03c3316-a81f-44a2-bc12-eb43e5ed55d2" d="M198.09,603.73l-8.2,4.5A135,135,0,0,0,198.57,622l7.6-5.45a126.59,126.59,0,0,1-8.08-12.82Zm0,0"/><g class="ae281f14-90f3-429b-8587-645b22a91357"><path class="a03c3316-a81f-44a2-bc12-eb43e5ed55d2" d="M220.56,646l6.07-7.11a124.52,124.52,0,0,1-10.9-10.53l-6.89,6.32A133.24,133.24,0,0,0,220.56,646Zm0,0"/><path class="a03c3316-a81f-44a2-bc12-eb43e5ed55d2" d="M216.79,444.12l6.33,6.88a126.79,126.79,0,0,1,11.76-9.56l-5.45-7.6a135.34,135.34,0,0,0-12.64,10.28Zm0,0"/></g><path class="a03c3316-a81f-44a2-bc12-eb43e5ed55d2" d="M203.47,474a127.35,127.35,0,0,1,9.13-12.1l-7.11-6.07a133,133,0,0,0-9.81,13Zm0,0"/><path class="a03c3316-a81f-44a2-bc12-eb43e5ed55d2" d="M187.51,483a136.36,136.36,0,0,0-6.38,15l8.81,3.14a126.83,126.83,0,0,1,5.94-13.94Zm0,0"/><path class="a03c3316-a81f-44a2-bc12-eb43e5ed55d2" d="M193.82,567.53v-6.36l-8-5.3.07-10.2L208,552.1h.53A5.08,5.08,0,0,0,213.6,547v-9.22l-27.12-14.62.37-11.3a10.43,10.43,0,0,0-10.22-10.61,10,10,0,0,0-7.31,3.18A10.84,10.84,0,0,0,166.4,512h0l.38,11.27-26.94,14.53V547a5.09,5.09,0,0,0,5.08,5.06h.52l22-6.37.09,10.24-7.87,5.2v6.36a4.73,4.73,0,0,0,4.73,4.73h24.74a4.73,4.73,0,0,0,4.73-4.73Zm-26.49-2.63h0l7.56-5L174.68,536l-27.48,8V542.2l27.08-14.6-.52-15.72a3.44,3.44,0,0,1,.91-2.37,2.7,2.7,0,0,1,2-.87,3,3,0,0,1,2.87,3.12L179,527.5l27.26,14.7v1.72l-27.67-8-.17,23.92,7.7,5.08Zm0,0"/></svg>